G04 #@! TF.FileFunction,Copper,L1,Top,Signal*
%FSLAX46Y46*%
G04 Gerber Fmt 4.6, Leading zero omitted, Abs format (unit mm)*
G04 Created by KiCad (PCBNEW 4.0.7-e2-6376~58~ubuntu16.04.1) date Mon Aug 27 15:24:17 2018*
%MOMM*%
%LPD*%
G01*
G04 APERTURE LIST*
%ADD10C,0.100000*%
%ADD11R,1.750000X0.450000*%
%ADD12C,1.500000*%
%ADD13R,3.750000X2.700000*%
%ADD14R,1.727200X1.727200*%
%ADD15O,1.727200X1.727200*%
%ADD16R,1.700000X1.700000*%
%ADD17O,1.700000X1.700000*%
%ADD18R,0.250000X1.000000*%
%ADD19R,1.000000X0.250000*%
%ADD20R,1.430000X2.850000*%
%ADD21R,1.500000X1.250000*%
%ADD22C,1.000000*%
%ADD23R,1.600000X2.000000*%
%ADD24R,1.500000X1.300000*%
%ADD25C,1.520000*%
%ADD26C,2.700000*%
%ADD27R,0.650000X1.060000*%
%ADD28R,7.875000X2.000000*%
%ADD29R,1.250000X1.500000*%
%ADD30R,1.300000X1.500000*%
%ADD31R,0.500000X1.200000*%
%ADD32R,1.550000X0.600000*%
%ADD33C,2.300000*%
%ADD34R,0.300000X1.550000*%
%ADD35R,1.550000X0.300000*%
%ADD36R,2.000000X2.500000*%
%ADD37R,2.500000X2.300000*%
%ADD38R,0.600000X1.550000*%
%ADD39R,1.175000X1.175000*%
%ADD40R,5.400040X2.900680*%
%ADD41R,1.500000X2.400000*%
%ADD42R,1.500000X1.050000*%
%ADD43R,3.500000X3.500000*%
%ADD44C,3.500000*%
%ADD45R,3.800000X2.000000*%
%ADD46R,1.500000X2.000000*%
%ADD47R,2.598420X1.198880*%
%ADD48R,2.600960X1.198880*%
%ADD49R,1.450000X0.450000*%
%ADD50R,0.250000X0.700000*%
%ADD51R,0.700000X0.250000*%
%ADD52R,1.725000X1.725000*%
%ADD53R,1.198880X2.598420*%
%ADD54R,1.198880X2.600960*%
%ADD55C,0.600000*%
%ADD56C,1.200000*%
%ADD57C,0.250000*%
%ADD58C,0.500000*%
%ADD59C,1.000000*%
%ADD60C,2.000000*%
%ADD61C,0.254000*%
G04 APERTURE END LIST*
D10*
D11*
X173140000Y-126678000D03*
X173140000Y-127328000D03*
X173140000Y-127978000D03*
X173140000Y-128628000D03*
X173140000Y-129278000D03*
X173140000Y-129928000D03*
X173140000Y-130578000D03*
X173140000Y-131228000D03*
X173140000Y-131878000D03*
X173140000Y-132528000D03*
X173140000Y-133178000D03*
X173140000Y-133828000D03*
X173140000Y-134478000D03*
X173140000Y-135128000D03*
X180340000Y-135128000D03*
X180340000Y-134478000D03*
X180340000Y-133828000D03*
X180340000Y-133178000D03*
X180340000Y-132528000D03*
X180340000Y-131878000D03*
X180340000Y-131228000D03*
X180340000Y-130578000D03*
X180340000Y-129928000D03*
X180340000Y-129278000D03*
X180340000Y-128628000D03*
X180340000Y-127978000D03*
X180340000Y-127328000D03*
X180340000Y-126678000D03*
D12*
X94361000Y-97663000D03*
D13*
X98552000Y-124460000D03*
X106102000Y-124460000D03*
D14*
X204216000Y-60452000D03*
D15*
X204216000Y-57912000D03*
X206756000Y-60452000D03*
X206756000Y-57912000D03*
X209296000Y-60452000D03*
X209296000Y-57912000D03*
X211836000Y-60452000D03*
X211836000Y-57912000D03*
X214376000Y-60452000D03*
X214376000Y-57912000D03*
X216916000Y-60452000D03*
X216916000Y-57912000D03*
X219456000Y-60452000D03*
X219456000Y-57912000D03*
X221996000Y-60452000D03*
X221996000Y-57912000D03*
X224536000Y-60452000D03*
X224536000Y-57912000D03*
X227076000Y-60452000D03*
X227076000Y-57912000D03*
D14*
X189484000Y-69596000D03*
D15*
X192024000Y-69596000D03*
X189484000Y-72136000D03*
X192024000Y-72136000D03*
X189484000Y-74676000D03*
X192024000Y-74676000D03*
X189484000Y-77216000D03*
X192024000Y-77216000D03*
X189484000Y-79756000D03*
X192024000Y-79756000D03*
X189484000Y-82296000D03*
X192024000Y-82296000D03*
X189484000Y-84836000D03*
X192024000Y-84836000D03*
X189484000Y-87376000D03*
X192024000Y-87376000D03*
D16*
X166116000Y-94996000D03*
D17*
X166116000Y-97536000D03*
X166116000Y-100076000D03*
D18*
X148142000Y-105776000D03*
X148642000Y-105776000D03*
X149142000Y-105776000D03*
X149642000Y-105776000D03*
X150142000Y-105776000D03*
X150642000Y-105776000D03*
X151142000Y-105776000D03*
X151642000Y-105776000D03*
X152142000Y-105776000D03*
X152642000Y-105776000D03*
X153142000Y-105776000D03*
X153642000Y-105776000D03*
X154142000Y-105776000D03*
X154642000Y-105776000D03*
X155142000Y-105776000D03*
X155642000Y-105776000D03*
D19*
X157592000Y-103826000D03*
X157592000Y-103326000D03*
X157592000Y-102826000D03*
X157592000Y-102326000D03*
X157592000Y-101826000D03*
X157592000Y-101326000D03*
X157592000Y-100826000D03*
X157592000Y-100326000D03*
X157592000Y-99826000D03*
X157592000Y-99326000D03*
X157592000Y-98826000D03*
X157592000Y-98326000D03*
X157592000Y-97826000D03*
X157592000Y-97326000D03*
X157592000Y-96826000D03*
X157592000Y-96326000D03*
D18*
X155642000Y-94376000D03*
X155142000Y-94376000D03*
X154642000Y-94376000D03*
X154142000Y-94376000D03*
X153642000Y-94376000D03*
X153142000Y-94376000D03*
X152642000Y-94376000D03*
X152142000Y-94376000D03*
X151642000Y-94376000D03*
X151142000Y-94376000D03*
X150642000Y-94376000D03*
X150142000Y-94376000D03*
X149642000Y-94376000D03*
X149142000Y-94376000D03*
X148642000Y-94376000D03*
X148142000Y-94376000D03*
D19*
X146192000Y-96326000D03*
X146192000Y-96826000D03*
X146192000Y-97326000D03*
X146192000Y-97826000D03*
X146192000Y-98326000D03*
X146192000Y-98826000D03*
X146192000Y-99326000D03*
X146192000Y-99826000D03*
X146192000Y-100326000D03*
X146192000Y-100826000D03*
X146192000Y-101326000D03*
X146192000Y-101826000D03*
X146192000Y-102326000D03*
X146192000Y-102826000D03*
X146192000Y-103326000D03*
X146192000Y-103826000D03*
D16*
X175260000Y-94996000D03*
D17*
X175260000Y-97536000D03*
X175260000Y-100076000D03*
D20*
X136927000Y-106637000D03*
X131297000Y-106637000D03*
X131297000Y-110787000D03*
X136927000Y-110787000D03*
D21*
X135870000Y-113792000D03*
X133370000Y-113792000D03*
X137160000Y-102616000D03*
X134660000Y-102616000D03*
D16*
X130048000Y-100584000D03*
D17*
X130048000Y-98044000D03*
X130048000Y-95504000D03*
X130048000Y-92964000D03*
D22*
X134112000Y-107696000D03*
X134112000Y-109196000D03*
D23*
X173355000Y-88552000D03*
X173355000Y-83152000D03*
D21*
X170775000Y-90424000D03*
X168275000Y-90424000D03*
X150094000Y-122428000D03*
X147594000Y-122428000D03*
D14*
X127762000Y-86360000D03*
D15*
X127762000Y-83820000D03*
X130302000Y-86360000D03*
X130302000Y-83820000D03*
X132842000Y-86360000D03*
X132842000Y-83820000D03*
X135382000Y-86360000D03*
X135382000Y-83820000D03*
X137922000Y-86360000D03*
X137922000Y-83820000D03*
X140462000Y-86360000D03*
X140462000Y-83820000D03*
X143002000Y-86360000D03*
X143002000Y-83820000D03*
X145542000Y-86360000D03*
X145542000Y-83820000D03*
X148082000Y-86360000D03*
X148082000Y-83820000D03*
X150622000Y-86360000D03*
X150622000Y-83820000D03*
D24*
X129540000Y-136144000D03*
X132240000Y-136144000D03*
D25*
X136652000Y-142272000D03*
X139192000Y-142272000D03*
X139192000Y-144272000D03*
X136652000Y-144272000D03*
D26*
X131922000Y-146972000D03*
X143922000Y-146972000D03*
D24*
X135636000Y-136144000D03*
X138336000Y-136144000D03*
D27*
X133030000Y-129456000D03*
X132080000Y-129456000D03*
X131130000Y-129456000D03*
X131130000Y-131656000D03*
X133030000Y-131656000D03*
X132080000Y-131656000D03*
D28*
X146304000Y-115824000D03*
X158179000Y-115824000D03*
D29*
X159893000Y-119888000D03*
X159893000Y-122388000D03*
D16*
X142240000Y-128524000D03*
D17*
X144780000Y-128524000D03*
X147320000Y-128524000D03*
X149860000Y-128524000D03*
X152400000Y-128524000D03*
X154940000Y-128524000D03*
X157480000Y-128524000D03*
D16*
X165608000Y-74676000D03*
D17*
X168148000Y-74676000D03*
X170688000Y-74676000D03*
D30*
X152908000Y-148002000D03*
X152908000Y-150702000D03*
X175768000Y-144780000D03*
X175768000Y-142080000D03*
D12*
X149860000Y-117856000D03*
X154740000Y-117856000D03*
D14*
X245364000Y-117348000D03*
D15*
X247904000Y-117348000D03*
X245364000Y-119888000D03*
X247904000Y-119888000D03*
X245364000Y-122428000D03*
X247904000Y-122428000D03*
X245364000Y-124968000D03*
X247904000Y-124968000D03*
X245364000Y-127508000D03*
X247904000Y-127508000D03*
X245364000Y-130048000D03*
X247904000Y-130048000D03*
X245364000Y-132588000D03*
X247904000Y-132588000D03*
D31*
X209996000Y-148609002D03*
X210796000Y-148609002D03*
X211596000Y-148609002D03*
X212396000Y-148609002D03*
X213196000Y-148609002D03*
X213996000Y-148609002D03*
X214796000Y-148609002D03*
X215596000Y-148609002D03*
X216396000Y-148609002D03*
X217196000Y-148609002D03*
X217996000Y-148609002D03*
X218796000Y-148609002D03*
X220396000Y-148609002D03*
X219596000Y-148609002D03*
X221196000Y-148609002D03*
X221996000Y-148609002D03*
X222796000Y-148609002D03*
X223596000Y-148609002D03*
X224396000Y-148609002D03*
X225196000Y-148609002D03*
X225996000Y-148609002D03*
X226796000Y-148609002D03*
X226796000Y-137309002D03*
X225996000Y-137309002D03*
X225196000Y-137309002D03*
X224396000Y-137309002D03*
X223596000Y-137309002D03*
X222796000Y-137309002D03*
X221996000Y-137309002D03*
X221196000Y-137309002D03*
X219596000Y-137309002D03*
X220396000Y-137309002D03*
X218796000Y-137309002D03*
X217996000Y-137309002D03*
X217196000Y-137309002D03*
X216396000Y-137309002D03*
X215596000Y-137309002D03*
X214796000Y-137309002D03*
X213996000Y-137309002D03*
X213196000Y-137309002D03*
X212396000Y-137309002D03*
X211596000Y-137309002D03*
X210796000Y-137309002D03*
X209996000Y-137309002D03*
D29*
X170942000Y-120737000D03*
X170942000Y-118237000D03*
D30*
X167640000Y-128364000D03*
X167640000Y-131064000D03*
D24*
X170782000Y-114427000D03*
X173482000Y-114427000D03*
D29*
X173482000Y-118277000D03*
X173482000Y-120777000D03*
D30*
X164084000Y-128364000D03*
X164084000Y-131064000D03*
X179832000Y-142080000D03*
X179832000Y-144780000D03*
X179832000Y-150876000D03*
X179832000Y-148176000D03*
D25*
X163418000Y-142112000D03*
X165958000Y-142112000D03*
X165958000Y-144112000D03*
X163418000Y-144112000D03*
D26*
X158688000Y-146812000D03*
X170688000Y-146812000D03*
D30*
X149352000Y-150876000D03*
X149352000Y-148176000D03*
X175768000Y-150876000D03*
X175768000Y-148176000D03*
X198628000Y-117000000D03*
X198628000Y-114300000D03*
X188214000Y-116840000D03*
X188214000Y-114140000D03*
X195072000Y-114140000D03*
X195072000Y-116840000D03*
D32*
X183802000Y-117602000D03*
X183802000Y-116332000D03*
X183802000Y-115062000D03*
X183802000Y-113792000D03*
X178402000Y-113792000D03*
X178402000Y-115062000D03*
X178402000Y-116332000D03*
X178402000Y-117602000D03*
D30*
X185928000Y-129921000D03*
X185928000Y-127221000D03*
X188976000Y-129921000D03*
X188976000Y-127221000D03*
X192532000Y-129921000D03*
X192532000Y-127221000D03*
D24*
X186516000Y-122809000D03*
X183816000Y-122809000D03*
X194230000Y-121920000D03*
X196930000Y-121920000D03*
D29*
X207264000Y-126619000D03*
X207264000Y-129119000D03*
D30*
X191897000Y-142461000D03*
X191897000Y-145161000D03*
D29*
X188976000Y-135723000D03*
X188976000Y-133223000D03*
D30*
X192024000Y-150876000D03*
X192024000Y-148176000D03*
X185928000Y-135763000D03*
X185928000Y-133063000D03*
D29*
X151892000Y-72243000D03*
X151892000Y-69743000D03*
X142748000Y-72009000D03*
X142748000Y-69509000D03*
D30*
X159512000Y-67056000D03*
X159512000Y-64356000D03*
D16*
X139700000Y-59436000D03*
D17*
X139700000Y-61976000D03*
D29*
X154432000Y-64556000D03*
X154432000Y-67056000D03*
D33*
X154940000Y-53975000D03*
X159940000Y-58975000D03*
X149940000Y-58975000D03*
D30*
X149352000Y-67056000D03*
X149352000Y-64356000D03*
D33*
X177800000Y-53975000D03*
X182800000Y-58975000D03*
X172800000Y-58975000D03*
D21*
X160401000Y-70866000D03*
X157901000Y-70866000D03*
D23*
X172466000Y-68675000D03*
X172466000Y-64675000D03*
X180086000Y-68802000D03*
X180086000Y-64802000D03*
D12*
X195326000Y-109220000D03*
D30*
X181356000Y-97376000D03*
X181356000Y-100076000D03*
X171196000Y-97376000D03*
X171196000Y-100076000D03*
D24*
X118030000Y-69215000D03*
X120730000Y-69215000D03*
D21*
X128250000Y-64135000D03*
X125750000Y-64135000D03*
X120670000Y-64135000D03*
X123170000Y-64135000D03*
X118257000Y-73152000D03*
X120757000Y-73152000D03*
X127167000Y-73152000D03*
X129667000Y-73152000D03*
D33*
X124380000Y-54055000D03*
X129380000Y-59055000D03*
X119380000Y-59055000D03*
D24*
X126840000Y-69215000D03*
X129540000Y-69215000D03*
D12*
X192405000Y-115189000D03*
X189865000Y-106680000D03*
D24*
X173355000Y-105537000D03*
X176055000Y-105537000D03*
D30*
X189103000Y-98933000D03*
X189103000Y-96233000D03*
D24*
X217598000Y-81788000D03*
X220298000Y-81788000D03*
D30*
X195580000Y-57578000D03*
X195580000Y-60278000D03*
X192024000Y-57578000D03*
X192024000Y-60278000D03*
D24*
X226822000Y-68580000D03*
X229522000Y-68580000D03*
D32*
X225392000Y-73279000D03*
X225392000Y-74549000D03*
X225392000Y-75819000D03*
X225392000Y-77089000D03*
X230792000Y-77089000D03*
X230792000Y-75819000D03*
X230792000Y-74549000D03*
X230792000Y-73279000D03*
D29*
X242824000Y-108204000D03*
X242824000Y-105704000D03*
D14*
X244856000Y-78740000D03*
D15*
X247396000Y-78740000D03*
X244856000Y-81280000D03*
X247396000Y-81280000D03*
X244856000Y-83820000D03*
X247396000Y-83820000D03*
X244856000Y-86360000D03*
X247396000Y-86360000D03*
X244856000Y-88900000D03*
X247396000Y-88900000D03*
X244856000Y-91440000D03*
X247396000Y-91440000D03*
X244856000Y-93980000D03*
X247396000Y-93980000D03*
X244856000Y-96520000D03*
X247396000Y-96520000D03*
D34*
X225876000Y-94996000D03*
X225376000Y-94996000D03*
X224876000Y-94996000D03*
X224376000Y-94996000D03*
X223876000Y-94996000D03*
X223376000Y-94996000D03*
X222876000Y-94996000D03*
X222376000Y-94996000D03*
X221876000Y-94996000D03*
X221376000Y-94996000D03*
X220876000Y-94996000D03*
X220376000Y-94996000D03*
X219876000Y-94996000D03*
X219376000Y-94996000D03*
X218876000Y-94996000D03*
X218376000Y-94996000D03*
X217876000Y-94996000D03*
X217376000Y-94996000D03*
X216876000Y-94996000D03*
X216376000Y-94996000D03*
X215876000Y-94996000D03*
X215376000Y-94996000D03*
X214876000Y-94996000D03*
X214376000Y-94996000D03*
X213876000Y-94996000D03*
X213376000Y-94996000D03*
X212876000Y-94996000D03*
X212376000Y-94996000D03*
X211876000Y-94996000D03*
X211376000Y-94996000D03*
X210876000Y-94996000D03*
X210376000Y-94996000D03*
X209876000Y-94996000D03*
X209376000Y-94996000D03*
X208876000Y-94996000D03*
X208376000Y-94996000D03*
D35*
X206426000Y-96946000D03*
X206426000Y-97446000D03*
X206426000Y-97946000D03*
X206426000Y-98446000D03*
X206426000Y-98946000D03*
X206426000Y-99446000D03*
X206426000Y-99946000D03*
X206426000Y-100446000D03*
X206426000Y-100946000D03*
X206426000Y-101446000D03*
X206426000Y-101946000D03*
X206426000Y-102446000D03*
X206426000Y-102946000D03*
X206426000Y-103446000D03*
X206426000Y-103946000D03*
X206426000Y-104446000D03*
X206426000Y-104946000D03*
X206426000Y-105446000D03*
X206426000Y-105946000D03*
X206426000Y-106446000D03*
X206426000Y-106946000D03*
X206426000Y-107446000D03*
X206426000Y-107946000D03*
X206426000Y-108446000D03*
X206426000Y-108946000D03*
X206426000Y-109446000D03*
X206426000Y-109946000D03*
X206426000Y-110446000D03*
X206426000Y-110946000D03*
X206426000Y-111446000D03*
X206426000Y-111946000D03*
X206426000Y-112446000D03*
X206426000Y-112946000D03*
X206426000Y-113446000D03*
X206426000Y-113946000D03*
X206426000Y-114446000D03*
D34*
X208376000Y-116396000D03*
X208876000Y-116396000D03*
X209376000Y-116396000D03*
X209876000Y-116396000D03*
X210376000Y-116396000D03*
X210876000Y-116396000D03*
X211376000Y-116396000D03*
X211876000Y-116396000D03*
X212376000Y-116396000D03*
X212876000Y-116396000D03*
X213376000Y-116396000D03*
X213876000Y-116396000D03*
X214376000Y-116396000D03*
X214876000Y-116396000D03*
X215376000Y-116396000D03*
X215876000Y-116396000D03*
X216376000Y-116396000D03*
X216876000Y-116396000D03*
X217376000Y-116396000D03*
X217876000Y-116396000D03*
X218376000Y-116396000D03*
X218876000Y-116396000D03*
X219376000Y-116396000D03*
X219876000Y-116396000D03*
X220376000Y-116396000D03*
X220876000Y-116396000D03*
X221376000Y-116396000D03*
X221876000Y-116396000D03*
X222376000Y-116396000D03*
X222876000Y-116396000D03*
X223376000Y-116396000D03*
X223876000Y-116396000D03*
X224376000Y-116396000D03*
X224876000Y-116396000D03*
X225376000Y-116396000D03*
X225876000Y-116396000D03*
D35*
X227826000Y-114446000D03*
X227826000Y-113946000D03*
X227826000Y-113446000D03*
X227826000Y-112946000D03*
X227826000Y-112446000D03*
X227826000Y-111946000D03*
X227826000Y-111446000D03*
X227826000Y-110946000D03*
X227826000Y-110446000D03*
X227826000Y-109946000D03*
X227826000Y-109446000D03*
X227826000Y-108946000D03*
X227826000Y-108446000D03*
X227826000Y-107946000D03*
X227826000Y-107446000D03*
X227826000Y-106946000D03*
X227826000Y-106446000D03*
X227826000Y-105946000D03*
X227826000Y-105446000D03*
X227826000Y-104946000D03*
X227826000Y-104446000D03*
X227826000Y-103946000D03*
X227826000Y-103446000D03*
X227826000Y-102946000D03*
X227826000Y-102446000D03*
X227826000Y-101946000D03*
X227826000Y-101446000D03*
X227826000Y-100946000D03*
X227826000Y-100446000D03*
X227826000Y-99946000D03*
X227826000Y-99446000D03*
X227826000Y-98946000D03*
X227826000Y-98446000D03*
X227826000Y-97946000D03*
X227826000Y-97446000D03*
X227826000Y-96946000D03*
D24*
X247880998Y-66973001D03*
X245180998Y-66973001D03*
D29*
X233172000Y-70064000D03*
X233172000Y-67564000D03*
X235712000Y-70064000D03*
X235712000Y-67564000D03*
D24*
X248064000Y-70104000D03*
X245364000Y-70104000D03*
X236380000Y-75692000D03*
X233680000Y-75692000D03*
D21*
X104287000Y-145415000D03*
X106787000Y-145415000D03*
D36*
X95536000Y-131445000D03*
X99536000Y-131445000D03*
D30*
X108712000Y-133430000D03*
X108712000Y-130730000D03*
D37*
X91322000Y-146812000D03*
X95622000Y-146812000D03*
D16*
X100457000Y-146685000D03*
X114808000Y-134620000D03*
D30*
X106172000Y-130730000D03*
X106172000Y-133430000D03*
D38*
X99234500Y-141812500D03*
X100504500Y-141812500D03*
X101774500Y-141812500D03*
X103044500Y-141812500D03*
X103044500Y-136412500D03*
X101774500Y-136412500D03*
X100504500Y-136412500D03*
X99234500Y-136412500D03*
D39*
X101727000Y-138525000D03*
X100552000Y-138525000D03*
X101727000Y-139700000D03*
X100552000Y-139700000D03*
D30*
X86360000Y-150702000D03*
X86360000Y-148002000D03*
X81280000Y-150876000D03*
X81280000Y-148176000D03*
D40*
X85852000Y-141224000D03*
X85852000Y-131323080D03*
D41*
X68580000Y-133261000D03*
D42*
X68580000Y-135636000D03*
D43*
X69215000Y-143225000D03*
X69215000Y-149225000D03*
X73915000Y-146225000D03*
D44*
X57404000Y-134620000D03*
X57404000Y-129540000D03*
X57404000Y-124460000D03*
X57404000Y-119380000D03*
D21*
X104287000Y-149225000D03*
X106787000Y-149225000D03*
D30*
X121920000Y-148002000D03*
X121920000Y-150702000D03*
X118872000Y-150876000D03*
X118872000Y-148176000D03*
X109347000Y-145970000D03*
X109347000Y-148670000D03*
D21*
X84054000Y-121539000D03*
X81554000Y-121539000D03*
D24*
X84234000Y-115824000D03*
X81534000Y-115824000D03*
D21*
X84054000Y-118872000D03*
X81554000Y-118872000D03*
X70826000Y-116205000D03*
X68326000Y-116205000D03*
D45*
X83804240Y-105460000D03*
D46*
X83804240Y-111760000D03*
X86104240Y-111760000D03*
X81504240Y-111760000D03*
D45*
X55880000Y-95885000D03*
D46*
X55880000Y-89585000D03*
X53580000Y-89585000D03*
X58180000Y-89585000D03*
D16*
X54610000Y-106045000D03*
D17*
X54610000Y-108585000D03*
D45*
X70866000Y-105435000D03*
D46*
X70866000Y-111735000D03*
X73166000Y-111735000D03*
X68566000Y-111735000D03*
D21*
X97770000Y-116332000D03*
X95270000Y-116332000D03*
D47*
X110236000Y-111760000D03*
D48*
X105633520Y-111760000D03*
D24*
X107729000Y-106045000D03*
X105029000Y-106045000D03*
D45*
X97536000Y-105460000D03*
D46*
X97536000Y-111760000D03*
X99836000Y-111760000D03*
X95236000Y-111760000D03*
D49*
X113890000Y-97110000D03*
X113890000Y-97760000D03*
X113890000Y-98410000D03*
X113890000Y-99060000D03*
X113890000Y-99710000D03*
X113890000Y-100360000D03*
X113890000Y-101010000D03*
X119790000Y-101010000D03*
X119790000Y-100360000D03*
X119790000Y-99710000D03*
X119790000Y-99060000D03*
X119790000Y-98410000D03*
X119790000Y-97760000D03*
X119790000Y-97110000D03*
D29*
X107188000Y-92857000D03*
X107188000Y-95357000D03*
X104013000Y-92857000D03*
X104013000Y-95357000D03*
D21*
X107168000Y-98552000D03*
X104668000Y-98552000D03*
X107168000Y-102362000D03*
X104668000Y-102362000D03*
D12*
X113357000Y-92202000D03*
X118237000Y-92202000D03*
D24*
X89417639Y-87796615D03*
X86717639Y-87796615D03*
X89417639Y-83986615D03*
X86717639Y-83986615D03*
X89497639Y-80176615D03*
X86797639Y-80176615D03*
D12*
X94615000Y-83820000D03*
X94615000Y-80010000D03*
D21*
X79014000Y-74930000D03*
X81514000Y-74930000D03*
D29*
X65278000Y-79375000D03*
X65278000Y-81875000D03*
D50*
X75225000Y-83525000D03*
X75725000Y-83525000D03*
X76225000Y-83525000D03*
X76725000Y-83525000D03*
X77225000Y-83525000D03*
X77725000Y-83525000D03*
X78225000Y-83525000D03*
X78725000Y-83525000D03*
D51*
X79375000Y-82875000D03*
X79375000Y-82375000D03*
X79375000Y-81875000D03*
X79375000Y-81375000D03*
X79375000Y-80875000D03*
X79375000Y-80375000D03*
X79375000Y-79875000D03*
X79375000Y-79375000D03*
D50*
X78725000Y-78725000D03*
X78225000Y-78725000D03*
X77725000Y-78725000D03*
X77225000Y-78725000D03*
X76725000Y-78725000D03*
X76225000Y-78725000D03*
X75725000Y-78725000D03*
X75225000Y-78725000D03*
D51*
X74575000Y-79375000D03*
X74575000Y-79875000D03*
X74575000Y-80375000D03*
X74575000Y-80875000D03*
X74575000Y-81375000D03*
X74575000Y-81875000D03*
X74575000Y-82375000D03*
X74575000Y-82875000D03*
D52*
X77837500Y-80262500D03*
X76112500Y-80262500D03*
X77837500Y-81987500D03*
X76112500Y-81987500D03*
D12*
X82169000Y-94742000D03*
D24*
X89497639Y-72556615D03*
X86797639Y-72556615D03*
X89417639Y-76366615D03*
X86717639Y-76366615D03*
D12*
X94615000Y-72390000D03*
X94615000Y-76200000D03*
D30*
X69215000Y-88425000D03*
X69215000Y-85725000D03*
X72390000Y-92790000D03*
X72390000Y-90090000D03*
D12*
X72390000Y-95250000D03*
D29*
X57785000Y-79395000D03*
X57785000Y-81895000D03*
D30*
X64135000Y-88425000D03*
X64135000Y-85725000D03*
D53*
X53975000Y-79375000D03*
D54*
X53975000Y-83977480D03*
D29*
X61595000Y-79395000D03*
X61595000Y-81895000D03*
D33*
X78740000Y-53975000D03*
X83740000Y-58975000D03*
X73740000Y-58975000D03*
D29*
X83820000Y-67925000D03*
X83820000Y-65425000D03*
X106680000Y-67925000D03*
X106680000Y-65425000D03*
X73660000Y-67925000D03*
X73660000Y-65425000D03*
X96520000Y-67925000D03*
X96520000Y-65425000D03*
D33*
X101600000Y-53975000D03*
X106600000Y-58975000D03*
X96600000Y-58975000D03*
D12*
X94615000Y-87630000D03*
D24*
X89878639Y-97829615D03*
X87178639Y-97829615D03*
D12*
X94615000Y-93726000D03*
D24*
X89568000Y-92329000D03*
X86868000Y-92329000D03*
X113712000Y-103378000D03*
X116412000Y-103378000D03*
X126318000Y-101092000D03*
X123618000Y-101092000D03*
D55*
X76112500Y-81987500D03*
X77837500Y-81987500D03*
X77837500Y-80262500D03*
X76112500Y-80262500D03*
X140948771Y-103096502D03*
X102108000Y-92837000D03*
X110236000Y-110490000D03*
X223774000Y-112903000D03*
X225933000Y-113792002D03*
X66548000Y-111887000D03*
X102870000Y-100584000D03*
X206248000Y-130302000D03*
X178816000Y-133223000D03*
X182499000Y-131064000D03*
X178435000Y-128651000D03*
X214757000Y-81026000D03*
X219583000Y-78994000D03*
X80264000Y-116078000D03*
X80264000Y-118999000D03*
X195834000Y-117983000D03*
X81407000Y-123063000D03*
X104013000Y-129540000D03*
X111760000Y-129540000D03*
X110490000Y-129540000D03*
X105410000Y-128270000D03*
X107950000Y-128270000D03*
X107950000Y-127000000D03*
X111760000Y-127000000D03*
X110490000Y-127000000D03*
X109220000Y-127000000D03*
X109220000Y-128270000D03*
X110490000Y-128270000D03*
X111760000Y-128270000D03*
X113157000Y-128270000D03*
X114046000Y-129540000D03*
X114046000Y-128270000D03*
X113988010Y-126422990D03*
X58547000Y-88011000D03*
X62738000Y-89027000D03*
X153924000Y-147955000D03*
X167021000Y-90170000D03*
X171958000Y-82169000D03*
X123190000Y-147701000D03*
X129921000Y-130048000D03*
X139954000Y-137033000D03*
X171704000Y-130556000D03*
X165989000Y-131064000D03*
X165862000Y-146431000D03*
X189992000Y-132461000D03*
X182245000Y-127889000D03*
X162814000Y-91567000D03*
X163068000Y-87376000D03*
X142494000Y-104648000D03*
X147447000Y-103251000D03*
X97663000Y-146399000D03*
X101854000Y-142875000D03*
X108077000Y-148670000D03*
X86487000Y-146558000D03*
X141478000Y-92964000D03*
X153616330Y-107451999D03*
X148393989Y-122428000D03*
X158333000Y-122301000D03*
X148717000Y-95885000D03*
X156210000Y-96774000D03*
X161925000Y-98552000D03*
X149820000Y-91059000D03*
X161798000Y-104325999D03*
X185293000Y-113792000D03*
X174625000Y-120396000D03*
X169799000Y-118110000D03*
X193548000Y-150689979D03*
X218821000Y-147320000D03*
X210058000Y-118618000D03*
X217297000Y-114173000D03*
X217419417Y-87540999D03*
X214249000Y-85979000D03*
X133096000Y-103124000D03*
X131953000Y-112776000D03*
X93599000Y-116078000D03*
X103251000Y-98552000D03*
X102870000Y-95885000D03*
X118364000Y-99695000D03*
X108049559Y-96547441D03*
X111058942Y-99634058D03*
X57971564Y-83252436D03*
X154559000Y-68453000D03*
X157353000Y-73279000D03*
X72009000Y-81026000D03*
X70612000Y-76708000D03*
X81407000Y-76073000D03*
X79883000Y-77724000D03*
X123190000Y-65658996D03*
X125730000Y-65659000D03*
X80518000Y-81500010D03*
X65278000Y-83439000D03*
X61595000Y-83439000D03*
X81915000Y-88421615D03*
X79375000Y-84455000D03*
X219837000Y-96647000D03*
X226822000Y-77216000D03*
X237363000Y-67818000D03*
X243586000Y-69977000D03*
X203327000Y-113157000D03*
X204978000Y-110744000D03*
X208788000Y-112522000D03*
X226441000Y-103886000D03*
X226568000Y-100965000D03*
X226441000Y-97028000D03*
X224790000Y-96266000D03*
X212979000Y-107188000D03*
X204597000Y-101854000D03*
X204851000Y-102997000D03*
X213868000Y-96774000D03*
X218059000Y-135890000D03*
X209921010Y-121539000D03*
X218431859Y-142781857D03*
X220853000Y-127889000D03*
X198464575Y-111156324D03*
X193421000Y-105410000D03*
X244094000Y-105664000D03*
X215900000Y-129159000D03*
X67056000Y-116205000D03*
X205359000Y-88519000D03*
X202819000Y-88646000D03*
X212598000Y-87503000D03*
X214630000Y-87503000D03*
X237109000Y-99949000D03*
X220091000Y-123952000D03*
X217678000Y-123952000D03*
X191008000Y-102489000D03*
X197104000Y-102489000D03*
X210947000Y-88900000D03*
X215265000Y-123824996D03*
X222250000Y-122555000D03*
X234188000Y-95250000D03*
X235712000Y-104648000D03*
X235712000Y-108204000D03*
X225552000Y-88900000D03*
X200192000Y-98084000D03*
X148971000Y-104394000D03*
X156845000Y-84074000D03*
X151130000Y-103235010D03*
X155067000Y-107442000D03*
X150114000Y-107061000D03*
X196088000Y-105156000D03*
X208661000Y-108458000D03*
X217292493Y-80518000D03*
X171450000Y-105537000D03*
X232791000Y-104394000D03*
X232029000Y-73152000D03*
X193040006Y-100076000D03*
X181102000Y-141605000D03*
X176149000Y-145923000D03*
X146878051Y-105603051D03*
X165862000Y-128364000D03*
X161798000Y-102869990D03*
X145229918Y-103642000D03*
X145034000Y-105029000D03*
X127762000Y-89348999D03*
X195800261Y-119507000D03*
X159258000Y-96139000D03*
X161798000Y-96012000D03*
X70485000Y-100965000D03*
X74422000Y-104902000D03*
X147320000Y-91059000D03*
X172482000Y-117277000D03*
X189865000Y-115316000D03*
X169418000Y-115316000D03*
X163957000Y-115316000D03*
X217678000Y-92329000D03*
X216916000Y-86614000D03*
X105029000Y-107188000D03*
X104394000Y-116840000D03*
X69215000Y-90170000D03*
X78740000Y-85471000D03*
X204343000Y-113157000D03*
X232790990Y-103378011D03*
X229616000Y-101219000D03*
X209679551Y-117731551D03*
X235975990Y-107061009D03*
X230124000Y-106289010D03*
X223452021Y-117983000D03*
X210643978Y-92938487D03*
X204216000Y-110071010D03*
X217932000Y-147193000D03*
X202565000Y-105156000D03*
X221742000Y-126545011D03*
X218440000Y-126545011D03*
X215646000Y-126545011D03*
X217001000Y-117856000D03*
X224790000Y-126545011D03*
X218821000Y-134747000D03*
X206121000Y-126545011D03*
X72009000Y-102489000D03*
X208407000Y-93472000D03*
X216376000Y-96742000D03*
X207264000Y-125095000D03*
X214884000Y-117856000D03*
X241300000Y-108204000D03*
X230124000Y-108204010D03*
X220980000Y-87376000D03*
X224536000Y-92964000D03*
X202692000Y-101092000D03*
X204216000Y-99568000D03*
X150495000Y-107823000D03*
X159766000Y-93217996D03*
X95123000Y-129667000D03*
X70739000Y-132969000D03*
X192151000Y-131191000D03*
X107315000Y-132080000D03*
X97917000Y-126365000D03*
X106172000Y-132080000D03*
X94996000Y-124968000D03*
X53467000Y-91567000D03*
X126492000Y-103124000D03*
X216451021Y-92837000D03*
X220914647Y-119060647D03*
X230251000Y-104521000D03*
X212344000Y-92455994D03*
X86360000Y-101863999D03*
X84963000Y-101863999D03*
X83693000Y-102362000D03*
X200914000Y-101346000D03*
X216408000Y-118618000D03*
X203276999Y-104470999D03*
X211836000Y-86360000D03*
X81026000Y-79502000D03*
X103886000Y-67818000D03*
X67564000Y-78867000D03*
X67292009Y-84201000D03*
X81025994Y-78359000D03*
X96393000Y-69342000D03*
X76327000Y-76708000D03*
X116713000Y-73152000D03*
X77326667Y-77444781D03*
X125222000Y-73279000D03*
X72898000Y-78486000D03*
X71120000Y-81407000D03*
X152273000Y-107823000D03*
X153797000Y-124841000D03*
X146558000Y-120777000D03*
X100076000Y-143002000D03*
X101981000Y-135128000D03*
X138811000Y-120142000D03*
X134409345Y-112688655D03*
X185547000Y-96393002D03*
X186055000Y-99187000D03*
X152146000Y-104267000D03*
X144907000Y-118872000D03*
X156317012Y-107442000D03*
X162441501Y-113546501D03*
X163068000Y-118618000D03*
X156591000Y-104325999D03*
X158623000Y-100045000D03*
X196977000Y-123190000D03*
X154813004Y-100076000D03*
X155956000Y-120786990D03*
X122936000Y-109591001D03*
X125669051Y-109407949D03*
X72136000Y-84074008D03*
X65278000Y-84963000D03*
X137671129Y-118632416D03*
X122555000Y-113175870D03*
X121031000Y-109347000D03*
X124714000Y-109591000D03*
X225298000Y-114554000D03*
X231521000Y-122428000D03*
X224282000Y-114681006D03*
X232791000Y-127381000D03*
X144526000Y-100965000D03*
X149860000Y-100457000D03*
X140538108Y-99196990D03*
X141986000Y-97663000D03*
X144980250Y-96902771D03*
X113792000Y-104902000D03*
X94361000Y-99568000D03*
X226641169Y-93614268D03*
X151257000Y-92075000D03*
X151130000Y-93091000D03*
X225858036Y-93450851D03*
X204216000Y-98552000D03*
X209169000Y-99949000D03*
X210058000Y-100330000D03*
X210693000Y-99695000D03*
X211482117Y-99563481D03*
X212282104Y-99568400D03*
X213033877Y-99841969D03*
X213793364Y-100093330D03*
X214122000Y-97790000D03*
X218313000Y-96520000D03*
X218567000Y-97536000D03*
X219329000Y-93589000D03*
X220345000Y-93599000D03*
X220853000Y-96901000D03*
X143256000Y-118745000D03*
X118999000Y-146558000D03*
X142621000Y-122809000D03*
X152527000Y-101092000D03*
X148971000Y-142240000D03*
X143510000Y-124206000D03*
X144272000Y-119888000D03*
X152146000Y-103251000D03*
X156226163Y-103233199D03*
X174879000Y-114427000D03*
X143129000Y-117475000D03*
X151577058Y-96199942D03*
X135255000Y-134874000D03*
X133350000Y-134874000D03*
X208151321Y-98426679D03*
X195453000Y-142239996D03*
X224028000Y-75819000D03*
X221996000Y-75692000D03*
X77841594Y-76832515D03*
X117729000Y-67192999D03*
X124079000Y-70612000D03*
X77851000Y-85598000D03*
X85471000Y-94234000D03*
X76871948Y-85375846D03*
X78321894Y-87298023D03*
X73532994Y-87249000D03*
X74930000Y-85725000D03*
X175768000Y-114300000D03*
X164972295Y-102863999D03*
X155874283Y-100943011D03*
X176525741Y-114014397D03*
X177172881Y-113544065D03*
X159385000Y-100838000D03*
X150114000Y-96266000D03*
X141605000Y-116586000D03*
X140722215Y-116465215D03*
X149479000Y-96774000D03*
X97536000Y-139700000D03*
X97536000Y-138525000D03*
X95504000Y-138684000D03*
X94488000Y-138684000D03*
X93472000Y-138684000D03*
X105664000Y-141224000D03*
X106680000Y-141224000D03*
X107696000Y-141224000D03*
X108712000Y-141224000D03*
X109728000Y-141224000D03*
X109728000Y-139700000D03*
X108712000Y-139700000D03*
X107696000Y-139700000D03*
X106680000Y-139700000D03*
X105664000Y-139700000D03*
X105664000Y-138176000D03*
X106680000Y-138176000D03*
X107696000Y-138176000D03*
X108712000Y-138176000D03*
X109728000Y-138176000D03*
X109728000Y-136652000D03*
X108712000Y-136652000D03*
X107696000Y-136652000D03*
X106680000Y-136652000D03*
X105664000Y-136652000D03*
X93472000Y-141224000D03*
X94488000Y-141224000D03*
X95504000Y-141224000D03*
X96520000Y-141224000D03*
X96520000Y-139700000D03*
X95504000Y-139700000D03*
X94488000Y-139700000D03*
X93472000Y-139700000D03*
X96520000Y-137668000D03*
X95504000Y-137668000D03*
X94488000Y-137668000D03*
X93472000Y-137668000D03*
X96520000Y-136144000D03*
X95504000Y-136144000D03*
X94488000Y-136144000D03*
X93472000Y-136144000D03*
D56*
X100552000Y-139700000D03*
X101727000Y-138525000D03*
D55*
X230632000Y-90296998D03*
X170815000Y-129286000D03*
X171069000Y-126492000D03*
X223393000Y-96901000D03*
X218313000Y-113029986D03*
X222758000Y-129667000D03*
X224406041Y-150689979D03*
X211328000Y-110998000D03*
X223520000Y-150239968D03*
X211930974Y-111797503D03*
X212852000Y-111252000D03*
X226822000Y-147574000D03*
X225933000Y-149860000D03*
X213487000Y-111887000D03*
X225206048Y-150687291D03*
X213995000Y-112522000D03*
X214757000Y-113284000D03*
X213233000Y-147193006D03*
X215646000Y-113919000D03*
X212433001Y-147188417D03*
X216154000Y-114681000D03*
X211546513Y-147256493D03*
X210772625Y-147053721D03*
X217800559Y-117597559D03*
X209931000Y-147066000D03*
X218313000Y-114808000D03*
X230068001Y-113528000D03*
X243305768Y-115105446D03*
X224790000Y-113284000D03*
X241935000Y-112776000D03*
X221869000Y-111887000D03*
X241409961Y-111873286D03*
X240688200Y-111528228D03*
X222752998Y-111351001D03*
X223393000Y-110870979D03*
X240110543Y-110974771D03*
X224282000Y-110245990D03*
X239395000Y-110617000D03*
X225044000Y-109728000D03*
X238633000Y-109982000D03*
X226314000Y-109345968D03*
X237998000Y-109474000D03*
X215519000Y-136271000D03*
X215646000Y-138859003D03*
X216408000Y-136144000D03*
X216408000Y-139436000D03*
X217192466Y-136300893D03*
X217189999Y-140061001D03*
X219583000Y-136271000D03*
X219583000Y-140686001D03*
X220383003Y-136271000D03*
X220345000Y-141311001D03*
X221183006Y-136271000D03*
X221286764Y-141936001D03*
X221996000Y-142560990D03*
X221996000Y-136271000D03*
X121920000Y-99060000D03*
D57*
X102108000Y-92837000D02*
X103993000Y-92837000D01*
X103993000Y-92837000D02*
X104013000Y-92857000D01*
X110236000Y-110910560D02*
X110236000Y-110490000D01*
X110236000Y-111760000D02*
X110236000Y-110910560D01*
X104013000Y-92857000D02*
X104888000Y-92857000D01*
X104888000Y-92857000D02*
X107188000Y-92857000D01*
X113890000Y-98410000D02*
X112616000Y-98410000D01*
X112616000Y-98410000D02*
X107188000Y-92982000D01*
X107188000Y-92982000D02*
X107188000Y-92857000D01*
X159893000Y-122388000D02*
X158420000Y-122388000D01*
X158420000Y-122388000D02*
X158333000Y-122301000D01*
X195580000Y-60278000D02*
X204042000Y-60278000D01*
X204042000Y-60278000D02*
X204216000Y-60452000D01*
X192024000Y-60278000D02*
X192924000Y-60278000D01*
X192924000Y-60278000D02*
X195580000Y-60278000D01*
X224073999Y-112603001D02*
X223774000Y-112903000D01*
X224231000Y-112446000D02*
X224073999Y-112603001D01*
X227826000Y-112446000D02*
X224231000Y-112446000D01*
X225933000Y-115314000D02*
X225933000Y-113792002D01*
X225876000Y-116396000D02*
X225876000Y-115371000D01*
X225876000Y-115371000D02*
X225933000Y-115314000D01*
X68566000Y-111735000D02*
X66700000Y-111735000D01*
X66700000Y-111735000D02*
X66548000Y-111887000D01*
X102870000Y-100689000D02*
X102870000Y-100584000D01*
X104543000Y-102362000D02*
X102870000Y-100689000D01*
X104668000Y-102362000D02*
X104543000Y-102362000D01*
X207264000Y-129119000D02*
X207264000Y-129286000D01*
X207264000Y-129286000D02*
X206248000Y-130302000D01*
X173140000Y-130578000D02*
X171726000Y-130578000D01*
X171726000Y-130578000D02*
X171704000Y-130556000D01*
X178816000Y-133223000D02*
X180295000Y-133223000D01*
X180295000Y-133223000D02*
X180340000Y-133178000D01*
X180340000Y-131228000D02*
X182335000Y-131228000D01*
X182335000Y-131228000D02*
X182499000Y-131064000D01*
X178435000Y-128651000D02*
X180317000Y-128651000D01*
X180317000Y-128651000D02*
X180340000Y-128628000D01*
D58*
X97663000Y-146399000D02*
X98330000Y-146399000D01*
X98330000Y-146399000D02*
X101774500Y-142954500D01*
X101774500Y-142954500D02*
X101774500Y-142287500D01*
D57*
X81534000Y-115824000D02*
X80518000Y-115824000D01*
X80518000Y-115824000D02*
X80264000Y-116078000D01*
X81554000Y-118872000D02*
X80391000Y-118872000D01*
X80391000Y-118872000D02*
X80264000Y-118999000D01*
X219876000Y-115478814D02*
X219456000Y-115058814D01*
X219456000Y-115058814D02*
X219183524Y-114786338D01*
X217297000Y-114173000D02*
X217596999Y-113873001D01*
X217596999Y-113873001D02*
X218270187Y-113873001D01*
X218270187Y-113873001D02*
X219456000Y-115058814D01*
X195072000Y-116840000D02*
X195072000Y-117221000D01*
X195072000Y-117221000D02*
X195834000Y-117983000D01*
X81407000Y-123063000D02*
X81407000Y-121686000D01*
X81407000Y-121686000D02*
X81554000Y-121539000D01*
X206426000Y-105446000D02*
X211237000Y-105446000D01*
X211237000Y-105446000D02*
X212979000Y-107188000D01*
X104013000Y-129540000D02*
X104013000Y-128270000D01*
X104013000Y-131445000D02*
X104013000Y-129540000D01*
X105410000Y-128270000D02*
X107950000Y-128270000D01*
X104013000Y-128270000D02*
X105410000Y-128270000D01*
X111760000Y-127127000D02*
X111760000Y-127000000D01*
X114046000Y-129540000D02*
X114046000Y-130429000D01*
X114046000Y-128270000D02*
X114046000Y-129540000D01*
X114046000Y-126480980D02*
X114046000Y-128270000D01*
X111760000Y-128270000D02*
X111760000Y-127127000D01*
X110490000Y-128270000D02*
X110490000Y-127000000D01*
X109220000Y-128270000D02*
X110490000Y-128270000D01*
X107950000Y-128270000D02*
X109220000Y-128270000D01*
X109220000Y-128270000D02*
X109220000Y-127000000D01*
X107950000Y-128270000D02*
X107950000Y-127000000D01*
X110490000Y-128270000D02*
X111760000Y-128270000D01*
X110490000Y-128270000D02*
X110490000Y-129540000D01*
X111760000Y-129286000D02*
X111760000Y-129540000D01*
X111760000Y-128270000D02*
X113157000Y-128270000D01*
X111760000Y-128270000D02*
X111760000Y-129286000D01*
X99536000Y-131445000D02*
X104013000Y-131445000D01*
X114046000Y-130429000D02*
X113745000Y-130730000D01*
X113745000Y-130730000D02*
X108712000Y-130730000D01*
X113988010Y-126422990D02*
X114046000Y-126480980D01*
X106464990Y-126422990D02*
X113988010Y-126422990D01*
X106102000Y-124460000D02*
X106102000Y-126060000D01*
X106102000Y-126060000D02*
X106464990Y-126422990D01*
X99536000Y-131445000D02*
X99536000Y-128901000D01*
X99536000Y-128901000D02*
X103977000Y-124460000D01*
X103977000Y-124460000D02*
X106102000Y-124460000D01*
X58180000Y-89585000D02*
X58180000Y-88378000D01*
X58180000Y-88378000D02*
X58547000Y-88011000D01*
X64135000Y-88425000D02*
X63340000Y-88425000D01*
X63340000Y-88425000D02*
X62738000Y-89027000D01*
X152908000Y-148002000D02*
X153877000Y-148002000D01*
X153877000Y-148002000D02*
X153924000Y-147955000D01*
X168275000Y-90424000D02*
X167275000Y-90424000D01*
X167275000Y-90424000D02*
X167021000Y-90170000D01*
X121920000Y-148002000D02*
X122889000Y-148002000D01*
X122889000Y-148002000D02*
X123190000Y-147701000D01*
X132080000Y-129456000D02*
X132080000Y-130236000D01*
X132080000Y-130236000D02*
X132004999Y-130311001D01*
X132004999Y-130311001D02*
X130184001Y-130311001D01*
X130184001Y-130311001D02*
X129921000Y-130048000D01*
X138336000Y-136144000D02*
X139065000Y-136144000D01*
X139065000Y-136144000D02*
X139954000Y-137033000D01*
X173355000Y-83152000D02*
X172941000Y-83152000D01*
X172941000Y-83152000D02*
X171958000Y-82169000D01*
X166116000Y-131064000D02*
X167640000Y-131064000D01*
X164984000Y-131064000D02*
X166116000Y-131064000D01*
X166116000Y-131064000D02*
X165989000Y-131064000D01*
X164084000Y-131064000D02*
X164984000Y-131064000D01*
X165958000Y-144112000D02*
X165958000Y-146335000D01*
X165958000Y-146335000D02*
X165862000Y-146431000D01*
X188976000Y-133223000D02*
X189230000Y-133223000D01*
X189230000Y-133223000D02*
X189992000Y-132461000D01*
X185928000Y-127221000D02*
X182913000Y-127221000D01*
X182913000Y-127221000D02*
X182245000Y-127889000D01*
X188976000Y-127221000D02*
X192532000Y-127221000D01*
X185928000Y-127221000D02*
X188976000Y-127221000D01*
X181554000Y-127889000D02*
X182245000Y-127889000D01*
X180340000Y-127978000D02*
X181465000Y-127978000D01*
X181465000Y-127978000D02*
X181554000Y-127889000D01*
X146813591Y-103326000D02*
X147372000Y-103326000D01*
X147372000Y-103326000D02*
X147447000Y-103251000D01*
X146192000Y-103326000D02*
X146813591Y-103326000D01*
X146813591Y-103326000D02*
X146830601Y-103308990D01*
D58*
X97250000Y-146812000D02*
X97663000Y-146399000D01*
D57*
X101774500Y-141812500D02*
X101774500Y-142795500D01*
X101774500Y-142795500D02*
X101854000Y-142875000D01*
X99536000Y-131445000D02*
X99536000Y-132945000D01*
D59*
X99536000Y-132945000D02*
X100504500Y-133913500D01*
X100504500Y-133913500D02*
X100504500Y-135387500D01*
D57*
X100504500Y-135387500D02*
X100504500Y-136412500D01*
X108077000Y-148670000D02*
X107342000Y-148670000D01*
X109347000Y-148670000D02*
X108077000Y-148670000D01*
X107342000Y-148670000D02*
X106787000Y-149225000D01*
D58*
X95622000Y-146812000D02*
X97250000Y-146812000D01*
D57*
X101774500Y-142287500D02*
X101774500Y-141812500D01*
X86360000Y-148002000D02*
X86360000Y-146685000D01*
X86360000Y-146685000D02*
X86487000Y-146558000D01*
X153642000Y-107426329D02*
X153616330Y-107451999D01*
X153642000Y-105776000D02*
X153642000Y-107426329D01*
X147594000Y-122428000D02*
X148393989Y-122428000D01*
X158206000Y-122428000D02*
X158333000Y-122301000D01*
X148642000Y-94376000D02*
X148642000Y-95810000D01*
X148642000Y-95810000D02*
X148717000Y-95885000D01*
X157592000Y-96826000D02*
X156262000Y-96826000D01*
X156262000Y-96826000D02*
X156210000Y-96774000D01*
X157592000Y-103326000D02*
X160798001Y-103326000D01*
X160798001Y-103326000D02*
X161798000Y-104325999D01*
X183802000Y-113792000D02*
X185293000Y-113792000D01*
X173482000Y-120777000D02*
X174244000Y-120777000D01*
X174244000Y-120777000D02*
X174625000Y-120396000D01*
X170942000Y-118237000D02*
X169926000Y-118237000D01*
X169926000Y-118237000D02*
X169799000Y-118110000D01*
X193361979Y-150876000D02*
X193548000Y-150689979D01*
X192024000Y-150876000D02*
X193361979Y-150876000D01*
X218796000Y-147345000D02*
X218821000Y-147320000D01*
X218796000Y-148609002D02*
X218796000Y-147345000D01*
X210376000Y-116396000D02*
X210376000Y-118300000D01*
X210376000Y-118300000D02*
X210058000Y-118618000D01*
X217376000Y-115364000D02*
X217297000Y-115285000D01*
X217297000Y-115285000D02*
X217297000Y-114173000D01*
X217376000Y-116396000D02*
X217376000Y-115364000D01*
X134660000Y-102616000D02*
X133604000Y-102616000D01*
X133604000Y-102616000D02*
X133096000Y-103124000D01*
X133370000Y-113792000D02*
X132969000Y-113792000D01*
X132969000Y-113792000D02*
X131953000Y-112776000D01*
X130048000Y-100584000D02*
X133503000Y-100584000D01*
X133503000Y-100584000D02*
X134660000Y-101741000D01*
X134660000Y-101741000D02*
X134660000Y-102616000D01*
X95270000Y-116332000D02*
X93853000Y-116332000D01*
X93853000Y-116332000D02*
X93599000Y-116078000D01*
X95270000Y-116332000D02*
X95270000Y-111794000D01*
X95270000Y-111794000D02*
X95236000Y-111760000D01*
X104668000Y-98552000D02*
X103251000Y-98552000D01*
X104013000Y-95357000D02*
X103398000Y-95357000D01*
X103398000Y-95357000D02*
X102870000Y-95885000D01*
X119790000Y-99710000D02*
X118379000Y-99710000D01*
X118379000Y-99710000D02*
X118364000Y-99695000D01*
X107188000Y-95504000D02*
X108049559Y-96365559D01*
X108049559Y-96365559D02*
X108049559Y-96547441D01*
X107188000Y-95357000D02*
X107188000Y-95504000D01*
X113890000Y-99710000D02*
X111134884Y-99710000D01*
X111134884Y-99710000D02*
X111058942Y-99634058D01*
X107188000Y-95357000D02*
X107188000Y-95482000D01*
X57785000Y-83065872D02*
X57971564Y-83252436D01*
X57785000Y-81895000D02*
X57785000Y-83065872D01*
X154432000Y-67056000D02*
X154432000Y-68326000D01*
X154432000Y-68326000D02*
X154559000Y-68453000D01*
X157901000Y-70866000D02*
X157901000Y-72731000D01*
X157901000Y-72731000D02*
X157353000Y-73279000D01*
X72160000Y-80875000D02*
X72009000Y-81026000D01*
X74575000Y-80875000D02*
X72160000Y-80875000D01*
X81514000Y-74930000D02*
X81514000Y-75966000D01*
X81514000Y-75966000D02*
X81407000Y-76073000D01*
X79883000Y-77942000D02*
X79883000Y-77724000D01*
X79100000Y-78725000D02*
X79883000Y-77942000D01*
X78725000Y-78725000D02*
X79100000Y-78725000D01*
X123170000Y-65638996D02*
X123190000Y-65658996D01*
X123170000Y-64135000D02*
X123170000Y-65638996D01*
X125750000Y-65639000D02*
X125730000Y-65659000D01*
X125750000Y-64135000D02*
X125750000Y-65639000D01*
X80392990Y-81375000D02*
X80518000Y-81500010D01*
X79375000Y-81375000D02*
X80392990Y-81375000D01*
X65278000Y-81875000D02*
X65278000Y-83439000D01*
X61595000Y-81895000D02*
X61595000Y-83439000D01*
X61615000Y-81875000D02*
X61595000Y-81895000D01*
X78950736Y-84455000D02*
X79375000Y-84455000D01*
X78555000Y-84455000D02*
X78950736Y-84455000D01*
X78225000Y-84125000D02*
X78555000Y-84455000D01*
X78225000Y-83525000D02*
X78225000Y-84125000D01*
X219876000Y-94996000D02*
X219876000Y-96608000D01*
X219876000Y-96608000D02*
X219837000Y-96647000D01*
X225392000Y-77089000D02*
X226695000Y-77089000D01*
X226695000Y-77089000D02*
X226822000Y-77216000D01*
X233172000Y-67564000D02*
X234047000Y-67564000D01*
X234047000Y-67564000D02*
X235712000Y-67564000D01*
X235712000Y-67564000D02*
X237109000Y-67564000D01*
X237109000Y-67564000D02*
X237363000Y-67818000D01*
X245364000Y-70104000D02*
X243713000Y-70104000D01*
X243713000Y-70104000D02*
X243586000Y-69977000D01*
X245180998Y-66973001D02*
X245180998Y-69920998D01*
X245180998Y-69920998D02*
X245364000Y-70104000D01*
X219876000Y-116396000D02*
X219876000Y-115478814D01*
X203626999Y-112857001D02*
X203327000Y-113157000D01*
X204038000Y-112446000D02*
X203626999Y-112857001D01*
X206426000Y-112446000D02*
X204038000Y-112446000D01*
X206426000Y-110446000D02*
X205276000Y-110446000D01*
X205276000Y-110446000D02*
X204978000Y-110744000D01*
X208488001Y-112821999D02*
X208788000Y-112522000D01*
X208376000Y-112934000D02*
X208488001Y-112821999D01*
X208376000Y-116396000D02*
X208376000Y-112934000D01*
X227826000Y-103946000D02*
X226501000Y-103946000D01*
X226501000Y-103946000D02*
X226441000Y-103886000D01*
X227826000Y-100946000D02*
X226587000Y-100946000D01*
X226587000Y-100946000D02*
X226568000Y-100965000D01*
X227826000Y-96946000D02*
X226523000Y-96946000D01*
X226523000Y-96946000D02*
X226441000Y-97028000D01*
X224876000Y-94996000D02*
X224876000Y-96180000D01*
X224876000Y-96180000D02*
X224790000Y-96266000D01*
X205309000Y-101854000D02*
X204597000Y-101854000D01*
X206426000Y-101946000D02*
X205401000Y-101946000D01*
X205401000Y-101946000D02*
X205309000Y-101854000D01*
X206426000Y-102946000D02*
X204902000Y-102946000D01*
X204902000Y-102946000D02*
X204851000Y-102997000D01*
X213876000Y-94996000D02*
X213876000Y-96766000D01*
X213876000Y-96766000D02*
X213868000Y-96774000D01*
X217996000Y-137309002D02*
X217996000Y-135953000D01*
X217996000Y-135953000D02*
X218059000Y-135890000D01*
X242824000Y-105704000D02*
X244054000Y-105704000D01*
X244054000Y-105704000D02*
X244094000Y-105664000D01*
X67326000Y-116205000D02*
X67056000Y-116205000D01*
X68326000Y-116205000D02*
X67326000Y-116205000D01*
D59*
X68326000Y-116205000D02*
X68326000Y-111975000D01*
D57*
X68326000Y-111975000D02*
X68566000Y-111735000D01*
D59*
X81504240Y-111760000D02*
X81504240Y-121489240D01*
D57*
X81504240Y-121489240D02*
X81554000Y-121539000D01*
X113890000Y-100360000D02*
X113890000Y-101010000D01*
X106823401Y-107037991D02*
X108721011Y-107037991D01*
X108721011Y-107037991D02*
X109864999Y-105894003D01*
X109864999Y-105894003D02*
X109864999Y-103204999D01*
X109864999Y-103204999D02*
X112059998Y-101010000D01*
X112059998Y-101010000D02*
X112915000Y-101010000D01*
X112915000Y-101010000D02*
X113890000Y-101010000D01*
X107168000Y-102362000D02*
X107168000Y-103237000D01*
X106554011Y-106768601D02*
X106823401Y-107037991D01*
X107168000Y-103237000D02*
X106554011Y-103850989D01*
X106554011Y-103850989D02*
X106554011Y-106768601D01*
X107168000Y-98552000D02*
X107168000Y-99427000D01*
X107168000Y-99427000D02*
X107168000Y-102362000D01*
X150373590Y-104394000D02*
X149395264Y-104394000D01*
X149395264Y-104394000D02*
X148971000Y-104394000D01*
X151142000Y-105776000D02*
X151142000Y-105162410D01*
X151142000Y-105162410D02*
X150373590Y-104394000D01*
X170053000Y-87630000D02*
X170180000Y-87757000D01*
X166497000Y-84074000D02*
X170053000Y-87630000D01*
X170053000Y-87630000D02*
X170775000Y-88352000D01*
X170775000Y-88352000D02*
X170775000Y-90424000D01*
X170775000Y-90424000D02*
X172085000Y-90424000D01*
X172085000Y-90424000D02*
X173355000Y-89154000D01*
X173355000Y-89154000D02*
X173355000Y-88552000D01*
X156845000Y-84074000D02*
X166497000Y-84074000D01*
X151130000Y-102810746D02*
X151130000Y-103235010D01*
X151130000Y-100053998D02*
X151130000Y-102810746D01*
X145542000Y-86360000D02*
X145542000Y-94465998D01*
X145542000Y-94465998D02*
X151130000Y-100053998D01*
X154142000Y-106526000D02*
X155058000Y-107442000D01*
X154142000Y-105776000D02*
X154142000Y-106526000D01*
X155058000Y-107442000D02*
X155067000Y-107442000D01*
X150094000Y-122428000D02*
X150094000Y-118090000D01*
X150094000Y-118090000D02*
X149860000Y-117856000D01*
X150114000Y-107061000D02*
X150114000Y-105804000D01*
X150114000Y-105804000D02*
X150142000Y-105776000D01*
X149860000Y-117856000D02*
X147086000Y-117856000D01*
X147086000Y-117856000D02*
X146304000Y-117074000D01*
X146304000Y-117074000D02*
X146304000Y-115824000D01*
X208649000Y-108446000D02*
X208661000Y-108458000D01*
X206426000Y-108446000D02*
X208649000Y-108446000D01*
X217292493Y-80518000D02*
X217292493Y-81482493D01*
X217292493Y-81482493D02*
X217598000Y-81788000D01*
X71247000Y-103251000D02*
X72771000Y-103251000D01*
X72771000Y-103251000D02*
X74422000Y-104902000D01*
D59*
X71247000Y-103251000D02*
X72009000Y-102489000D01*
D57*
X71247000Y-101727000D02*
X70485000Y-100965000D01*
D59*
X70866000Y-103632000D02*
X71247000Y-103251000D01*
D57*
X71247000Y-103251000D02*
X71247000Y-101727000D01*
X223452021Y-117983000D02*
X223452021Y-118050979D01*
X173355000Y-105537000D02*
X171450000Y-105537000D01*
X234315000Y-70064000D02*
X235712000Y-70064000D01*
X234315000Y-70064000D02*
X234315000Y-70866000D01*
X234047000Y-70064000D02*
X234315000Y-70064000D01*
X234315000Y-70866000D02*
X232029000Y-73152000D01*
X230792000Y-73279000D02*
X231902000Y-73279000D01*
X231902000Y-73279000D02*
X232029000Y-73152000D01*
D59*
X70866000Y-111735000D02*
X70866000Y-105435000D01*
D57*
X223376000Y-116396000D02*
X223376000Y-117906979D01*
X223376000Y-117906979D02*
X223452021Y-117983000D01*
X192740007Y-99776001D02*
X193040006Y-100076000D01*
X191897006Y-98933000D02*
X192740007Y-99776001D01*
X189103000Y-98933000D02*
X191897006Y-98933000D01*
X181102000Y-141605000D02*
X180307000Y-141605000D01*
X180307000Y-141605000D02*
X179832000Y-142080000D01*
X176149000Y-145923000D02*
X176149000Y-145161000D01*
X176149000Y-145161000D02*
X175768000Y-144780000D01*
X198628000Y-117000000D02*
X198628000Y-117100000D01*
X198628000Y-117100000D02*
X196221000Y-119507000D01*
X196221000Y-119507000D02*
X195800261Y-119507000D01*
X148142000Y-105776000D02*
X147051000Y-105776000D01*
X147051000Y-105776000D02*
X146878051Y-105603051D01*
X164084000Y-128364000D02*
X165862000Y-128364000D01*
X165862000Y-128364000D02*
X167640000Y-128364000D01*
X173140000Y-128628000D02*
X167904000Y-128628000D01*
X167904000Y-128628000D02*
X167640000Y-128364000D01*
X157592000Y-102826000D02*
X161754010Y-102826000D01*
X161754010Y-102826000D02*
X161798000Y-102869990D01*
X146192000Y-103826000D02*
X145550999Y-103826000D01*
X145550999Y-103826000D02*
X145366999Y-103642000D01*
X145366999Y-103642000D02*
X145229918Y-103642000D01*
X145034000Y-105029000D02*
X145034000Y-104984000D01*
X145034000Y-104984000D02*
X145291989Y-104726011D01*
X127762000Y-86360000D02*
X127762000Y-89348999D01*
X127762000Y-83820000D02*
X127762000Y-86360000D01*
X194230000Y-121920000D02*
X194230000Y-121020000D01*
X194230000Y-121020000D02*
X195743000Y-119507000D01*
X195743000Y-119507000D02*
X195800261Y-119507000D01*
X148142000Y-94376000D02*
X148142000Y-91881000D01*
X148142000Y-91881000D02*
X147320000Y-91059000D01*
X157592000Y-96326000D02*
X159071000Y-96326000D01*
X159071000Y-96326000D02*
X159258000Y-96139000D01*
X173482000Y-118277000D02*
X178277000Y-118277000D01*
X178277000Y-118277000D02*
X178402000Y-118152000D01*
X178402000Y-118152000D02*
X178402000Y-117602000D01*
X188214000Y-116840000D02*
X188214000Y-121211000D01*
X188214000Y-121211000D02*
X186616000Y-122809000D01*
X186616000Y-122809000D02*
X186516000Y-122809000D01*
X188214000Y-116840000D02*
X188341000Y-116840000D01*
X188341000Y-116840000D02*
X189865000Y-115316000D01*
X173482000Y-118277000D02*
X173482000Y-118402000D01*
X173482000Y-118402000D02*
X171147000Y-120737000D01*
X171147000Y-120737000D02*
X170942000Y-120737000D01*
X172482000Y-117277000D02*
X172607000Y-117277000D01*
X172607000Y-117277000D02*
X173482000Y-118152000D01*
X173482000Y-118152000D02*
X173482000Y-118277000D01*
X170782000Y-114427000D02*
X170307000Y-114427000D01*
X170307000Y-114427000D02*
X169418000Y-115316000D01*
X217378001Y-92628999D02*
X217678000Y-92329000D01*
X217376000Y-94996000D02*
X217376000Y-92631000D01*
X217376000Y-92631000D02*
X217378001Y-92628999D01*
X105029000Y-106045000D02*
X105029000Y-107188000D01*
X99836000Y-111760000D02*
X99836000Y-112010000D01*
X99836000Y-112010000D02*
X104394000Y-116568000D01*
X104394000Y-116568000D02*
X104394000Y-116840000D01*
X195580000Y-57578000D02*
X203882000Y-57578000D01*
X203882000Y-57578000D02*
X204216000Y-57912000D01*
X192024000Y-57578000D02*
X192924000Y-57578000D01*
X192924000Y-57578000D02*
X195580000Y-57578000D01*
X69215000Y-90170000D02*
X69215000Y-88425000D01*
X77725000Y-83525000D02*
X77725000Y-84411326D01*
X77725000Y-84411326D02*
X78740000Y-85426326D01*
X78740000Y-85426326D02*
X78740000Y-85471000D01*
X229522000Y-68580000D02*
X231813000Y-68580000D01*
X231813000Y-68580000D02*
X233172000Y-69939000D01*
X233172000Y-69939000D02*
X233172000Y-70064000D01*
X230792000Y-73279000D02*
X230792000Y-71569000D01*
X230792000Y-71569000D02*
X232297000Y-70064000D01*
X232297000Y-70064000D02*
X233172000Y-70064000D01*
X233172000Y-70064000D02*
X234047000Y-70064000D01*
X247880998Y-66973001D02*
X247880998Y-69920998D01*
X247880998Y-69920998D02*
X248064000Y-70104000D01*
X248064000Y-70104000D02*
X248064000Y-78072000D01*
X248064000Y-78072000D02*
X247396000Y-78740000D01*
X236380000Y-75692000D02*
X244348000Y-75692000D01*
X244348000Y-75692000D02*
X247396000Y-78740000D01*
X206426000Y-112946000D02*
X204554000Y-112946000D01*
X204554000Y-112946000D02*
X204343000Y-113157000D01*
X228851000Y-104446000D02*
X229450978Y-103846022D01*
X232322979Y-103846022D02*
X232490991Y-103678010D01*
X227826000Y-104446000D02*
X228851000Y-104446000D01*
X229450978Y-103846022D02*
X232322979Y-103846022D01*
X232490991Y-103678010D02*
X232790990Y-103378011D01*
X229389000Y-101446000D02*
X229616000Y-101219000D01*
X227826000Y-101446000D02*
X229389000Y-101446000D01*
X209876000Y-117535102D02*
X209679551Y-117731551D01*
X209876000Y-116396000D02*
X209876000Y-117535102D01*
X229967010Y-106446000D02*
X230124000Y-106289010D01*
X227826000Y-106446000D02*
X229967010Y-106446000D01*
X210643978Y-93080804D02*
X210643978Y-92938487D01*
X210876000Y-93312826D02*
X210643978Y-93080804D01*
X210876000Y-94996000D02*
X210876000Y-93312826D01*
X204341010Y-109946000D02*
X204216000Y-110071010D01*
X206426000Y-109946000D02*
X204341010Y-109946000D01*
X217932000Y-147193000D02*
X217932000Y-148545002D01*
X217932000Y-148545002D02*
X217996000Y-148609002D01*
X206426000Y-104946000D02*
X203727000Y-104946000D01*
X203727000Y-104946000D02*
X203517000Y-105156000D01*
X203517000Y-105156000D02*
X202565000Y-105156000D01*
X216876000Y-116396000D02*
X216876000Y-117731000D01*
X216876000Y-117731000D02*
X217001000Y-117856000D01*
X218821000Y-134747000D02*
X218821000Y-137284002D01*
X218821000Y-137284002D02*
X218796000Y-137309002D01*
X207264000Y-126619000D02*
X206194989Y-126619000D01*
X206194989Y-126619000D02*
X206121000Y-126545011D01*
D59*
X70866000Y-105435000D02*
X70866000Y-103632000D01*
X85068240Y-109474000D02*
X77055000Y-109474000D01*
X77055000Y-109474000D02*
X73016000Y-105435000D01*
X73016000Y-105435000D02*
X70866000Y-105435000D01*
X86104240Y-111760000D02*
X86104240Y-110510000D01*
X86104240Y-110510000D02*
X85068240Y-109474000D01*
X70866000Y-111735000D02*
X70866000Y-116165000D01*
D57*
X70866000Y-116165000D02*
X70826000Y-116205000D01*
X208407000Y-93472000D02*
X208376000Y-93503000D01*
X208376000Y-93503000D02*
X208376000Y-94996000D01*
X216376000Y-94996000D02*
X216376000Y-96742000D01*
X207264000Y-126619000D02*
X207264000Y-125095000D01*
X214876000Y-116396000D02*
X214876000Y-117848000D01*
X214876000Y-117848000D02*
X214884000Y-117856000D01*
X242824000Y-108204000D02*
X241300000Y-108204000D01*
X229865990Y-107946000D02*
X230124000Y-108204010D01*
X227826000Y-107946000D02*
X229865990Y-107946000D01*
X224536000Y-92964000D02*
X224376000Y-93124000D01*
X224376000Y-93124000D02*
X224376000Y-94996000D01*
X204216000Y-99568000D02*
X204338000Y-99446000D01*
X204338000Y-99446000D02*
X206426000Y-99446000D01*
X157226000Y-117856000D02*
X157397000Y-117856000D01*
X154740000Y-117856000D02*
X157226000Y-117856000D01*
X157226000Y-117856000D02*
X157986000Y-117856000D01*
X157986000Y-117856000D02*
X159893000Y-119763000D01*
X159893000Y-119763000D02*
X159893000Y-119888000D01*
X158179000Y-117074000D02*
X158179000Y-115824000D01*
X150495000Y-107823000D02*
X150794999Y-107523001D01*
X150794999Y-107523001D02*
X150794999Y-106678999D01*
X150794999Y-106678999D02*
X150642000Y-106526000D01*
X150642000Y-106526000D02*
X150642000Y-105776000D01*
X157397000Y-117856000D02*
X158179000Y-117074000D01*
X160065999Y-96256003D02*
X160065999Y-93517995D01*
X160065999Y-93517995D02*
X159766000Y-93217996D01*
X158996002Y-97326000D02*
X160065999Y-96256003D01*
X157592000Y-97326000D02*
X158996002Y-97326000D01*
X137160000Y-102616000D02*
X137160000Y-102997000D01*
X137160000Y-102997000D02*
X134112000Y-106045000D01*
X134112000Y-106045000D02*
X134112000Y-107696000D01*
X136927000Y-106637000D02*
X137892000Y-106637000D01*
X137892000Y-106637000D02*
X138443000Y-107188000D01*
X138443000Y-107188000D02*
X148480000Y-107188000D01*
X148480000Y-107188000D02*
X149142000Y-106526000D01*
X149142000Y-106526000D02*
X149142000Y-105776000D01*
X134112000Y-107696000D02*
X135171000Y-106637000D01*
X135171000Y-106637000D02*
X136927000Y-106637000D01*
X136927000Y-110787000D02*
X137892000Y-110787000D01*
X137892000Y-110787000D02*
X141040990Y-107638010D01*
X141040990Y-107638010D02*
X148666401Y-107638009D01*
X148666401Y-107638009D02*
X149592010Y-106712400D01*
X149592010Y-106712400D02*
X149592010Y-106575990D01*
X149592010Y-106575990D02*
X149642000Y-106526000D01*
X149642000Y-106526000D02*
X149642000Y-105776000D01*
X136927000Y-110787000D02*
X135703000Y-110787000D01*
X135703000Y-110787000D02*
X134112000Y-109196000D01*
X135870000Y-113792000D02*
X135870000Y-110879000D01*
X135870000Y-110879000D02*
X135962000Y-110787000D01*
X135962000Y-110787000D02*
X136927000Y-110787000D01*
X104287000Y-149225000D02*
X104287000Y-145415000D01*
X103044500Y-141812500D02*
X103044500Y-144297500D01*
X103044500Y-144297500D02*
X104162000Y-145415000D01*
X104162000Y-145415000D02*
X104287000Y-145415000D01*
X106787000Y-145415000D02*
X108792000Y-145415000D01*
X108792000Y-145415000D02*
X109347000Y-145970000D01*
X99234500Y-136412500D02*
X99234500Y-133893500D01*
X99234500Y-133893500D02*
X96786000Y-131445000D01*
X96786000Y-131445000D02*
X95536000Y-131445000D01*
D59*
X95123000Y-129667000D02*
X95123000Y-131032000D01*
D57*
X95123000Y-131032000D02*
X95536000Y-131445000D01*
D59*
X68580000Y-133261000D02*
X70447000Y-133261000D01*
D57*
X70447000Y-133261000D02*
X70739000Y-132969000D01*
X192262000Y-131191000D02*
X192151000Y-131191000D01*
X192532000Y-129921000D02*
X192532000Y-130921000D01*
X192532000Y-130921000D02*
X192262000Y-131191000D01*
X106172000Y-130730000D02*
X106172000Y-130937000D01*
X106172000Y-130937000D02*
X107315000Y-132080000D01*
X184277000Y-131445000D02*
X183844000Y-131878000D01*
X183844000Y-131878000D02*
X180340000Y-131878000D01*
X184277000Y-129586998D02*
X184277000Y-131445000D01*
X188976000Y-129921000D02*
X188076000Y-129921000D01*
X188076000Y-129921000D02*
X187000999Y-128845999D01*
X187000999Y-128845999D02*
X185017999Y-128845999D01*
X185017999Y-128845999D02*
X184277000Y-129586998D01*
X188976000Y-129921000D02*
X189876000Y-129921000D01*
X189876000Y-129921000D02*
X192532000Y-129921000D01*
X91694000Y-124968000D02*
X81153000Y-124968000D01*
X81153000Y-124968000D02*
X73174130Y-132946870D01*
X73174130Y-132946870D02*
X81280000Y-141052740D01*
X81280000Y-141052740D02*
X81280000Y-148176000D01*
D59*
X86233000Y-124968000D02*
X91694000Y-124968000D01*
X79756000Y-124968000D02*
X86233000Y-124968000D01*
D57*
X86233000Y-124968000D02*
X85852000Y-125349000D01*
D60*
X85852000Y-125349000D02*
X85852000Y-131323080D01*
D57*
X97917000Y-126365000D02*
X97917000Y-125095000D01*
X97917000Y-125095000D02*
X98552000Y-124460000D01*
X106172000Y-130730000D02*
X106172000Y-132080000D01*
D59*
X91694000Y-124968000D02*
X96266000Y-124968000D01*
X73166000Y-111735000D02*
X73166000Y-118378000D01*
X73166000Y-118378000D02*
X79756000Y-124968000D01*
D57*
X94996000Y-124968000D02*
X96266000Y-124968000D01*
D59*
X96266000Y-124968000D02*
X98044000Y-124968000D01*
D57*
X98044000Y-124968000D02*
X98552000Y-124460000D01*
X53580000Y-89585000D02*
X53580000Y-91454000D01*
X53580000Y-91454000D02*
X53467000Y-91567000D01*
X206426000Y-106446000D02*
X198100000Y-106446000D01*
X198100000Y-106446000D02*
X195326000Y-109220000D01*
X126318000Y-101092000D02*
X126318000Y-102950000D01*
X126318000Y-102950000D02*
X126492000Y-103124000D01*
X194155000Y-105946000D02*
X193421000Y-106680000D01*
X193421000Y-106680000D02*
X189865000Y-106680000D01*
X206426000Y-105946000D02*
X194155000Y-105946000D01*
X181465000Y-133828000D02*
X180340000Y-133828000D01*
X184375411Y-133828000D02*
X181465000Y-133828000D01*
X184685412Y-134138001D02*
X184375411Y-133828000D01*
X186516001Y-134138001D02*
X184685412Y-134138001D01*
X188976000Y-135723000D02*
X188101000Y-135723000D01*
X188101000Y-135723000D02*
X186516001Y-134138001D01*
X84234000Y-115824000D02*
X84234000Y-121359000D01*
X84234000Y-121359000D02*
X84054000Y-121539000D01*
X84054000Y-118872000D02*
X84054000Y-116004000D01*
X84054000Y-116004000D02*
X84234000Y-115824000D01*
X83804240Y-105460000D02*
X84704240Y-105460000D01*
D59*
X84704240Y-105460000D02*
X88773000Y-109528760D01*
X88773000Y-109528760D02*
X88773000Y-115189000D01*
X88773000Y-115189000D02*
X84969000Y-115189000D01*
X84969000Y-115189000D02*
X84334000Y-115824000D01*
D57*
X84334000Y-115824000D02*
X84234000Y-115824000D01*
X216751020Y-93136999D02*
X216451021Y-92837000D01*
X216876000Y-93261979D02*
X216751020Y-93136999D01*
X216876000Y-94996000D02*
X216876000Y-93261979D01*
X227826000Y-104946000D02*
X229064000Y-104946000D01*
X229064000Y-104946000D02*
X229489000Y-104521000D01*
X229489000Y-104521000D02*
X230251000Y-104521000D01*
X212376000Y-92487994D02*
X212344000Y-92455994D01*
X212376000Y-94996000D02*
X212376000Y-92487994D01*
D59*
X83693000Y-104098760D02*
X83693000Y-102362000D01*
X83804240Y-105460000D02*
X83804240Y-104210000D01*
D57*
X83804240Y-104210000D02*
X83693000Y-104098760D01*
D59*
X83804240Y-111760000D02*
X83804240Y-121289240D01*
D57*
X83804240Y-121289240D02*
X84054000Y-121539000D01*
X216376000Y-116396000D02*
X216376000Y-118586000D01*
X216376000Y-118586000D02*
X216408000Y-118618000D01*
X206426000Y-104446000D02*
X205688000Y-104446000D01*
X205688000Y-104446000D02*
X205663001Y-104470999D01*
X205663001Y-104470999D02*
X203276999Y-104470999D01*
X129540000Y-69215000D02*
X129540000Y-73025000D01*
X129540000Y-73025000D02*
X129667000Y-73152000D01*
X128250000Y-64135000D02*
X128250000Y-68025000D01*
X128250000Y-68025000D02*
X129440000Y-69215000D01*
X129440000Y-69215000D02*
X129540000Y-69215000D01*
X129380000Y-59055000D02*
X129380000Y-63130000D01*
X129380000Y-63130000D02*
X128375000Y-64135000D01*
X128375000Y-64135000D02*
X128250000Y-64135000D01*
X159512000Y-64356000D02*
X159512000Y-64456000D01*
X161401000Y-66345000D02*
X161401000Y-68991000D01*
X159512000Y-64456000D02*
X161401000Y-66345000D01*
X161401000Y-68991000D02*
X160401000Y-69991000D01*
X160401000Y-69991000D02*
X160401000Y-70866000D01*
X159512000Y-64356000D02*
X159512000Y-59403000D01*
X159512000Y-59403000D02*
X159940000Y-58975000D01*
X83820000Y-67925000D02*
X83820000Y-68925000D01*
X82931000Y-69814000D02*
X82931000Y-79754590D01*
X83820000Y-68925000D02*
X82931000Y-69814000D01*
X82931000Y-79754590D02*
X81787295Y-80898295D01*
X81787295Y-80898295D02*
X81764000Y-80875000D01*
X79975000Y-80875000D02*
X79375000Y-80875000D01*
X81764000Y-80875000D02*
X79975000Y-80875000D01*
X83740000Y-58975000D02*
X83740000Y-65345000D01*
X83740000Y-65345000D02*
X83820000Y-65425000D01*
X80726001Y-79801999D02*
X81026000Y-79502000D01*
X79375000Y-79875000D02*
X80653000Y-79875000D01*
X80653000Y-79875000D02*
X80726001Y-79801999D01*
X103886000Y-67818000D02*
X106573000Y-67818000D01*
X106573000Y-67818000D02*
X106680000Y-67925000D01*
X106600000Y-58975000D02*
X106600000Y-65345000D01*
X106600000Y-65345000D02*
X106680000Y-65425000D01*
X172466000Y-68675000D02*
X168561000Y-68675000D01*
X168561000Y-68675000D02*
X157110022Y-80125978D01*
X157110022Y-80125978D02*
X103710024Y-80125978D01*
X103710024Y-80125978D02*
X93793003Y-90042999D01*
X93793003Y-90042999D02*
X89286000Y-90042999D01*
X89286000Y-90042999D02*
X87910000Y-91418999D01*
X87910000Y-91418999D02*
X87910000Y-93239002D01*
X87910000Y-93239002D02*
X87550002Y-93599000D01*
X77884001Y-93599000D02*
X75450002Y-91165001D01*
X87550002Y-93599000D02*
X77884001Y-93599000D01*
X69284998Y-91165000D02*
X68239999Y-90120001D01*
X68239999Y-83361999D02*
X71226998Y-80375000D01*
X71226998Y-80375000D02*
X73975000Y-80375000D01*
X75450002Y-91165001D02*
X69284998Y-91165000D01*
X68239999Y-90120001D02*
X68239999Y-83361999D01*
X73975000Y-80375000D02*
X74575000Y-80375000D01*
X172800000Y-58975000D02*
X172800000Y-64341000D01*
X172800000Y-64341000D02*
X172466000Y-64675000D01*
X67863999Y-79166999D02*
X67564000Y-78867000D01*
X68072000Y-79375000D02*
X67863999Y-79166999D01*
X74575000Y-79375000D02*
X68072000Y-79375000D01*
X180086000Y-68802000D02*
X180086000Y-71374000D01*
X180086000Y-71374000D02*
X170884011Y-80575989D01*
X67292009Y-84625264D02*
X67292009Y-84201000D01*
X170884011Y-80575989D02*
X104717011Y-80575989D01*
X104717011Y-80575989D02*
X94799990Y-90493010D01*
X94799990Y-90493010D02*
X89472400Y-90493010D01*
X82453208Y-98804616D02*
X75263603Y-91615011D01*
X67292009Y-89808421D02*
X67292009Y-84625264D01*
X89472400Y-90493010D02*
X88360011Y-91605399D01*
X88360011Y-91605399D02*
X88360011Y-98633245D01*
X88188640Y-98804616D02*
X82453208Y-98804616D01*
X88360011Y-98633245D02*
X88188640Y-98804616D01*
X75263603Y-91615011D02*
X69098598Y-91615010D01*
X69098598Y-91615010D02*
X67292009Y-89808421D01*
X182800000Y-58975000D02*
X182800000Y-63138000D01*
X182800000Y-63138000D02*
X181136000Y-64802000D01*
X181136000Y-64802000D02*
X180086000Y-64802000D01*
X120730000Y-69215000D02*
X120730000Y-73125000D01*
X120730000Y-73125000D02*
X120757000Y-73152000D01*
X120670000Y-64135000D02*
X120670000Y-69155000D01*
X120670000Y-69155000D02*
X120730000Y-69215000D01*
X120670000Y-64135000D02*
X120670000Y-60345000D01*
X120670000Y-60345000D02*
X119380000Y-59055000D01*
X154432000Y-64556000D02*
X149552000Y-64556000D01*
X149552000Y-64556000D02*
X149352000Y-64356000D01*
X149352000Y-64356000D02*
X149352000Y-59563000D01*
X149352000Y-59563000D02*
X149940000Y-58975000D01*
X82480990Y-68129990D02*
X82276000Y-67925000D01*
X82276000Y-67925000D02*
X73660000Y-67925000D01*
X81674180Y-80375000D02*
X82480990Y-79568190D01*
X82480990Y-79568190D02*
X82480990Y-68129990D01*
X79375000Y-80375000D02*
X81674180Y-80375000D01*
X73740000Y-58975000D02*
X73740000Y-65345000D01*
X73740000Y-65345000D02*
X73660000Y-65425000D01*
X80725995Y-78658999D02*
X81025994Y-78359000D01*
X80009994Y-79375000D02*
X80725995Y-78658999D01*
X79375000Y-79375000D02*
X80009994Y-79375000D01*
X96393000Y-69342000D02*
X96393000Y-68052000D01*
X96393000Y-68052000D02*
X96520000Y-67925000D01*
X96600000Y-58975000D02*
X96600000Y-65345000D01*
X96600000Y-65345000D02*
X96520000Y-65425000D01*
X76725000Y-78725000D02*
X76725000Y-77614000D01*
X76725000Y-77614000D02*
X76327000Y-77216000D01*
X76327000Y-77216000D02*
X76327000Y-76708000D01*
X118257000Y-73152000D02*
X116713000Y-73152000D01*
X142748000Y-72009000D02*
X142748000Y-71884000D01*
X75578000Y-77978000D02*
X75725000Y-78125000D01*
X142748000Y-71884000D02*
X135128000Y-64264000D01*
X74295000Y-77978000D02*
X75578000Y-77978000D01*
X75725000Y-78125000D02*
X75725000Y-78725000D01*
X135128000Y-64264000D02*
X135128000Y-61595000D01*
X135128000Y-61595000D02*
X130048000Y-56515000D01*
X130048000Y-56515000D02*
X73152000Y-56515000D01*
X73152000Y-56515000D02*
X71628000Y-58039000D01*
X71628000Y-58039000D02*
X71628000Y-75311000D01*
X71628000Y-75311000D02*
X74295000Y-77978000D01*
X142748000Y-69509000D02*
X146999000Y-69509000D01*
X146999000Y-69509000D02*
X149352000Y-67156000D01*
X149352000Y-67156000D02*
X149352000Y-67056000D01*
X77225000Y-78725000D02*
X77225000Y-77546448D01*
X77225000Y-77546448D02*
X77326667Y-77444781D01*
X125222000Y-73279000D02*
X127040000Y-73279000D01*
X127040000Y-73279000D02*
X127167000Y-73152000D01*
X76225000Y-78725000D02*
X76225000Y-77988590D01*
X76225000Y-77988590D02*
X75579410Y-77343000D01*
X75579410Y-77343000D02*
X74296410Y-77343000D01*
X74296410Y-77343000D02*
X72078010Y-75124600D01*
X72078010Y-75124600D02*
X72078010Y-58453988D01*
X134677990Y-62169988D02*
X134677990Y-65898992D01*
X72078010Y-58453988D02*
X73566988Y-56965010D01*
X73566988Y-56965010D02*
X129473012Y-56965010D01*
X129473012Y-56965010D02*
X134677990Y-62169988D01*
X134677990Y-65898992D02*
X141862999Y-73084001D01*
X141862999Y-73084001D02*
X150175999Y-73084001D01*
X151017000Y-72243000D02*
X151892000Y-72243000D01*
X150175999Y-73084001D02*
X151017000Y-72243000D01*
X159512000Y-67056000D02*
X158612000Y-67056000D01*
X152767000Y-69743000D02*
X151892000Y-69743000D01*
X158612000Y-67056000D02*
X155925000Y-69743000D01*
X155925000Y-69743000D02*
X152767000Y-69743000D01*
X79014000Y-74930000D02*
X79014000Y-77375998D01*
X79014000Y-77375998D02*
X78225000Y-78164998D01*
X78225000Y-78164998D02*
X78225000Y-78725000D01*
X75225000Y-78725000D02*
X73137000Y-78725000D01*
X73137000Y-78725000D02*
X72898000Y-78486000D01*
X71120000Y-81407000D02*
X71501000Y-81788000D01*
X72676000Y-81375000D02*
X74575000Y-81375000D01*
X71501000Y-81788000D02*
X72263000Y-81788000D01*
X72263000Y-81788000D02*
X72676000Y-81375000D01*
X61595000Y-79395000D02*
X65258000Y-79395000D01*
X65258000Y-79395000D02*
X65278000Y-79375000D01*
X57785000Y-79395000D02*
X58660000Y-79395000D01*
X58660000Y-79395000D02*
X61595000Y-79395000D01*
X53975000Y-79375000D02*
X57765000Y-79375000D01*
X57765000Y-79375000D02*
X57785000Y-79395000D01*
X65278000Y-79375000D02*
X66153000Y-79375000D01*
X73975000Y-79875000D02*
X74575000Y-79875000D01*
X66153000Y-79375000D02*
X66653000Y-79875000D01*
X66653000Y-79875000D02*
X73975000Y-79875000D01*
X97536000Y-105460000D02*
X97536000Y-106710000D01*
D59*
X97536000Y-106710000D02*
X97536000Y-111760000D01*
D57*
X97536000Y-105460000D02*
X98632480Y-105460000D01*
X98632480Y-105460000D02*
X104932480Y-111760000D01*
X104932480Y-111760000D02*
X105633520Y-111760000D01*
X97536000Y-111760000D02*
X97536000Y-116098000D01*
X97536000Y-116098000D02*
X97770000Y-116332000D01*
X153797000Y-124841000D02*
X154432000Y-124206000D01*
X161205410Y-123784001D02*
X187526001Y-123784001D01*
X154432000Y-124206000D02*
X160783411Y-124206000D01*
X160783411Y-124206000D02*
X161205410Y-123784001D01*
X187526001Y-123784001D02*
X192405000Y-118905002D01*
X192405000Y-118905002D02*
X192405000Y-115189000D01*
X152273000Y-107398736D02*
X152273000Y-107823000D01*
X152273000Y-107188000D02*
X152273000Y-107398736D01*
X152642000Y-105776000D02*
X152642000Y-106819000D01*
X152642000Y-106819000D02*
X152273000Y-107188000D01*
X149860000Y-128524000D02*
X146258001Y-124922001D01*
X146258001Y-124922001D02*
X146258001Y-122936000D01*
X146258001Y-121076999D02*
X146258001Y-122936000D01*
X146258001Y-122936000D02*
X146258001Y-123052003D01*
X146558000Y-120777000D02*
X146258001Y-121076999D01*
X199528000Y-114300000D02*
X198628000Y-114300000D01*
X206426000Y-113446000D02*
X204968002Y-113446000D01*
X204114002Y-114300000D02*
X199528000Y-114300000D01*
X204968002Y-113446000D02*
X204114002Y-114300000D01*
X192405000Y-115189000D02*
X193454000Y-114140000D01*
X193454000Y-114140000D02*
X195072000Y-114140000D01*
X198628000Y-114300000D02*
X195232000Y-114300000D01*
X195232000Y-114300000D02*
X195072000Y-114140000D01*
X194658000Y-114140000D02*
X195072000Y-114140000D01*
D59*
X57404000Y-134620000D02*
X59153999Y-136369999D01*
X59153999Y-136369999D02*
X67846001Y-136369999D01*
X67846001Y-136369999D02*
X68580000Y-135636000D01*
X68580000Y-135636000D02*
X68580000Y-142590000D01*
X68580000Y-142590000D02*
X69215000Y-143225000D01*
X99234500Y-141812500D02*
X99233500Y-141812500D01*
X99233500Y-141812500D02*
X98298000Y-142748000D01*
D57*
X91322000Y-143743980D02*
X91322000Y-144272000D01*
D59*
X98171000Y-142748000D02*
X96647000Y-144272000D01*
X91322000Y-144272000D02*
X91322000Y-145412000D01*
X96647000Y-144272000D02*
X91322000Y-144272000D01*
D57*
X98171000Y-142326000D02*
X98171000Y-142748000D01*
D59*
X85852000Y-141224000D02*
X88802020Y-141224000D01*
X88802020Y-141224000D02*
X91322000Y-143743980D01*
D57*
X91322000Y-145412000D02*
X91322000Y-146812000D01*
X191897000Y-145161000D02*
X191897000Y-148049000D01*
X191897000Y-148049000D02*
X192024000Y-148176000D01*
X184151011Y-128395989D02*
X181969000Y-130578000D01*
X181969000Y-130578000D02*
X180340000Y-130578000D01*
X179832000Y-150876000D02*
X180732000Y-150876000D01*
X180732000Y-150876000D02*
X193507001Y-138100999D01*
X193507001Y-138100999D02*
X193507001Y-128910999D01*
X193507001Y-128910999D02*
X192991991Y-128395989D01*
X192991991Y-128395989D02*
X184151011Y-128395989D01*
X179832000Y-144780000D02*
X179832000Y-148176000D01*
X180340000Y-129928000D02*
X179215000Y-129928000D01*
X179215000Y-129928000D02*
X176911000Y-132232000D01*
X176911000Y-132232000D02*
X176911000Y-137910980D01*
X161347990Y-141939798D02*
X161347990Y-143647792D01*
X176911000Y-137910980D02*
X165376807Y-137910981D01*
X168576198Y-150876000D02*
X174868000Y-150876000D01*
X165376807Y-137910981D02*
X161347990Y-141939798D01*
X161347990Y-143647792D02*
X168576198Y-150876000D01*
X174868000Y-150876000D02*
X175768000Y-150876000D01*
X175768000Y-142080000D02*
X175768000Y-142180000D01*
X175768000Y-142180000D02*
X174792999Y-143155001D01*
X174792999Y-146200999D02*
X175768000Y-147176000D01*
X175768000Y-147176000D02*
X175768000Y-148176000D01*
X174792999Y-143155001D02*
X174792999Y-146200999D01*
X100076000Y-143002000D02*
X100076000Y-142241000D01*
X100076000Y-142241000D02*
X100504500Y-141812500D01*
X101774500Y-136412500D02*
X101774500Y-135334500D01*
X101774500Y-135334500D02*
X101981000Y-135128000D01*
X181356000Y-97376000D02*
X175420000Y-97376000D01*
X175420000Y-97376000D02*
X175260000Y-97536000D01*
X171196000Y-97376000D02*
X166276000Y-97376000D01*
X166276000Y-97376000D02*
X166116000Y-97536000D01*
X136084999Y-101730999D02*
X136084999Y-103435591D01*
X144916001Y-104276001D02*
X144399000Y-103759000D01*
X133286999Y-106233591D02*
X133286999Y-111566309D01*
X138170001Y-101665999D02*
X136149999Y-101665999D01*
X134109346Y-112388656D02*
X134409345Y-112688655D01*
X148163995Y-104276001D02*
X144916001Y-104276001D01*
X151642000Y-105776000D02*
X151642000Y-105026000D01*
X144399000Y-103759000D02*
X140263002Y-103759000D01*
X140263002Y-103759000D02*
X138170001Y-101665999D01*
X148670998Y-103768998D02*
X148163995Y-104276001D01*
X150384998Y-103768998D02*
X148670998Y-103768998D01*
X133286999Y-111566309D02*
X134109346Y-112388656D01*
X151642000Y-105026000D02*
X150384998Y-103768998D01*
X136084999Y-103435591D02*
X133286999Y-106233591D01*
X136149999Y-101665999D02*
X136084999Y-101730999D01*
X138811000Y-122555000D02*
X138811000Y-120566264D01*
X144780000Y-128524000D02*
X138811000Y-122555000D01*
X138811000Y-120566264D02*
X138811000Y-120142000D01*
X134709344Y-112988654D02*
X134409345Y-112688655D01*
X136880001Y-114742001D02*
X134859999Y-114742001D01*
X176149000Y-109093000D02*
X142529002Y-109093000D01*
X186055000Y-99187000D02*
X176149000Y-109093000D01*
X134709344Y-114591346D02*
X134709344Y-112988654D01*
X142529002Y-109093000D02*
X136880001Y-114742001D01*
X134859999Y-114742001D02*
X134709344Y-114591346D01*
X188047866Y-96921010D02*
X187960000Y-96833144D01*
X188072856Y-96946000D02*
X188047866Y-96921010D01*
X206426000Y-96946000D02*
X188072856Y-96946000D01*
X185549733Y-96819999D02*
X185547000Y-96817266D01*
X185719999Y-96819999D02*
X185549733Y-96819999D01*
X185547000Y-96817266D02*
X185547000Y-96393002D01*
X185733144Y-96833144D02*
X185719999Y-96819999D01*
X187960000Y-96833144D02*
X185733144Y-96833144D01*
X189103000Y-96233000D02*
X189103000Y-96774000D01*
X189103000Y-96774000D02*
X189043856Y-96833144D01*
X189043856Y-96833144D02*
X187960000Y-96833144D01*
X201280001Y-97921001D02*
X205376001Y-97921001D01*
X205376001Y-97921001D02*
X205401000Y-97946000D01*
X205401000Y-97946000D02*
X206426000Y-97946000D01*
X185119611Y-98425000D02*
X178181000Y-105363611D01*
X178181000Y-105363611D02*
X175017601Y-108527010D01*
X177055000Y-105537000D02*
X177228389Y-105363611D01*
X176055000Y-105537000D02*
X177055000Y-105537000D01*
X177228389Y-105363611D02*
X178181000Y-105363611D01*
X175017601Y-108527010D02*
X152052008Y-108527010D01*
X186609998Y-98425000D02*
X185119611Y-98425000D01*
X201280001Y-97921001D02*
X198460001Y-100741001D01*
X198460001Y-100741001D02*
X188925999Y-100741001D01*
X188925999Y-100741001D02*
X186609998Y-98425000D01*
X152052008Y-108527010D02*
X151647999Y-108123001D01*
X151647999Y-108123001D02*
X151647999Y-107020001D01*
X151647999Y-107020001D02*
X152142000Y-106526000D01*
X152142000Y-106526000D02*
X152142000Y-105776000D01*
X144907000Y-118872000D02*
X144907000Y-126111000D01*
X144907000Y-126111000D02*
X147320000Y-128524000D01*
X152142000Y-105026000D02*
X152142000Y-105156000D01*
X152142000Y-105156000D02*
X152142000Y-105776000D01*
X152146000Y-104267000D02*
X152146000Y-105152000D01*
X152146000Y-105152000D02*
X152142000Y-105156000D01*
X162441501Y-113546501D02*
X162441501Y-117756501D01*
X162441501Y-117756501D02*
X161891992Y-118306010D01*
X161891992Y-118306010D02*
X161891992Y-120904000D01*
X155956000Y-119634000D02*
X155448000Y-119126000D01*
X161891992Y-120904000D02*
X160843001Y-120904000D01*
X160843001Y-120904000D02*
X160843001Y-120898001D01*
X151511000Y-119634000D02*
X151511000Y-127672419D01*
X159007999Y-120963001D02*
X158242000Y-120197002D01*
X160843001Y-120898001D02*
X160778001Y-120963001D01*
X160778001Y-120963001D02*
X159007999Y-120963001D01*
X158242000Y-120197002D02*
X158242000Y-119634000D01*
X152019000Y-119126000D02*
X151511000Y-119634000D01*
X158242000Y-119634000D02*
X155956000Y-119634000D01*
X151511000Y-127672419D02*
X151512582Y-127674001D01*
X155448000Y-119126000D02*
X152019000Y-119126000D01*
X151512582Y-127674001D02*
X151550001Y-127674001D01*
X151550001Y-127674001D02*
X152400000Y-128524000D01*
X155682012Y-108077000D02*
X156017013Y-107741999D01*
X152898002Y-107849004D02*
X153125998Y-108077000D01*
X152898002Y-107288996D02*
X152898002Y-107849004D01*
X153142000Y-107044998D02*
X152898002Y-107288996D01*
X153142000Y-105776000D02*
X153142000Y-107044998D01*
X156017013Y-107741999D02*
X156317012Y-107442000D01*
X153125998Y-108077000D02*
X155682012Y-108077000D01*
X208876000Y-116396000D02*
X208876000Y-117421000D01*
X208876000Y-117421000D02*
X201329000Y-124968000D01*
X159893000Y-127508000D02*
X159893000Y-128270000D01*
X201329000Y-124968000D02*
X162433000Y-124968000D01*
X162433000Y-124968000D02*
X159893000Y-127508000D01*
X159893000Y-128270000D02*
X157607000Y-130556000D01*
X157607000Y-130556000D02*
X154432000Y-130556000D01*
X154432000Y-130556000D02*
X152400000Y-128524000D01*
X153142000Y-105776000D02*
X153142000Y-106279000D01*
X153142000Y-106279000D02*
X153162000Y-106299000D01*
X153142000Y-105776000D02*
X153191990Y-105776000D01*
X160782000Y-123571000D02*
X163068000Y-121285000D01*
X154940000Y-128524000D02*
X152076991Y-125660991D01*
X152076991Y-125660991D02*
X152076991Y-121862009D01*
X156441011Y-120084011D02*
X157707999Y-121350999D01*
X152076991Y-121862009D02*
X153854989Y-120084011D01*
X157707999Y-121350999D02*
X157707999Y-122601001D01*
X153854989Y-120084011D02*
X156441011Y-120084011D01*
X163068000Y-119042264D02*
X163068000Y-118618000D01*
X157707999Y-122601001D02*
X158677998Y-123571000D01*
X158677998Y-123571000D02*
X160782000Y-123571000D01*
X163068000Y-121285000D02*
X163068000Y-119042264D01*
X156216013Y-100326000D02*
X156129001Y-100238988D01*
X155421996Y-100447002D02*
X155203999Y-100664999D01*
X157592000Y-100326000D02*
X156216013Y-100326000D01*
X155494002Y-100447002D02*
X155421996Y-100447002D01*
X156129001Y-100238988D02*
X155702016Y-100238988D01*
X155702016Y-100238988D02*
X155494002Y-100447002D01*
X155203999Y-100664999D02*
X155203999Y-103363262D01*
X156166736Y-104325999D02*
X156591000Y-104325999D01*
X155203999Y-103363262D02*
X156166736Y-104325999D01*
X155203999Y-100664999D02*
X155203999Y-101482999D01*
X157592000Y-100326000D02*
X158342000Y-100326000D01*
X158342000Y-100326000D02*
X158623000Y-100045000D01*
X205401000Y-113946000D02*
X206426000Y-113946000D01*
X197930000Y-121020000D02*
X198327000Y-121020000D01*
X197030000Y-121920000D02*
X197930000Y-121020000D01*
X196930000Y-121920000D02*
X197030000Y-121920000D01*
X198327000Y-121020000D02*
X205401000Y-113946000D01*
X196977000Y-123190000D02*
X196977000Y-121967000D01*
X196977000Y-121967000D02*
X196930000Y-121920000D01*
X156842000Y-99826000D02*
X156792001Y-99776001D01*
X157592000Y-99826000D02*
X156842000Y-99826000D01*
X155113003Y-99776001D02*
X154813004Y-100076000D01*
X156792001Y-99776001D02*
X155113003Y-99776001D01*
X155956000Y-120786990D02*
X154387008Y-120786990D01*
X154387008Y-120786990D02*
X152527000Y-122646998D01*
X152527000Y-122646998D02*
X152527000Y-124841000D01*
X152527000Y-124841000D02*
X154803007Y-127117007D01*
X154803007Y-127117007D02*
X156073007Y-127117007D01*
X156073007Y-127117007D02*
X156630001Y-127674001D01*
X156630001Y-127674001D02*
X157480000Y-128524000D01*
X157480000Y-128524000D02*
X157861000Y-128524000D01*
X157861000Y-128524000D02*
X162097999Y-124287001D01*
X162097999Y-124287001D02*
X200832999Y-124287001D01*
X200832999Y-124287001D02*
X207526001Y-117593999D01*
X207526001Y-117593999D02*
X207526001Y-111021001D01*
X207526001Y-111021001D02*
X207451000Y-110946000D01*
X207451000Y-110946000D02*
X206426000Y-110946000D01*
X196359991Y-111686242D02*
X178149293Y-111686242D01*
X206426000Y-108946000D02*
X199100233Y-108946000D01*
X177772016Y-111308965D02*
X143033209Y-111308965D01*
X130310975Y-116965976D02*
X123235999Y-109891000D01*
X123235999Y-109891000D02*
X122936000Y-109591001D01*
X178149293Y-111686242D02*
X177772016Y-111308965D01*
X137376198Y-116965976D02*
X130310975Y-116965976D01*
X199100233Y-108946000D02*
X196359991Y-111686242D01*
X143033209Y-111308965D02*
X137376198Y-116965976D01*
X89417639Y-83986615D02*
X94448385Y-83986615D01*
X94448385Y-83986615D02*
X94615000Y-83820000D01*
X89417639Y-87796615D02*
X89417639Y-86896615D01*
X89417639Y-86896615D02*
X89492640Y-86821614D01*
X89492640Y-86821614D02*
X93806614Y-86821614D01*
X93806614Y-86821614D02*
X94615000Y-87630000D01*
X178480885Y-110745012D02*
X178144816Y-110408943D01*
X196028401Y-110745012D02*
X178480885Y-110745012D01*
X178144816Y-110408943D02*
X142660409Y-110408943D01*
X125969050Y-109707948D02*
X125669051Y-109407949D01*
X206426000Y-107446000D02*
X199327412Y-107446000D01*
X132327056Y-116065954D02*
X125969050Y-109707948D01*
X142660409Y-110408943D02*
X137003398Y-116065954D01*
X199327412Y-107446000D02*
X196028401Y-110745012D01*
X137003398Y-116065954D02*
X132327056Y-116065954D01*
X94361000Y-97663000D02*
X90045254Y-97663000D01*
X90045254Y-97663000D02*
X89878639Y-97829615D01*
X206426000Y-106946000D02*
X199191002Y-106946000D01*
X199191002Y-106946000D02*
X195842001Y-110295001D01*
X178667285Y-110295001D02*
X178331216Y-109958932D01*
X142390068Y-109958932D02*
X136733057Y-115615943D01*
X132760943Y-115615943D02*
X125532001Y-108387001D01*
X195842001Y-110295001D02*
X178667285Y-110295001D01*
X178331216Y-109958932D02*
X142390068Y-109958932D01*
X136733057Y-115615943D02*
X132760943Y-115615943D01*
X125532001Y-108387001D02*
X104786341Y-108387001D01*
X104786341Y-108387001D02*
X95123000Y-98723660D01*
X95123000Y-98723660D02*
X95123000Y-98425000D01*
X95123000Y-98425000D02*
X94361000Y-97663000D01*
X74575000Y-82375000D02*
X73410744Y-82375000D01*
X72136000Y-83649744D02*
X72136000Y-84074008D01*
X73410744Y-82375000D02*
X72136000Y-83649744D01*
X65278000Y-84963000D02*
X64897000Y-84963000D01*
X64897000Y-84963000D02*
X64135000Y-85725000D01*
X137971128Y-118332417D02*
X137671129Y-118632416D01*
X143644547Y-112658998D02*
X137971128Y-118332417D01*
X177212816Y-112658998D02*
X143644547Y-112658998D01*
X177590093Y-113036275D02*
X177212816Y-112658998D01*
X198146036Y-113036275D02*
X177590093Y-113036275D01*
X199236311Y-111946000D02*
X198146036Y-113036275D01*
X206426000Y-111946000D02*
X199236311Y-111946000D01*
X206426000Y-111446000D02*
X199099901Y-111446000D01*
X197959637Y-112586264D02*
X177776493Y-112586264D01*
X177776493Y-112586264D02*
X177399216Y-112208987D01*
X199099901Y-111446000D02*
X197959637Y-112586264D01*
X137748998Y-117865998D02*
X129345012Y-117865998D01*
X143406009Y-112208987D02*
X137748998Y-117865998D01*
X129345012Y-117865998D02*
X128651000Y-118560010D01*
X177399216Y-112208987D02*
X143406009Y-112208987D01*
X89417639Y-76366615D02*
X94448385Y-76366615D01*
X94448385Y-76366615D02*
X94615000Y-76200000D01*
X127939140Y-118560010D02*
X122555000Y-113175870D01*
X128651000Y-118560010D02*
X128466010Y-118560010D01*
X128651000Y-118560010D02*
X127939140Y-118560010D01*
X177585616Y-111758976D02*
X143219609Y-111758976D01*
X129099987Y-117415987D02*
X121330999Y-109646999D01*
X137562598Y-117415987D02*
X129099987Y-117415987D01*
X196546391Y-112136253D02*
X177962893Y-112136253D01*
X177962893Y-112136253D02*
X177585616Y-111758976D01*
X206426000Y-109446000D02*
X199236644Y-109446000D01*
X143219609Y-111758976D02*
X137562598Y-117415987D01*
X121330999Y-109646999D02*
X121031000Y-109347000D01*
X199236644Y-109446000D02*
X196546391Y-112136253D01*
X89497639Y-72556615D02*
X94448385Y-72556615D01*
X94448385Y-72556615D02*
X94615000Y-72390000D01*
X196173592Y-111236231D02*
X178335693Y-111236231D01*
X142846809Y-110858954D02*
X137189798Y-116515965D01*
X131638965Y-116515965D02*
X125013999Y-109890999D01*
X199463823Y-107946000D02*
X196173592Y-111236231D01*
X206426000Y-107946000D02*
X199463823Y-107946000D01*
X178335693Y-111236231D02*
X177958416Y-110858954D01*
X125013999Y-109890999D02*
X124714000Y-109591000D01*
X137189798Y-116515965D02*
X131638965Y-116515965D01*
X177958416Y-110858954D02*
X142846809Y-110858954D01*
X89497639Y-80176615D02*
X94448385Y-80176615D01*
X94448385Y-80176615D02*
X94615000Y-80010000D01*
X124714000Y-109474000D02*
X124714000Y-109591000D01*
X225376000Y-114632000D02*
X225298000Y-114554000D01*
X225376000Y-116396000D02*
X225376000Y-114632000D01*
X227826000Y-114446000D02*
X227826000Y-118733000D01*
X227826000Y-118733000D02*
X231521000Y-122428000D01*
X224876000Y-115275006D02*
X224581999Y-114981005D01*
X224876000Y-116396000D02*
X224876000Y-115275006D01*
X224581999Y-114981005D02*
X224282000Y-114681006D01*
X227826000Y-113946000D02*
X226801000Y-113946000D01*
X227826000Y-119369410D02*
X227826000Y-122416000D01*
X226801000Y-113946000D02*
X226725999Y-114021001D01*
X226725999Y-114021001D02*
X226725999Y-118269409D01*
X226725999Y-118269409D02*
X227826000Y-119369410D01*
X227826000Y-122416000D02*
X232791000Y-127381000D01*
X144665000Y-100826000D02*
X144526000Y-100965000D01*
X146192000Y-100826000D02*
X144665000Y-100826000D01*
X130048000Y-98044000D02*
X128845919Y-98044000D01*
X128845919Y-98044000D02*
X128554919Y-98335000D01*
X128554919Y-98335000D02*
X120840000Y-98335000D01*
X120840000Y-98335000D02*
X120765000Y-98410000D01*
X120765000Y-98410000D02*
X119790000Y-98410000D01*
X149860000Y-100457000D02*
X148991000Y-101326000D01*
X148991000Y-101326000D02*
X146192000Y-101326000D01*
X130048000Y-95504000D02*
X128845919Y-95504000D01*
X128845919Y-95504000D02*
X126589919Y-97760000D01*
X126589919Y-97760000D02*
X120765000Y-97760000D01*
X120765000Y-97760000D02*
X119790000Y-97760000D01*
X138102822Y-100326000D02*
X131590821Y-93813999D01*
X146192000Y-100326000D02*
X138102822Y-100326000D01*
X131590821Y-93813999D02*
X130897999Y-93813999D01*
X130897999Y-93813999D02*
X130048000Y-92964000D01*
X113890000Y-97760000D02*
X112915000Y-97760000D01*
X112915000Y-97760000D02*
X109728000Y-94573000D01*
X110871000Y-88138000D02*
X125222000Y-88138000D01*
X109728000Y-94573000D02*
X109728000Y-89281000D01*
X109728000Y-89281000D02*
X110871000Y-88138000D01*
X125222000Y-88138000D02*
X130048000Y-92964000D01*
X146192000Y-99826000D02*
X141167118Y-99826000D01*
X140838107Y-99496989D02*
X140538108Y-99196990D01*
X140238109Y-98896991D02*
X140538108Y-99196990D01*
X130302000Y-86360000D02*
X130302000Y-88960882D01*
X130302000Y-88960882D02*
X140238109Y-98896991D01*
X141167118Y-99826000D02*
X140838107Y-99496989D01*
X141686001Y-97363001D02*
X141986000Y-97663000D01*
X132842000Y-86360000D02*
X132842000Y-88519000D01*
X132842000Y-88519000D02*
X141686001Y-97363001D01*
X144980250Y-96902771D02*
X145057021Y-96826000D01*
X145057021Y-96826000D02*
X146192000Y-96826000D01*
X135382000Y-86360000D02*
X136570601Y-85171399D01*
X136570601Y-85171399D02*
X138474191Y-85171399D01*
X138474191Y-85171399D02*
X139273399Y-84372191D01*
X144971471Y-85171399D02*
X146112529Y-85171399D01*
X142412601Y-82631399D02*
X142494000Y-82550000D01*
X139273399Y-84372191D02*
X139273399Y-83249471D01*
X146112529Y-85171399D02*
X146730601Y-85789471D01*
X139273399Y-83249471D02*
X139891471Y-82631399D01*
X146730601Y-89307731D02*
X149142000Y-91719130D01*
X139891471Y-82631399D02*
X142412601Y-82631399D01*
X143572529Y-82631399D02*
X144190601Y-83249471D01*
X142494000Y-82550000D02*
X142575399Y-82631399D01*
X142575399Y-82631399D02*
X143572529Y-82631399D01*
X144190601Y-83249471D02*
X144190601Y-84390529D01*
X144190601Y-84390529D02*
X144971471Y-85171399D01*
X146730601Y-85789471D02*
X146730601Y-89307731D01*
X149142000Y-91719130D02*
X149142000Y-93626000D01*
X149142000Y-93626000D02*
X149142000Y-94376000D01*
X145990000Y-96326000D02*
X146192000Y-96326000D01*
X144353399Y-95458399D02*
X145221000Y-96326000D01*
X145221000Y-96326000D02*
X145990000Y-96326000D01*
X137922000Y-86360000D02*
X139110601Y-85171399D01*
X139110601Y-85171399D02*
X143572529Y-85171399D01*
X143572529Y-85171399D02*
X144353399Y-85952269D01*
X144353399Y-85952269D02*
X144353399Y-95458399D01*
X146192000Y-99326000D02*
X143891000Y-99326000D01*
X143002000Y-86360000D02*
X143002000Y-98437000D01*
X143002000Y-98437000D02*
X143891000Y-99326000D01*
X113712000Y-104822000D02*
X113792000Y-104902000D01*
X113712000Y-103378000D02*
X113712000Y-104822000D01*
X82580182Y-99568000D02*
X94361000Y-99568000D01*
X72390000Y-95250000D02*
X78262182Y-95250000D01*
X78262182Y-95250000D02*
X82580182Y-99568000D01*
X72390000Y-92790000D02*
X72390000Y-95250000D01*
X226161141Y-94094296D02*
X225945704Y-94094296D01*
X225945704Y-94094296D02*
X225876000Y-94164000D01*
X225876000Y-94164000D02*
X225876000Y-94996000D01*
X226641169Y-93614268D02*
X226161141Y-94094296D01*
X150642000Y-94376000D02*
X150642000Y-93528002D01*
X150642000Y-93528002D02*
X150504999Y-93391001D01*
X150504999Y-93391001D02*
X150504999Y-92827001D01*
X150504999Y-92827001D02*
X151257000Y-92075000D01*
X151130000Y-93091000D02*
X151130000Y-94364000D01*
X151130000Y-94364000D02*
X151142000Y-94376000D01*
X225376000Y-94996000D02*
X225376000Y-93932887D01*
X225376000Y-93932887D02*
X225858036Y-93450851D01*
X136652000Y-142272000D02*
X134239000Y-139859000D01*
X134239000Y-139859000D02*
X134239000Y-133645000D01*
X134239000Y-133645000D02*
X133030000Y-132436000D01*
X133030000Y-132436000D02*
X133030000Y-131656000D01*
X129540000Y-136144000D02*
X129540000Y-139446000D01*
X137172801Y-145357001D02*
X138106999Y-144422803D01*
X129540000Y-139446000D02*
X135451001Y-145357001D01*
X135451001Y-145357001D02*
X137172801Y-145357001D01*
X138106999Y-144422803D02*
X138106999Y-143357001D01*
X138106999Y-143357001D02*
X138432001Y-143031999D01*
X138432001Y-143031999D02*
X139192000Y-142272000D01*
X129540000Y-136144000D02*
X129540000Y-131805998D01*
X129540000Y-131805998D02*
X130544999Y-130800999D01*
X132004999Y-130800999D02*
X132080000Y-130876000D01*
X130544999Y-130800999D02*
X132004999Y-130800999D01*
X132080000Y-130876000D02*
X132080000Y-131656000D01*
X136652000Y-144272000D02*
X135509000Y-144272000D01*
X135509000Y-144272000D02*
X131130000Y-139893000D01*
X131130000Y-139893000D02*
X131130000Y-131656000D01*
X181229000Y-138811000D02*
X184404000Y-135636000D01*
X184404000Y-134493000D02*
X181493590Y-134493000D01*
X181465000Y-134478000D02*
X180340000Y-134478000D01*
X181493590Y-134493000D02*
X181478590Y-134478000D01*
X181478590Y-134478000D02*
X181465000Y-134478000D01*
X166719000Y-138811000D02*
X181229000Y-138811000D01*
X163418000Y-142112000D02*
X166719000Y-138811000D01*
X184404000Y-135636000D02*
X184404000Y-134493000D01*
X185928000Y-135763000D02*
X185928000Y-135863000D01*
X185928000Y-135863000D02*
X182218000Y-139573000D01*
X182218000Y-139573000D02*
X168497000Y-139573000D01*
X168497000Y-139573000D02*
X165958000Y-142112000D01*
X180340000Y-135128000D02*
X180340000Y-135603000D01*
X180340000Y-135603000D02*
X177582010Y-138360990D01*
X177582010Y-138360990D02*
X165563208Y-138360990D01*
X163385000Y-144145000D02*
X163418000Y-144112000D01*
X165563208Y-138360990D02*
X161798000Y-142126198D01*
X161798000Y-142126198D02*
X161798000Y-142621000D01*
X161798000Y-142621000D02*
X163322000Y-144145000D01*
X163322000Y-144145000D02*
X163385000Y-144145000D01*
X244856000Y-81280000D02*
X243992401Y-82143599D01*
X228851000Y-97446000D02*
X227826000Y-97446000D01*
X243992401Y-82143599D02*
X243992401Y-82304599D01*
X243992401Y-82304599D02*
X228851000Y-97446000D01*
X244856000Y-83820000D02*
X243634686Y-83820000D01*
X243634686Y-83820000D02*
X229508686Y-97946000D01*
X229508686Y-97946000D02*
X227826000Y-97946000D01*
X227826000Y-98446000D02*
X230066998Y-98446000D01*
X243504397Y-85008601D02*
X246207399Y-85008601D01*
X230066998Y-98446000D02*
X243504397Y-85008601D01*
X246207399Y-85008601D02*
X247396000Y-83820000D01*
X244856000Y-86360000D02*
X232319990Y-98896010D01*
X232319990Y-98896010D02*
X229065990Y-98896010D01*
X229065990Y-98896010D02*
X229016000Y-98946000D01*
X229016000Y-98946000D02*
X228851000Y-98946000D01*
X228851000Y-98946000D02*
X227826000Y-98946000D01*
X247396000Y-86360000D02*
X246207399Y-87548601D01*
X246207399Y-87548601D02*
X244303809Y-87548601D01*
X244303809Y-87548601D02*
X232406410Y-99446000D01*
X232406410Y-99446000D02*
X228851000Y-99446000D01*
X228851000Y-99446000D02*
X227826000Y-99446000D01*
X244856000Y-88900000D02*
X233810000Y-99946000D01*
X233810000Y-99946000D02*
X227826000Y-99946000D01*
X233808410Y-100584000D02*
X230251000Y-100584000D01*
X230251000Y-100584000D02*
X230113000Y-100446000D01*
X230113000Y-100446000D02*
X228851000Y-100446000D01*
X228851000Y-100446000D02*
X227826000Y-100446000D01*
X247396000Y-88900000D02*
X246207399Y-90088601D01*
X246207399Y-90088601D02*
X244303809Y-90088601D01*
X244303809Y-90088601D02*
X233808410Y-100584000D01*
X227826000Y-101946000D02*
X229814002Y-101946000D01*
X229814002Y-101946000D02*
X230414002Y-101346000D01*
X230414002Y-101346000D02*
X233728686Y-101346000D01*
X244856000Y-91440000D02*
X243634686Y-91440000D01*
X243634686Y-91440000D02*
X233728686Y-101346000D01*
X227826000Y-102446000D02*
X231562590Y-102446000D01*
X231562590Y-102446000D02*
X232212580Y-101796010D01*
X243504397Y-92628601D02*
X246207399Y-92628601D01*
X232212580Y-101796010D02*
X234336988Y-101796010D01*
X234336988Y-101796010D02*
X243504397Y-92628601D01*
X246207399Y-92628601D02*
X246532401Y-92303599D01*
X246532401Y-92303599D02*
X247396000Y-91440000D01*
X206426000Y-98946000D02*
X204610000Y-98946000D01*
X204610000Y-98946000D02*
X204216000Y-98552000D01*
X206426000Y-99946000D02*
X209166000Y-99946000D01*
X209166000Y-99946000D02*
X209169000Y-99949000D01*
X206426000Y-100446000D02*
X208740998Y-100446000D01*
X208740998Y-100446000D02*
X208868999Y-100574001D01*
X208868999Y-100574001D02*
X209813999Y-100574001D01*
X209813999Y-100574001D02*
X210058000Y-100330000D01*
X206426000Y-100946000D02*
X208604588Y-100946000D01*
X208604588Y-100946000D02*
X208682599Y-101024011D01*
X208682599Y-101024011D02*
X210288991Y-101024011D01*
X210288991Y-101024011D02*
X210693000Y-100620002D01*
X210693000Y-100620002D02*
X210693000Y-99695000D01*
X206426000Y-101446000D02*
X208468178Y-101446000D01*
X208468178Y-101446000D02*
X208496199Y-101474021D01*
X208496199Y-101474021D02*
X210475392Y-101474020D01*
X210475392Y-101474020D02*
X211482117Y-100467295D01*
X211482117Y-100467295D02*
X211482117Y-99563481D01*
X206426000Y-102446000D02*
X210139822Y-102446000D01*
X210139822Y-102446000D02*
X212282104Y-100303718D01*
X212282104Y-100303718D02*
X212282104Y-99568400D01*
X213033877Y-99841969D02*
X213033877Y-100188355D01*
X213033877Y-100188355D02*
X209776232Y-103446000D01*
X209776232Y-103446000D02*
X207451000Y-103446000D01*
X207451000Y-103446000D02*
X206426000Y-103446000D01*
X213793364Y-100093330D02*
X209915695Y-103970999D01*
X209915695Y-103970999D02*
X206450999Y-103970999D01*
X206450999Y-103970999D02*
X206426000Y-103946000D01*
X206756000Y-60452000D02*
X206756000Y-90895998D01*
X206756000Y-90895998D02*
X209032001Y-93171999D01*
X209032001Y-93171999D02*
X209032001Y-93735999D01*
X209032001Y-93735999D02*
X208876000Y-93892000D01*
X208876000Y-93892000D02*
X208876000Y-93971000D01*
X208876000Y-93971000D02*
X208876000Y-94996000D01*
X209376000Y-94996000D02*
X209376000Y-94028410D01*
X209376000Y-94028410D02*
X209482011Y-93922399D01*
X209482011Y-93922399D02*
X209482011Y-91753011D01*
X209482011Y-91753011D02*
X207944601Y-90215601D01*
X207944601Y-90215601D02*
X207944601Y-59100601D01*
X207944601Y-59100601D02*
X207619599Y-58775599D01*
X207619599Y-58775599D02*
X206756000Y-57912000D01*
X209876000Y-94996000D02*
X209876000Y-96021000D01*
X209876000Y-96021000D02*
X209800999Y-96096001D01*
X205567399Y-57341471D02*
X206185471Y-56723399D01*
X209800999Y-96096001D02*
X207965999Y-96096001D01*
X206185471Y-94315473D02*
X206185471Y-61640601D01*
X207326529Y-56723399D02*
X208107399Y-57504269D01*
X208432401Y-58951991D02*
X208432401Y-59588401D01*
X207965999Y-96096001D02*
X206185471Y-94315473D01*
X206185471Y-61640601D02*
X205567399Y-61022529D01*
X208107399Y-58626989D02*
X208432401Y-58951991D01*
X205567399Y-61022529D02*
X205567399Y-57341471D01*
X208107399Y-57504269D02*
X208107399Y-58626989D01*
X206185471Y-56723399D02*
X207326529Y-56723399D01*
X208432401Y-59588401D02*
X209296000Y-60452000D01*
X209296000Y-57912000D02*
X210484601Y-59100601D01*
X210018977Y-88903021D02*
X210018977Y-93613977D01*
X210484601Y-59100601D02*
X210484601Y-88437397D01*
X210484601Y-88437397D02*
X210018977Y-88903021D01*
X210018977Y-93613977D02*
X210376000Y-93971000D01*
X210376000Y-93971000D02*
X210376000Y-94996000D01*
X210972401Y-61315599D02*
X210972401Y-88000400D01*
X211836000Y-60452000D02*
X210972401Y-61315599D01*
X211268987Y-93069403D02*
X211376000Y-93176416D01*
X211581999Y-88609998D02*
X211581999Y-89535001D01*
X211581999Y-89535001D02*
X211268987Y-89848013D01*
X211376000Y-93971000D02*
X211376000Y-94996000D01*
X211376000Y-93176416D02*
X211376000Y-93971000D01*
X210972401Y-88000400D02*
X211581999Y-88609998D01*
X211268987Y-89848013D02*
X211268987Y-93069403D01*
X213024601Y-59100601D02*
X212699599Y-58775599D01*
X211876000Y-88267588D02*
X211876000Y-87245002D01*
X211876000Y-87245002D02*
X213024601Y-86096401D01*
X211718992Y-90034418D02*
X212032010Y-89721400D01*
X213024601Y-86096401D02*
X213024601Y-59100601D01*
X211876000Y-93040005D02*
X211718992Y-92882997D01*
X211876000Y-94996000D02*
X211876000Y-93040005D01*
X211718992Y-92882997D02*
X211718992Y-90034418D01*
X212032010Y-88423598D02*
X211876000Y-88267588D01*
X212699599Y-58775599D02*
X211836000Y-57912000D01*
X212032010Y-89721400D02*
X212032010Y-88423598D01*
X212950988Y-92736602D02*
X212950988Y-92609601D01*
X213512401Y-92048188D02*
X213512401Y-61315599D01*
X212876000Y-92811590D02*
X212950988Y-92736602D01*
X212876000Y-94996000D02*
X212876000Y-92811590D01*
X212950988Y-92609601D02*
X213512401Y-92048188D01*
X213512401Y-61315599D02*
X214376000Y-60452000D01*
X214376000Y-57912000D02*
X215564601Y-59100601D01*
X213400999Y-92796001D02*
X213400999Y-94971001D01*
X215564601Y-59100601D02*
X215564601Y-90632399D01*
X215564601Y-90632399D02*
X213400999Y-92796001D01*
X213400999Y-94971001D02*
X213376000Y-94996000D01*
X214376000Y-94996000D02*
X214376000Y-96356998D01*
X214376000Y-96356998D02*
X214493001Y-96473999D01*
X214493001Y-96473999D02*
X214493001Y-97418999D01*
X214493001Y-97418999D02*
X214122000Y-97790000D01*
X216027000Y-90932000D02*
X215988176Y-90932000D01*
X215988176Y-90932000D02*
X214876000Y-92044176D01*
X214876000Y-92044176D02*
X214876000Y-93327000D01*
X214876000Y-93327000D02*
X214876000Y-94996000D01*
X216014611Y-90919611D02*
X216014611Y-63256979D01*
X216014611Y-63112519D02*
X216014611Y-90919611D01*
X216014611Y-90919611D02*
X216027000Y-90932000D01*
X218104601Y-59881471D02*
X218104601Y-61022529D01*
X218104601Y-61022529D02*
X216014611Y-63112519D01*
X216014611Y-90944389D02*
X216014611Y-91059000D01*
X216027000Y-90932000D02*
X216014611Y-90944389D01*
X216916000Y-57912000D02*
X216916000Y-58692870D01*
X216916000Y-58692870D02*
X218104601Y-59881471D01*
X215376000Y-92180587D02*
X215794599Y-91761988D01*
X215376000Y-94996000D02*
X215376000Y-92180587D01*
X216048599Y-91761988D02*
X218186000Y-89624587D01*
X215794599Y-91761988D02*
X216048599Y-91761988D01*
X218186000Y-84361002D02*
X216522999Y-82698001D01*
X218186000Y-89624587D02*
X218186000Y-84361002D01*
X216522999Y-82698001D02*
X216522999Y-63385001D01*
X216522999Y-63385001D02*
X218592401Y-61315599D01*
X218592401Y-61315599D02*
X219456000Y-60452000D01*
X218673001Y-81427997D02*
X218673001Y-89773997D01*
X216234999Y-92211999D02*
X215980999Y-92211999D01*
X220644601Y-79456397D02*
X218673001Y-81427997D01*
X219456000Y-57912000D02*
X220644601Y-59100601D01*
X220644601Y-59100601D02*
X220644601Y-79456397D01*
X215980999Y-92211999D02*
X215826011Y-92366987D01*
X215826011Y-92366987D02*
X215826011Y-93561013D01*
X215826011Y-93561013D02*
X215876000Y-93611002D01*
X215876000Y-93611002D02*
X215876000Y-93971000D01*
X215876000Y-93971000D02*
X215876000Y-94996000D01*
X218673001Y-89773997D02*
X216234999Y-92211999D01*
X217876000Y-94996000D02*
X217876000Y-93437002D01*
X219287999Y-84783003D02*
X223012000Y-81059002D01*
X217876000Y-93437002D02*
X219287999Y-92025003D01*
X219287999Y-92025003D02*
X219287999Y-84783003D01*
X223012000Y-81059002D02*
X223012000Y-62689314D01*
X223012000Y-62689314D02*
X221996000Y-61673314D01*
X221996000Y-61673314D02*
X221996000Y-60452000D01*
X218376000Y-94996000D02*
X218376000Y-96457000D01*
X218376000Y-96457000D02*
X218313000Y-96520000D01*
X218876000Y-94996000D02*
X218876000Y-96157998D01*
X218876000Y-96157998D02*
X218938001Y-96219999D01*
X218938001Y-96219999D02*
X218938001Y-97164999D01*
X218938001Y-97164999D02*
X218567000Y-97536000D01*
X219329000Y-93589000D02*
X219376000Y-93636000D01*
X219376000Y-93636000D02*
X219376000Y-94996000D01*
X220376000Y-94996000D02*
X220376000Y-93630000D01*
X220376000Y-93630000D02*
X220345000Y-93599000D01*
X220853000Y-96901000D02*
X220853000Y-95019000D01*
X220853000Y-95019000D02*
X220876000Y-94996000D01*
D59*
X55880000Y-95885000D02*
X55880000Y-89585000D01*
D57*
X53975000Y-83977480D02*
X54824440Y-83977480D01*
X54824440Y-83977480D02*
X55880000Y-85033040D01*
X55880000Y-88335000D02*
X55880000Y-89585000D01*
X55880000Y-85033040D02*
X55880000Y-88335000D01*
X118872000Y-150876000D02*
X121746000Y-150876000D01*
X121746000Y-150876000D02*
X121920000Y-150702000D01*
X143256000Y-122174000D02*
X143256000Y-119169264D01*
X143256000Y-119169264D02*
X143256000Y-118745000D01*
X142621000Y-122809000D02*
X143256000Y-122174000D01*
X157592000Y-98826000D02*
X156555000Y-98826000D01*
X156555000Y-98826000D02*
X156154000Y-98425000D01*
X156154000Y-98425000D02*
X154305000Y-98425000D01*
X154305000Y-98425000D02*
X152527000Y-100203000D01*
X152527000Y-100203000D02*
X152527000Y-101092000D01*
X118999000Y-146558000D02*
X118999000Y-148049000D01*
X118999000Y-148049000D02*
X118872000Y-148176000D01*
X149352000Y-150876000D02*
X152734000Y-150876000D01*
X152734000Y-150876000D02*
X152908000Y-150702000D01*
X148971000Y-142240000D02*
X149352000Y-142621000D01*
X149352000Y-142621000D02*
X149352000Y-148176000D01*
X144272000Y-123698000D02*
X143764000Y-124206000D01*
X143764000Y-124206000D02*
X143510000Y-124206000D01*
X144272000Y-119888000D02*
X144272000Y-123698000D01*
X153152001Y-102244999D02*
X152146000Y-103251000D01*
X157592000Y-99326000D02*
X154638002Y-99326000D01*
X154638002Y-99326000D02*
X153152001Y-100812001D01*
X153152001Y-100812001D02*
X153152001Y-102244999D01*
X81280000Y-150876000D02*
X86186000Y-150876000D01*
X86186000Y-150876000D02*
X86360000Y-150702000D01*
X146192000Y-101826000D02*
X138966412Y-101826000D01*
X138966412Y-101826000D02*
X136549411Y-99408999D01*
X136549411Y-99408999D02*
X128937999Y-99408999D01*
X128937999Y-99408999D02*
X128872999Y-99473999D01*
X106104001Y-106955001D02*
X106104001Y-105134999D01*
X128872999Y-99473999D02*
X128872999Y-104044003D01*
X128872999Y-104044003D02*
X125429001Y-107488001D01*
X182331001Y-99000999D02*
X181356000Y-99976000D01*
X125429001Y-107488001D02*
X106637001Y-107488001D01*
X106637001Y-107488001D02*
X106104001Y-106955001D01*
X106104001Y-105134999D02*
X106039001Y-105069999D01*
X106039001Y-105069999D02*
X103088999Y-105069999D01*
X103088999Y-105069999D02*
X96198001Y-98179001D01*
X96198001Y-98179001D02*
X96198001Y-91382409D01*
X168560422Y-81476010D02*
X182331001Y-95246589D01*
X96198001Y-91382409D02*
X106104400Y-81476010D01*
X106104400Y-81476010D02*
X168560422Y-81476010D01*
X182331001Y-95246589D02*
X182331001Y-99000999D01*
X181356000Y-99976000D02*
X181356000Y-100076000D01*
X171196000Y-100076000D02*
X167855002Y-100076000D01*
X158524000Y-98326000D02*
X158342000Y-98326000D01*
X167855002Y-100076000D02*
X166680001Y-101251001D01*
X166680001Y-101251001D02*
X161449001Y-101251001D01*
X161449001Y-101251001D02*
X158524000Y-98326000D01*
X158342000Y-98326000D02*
X157592000Y-98326000D01*
X107729000Y-106045000D02*
X107729000Y-105145000D01*
X112815001Y-98960001D02*
X112915000Y-99060000D01*
X107729000Y-105145000D02*
X109093000Y-103781000D01*
X110807997Y-98960001D02*
X112815001Y-98960001D01*
X109093000Y-103781000D02*
X109093000Y-100674998D01*
X109093000Y-100674998D02*
X110807997Y-98960001D01*
X112915000Y-99060000D02*
X113890000Y-99060000D01*
X157592000Y-102326000D02*
X156842000Y-102326000D01*
X156226163Y-102941837D02*
X156226163Y-103233199D01*
X156842000Y-102326000D02*
X156226163Y-102941837D01*
X183802000Y-117602000D02*
X183802000Y-122795000D01*
X183802000Y-122795000D02*
X183816000Y-122809000D01*
X175178999Y-114726999D02*
X174879000Y-114427000D01*
X176158999Y-115706999D02*
X175178999Y-114726999D01*
X183802000Y-117602000D02*
X183327000Y-117602000D01*
X181431999Y-115706999D02*
X176158999Y-115706999D01*
X183327000Y-117602000D02*
X181431999Y-115706999D01*
X183802000Y-115062000D02*
X187292000Y-115062000D01*
X187292000Y-115062000D02*
X188214000Y-114140000D01*
X178402000Y-116332000D02*
X174487000Y-116332000D01*
X174487000Y-116332000D02*
X173482000Y-115327000D01*
X173482000Y-115327000D02*
X173482000Y-114427000D01*
X143553264Y-117475000D02*
X143129000Y-117475000D01*
X144442264Y-117475000D02*
X143553264Y-117475000D01*
X148495001Y-127959999D02*
X145714999Y-125179997D01*
X145714999Y-118747735D02*
X144442264Y-117475000D01*
X142709002Y-134874000D02*
X148495001Y-129088001D01*
X148495001Y-129088001D02*
X148495001Y-127959999D01*
X145714999Y-125179997D02*
X145714999Y-118747735D01*
X135255000Y-134874000D02*
X142709002Y-134874000D01*
X151577058Y-96199942D02*
X151642000Y-96135000D01*
X151642000Y-96135000D02*
X151642000Y-94376000D01*
X135255000Y-134874000D02*
X135255000Y-135763000D01*
X135255000Y-135763000D02*
X135636000Y-136144000D01*
X132240000Y-136144000D02*
X132240000Y-135984000D01*
X132240000Y-135984000D02*
X133350000Y-134874000D01*
X108712000Y-133430000D02*
X106172000Y-133430000D01*
X106172000Y-133430000D02*
X106172000Y-133530000D01*
X106172000Y-133530000D02*
X103289500Y-136412500D01*
X103289500Y-136412500D02*
X103044500Y-136412500D01*
X208132000Y-98446000D02*
X208151321Y-98426679D01*
X206426000Y-98446000D02*
X208132000Y-98446000D01*
X191897000Y-142461000D02*
X195231996Y-142461000D01*
X195231996Y-142461000D02*
X195453000Y-142239996D01*
X226822000Y-68580000D02*
X226822000Y-72324000D01*
X226822000Y-72324000D02*
X225867000Y-73279000D01*
X225867000Y-73279000D02*
X225392000Y-73279000D01*
X225392000Y-73279000D02*
X226417000Y-73279000D01*
X226417000Y-73279000D02*
X227052000Y-73914000D01*
X232606010Y-76521600D02*
X232606010Y-77908990D01*
X232606010Y-77908990D02*
X222876000Y-87639000D01*
X222876000Y-87639000D02*
X222876000Y-93971000D01*
X227052000Y-73914000D02*
X229691999Y-73914000D01*
X229691999Y-73914000D02*
X229691999Y-75109001D01*
X229691999Y-75109001D02*
X229756999Y-75174001D01*
X222876000Y-93971000D02*
X222876000Y-94996000D01*
X229756999Y-75174001D02*
X231827001Y-75174001D01*
X231827001Y-75174001D02*
X231892001Y-75109001D01*
X231892001Y-75109001D02*
X231892001Y-75807591D01*
X231892001Y-75807591D02*
X232606010Y-76521600D01*
X224028000Y-75819000D02*
X225392000Y-75819000D01*
X220298000Y-81788000D02*
X220298000Y-80888000D01*
X220298000Y-80888000D02*
X221996000Y-79190000D01*
X221996000Y-79190000D02*
X221996000Y-75692000D01*
X180340000Y-132528000D02*
X185393000Y-132528000D01*
X185393000Y-132528000D02*
X185928000Y-133063000D01*
X185928000Y-129921000D02*
X185928000Y-130921000D01*
X185928000Y-130921000D02*
X185928000Y-133063000D01*
X233680000Y-75692000D02*
X233580000Y-75692000D01*
X233580000Y-75692000D02*
X232437000Y-74549000D01*
X232437000Y-74549000D02*
X231817000Y-74549000D01*
X231817000Y-74549000D02*
X230792000Y-74549000D01*
X78141593Y-77132514D02*
X77841594Y-76832515D01*
X78141593Y-77522712D02*
X78141593Y-77132514D01*
X77725000Y-78725000D02*
X77725000Y-77939305D01*
X77725000Y-77939305D02*
X78141593Y-77522712D01*
X118030000Y-69215000D02*
X118030000Y-67493999D01*
X118030000Y-67493999D02*
X117729000Y-67192999D01*
X124079000Y-70612000D02*
X125476000Y-69215000D01*
X125476000Y-69215000D02*
X126840000Y-69215000D01*
X74575000Y-81875000D02*
X72965000Y-81875000D01*
X72965000Y-81875000D02*
X69215000Y-85625000D01*
X69215000Y-85625000D02*
X69215000Y-85725000D01*
X86717639Y-76366615D02*
X86717639Y-77266615D01*
X81109254Y-82875000D02*
X79975000Y-82875000D01*
X86717639Y-77266615D02*
X81109254Y-82875000D01*
X79975000Y-82875000D02*
X79375000Y-82875000D01*
X86797639Y-72556615D02*
X85797639Y-72556615D01*
X85797639Y-72556615D02*
X84074000Y-74280254D01*
X84074000Y-79248000D02*
X80947000Y-82375000D01*
X84074000Y-74280254D02*
X84074000Y-79248000D01*
X80947000Y-82375000D02*
X79375000Y-82375000D01*
X77851000Y-85173736D02*
X77851000Y-85598000D01*
X77225000Y-83525000D02*
X77225000Y-84845000D01*
X77225000Y-84845000D02*
X77553736Y-85173736D01*
X77553736Y-85173736D02*
X77851000Y-85173736D01*
X85471000Y-94234000D02*
X85471000Y-96221976D01*
X85471000Y-96221976D02*
X87078639Y-97829615D01*
X87078639Y-97829615D02*
X87178639Y-97829615D01*
X76725000Y-85228898D02*
X76871948Y-85375846D01*
X76725000Y-83525000D02*
X76725000Y-85228898D01*
X78820486Y-87796615D02*
X78621893Y-87598022D01*
X86717639Y-87796615D02*
X78820486Y-87796615D01*
X78621893Y-87598022D02*
X78321894Y-87298023D01*
X86717639Y-83986615D02*
X85717639Y-83986615D01*
X75725000Y-84125000D02*
X75725000Y-83525000D01*
X76607702Y-86673013D02*
X75725000Y-85790311D01*
X85717639Y-83986615D02*
X83031241Y-86673013D01*
X83031241Y-86673013D02*
X76607702Y-86673013D01*
X75725000Y-85790311D02*
X75725000Y-84125000D01*
X79751252Y-86223002D02*
X76794102Y-86223002D01*
X76225000Y-85653900D02*
X76225000Y-84125000D01*
X76225000Y-84125000D02*
X76225000Y-83525000D01*
X76794102Y-86223002D02*
X76225000Y-85653900D01*
X85797639Y-80176615D02*
X79751252Y-86223002D01*
X86797639Y-80176615D02*
X85797639Y-80176615D01*
X73232995Y-87548999D02*
X73532994Y-87249000D01*
X72390000Y-88391994D02*
X73232995Y-87548999D01*
X72390000Y-90090000D02*
X72390000Y-88391994D01*
X75225000Y-83525000D02*
X75225000Y-85430000D01*
X75225000Y-85430000D02*
X74930000Y-85725000D01*
X113411000Y-92202000D02*
X113890000Y-92681000D01*
X113890000Y-92681000D02*
X113890000Y-96635000D01*
X113890000Y-96635000D02*
X113890000Y-97110000D01*
X118364000Y-92202000D02*
X120396000Y-94234000D01*
X120396000Y-94234000D02*
X120396000Y-96504000D01*
X120396000Y-96504000D02*
X119790000Y-97110000D01*
X176067999Y-114599999D02*
X175768000Y-114300000D01*
X178402000Y-115062000D02*
X176530000Y-115062000D01*
X176530000Y-115062000D02*
X176067999Y-114599999D01*
X157592000Y-101826000D02*
X163934296Y-101826000D01*
X163934296Y-101826000D02*
X164972295Y-102863999D01*
X156174282Y-101243010D02*
X155874283Y-100943011D01*
X156257272Y-101326000D02*
X156174282Y-101243010D01*
X157592000Y-101326000D02*
X156257272Y-101326000D01*
X177673000Y-114427000D02*
X177371008Y-114427000D01*
X181422000Y-114427000D02*
X177673000Y-114427000D01*
X177673000Y-114427000D02*
X176938344Y-114427000D01*
X176938344Y-114427000D02*
X176525741Y-114014397D01*
X183802000Y-116332000D02*
X183327000Y-116332000D01*
X183327000Y-116332000D02*
X181422000Y-114427000D01*
X178402000Y-113792000D02*
X177377000Y-113792000D01*
X177172881Y-113587881D02*
X177172881Y-113544065D01*
X177377000Y-113792000D02*
X177172881Y-113587881D01*
X159385000Y-100838000D02*
X157604000Y-100838000D01*
X157604000Y-100838000D02*
X157592000Y-100826000D01*
X150114000Y-96266000D02*
X150114000Y-94404000D01*
X150114000Y-94404000D02*
X150142000Y-94376000D01*
X133030000Y-129456000D02*
X133030000Y-129661000D01*
X133030000Y-129661000D02*
X133605000Y-130236000D01*
X144807002Y-130236000D02*
X145955001Y-129088001D01*
X133605000Y-130236000D02*
X144807002Y-130236000D01*
X145955001Y-129088001D02*
X145955001Y-127959999D01*
X145955001Y-127959999D02*
X141605000Y-123609998D01*
X141605000Y-123609998D02*
X141605000Y-116586000D01*
X140722215Y-116465215D02*
X138185999Y-119001431D01*
X138185999Y-119001431D02*
X138185999Y-127172003D01*
X138185999Y-127172003D02*
X136757003Y-128600999D01*
X136757003Y-128600999D02*
X131205001Y-128600999D01*
X131205001Y-128600999D02*
X131130000Y-128676000D01*
X131130000Y-128676000D02*
X131130000Y-129456000D01*
X149642000Y-94376000D02*
X149642000Y-95812998D01*
X149642000Y-95812998D02*
X149479000Y-95975998D01*
X149479000Y-95975998D02*
X149479000Y-96774000D01*
X97536000Y-139700000D02*
X96520000Y-139700000D01*
X100552000Y-139700000D02*
X97536000Y-139700000D01*
X97536000Y-138525000D02*
X96679000Y-138525000D01*
X100552000Y-138525000D02*
X97536000Y-138525000D01*
X105664000Y-141224000D02*
X105156000Y-141224000D01*
X106680000Y-141224000D02*
X105664000Y-141224000D01*
X107696000Y-141224000D02*
X106680000Y-141224000D01*
X108712000Y-141224000D02*
X107696000Y-141224000D01*
X109728000Y-141224000D02*
X108712000Y-141224000D01*
X108712000Y-139700000D02*
X109728000Y-139700000D01*
X107696000Y-139700000D02*
X108712000Y-139700000D01*
X106680000Y-139700000D02*
X107696000Y-139700000D01*
X105664000Y-139700000D02*
X106680000Y-139700000D01*
X101727000Y-139700000D02*
X105664000Y-139700000D01*
X105664000Y-138176000D02*
X106680000Y-138176000D01*
X102913500Y-138176000D02*
X105664000Y-138176000D01*
X106680000Y-138176000D02*
X107696000Y-138176000D01*
X107696000Y-138176000D02*
X108712000Y-138176000D01*
X108712000Y-138176000D02*
X109728000Y-138176000D01*
X108712000Y-136652000D02*
X107696000Y-136652000D01*
X109728000Y-136652000D02*
X108712000Y-136652000D01*
X107696000Y-136652000D02*
X106680000Y-136652000D01*
X106680000Y-136652000D02*
X105664000Y-136652000D01*
X105664000Y-136652000D02*
X105156000Y-136652000D01*
X96520000Y-137668000D02*
X96520000Y-136144000D01*
X96520000Y-138366000D02*
X96520000Y-137668000D01*
X95504000Y-137668000D02*
X95504000Y-138684000D01*
X95504000Y-136144000D02*
X95504000Y-137668000D01*
X94488000Y-137668000D02*
X94488000Y-138684000D01*
X94488000Y-136144000D02*
X94488000Y-137668000D01*
X93472000Y-137668000D02*
X93472000Y-138684000D01*
X93472000Y-136144000D02*
X93472000Y-137668000D01*
X95504000Y-141224000D02*
X94488000Y-141224000D01*
X96520000Y-141224000D02*
X95504000Y-141224000D01*
X95504000Y-141224000D02*
X95504000Y-139700000D01*
X94488000Y-141224000D02*
X93472000Y-141224000D01*
X94488000Y-141224000D02*
X94488000Y-139700000D01*
X95504000Y-136144000D02*
X94488000Y-136144000D01*
X96520000Y-136144000D02*
X95504000Y-136144000D01*
X94488000Y-136144000D02*
X93472000Y-136144000D01*
X93472000Y-141224000D02*
X93472000Y-139700000D01*
X96520000Y-139700000D02*
X96520000Y-141224000D01*
X96679000Y-138525000D02*
X96520000Y-138366000D01*
X109728000Y-139700000D02*
X109728000Y-141224000D01*
X109728000Y-138176000D02*
X109728000Y-136652000D01*
X101727000Y-138525000D02*
X102564500Y-138525000D01*
X102564500Y-138525000D02*
X102913500Y-138176000D01*
X224489999Y-96891001D02*
X225491001Y-96891001D01*
X223876000Y-96277002D02*
X224489999Y-96891001D01*
X223876000Y-94996000D02*
X223876000Y-96277002D01*
X230632000Y-90721262D02*
X230632000Y-90296998D01*
X230632000Y-91750002D02*
X230632000Y-90721262D01*
X225491001Y-96891001D02*
X230632000Y-91750002D01*
X173140000Y-129278000D02*
X170823000Y-129278000D01*
X170823000Y-129278000D02*
X170815000Y-129286000D01*
X171069000Y-126492000D02*
X172954000Y-126492000D01*
X172954000Y-126492000D02*
X173140000Y-126678000D01*
X223376000Y-94996000D02*
X223376000Y-96884000D01*
X223376000Y-96884000D02*
X223393000Y-96901000D01*
X232156000Y-77385002D02*
X232156000Y-76708000D01*
X232156000Y-76708000D02*
X231267000Y-75819000D01*
X231267000Y-75819000D02*
X230792000Y-75819000D01*
X222376000Y-94996000D02*
X222376000Y-87165002D01*
X222376000Y-87165002D02*
X232156000Y-77385002D01*
X221876000Y-93971000D02*
X221876000Y-94996000D01*
X230792000Y-77089000D02*
X230792000Y-77639000D01*
X230792000Y-77639000D02*
X221876000Y-86555000D01*
X221876000Y-86555000D02*
X221876000Y-93971000D01*
X228473000Y-78105000D02*
X228473000Y-77155000D01*
X228473000Y-77155000D02*
X225867000Y-74549000D01*
X225867000Y-74549000D02*
X225392000Y-74549000D01*
X220354999Y-86223001D02*
X228473000Y-78105000D01*
X221376000Y-94996000D02*
X221376000Y-88697002D01*
X221376000Y-88697002D02*
X220354999Y-87676001D01*
X220354999Y-87676001D02*
X220354999Y-86223001D01*
X89568000Y-92329000D02*
X93218000Y-92329000D01*
X93218000Y-92329000D02*
X94615000Y-92329000D01*
X94615000Y-93726000D02*
X94615000Y-92329000D01*
X206426000Y-97446000D02*
X185203000Y-97446000D01*
X185203000Y-97446000D02*
X168783000Y-81026000D01*
X168783000Y-81026000D02*
X105918000Y-81026000D01*
X105918000Y-81026000D02*
X94615000Y-92329000D01*
X209540002Y-111860996D02*
X211027999Y-110372999D01*
X211027999Y-110372999D02*
X215656013Y-110372999D01*
X209376000Y-112859004D02*
X209540002Y-112695002D01*
X215656013Y-110372999D02*
X218013001Y-112729987D01*
X209540002Y-112695002D02*
X209540002Y-111860996D01*
X209376000Y-116396000D02*
X209376000Y-112859004D01*
X218013001Y-112729987D02*
X218313000Y-113029986D01*
X222796000Y-129705000D02*
X222758000Y-129667000D01*
X222796000Y-137309002D02*
X222796000Y-129705000D01*
X208360999Y-148409003D02*
X208360999Y-121331001D01*
X222796000Y-148609002D02*
X222796000Y-149459002D01*
X222796000Y-149459002D02*
X222268002Y-149987000D01*
X222268002Y-149987000D02*
X209938996Y-149987000D01*
X209938996Y-149987000D02*
X208360999Y-148409003D01*
X208360999Y-121331001D02*
X210876000Y-118816000D01*
X210876000Y-118816000D02*
X210876000Y-117421000D01*
X210876000Y-117421000D02*
X210876000Y-116396000D01*
X224406041Y-150265715D02*
X224406041Y-150689979D01*
X224406041Y-149616041D02*
X224406041Y-150265715D01*
X224396000Y-149606000D02*
X224406041Y-149616041D01*
X224396000Y-149606000D02*
X224396000Y-149811001D01*
X224396000Y-148609002D02*
X224396000Y-149606000D01*
X211376000Y-116396000D02*
X211376000Y-112225002D01*
X211376000Y-112225002D02*
X211210999Y-112060001D01*
X211210999Y-112060001D02*
X211210999Y-111115001D01*
X211210999Y-111115001D02*
X211328000Y-110998000D01*
X224396000Y-149811001D02*
X224409000Y-149824001D01*
X223596000Y-148609002D02*
X223596000Y-150163968D01*
X223596000Y-150163968D02*
X223520000Y-150239968D01*
X211876000Y-116396000D02*
X211876000Y-111852477D01*
X211876000Y-111852477D02*
X211930974Y-111797503D01*
X212376000Y-117952410D02*
X212376000Y-117421000D01*
X212376000Y-117421000D02*
X212376000Y-116396000D01*
X209296000Y-121032410D02*
X212376000Y-117952410D01*
X209296000Y-138044004D02*
X209296000Y-121032410D01*
X209485999Y-138234003D02*
X209296000Y-138044004D01*
X213920999Y-138234003D02*
X209485999Y-138234003D01*
X213996000Y-138159002D02*
X213920999Y-138234003D01*
X213996000Y-137309002D02*
X213996000Y-138159002D01*
X212852000Y-111252000D02*
X212852000Y-111885590D01*
X212876000Y-115371000D02*
X212876000Y-116396000D01*
X212852000Y-111885590D02*
X212850979Y-111886611D01*
X212850979Y-111886611D02*
X212850979Y-115345979D01*
X212850979Y-115345979D02*
X212876000Y-115371000D01*
X226822000Y-147733002D02*
X226822000Y-147574000D01*
X226796000Y-148609002D02*
X226796000Y-147759002D01*
X226796000Y-147759002D02*
X226822000Y-147733002D01*
X225996000Y-148609002D02*
X225996000Y-149797000D01*
X225996000Y-149797000D02*
X225933000Y-149860000D01*
X213376000Y-116396000D02*
X213376000Y-113855412D01*
X213376000Y-113855412D02*
X213300989Y-113780401D01*
X213300989Y-113780401D02*
X213300989Y-112073011D01*
X213300989Y-112073011D02*
X213487000Y-111887000D01*
X225196000Y-150677243D02*
X225206048Y-150687291D01*
X225196000Y-148609002D02*
X225196000Y-150677243D01*
X213876000Y-116396000D02*
X213876000Y-113719002D01*
X213876000Y-113719002D02*
X213750999Y-113594001D01*
X213750999Y-113594001D02*
X213750999Y-112766001D01*
X213750999Y-112766001D02*
X213995000Y-112522000D01*
X214457001Y-113583999D02*
X214757000Y-113284000D01*
X214376000Y-113665000D02*
X214457001Y-113583999D01*
X214376000Y-116396000D02*
X214376000Y-113665000D01*
X213196000Y-147230006D02*
X213233000Y-147193006D01*
X213196000Y-148609002D02*
X213196000Y-147230006D01*
X215376000Y-114189000D02*
X215646000Y-113919000D01*
X215376000Y-116396000D02*
X215376000Y-114189000D01*
X212396000Y-148609002D02*
X212396000Y-147225418D01*
X212396000Y-147225418D02*
X212433001Y-147188417D01*
X215876000Y-114959000D02*
X216154000Y-114681000D01*
X215876000Y-116396000D02*
X215876000Y-114959000D01*
X211596000Y-148609002D02*
X211596000Y-147305980D01*
X211596000Y-147305980D02*
X211546513Y-147256493D01*
X210796000Y-147077096D02*
X210772625Y-147053721D01*
X210796000Y-148609002D02*
X210796000Y-147077096D01*
X217876000Y-116396000D02*
X217876000Y-117522118D01*
X217876000Y-117522118D02*
X217800559Y-117597559D01*
X209931000Y-147066000D02*
X209931000Y-148544002D01*
X209931000Y-148544002D02*
X209996000Y-148609002D01*
X218376000Y-116396000D02*
X218376000Y-114871000D01*
X218376000Y-114871000D02*
X218313000Y-114808000D01*
X218851001Y-117431001D02*
X218865999Y-117431001D01*
X218865999Y-117431001D02*
X218876000Y-117421000D01*
X218876000Y-117421000D02*
X218876000Y-116396000D01*
X209996000Y-137309002D02*
X209996000Y-126286002D01*
X209996000Y-126286002D02*
X218851001Y-117431001D01*
X219376000Y-116396000D02*
X219376000Y-117557410D01*
X219376000Y-117557410D02*
X210796000Y-126137410D01*
X210796000Y-126137410D02*
X210796000Y-136459002D01*
X210796000Y-136459002D02*
X210796000Y-137309002D01*
X220351001Y-117431001D02*
X220351001Y-115824000D01*
X211596000Y-137309002D02*
X211596000Y-126186002D01*
X211596000Y-126186002D02*
X220351001Y-117431001D01*
X220876000Y-116396000D02*
X220876000Y-117579000D01*
X220876000Y-117579000D02*
X215900000Y-122555000D01*
X215900000Y-122555000D02*
X215900000Y-124114998D01*
X212396000Y-127618998D02*
X212396000Y-136459002D01*
X215900000Y-124114998D02*
X212396000Y-127618998D01*
X212396000Y-136459002D02*
X212396000Y-137309002D01*
X221376000Y-116396000D02*
X221376000Y-117715410D01*
X221376000Y-117715410D02*
X216350010Y-122741400D01*
X216350010Y-122741400D02*
X216350010Y-127783988D01*
X216350010Y-127783988D02*
X213196000Y-130937998D01*
X213196000Y-136459002D02*
X213196000Y-137309002D01*
X213196000Y-130937998D02*
X213196000Y-136459002D01*
X221876000Y-116396000D02*
X221876000Y-118663822D01*
X221876000Y-118663822D02*
X221624999Y-118914823D01*
X221624999Y-118914823D02*
X221624999Y-124941422D01*
X221624999Y-124941422D02*
X222631000Y-125947423D01*
X223596000Y-127076000D02*
X223596000Y-137309002D01*
X222631000Y-125947423D02*
X222631000Y-126111000D01*
X222631000Y-126111000D02*
X223596000Y-127076000D01*
X222875001Y-119026413D02*
X222377000Y-118528412D01*
X224396000Y-137309002D02*
X224396000Y-127076013D01*
X222875001Y-125555014D02*
X222875001Y-119026413D01*
X222376000Y-117421000D02*
X222376000Y-116396000D01*
X224396000Y-127076013D02*
X222875001Y-125555014D01*
X222351001Y-117431001D02*
X222365999Y-117431001D01*
X222377000Y-118528412D02*
X222377000Y-117457000D01*
X222377000Y-117457000D02*
X222351001Y-117431001D01*
X222365999Y-117431001D02*
X222376000Y-117421000D01*
X225415001Y-136240001D02*
X225415001Y-120930003D01*
X222876000Y-117574998D02*
X222876000Y-117421000D01*
X222876000Y-117421000D02*
X222876000Y-116396000D01*
X222827011Y-117623987D02*
X222876000Y-117574998D01*
X222827011Y-118342013D02*
X222827011Y-117623987D01*
X225415001Y-120930003D02*
X222827011Y-118342013D01*
X225196000Y-136459002D02*
X225415001Y-136240001D01*
X225196000Y-137309002D02*
X225196000Y-136459002D01*
X225996000Y-137309002D02*
X225996000Y-119601975D01*
X225996000Y-119601975D02*
X223876000Y-117481975D01*
X223876000Y-117421000D02*
X223876000Y-116396000D01*
X223876000Y-117481975D02*
X223876000Y-117421000D01*
X224376000Y-117345564D02*
X224376000Y-116396000D01*
X226796000Y-119765564D02*
X224376000Y-117345564D01*
X226796000Y-137309002D02*
X226796000Y-119765564D01*
X230068001Y-113528000D02*
X229986001Y-113446000D01*
X229986001Y-113446000D02*
X227826000Y-113446000D01*
X242443000Y-132843410D02*
X242580000Y-132706410D01*
X242580000Y-132706410D02*
X242580000Y-115831214D01*
X242580000Y-115831214D02*
X243305768Y-115105446D01*
X228914811Y-146500009D02*
X242062000Y-133352820D01*
X242062000Y-133352820D02*
X242062000Y-133224410D01*
X242062000Y-133224410D02*
X242443000Y-132843410D01*
X221996000Y-146686410D02*
X222182400Y-146500010D01*
X222182400Y-146500010D02*
X228914811Y-146500009D01*
X221996000Y-148609002D02*
X221996000Y-146686410D01*
X225089999Y-112984001D02*
X224790000Y-113284000D01*
X225128000Y-112946000D02*
X225089999Y-112984001D01*
X227826000Y-112946000D02*
X225128000Y-112946000D01*
X241935000Y-112776000D02*
X241935000Y-132715000D01*
X221196000Y-146850000D02*
X221196000Y-148609002D01*
X241935000Y-132715000D02*
X237178010Y-137471990D01*
X237178010Y-137471990D02*
X237178009Y-137600401D01*
X221996000Y-146050000D02*
X221196000Y-146850000D01*
X237178009Y-137600401D02*
X228728410Y-146050000D01*
X228728410Y-146050000D02*
X221996000Y-146050000D01*
X221869000Y-111887000D02*
X221996000Y-112014000D01*
X221996000Y-112014000D02*
X223266000Y-112014000D01*
X223266000Y-112014000D02*
X223334000Y-111946000D01*
X223334000Y-111946000D02*
X226801000Y-111946000D01*
X226801000Y-111946000D02*
X227826000Y-111946000D01*
X228169470Y-145599989D02*
X241173000Y-132596459D01*
X241409961Y-112297550D02*
X241409961Y-111873286D01*
X241173000Y-112534511D02*
X241409961Y-112297550D01*
X221809600Y-145599989D02*
X228169470Y-145599989D01*
X241173000Y-132596459D02*
X241173000Y-112534511D01*
X220396000Y-148609002D02*
X220396000Y-147013589D01*
X220396000Y-147013589D02*
X221809600Y-145599989D01*
X223743002Y-111446000D02*
X223693013Y-111495989D01*
X222897986Y-111495989D02*
X222752998Y-111351001D01*
X223693013Y-111495989D02*
X222897986Y-111495989D01*
X227826000Y-111446000D02*
X223743002Y-111446000D01*
X240688200Y-111528228D02*
X240688200Y-132444850D01*
X240688200Y-132444850D02*
X228019824Y-145113224D01*
X228019824Y-145113224D02*
X221281776Y-145113224D01*
X221281776Y-145113224D02*
X219596000Y-146799000D01*
X219596000Y-146799000D02*
X219596000Y-148609002D01*
X227826000Y-110946000D02*
X223468021Y-110946000D01*
X223468021Y-110946000D02*
X223393021Y-110871000D01*
X223393021Y-110871000D02*
X223393000Y-110870979D01*
X240030000Y-132466640D02*
X240030000Y-111055314D01*
X240030000Y-111055314D02*
X240110543Y-110974771D01*
X239845010Y-132651630D02*
X240030000Y-132466640D01*
X233685640Y-138811000D02*
X239845010Y-132651630D01*
X219536782Y-144663216D02*
X227833425Y-144663215D01*
X227833425Y-144663215D02*
X233685640Y-138811000D01*
X217196000Y-148609002D02*
X217196000Y-147003998D01*
X217196000Y-147003998D02*
X219536782Y-144663216D01*
X226912400Y-110420989D02*
X224456999Y-110420989D01*
X224456999Y-110420989D02*
X224282000Y-110245990D01*
X227826000Y-110446000D02*
X226937411Y-110446000D01*
X226937411Y-110446000D02*
X226912400Y-110420989D01*
X239395000Y-110617000D02*
X239395000Y-132465230D01*
X227647024Y-144213206D02*
X219133794Y-144213206D01*
X216396000Y-146951000D02*
X216396000Y-148609002D01*
X239395000Y-132465230D02*
X227647024Y-144213206D01*
X219133794Y-144213206D02*
X216396000Y-146951000D01*
X225711242Y-109970978D02*
X226776022Y-109970978D01*
X226801000Y-109946000D02*
X227826000Y-109946000D01*
X225468264Y-109728000D02*
X225711242Y-109970978D01*
X226776022Y-109970978D02*
X226801000Y-109946000D01*
X225044000Y-109728000D02*
X225468264Y-109728000D01*
X238633000Y-110406264D02*
X238633000Y-109982000D01*
X238633000Y-132590820D02*
X238633000Y-110406264D01*
X215596000Y-147114589D02*
X218947394Y-143763195D01*
X215596000Y-148609002D02*
X215596000Y-147114589D01*
X218947394Y-143763195D02*
X227460625Y-143763195D01*
X227460625Y-143763195D02*
X238633000Y-132590820D01*
X226414032Y-109446000D02*
X226314000Y-109345968D01*
X227826000Y-109446000D02*
X226414032Y-109446000D01*
X237998000Y-132589410D02*
X237998000Y-109898264D01*
X227274226Y-143313184D02*
X237998000Y-132589410D01*
X237998000Y-109898264D02*
X237998000Y-109474000D01*
X214796000Y-147278178D02*
X218760994Y-143313184D01*
X218760994Y-143313184D02*
X227274226Y-143313184D01*
X214796000Y-148609002D02*
X214796000Y-147278178D01*
X228851000Y-108946000D02*
X227826000Y-108946000D01*
X214796000Y-137309002D02*
X214796000Y-138159002D01*
X227262127Y-138234003D02*
X233450923Y-132045207D01*
X214796000Y-138159002D02*
X214871001Y-138234003D01*
X233450923Y-132045207D02*
X233450923Y-113545923D01*
X214871001Y-138234003D02*
X227262127Y-138234003D01*
X233450923Y-113545923D02*
X228851000Y-108946000D01*
X216070264Y-138859003D02*
X215646000Y-138859003D01*
X233900934Y-132231606D02*
X227321540Y-138811000D01*
X227826000Y-108446000D02*
X229440988Y-108446000D01*
X216118267Y-138811000D02*
X216070264Y-138859003D01*
X227321540Y-138811000D02*
X216118267Y-138811000D01*
X229440988Y-108446000D02*
X233900934Y-112905946D01*
X233900934Y-112905946D02*
X233900934Y-132231606D01*
X215519000Y-136382002D02*
X215519000Y-136271000D01*
X215596000Y-137309002D02*
X215596000Y-136459002D01*
X215596000Y-136459002D02*
X215519000Y-136382002D01*
X227332950Y-139436000D02*
X216832264Y-139436000D01*
X227826000Y-107446000D02*
X230290992Y-107446000D01*
X234350945Y-111505953D02*
X234350945Y-132418005D01*
X216832264Y-139436000D02*
X216408000Y-139436000D01*
X230290992Y-107446000D02*
X234350945Y-111505953D01*
X234350945Y-132418005D02*
X227332950Y-139436000D01*
X216408000Y-136144000D02*
X216408000Y-137297002D01*
X216408000Y-137297002D02*
X216396000Y-137309002D01*
X234800956Y-111319554D02*
X234800956Y-132604404D01*
X217614263Y-140061001D02*
X217189999Y-140061001D01*
X234800956Y-132604404D02*
X227344359Y-140061001D01*
X227826000Y-106946000D02*
X230427402Y-106946000D01*
X227344359Y-140061001D02*
X217614263Y-140061001D01*
X230427402Y-106946000D02*
X234800956Y-111319554D01*
X217196000Y-137309002D02*
X217196000Y-136304427D01*
X217196000Y-136304427D02*
X217192466Y-136300893D01*
X227826000Y-105946000D02*
X229424998Y-105946000D01*
X227355769Y-140686001D02*
X220007264Y-140686001D01*
X235250967Y-110373967D02*
X235250967Y-132790803D01*
X235250967Y-132790803D02*
X227355769Y-140686001D01*
X229706999Y-105664001D02*
X230541003Y-105664001D01*
X229424998Y-105946000D02*
X229706999Y-105664001D01*
X230541003Y-105664001D02*
X235250967Y-110373967D01*
X220007264Y-140686001D02*
X219583000Y-140686001D01*
X219583000Y-136271000D02*
X219583000Y-137296002D01*
X219583000Y-137296002D02*
X219596000Y-137309002D01*
X229288588Y-105446000D02*
X229520598Y-105213990D01*
X220769264Y-141311001D02*
X220345000Y-141311001D01*
X235700978Y-132977202D02*
X227367179Y-141311001D01*
X230727403Y-105213991D02*
X235700978Y-110187568D01*
X229520598Y-105213990D02*
X230727403Y-105213991D01*
X227826000Y-105446000D02*
X229288588Y-105446000D01*
X227367179Y-141311001D02*
X220769264Y-141311001D01*
X235700978Y-110187568D02*
X235700978Y-132977202D01*
X220383003Y-136271000D02*
X220383003Y-137296005D01*
X220383003Y-137296005D02*
X220396000Y-137309002D01*
X221711040Y-141935989D02*
X221711028Y-141936001D01*
X227378601Y-141935989D02*
X221711040Y-141935989D01*
X233416001Y-107266181D02*
X236150989Y-110001169D01*
X229179577Y-103396011D02*
X231885400Y-103396011D01*
X229129588Y-103446000D02*
X229179577Y-103396011D01*
X233416000Y-103077998D02*
X233416001Y-107266181D01*
X232528409Y-102753001D02*
X233091003Y-102753001D01*
X231885400Y-103396011D02*
X232528409Y-102753001D01*
X227826000Y-103446000D02*
X229129588Y-103446000D01*
X233091003Y-102753001D02*
X233416000Y-103077998D01*
X221711028Y-141936001D02*
X221286764Y-141936001D01*
X236150989Y-110001169D02*
X236150989Y-133163601D01*
X236150989Y-133163601D02*
X227378601Y-141935989D01*
X221183006Y-136271000D02*
X221183006Y-137296008D01*
X221183006Y-137296008D02*
X221196000Y-137309002D01*
X236601000Y-133350000D02*
X227390010Y-142560990D01*
X222420264Y-142560990D02*
X221996000Y-142560990D01*
X227390010Y-142560990D02*
X222420264Y-142560990D01*
X233866011Y-102891599D02*
X233866011Y-103747011D01*
X231699000Y-102946000D02*
X232342010Y-102302990D01*
X233866011Y-103747011D02*
X236601000Y-106482000D01*
X227826000Y-102946000D02*
X231699000Y-102946000D01*
X233277402Y-102302990D02*
X233866011Y-102891599D01*
X232342010Y-102302990D02*
X233277402Y-102302990D01*
X236601000Y-106482000D02*
X236601000Y-133350000D01*
X221996000Y-136271000D02*
X221996000Y-137309002D01*
X155642000Y-94376000D02*
X155642000Y-94294000D01*
X86868000Y-92329000D02*
X79537996Y-92329000D01*
X79537996Y-92329000D02*
X73142001Y-85933005D01*
X73142001Y-85933005D02*
X73142001Y-83702999D01*
X73142001Y-83702999D02*
X73970000Y-82875000D01*
X73970000Y-82875000D02*
X74575000Y-82875000D01*
X74350000Y-82875000D02*
X74575000Y-82875000D01*
X119790000Y-99060000D02*
X121920000Y-99060000D01*
X119790000Y-99060000D02*
X120396000Y-99060000D01*
X120396000Y-99060000D02*
X120495999Y-98960001D01*
X119790000Y-100360000D02*
X118530000Y-100360000D01*
X118530000Y-100360000D02*
X116412000Y-102478000D01*
X116412000Y-102478000D02*
X116412000Y-103378000D01*
X119790000Y-101010000D02*
X123536000Y-101010000D01*
X123536000Y-101010000D02*
X123618000Y-101092000D01*
X120290000Y-101010000D02*
X119790000Y-101010000D01*
D61*
G36*
X97409000Y-137668000D02*
X97419006Y-137717410D01*
X97447447Y-137759035D01*
X97489841Y-137786315D01*
X97536000Y-137795000D01*
X98737270Y-137795000D01*
X98934500Y-137834940D01*
X99534500Y-137834940D01*
X99746763Y-137795000D01*
X100007270Y-137795000D01*
X100204500Y-137834940D01*
X100804500Y-137834940D01*
X101016763Y-137795000D01*
X101277270Y-137795000D01*
X101474500Y-137834940D01*
X102074500Y-137834940D01*
X102286763Y-137795000D01*
X102547270Y-137795000D01*
X102744500Y-137834940D01*
X103344500Y-137834940D01*
X103556763Y-137795000D01*
X104648000Y-137795000D01*
X104697410Y-137784994D01*
X104739035Y-137756553D01*
X104766315Y-137714159D01*
X104775000Y-137668000D01*
X104775000Y-136001802D01*
X105013802Y-135763000D01*
X110109000Y-135763000D01*
X110109000Y-141605000D01*
X104775000Y-141605000D01*
X104775000Y-140716000D01*
X104764994Y-140666590D01*
X104736553Y-140624965D01*
X104694159Y-140597685D01*
X104648000Y-140589000D01*
X103810482Y-140589000D01*
X103808590Y-140586059D01*
X103596390Y-140441069D01*
X103344500Y-140390060D01*
X102744500Y-140390060D01*
X102509183Y-140434338D01*
X102409972Y-140498178D01*
X102326390Y-140441069D01*
X102074500Y-140390060D01*
X101474500Y-140390060D01*
X101239183Y-140434338D01*
X101139972Y-140498178D01*
X101056390Y-140441069D01*
X100804500Y-140390060D01*
X100204500Y-140390060D01*
X99969183Y-140434338D01*
X99869972Y-140498178D01*
X99786390Y-140441069D01*
X99534500Y-140390060D01*
X98934500Y-140390060D01*
X98699183Y-140434338D01*
X98483059Y-140573410D01*
X98472407Y-140589000D01*
X97536000Y-140589000D01*
X97486590Y-140599006D01*
X97444965Y-140627447D01*
X97417685Y-140669841D01*
X97409000Y-140716000D01*
X97409000Y-141918328D01*
X97368433Y-141945434D01*
X97200867Y-142113000D01*
X93091000Y-142113000D01*
X93091000Y-135255000D01*
X97409000Y-135255000D01*
X97409000Y-137668000D01*
X97409000Y-137668000D01*
G37*
X97409000Y-137668000D02*
X97419006Y-137717410D01*
X97447447Y-137759035D01*
X97489841Y-137786315D01*
X97536000Y-137795000D01*
X98737270Y-137795000D01*
X98934500Y-137834940D01*
X99534500Y-137834940D01*
X99746763Y-137795000D01*
X100007270Y-137795000D01*
X100204500Y-137834940D01*
X100804500Y-137834940D01*
X101016763Y-137795000D01*
X101277270Y-137795000D01*
X101474500Y-137834940D01*
X102074500Y-137834940D01*
X102286763Y-137795000D01*
X102547270Y-137795000D01*
X102744500Y-137834940D01*
X103344500Y-137834940D01*
X103556763Y-137795000D01*
X104648000Y-137795000D01*
X104697410Y-137784994D01*
X104739035Y-137756553D01*
X104766315Y-137714159D01*
X104775000Y-137668000D01*
X104775000Y-136001802D01*
X105013802Y-135763000D01*
X110109000Y-135763000D01*
X110109000Y-141605000D01*
X104775000Y-141605000D01*
X104775000Y-140716000D01*
X104764994Y-140666590D01*
X104736553Y-140624965D01*
X104694159Y-140597685D01*
X104648000Y-140589000D01*
X103810482Y-140589000D01*
X103808590Y-140586059D01*
X103596390Y-140441069D01*
X103344500Y-140390060D01*
X102744500Y-140390060D01*
X102509183Y-140434338D01*
X102409972Y-140498178D01*
X102326390Y-140441069D01*
X102074500Y-140390060D01*
X101474500Y-140390060D01*
X101239183Y-140434338D01*
X101139972Y-140498178D01*
X101056390Y-140441069D01*
X100804500Y-140390060D01*
X100204500Y-140390060D01*
X99969183Y-140434338D01*
X99869972Y-140498178D01*
X99786390Y-140441069D01*
X99534500Y-140390060D01*
X98934500Y-140390060D01*
X98699183Y-140434338D01*
X98483059Y-140573410D01*
X98472407Y-140589000D01*
X97536000Y-140589000D01*
X97486590Y-140599006D01*
X97444965Y-140627447D01*
X97417685Y-140669841D01*
X97409000Y-140716000D01*
X97409000Y-141918328D01*
X97368433Y-141945434D01*
X97200867Y-142113000D01*
X93091000Y-142113000D01*
X93091000Y-135255000D01*
X97409000Y-135255000D01*
X97409000Y-137668000D01*
G36*
X87503000Y-107823000D02*
X80137000Y-107823000D01*
X80137000Y-100457000D01*
X87503000Y-100457000D01*
X87503000Y-107823000D01*
X87503000Y-107823000D01*
G37*
X87503000Y-107823000D02*
X80137000Y-107823000D01*
X80137000Y-100457000D01*
X87503000Y-100457000D01*
X87503000Y-107823000D01*
G36*
X77343000Y-109093000D02*
X67310000Y-109093000D01*
X67310000Y-100457000D01*
X77343000Y-100457000D01*
X77343000Y-109093000D01*
X77343000Y-109093000D01*
G37*
X77343000Y-109093000D02*
X67310000Y-109093000D01*
X67310000Y-100457000D01*
X77343000Y-100457000D01*
X77343000Y-109093000D01*
G36*
X114808000Y-131445000D02*
X108002245Y-131445000D01*
X107845327Y-131287808D01*
X107501799Y-131145162D01*
X107469440Y-131145134D01*
X107469440Y-129980000D01*
X107425162Y-129744683D01*
X107286090Y-129528559D01*
X107073890Y-129383569D01*
X106822000Y-129332560D01*
X105522000Y-129332560D01*
X105286683Y-129376838D01*
X105070559Y-129515910D01*
X104925569Y-129728110D01*
X104874560Y-129980000D01*
X104874560Y-131480000D01*
X104918838Y-131715317D01*
X105057910Y-131931441D01*
X105237022Y-132053823D01*
X105236974Y-132108825D01*
X105070559Y-132215910D01*
X104925569Y-132428110D01*
X104900588Y-132551471D01*
X104215852Y-132852755D01*
X104174656Y-132881813D01*
X104148011Y-132924609D01*
X104140374Y-132959260D01*
X104022394Y-134493000D01*
X102668245Y-134493000D01*
X102511327Y-134335808D01*
X102167799Y-134193162D01*
X101795833Y-134192838D01*
X101452057Y-134334883D01*
X101293664Y-134493000D01*
X99994500Y-134493000D01*
X99994500Y-133893500D01*
X99936648Y-133602661D01*
X99771901Y-133356099D01*
X99755170Y-133339368D01*
X100070187Y-126619000D01*
X101600000Y-126619000D01*
X101649410Y-126608994D01*
X101691035Y-126580553D01*
X101718315Y-126538159D01*
X101727000Y-126492000D01*
X101727000Y-122809000D01*
X114808000Y-122809000D01*
X114808000Y-131445000D01*
X114808000Y-131445000D01*
G37*
X114808000Y-131445000D02*
X108002245Y-131445000D01*
X107845327Y-131287808D01*
X107501799Y-131145162D01*
X107469440Y-131145134D01*
X107469440Y-129980000D01*
X107425162Y-129744683D01*
X107286090Y-129528559D01*
X107073890Y-129383569D01*
X106822000Y-129332560D01*
X105522000Y-129332560D01*
X105286683Y-129376838D01*
X105070559Y-129515910D01*
X104925569Y-129728110D01*
X104874560Y-129980000D01*
X104874560Y-131480000D01*
X104918838Y-131715317D01*
X105057910Y-131931441D01*
X105237022Y-132053823D01*
X105236974Y-132108825D01*
X105070559Y-132215910D01*
X104925569Y-132428110D01*
X104900588Y-132551471D01*
X104215852Y-132852755D01*
X104174656Y-132881813D01*
X104148011Y-132924609D01*
X104140374Y-132959260D01*
X104022394Y-134493000D01*
X102668245Y-134493000D01*
X102511327Y-134335808D01*
X102167799Y-134193162D01*
X101795833Y-134192838D01*
X101452057Y-134334883D01*
X101293664Y-134493000D01*
X99994500Y-134493000D01*
X99994500Y-133893500D01*
X99936648Y-133602661D01*
X99771901Y-133356099D01*
X99755170Y-133339368D01*
X100070187Y-126619000D01*
X101600000Y-126619000D01*
X101649410Y-126608994D01*
X101691035Y-126580553D01*
X101718315Y-126538159D01*
X101727000Y-126492000D01*
X101727000Y-122809000D01*
X114808000Y-122809000D01*
X114808000Y-131445000D01*
M02*
