G04 #@! TF.FileFunction,Legend,Bot*
%FSLAX46Y46*%
G04 Gerber Fmt 4.6, Leading zero omitted, Abs format (unit mm)*
G04 Created by KiCad (PCBNEW 4.0.7-e2-6376~58~ubuntu16.04.1) date Sat Apr  6 13:35:55 2019*
%MOMM*%
%LPD*%
G01*
G04 APERTURE LIST*
%ADD10C,0.100000*%
%ADD11C,0.120000*%
%ADD12C,0.150000*%
G04 APERTURE END LIST*
D10*
D11*
X159678000Y-103858000D02*
X159678000Y-102858000D01*
X161378000Y-102858000D02*
X161378000Y-103858000D01*
X144614000Y-103874000D02*
X144614000Y-104874000D01*
X142914000Y-104874000D02*
X142914000Y-103874000D01*
X217666000Y-132198000D02*
X218866000Y-132198000D01*
X218866000Y-130438000D02*
X217666000Y-130438000D01*
X217666000Y-134385474D02*
X218866000Y-134385474D01*
X218866000Y-132625474D02*
X217666000Y-132625474D01*
X219319227Y-143677998D02*
X219319227Y-144877998D01*
X221079227Y-144877998D02*
X221079227Y-143677998D01*
X215696226Y-143545000D02*
X215696226Y-144745000D01*
X217456226Y-144745000D02*
X217456226Y-143545000D01*
X199164000Y-105703000D02*
X200164000Y-105703000D01*
X200164000Y-107403000D02*
X199164000Y-107403000D01*
D12*
X160754060Y-109435900D02*
X161805620Y-109435900D01*
X161856420Y-111036100D02*
X160804860Y-111036100D01*
D11*
X162218000Y-103898000D02*
X162218000Y-102898000D01*
X163918000Y-102898000D02*
X163918000Y-103898000D01*
X153190000Y-110642222D02*
X154190000Y-110642222D01*
X154190000Y-112342222D02*
X153190000Y-112342222D01*
X153190000Y-108102222D02*
X154190000Y-108102222D01*
X154190000Y-109802222D02*
X153190000Y-109802222D01*
X219241000Y-121892000D02*
X219241000Y-120892000D01*
X220941000Y-120892000D02*
X220941000Y-121892000D01*
X216165188Y-127527476D02*
X216165188Y-126527476D01*
X217865188Y-126527476D02*
X217865188Y-127527476D01*
X218912577Y-127516905D02*
X218912577Y-126516905D01*
X220612577Y-126516905D02*
X220612577Y-127516905D01*
X216701000Y-121932000D02*
X216701000Y-120932000D01*
X218401000Y-120932000D02*
X218401000Y-121932000D01*
X160754000Y-88226000D02*
X159754000Y-88226000D01*
X159754000Y-86526000D02*
X160754000Y-86526000D01*
X160754000Y-90512000D02*
X159754000Y-90512000D01*
X159754000Y-88812000D02*
X160754000Y-88812000D01*
X162218000Y-97802000D02*
X162218000Y-96802000D01*
X163918000Y-96802000D02*
X163918000Y-97802000D01*
X160794000Y-92798000D02*
X159794000Y-92798000D01*
X159794000Y-91098000D02*
X160794000Y-91098000D01*
X159678000Y-97802000D02*
X159678000Y-96802000D01*
X161378000Y-96802000D02*
X161378000Y-97802000D01*
X149070000Y-90893000D02*
X148070000Y-90893000D01*
X148070000Y-89193000D02*
X149070000Y-89193000D01*
X149070000Y-92925000D02*
X148070000Y-92925000D01*
X148070000Y-91225000D02*
X149070000Y-91225000D01*
X213321000Y-89670000D02*
X213321000Y-90670000D01*
X211621000Y-90670000D02*
X211621000Y-89670000D01*
X203669000Y-90666000D02*
X203669000Y-91666000D01*
X201969000Y-91666000D02*
X201969000Y-90666000D01*
X215480000Y-89690000D02*
X215480000Y-90690000D01*
X213780000Y-90690000D02*
X213780000Y-89690000D01*
X206209000Y-90666000D02*
X206209000Y-91666000D01*
X204509000Y-91666000D02*
X204509000Y-90666000D01*
X191174000Y-101866000D02*
X191174000Y-100866000D01*
X192874000Y-100866000D02*
X192874000Y-101866000D01*
X199153275Y-101512000D02*
X200153275Y-101512000D01*
X200153275Y-103212000D02*
X199153275Y-103212000D01*
X199133275Y-103592885D02*
X200133275Y-103592885D01*
X200133275Y-105292885D02*
X199133275Y-105292885D01*
X194298000Y-105703000D02*
X195298000Y-105703000D01*
X195298000Y-107403000D02*
X194298000Y-107403000D01*
X213753000Y-85916564D02*
X212753000Y-85916564D01*
X212753000Y-84216564D02*
X213753000Y-84216564D01*
X239514000Y-107530000D02*
X238514000Y-107530000D01*
X238514000Y-105830000D02*
X239514000Y-105830000D01*
X235089000Y-100926000D02*
X234089000Y-100926000D01*
X234089000Y-99226000D02*
X235089000Y-99226000D01*
X211574000Y-106514000D02*
X210574000Y-106514000D01*
X210574000Y-104814000D02*
X211574000Y-104814000D01*
X235089000Y-102958000D02*
X234089000Y-102958000D01*
X234089000Y-101258000D02*
X235089000Y-101258000D01*
X219717494Y-83829042D02*
X219717494Y-84829042D01*
X218017494Y-84829042D02*
X218017494Y-83829042D01*
X221556000Y-83828000D02*
X221556000Y-84828000D01*
X219856000Y-84828000D02*
X219856000Y-83828000D01*
X213753000Y-83400000D02*
X212753000Y-83400000D01*
X212753000Y-81700000D02*
X213753000Y-81700000D01*
X217812494Y-83829042D02*
X217812494Y-84829042D01*
X216112494Y-84829042D02*
X216112494Y-83829042D01*
X152028000Y-86141000D02*
X152028000Y-87341000D01*
X153788000Y-87341000D02*
X153788000Y-86141000D01*
X146165000Y-81652000D02*
X147365000Y-81652000D01*
X147365000Y-79892000D02*
X146165000Y-79892000D01*
X141469000Y-91278000D02*
X141469000Y-90078000D01*
X139709000Y-90078000D02*
X139709000Y-91278000D01*
X70905000Y-77950000D02*
X70905000Y-76950000D01*
X72605000Y-76950000D02*
X72605000Y-77950000D01*
X68492000Y-80530000D02*
X68492000Y-79530000D01*
X70192000Y-79530000D02*
X70192000Y-80530000D01*
X83892112Y-86098000D02*
X83892112Y-85098000D01*
X85592112Y-85098000D02*
X85592112Y-86098000D01*
X81065000Y-86098000D02*
X81065000Y-85098000D01*
X82765000Y-85098000D02*
X82765000Y-86098000D01*
X239514000Y-105244000D02*
X238514000Y-105244000D01*
X238514000Y-103544000D02*
X239514000Y-103544000D01*
X211554000Y-109308000D02*
X210554000Y-109308000D01*
X210554000Y-107608000D02*
X211554000Y-107608000D01*
X200942000Y-98718000D02*
X201942000Y-98718000D01*
X201942000Y-100418000D02*
X200942000Y-100418000D01*
X200902000Y-108878000D02*
X201902000Y-108878000D01*
X201902000Y-110578000D02*
X200902000Y-110578000D01*
X200902000Y-110910000D02*
X201902000Y-110910000D01*
X201902000Y-112610000D02*
X200902000Y-112610000D01*
X233398000Y-109054000D02*
X232398000Y-109054000D01*
X232398000Y-107354000D02*
X233398000Y-107354000D01*
X233398000Y-105498000D02*
X232398000Y-105498000D01*
X232398000Y-103798000D02*
X233398000Y-103798000D01*
X233398000Y-97624000D02*
X232398000Y-97624000D01*
X232398000Y-95924000D02*
X233398000Y-95924000D01*
X225112000Y-89650000D02*
X225112000Y-90650000D01*
X223412000Y-90650000D02*
X223412000Y-89650000D01*
X218401000Y-89309000D02*
X218401000Y-90309000D01*
X216701000Y-90309000D02*
X216701000Y-89309000D01*
X210019000Y-89690000D02*
X210019000Y-90690000D01*
X208319000Y-90690000D02*
X208319000Y-89690000D01*
X208954000Y-121912000D02*
X208954000Y-120912000D01*
X210654000Y-120912000D02*
X210654000Y-121912000D01*
X214034000Y-121912000D02*
X214034000Y-120912000D01*
X215734000Y-120912000D02*
X215734000Y-121912000D01*
X222436000Y-121912000D02*
X222436000Y-120912000D01*
X224136000Y-120912000D02*
X224136000Y-121912000D01*
X124448000Y-99940000D02*
X125648000Y-99940000D01*
X125648000Y-98180000D02*
X124448000Y-98180000D01*
D12*
X160885143Y-106779143D02*
X160932762Y-106731524D01*
X160980381Y-106588667D01*
X160980381Y-106493429D01*
X160932762Y-106350571D01*
X160837524Y-106255333D01*
X160742286Y-106207714D01*
X160551810Y-106160095D01*
X160408952Y-106160095D01*
X160218476Y-106207714D01*
X160123238Y-106255333D01*
X160028000Y-106350571D01*
X159980381Y-106493429D01*
X159980381Y-106588667D01*
X160028000Y-106731524D01*
X160075619Y-106779143D01*
X160980381Y-107731524D02*
X160980381Y-107160095D01*
X160980381Y-107445809D02*
X159980381Y-107445809D01*
X160123238Y-107350571D01*
X160218476Y-107255333D01*
X160266095Y-107160095D01*
X160980381Y-108207714D02*
X160980381Y-108398190D01*
X160932762Y-108493429D01*
X160885143Y-108541048D01*
X160742286Y-108636286D01*
X160551810Y-108683905D01*
X160170857Y-108683905D01*
X160075619Y-108636286D01*
X160028000Y-108588667D01*
X159980381Y-108493429D01*
X159980381Y-108302952D01*
X160028000Y-108207714D01*
X160075619Y-108160095D01*
X160170857Y-108112476D01*
X160408952Y-108112476D01*
X160504190Y-108160095D01*
X160551810Y-108207714D01*
X160599429Y-108302952D01*
X160599429Y-108493429D01*
X160551810Y-108588667D01*
X160504190Y-108636286D01*
X160408952Y-108683905D01*
X145871143Y-104207334D02*
X145918762Y-104159715D01*
X145966381Y-104016858D01*
X145966381Y-103921620D01*
X145918762Y-103778762D01*
X145823524Y-103683524D01*
X145728286Y-103635905D01*
X145537810Y-103588286D01*
X145394952Y-103588286D01*
X145204476Y-103635905D01*
X145109238Y-103683524D01*
X145014000Y-103778762D01*
X144966381Y-103921620D01*
X144966381Y-104016858D01*
X145014000Y-104159715D01*
X145061619Y-104207334D01*
X145966381Y-104683524D02*
X145966381Y-104874000D01*
X145918762Y-104969239D01*
X145871143Y-105016858D01*
X145728286Y-105112096D01*
X145537810Y-105159715D01*
X145156857Y-105159715D01*
X145061619Y-105112096D01*
X145014000Y-105064477D01*
X144966381Y-104969239D01*
X144966381Y-104778762D01*
X145014000Y-104683524D01*
X145061619Y-104635905D01*
X145156857Y-104588286D01*
X145394952Y-104588286D01*
X145490190Y-104635905D01*
X145537810Y-104683524D01*
X145585429Y-104778762D01*
X145585429Y-104969239D01*
X145537810Y-105064477D01*
X145490190Y-105112096D01*
X145394952Y-105159715D01*
X223019857Y-131802143D02*
X223067476Y-131849762D01*
X223210333Y-131897381D01*
X223305571Y-131897381D01*
X223448429Y-131849762D01*
X223543667Y-131754524D01*
X223591286Y-131659286D01*
X223638905Y-131468810D01*
X223638905Y-131325952D01*
X223591286Y-131135476D01*
X223543667Y-131040238D01*
X223448429Y-130945000D01*
X223305571Y-130897381D01*
X223210333Y-130897381D01*
X223067476Y-130945000D01*
X223019857Y-130992619D01*
X222686524Y-130897381D02*
X222067476Y-130897381D01*
X222400810Y-131278333D01*
X222257952Y-131278333D01*
X222162714Y-131325952D01*
X222115095Y-131373571D01*
X222067476Y-131468810D01*
X222067476Y-131706905D01*
X222115095Y-131802143D01*
X222162714Y-131849762D01*
X222257952Y-131897381D01*
X222543667Y-131897381D01*
X222638905Y-131849762D01*
X222686524Y-131802143D01*
X221210333Y-130897381D02*
X221400810Y-130897381D01*
X221496048Y-130945000D01*
X221543667Y-130992619D01*
X221638905Y-131135476D01*
X221686524Y-131325952D01*
X221686524Y-131706905D01*
X221638905Y-131802143D01*
X221591286Y-131849762D01*
X221496048Y-131897381D01*
X221305571Y-131897381D01*
X221210333Y-131849762D01*
X221162714Y-131802143D01*
X221115095Y-131706905D01*
X221115095Y-131468810D01*
X221162714Y-131373571D01*
X221210333Y-131325952D01*
X221305571Y-131278333D01*
X221496048Y-131278333D01*
X221591286Y-131325952D01*
X221638905Y-131373571D01*
X221686524Y-131468810D01*
X223146857Y-133961143D02*
X223194476Y-134008762D01*
X223337333Y-134056381D01*
X223432571Y-134056381D01*
X223575429Y-134008762D01*
X223670667Y-133913524D01*
X223718286Y-133818286D01*
X223765905Y-133627810D01*
X223765905Y-133484952D01*
X223718286Y-133294476D01*
X223670667Y-133199238D01*
X223575429Y-133104000D01*
X223432571Y-133056381D01*
X223337333Y-133056381D01*
X223194476Y-133104000D01*
X223146857Y-133151619D01*
X222813524Y-133056381D02*
X222194476Y-133056381D01*
X222527810Y-133437333D01*
X222384952Y-133437333D01*
X222289714Y-133484952D01*
X222242095Y-133532571D01*
X222194476Y-133627810D01*
X222194476Y-133865905D01*
X222242095Y-133961143D01*
X222289714Y-134008762D01*
X222384952Y-134056381D01*
X222670667Y-134056381D01*
X222765905Y-134008762D01*
X222813524Y-133961143D01*
X221623048Y-133484952D02*
X221718286Y-133437333D01*
X221765905Y-133389714D01*
X221813524Y-133294476D01*
X221813524Y-133246857D01*
X221765905Y-133151619D01*
X221718286Y-133104000D01*
X221623048Y-133056381D01*
X221432571Y-133056381D01*
X221337333Y-133104000D01*
X221289714Y-133151619D01*
X221242095Y-133246857D01*
X221242095Y-133294476D01*
X221289714Y-133389714D01*
X221337333Y-133437333D01*
X221432571Y-133484952D01*
X221623048Y-133484952D01*
X221718286Y-133532571D01*
X221765905Y-133580190D01*
X221813524Y-133675429D01*
X221813524Y-133865905D01*
X221765905Y-133961143D01*
X221718286Y-134008762D01*
X221623048Y-134056381D01*
X221432571Y-134056381D01*
X221337333Y-134008762D01*
X221289714Y-133961143D01*
X221242095Y-133865905D01*
X221242095Y-133675429D01*
X221289714Y-133580190D01*
X221337333Y-133532571D01*
X221432571Y-133484952D01*
X222256370Y-143635141D02*
X222303989Y-143587522D01*
X222351608Y-143444665D01*
X222351608Y-143349427D01*
X222303989Y-143206569D01*
X222208751Y-143111331D01*
X222113513Y-143063712D01*
X221923037Y-143016093D01*
X221780179Y-143016093D01*
X221589703Y-143063712D01*
X221494465Y-143111331D01*
X221399227Y-143206569D01*
X221351608Y-143349427D01*
X221351608Y-143444665D01*
X221399227Y-143587522D01*
X221446846Y-143635141D01*
X221351608Y-143968474D02*
X221351608Y-144587522D01*
X221732560Y-144254188D01*
X221732560Y-144397046D01*
X221780179Y-144492284D01*
X221827798Y-144539903D01*
X221923037Y-144587522D01*
X222161132Y-144587522D01*
X222256370Y-144539903D01*
X222303989Y-144492284D01*
X222351608Y-144397046D01*
X222351608Y-144111331D01*
X222303989Y-144016093D01*
X222256370Y-143968474D01*
X221684941Y-145444665D02*
X222351608Y-145444665D01*
X221303989Y-145206569D02*
X222018275Y-144968474D01*
X222018275Y-145587522D01*
X218633369Y-143502143D02*
X218680988Y-143454524D01*
X218728607Y-143311667D01*
X218728607Y-143216429D01*
X218680988Y-143073571D01*
X218585750Y-142978333D01*
X218490512Y-142930714D01*
X218300036Y-142883095D01*
X218157178Y-142883095D01*
X217966702Y-142930714D01*
X217871464Y-142978333D01*
X217776226Y-143073571D01*
X217728607Y-143216429D01*
X217728607Y-143311667D01*
X217776226Y-143454524D01*
X217823845Y-143502143D01*
X217728607Y-143835476D02*
X217728607Y-144454524D01*
X218109559Y-144121190D01*
X218109559Y-144264048D01*
X218157178Y-144359286D01*
X218204797Y-144406905D01*
X218300036Y-144454524D01*
X218538131Y-144454524D01*
X218633369Y-144406905D01*
X218680988Y-144359286D01*
X218728607Y-144264048D01*
X218728607Y-143978333D01*
X218680988Y-143883095D01*
X218633369Y-143835476D01*
X217728607Y-145359286D02*
X217728607Y-144883095D01*
X218204797Y-144835476D01*
X218157178Y-144883095D01*
X218109559Y-144978333D01*
X218109559Y-145216429D01*
X218157178Y-145311667D01*
X218204797Y-145359286D01*
X218300036Y-145406905D01*
X218538131Y-145406905D01*
X218633369Y-145359286D01*
X218680988Y-145311667D01*
X218728607Y-145216429D01*
X218728607Y-144978333D01*
X218680988Y-144883095D01*
X218633369Y-144835476D01*
X203969857Y-107164143D02*
X204017476Y-107211762D01*
X204160333Y-107259381D01*
X204255571Y-107259381D01*
X204398429Y-107211762D01*
X204493667Y-107116524D01*
X204541286Y-107021286D01*
X204588905Y-106830810D01*
X204588905Y-106687952D01*
X204541286Y-106497476D01*
X204493667Y-106402238D01*
X204398429Y-106307000D01*
X204255571Y-106259381D01*
X204160333Y-106259381D01*
X204017476Y-106307000D01*
X203969857Y-106354619D01*
X203112714Y-106259381D02*
X203303191Y-106259381D01*
X203398429Y-106307000D01*
X203446048Y-106354619D01*
X203541286Y-106497476D01*
X203588905Y-106687952D01*
X203588905Y-107068905D01*
X203541286Y-107164143D01*
X203493667Y-107211762D01*
X203398429Y-107259381D01*
X203207952Y-107259381D01*
X203112714Y-107211762D01*
X203065095Y-107164143D01*
X203017476Y-107068905D01*
X203017476Y-106830810D01*
X203065095Y-106735571D01*
X203112714Y-106687952D01*
X203207952Y-106640333D01*
X203398429Y-106640333D01*
X203493667Y-106687952D01*
X203541286Y-106735571D01*
X203588905Y-106830810D01*
X202065095Y-107259381D02*
X202636524Y-107259381D01*
X202350810Y-107259381D02*
X202350810Y-106259381D01*
X202446048Y-106402238D01*
X202541286Y-106497476D01*
X202636524Y-106545095D01*
X166282666Y-110688381D02*
X166758857Y-110688381D01*
X166758857Y-109688381D01*
X165425523Y-110688381D02*
X165996952Y-110688381D01*
X165711238Y-110688381D02*
X165711238Y-109688381D01*
X165806476Y-109831238D01*
X165901714Y-109926476D01*
X165996952Y-109974095D01*
X163425143Y-106819143D02*
X163472762Y-106771524D01*
X163520381Y-106628667D01*
X163520381Y-106533429D01*
X163472762Y-106390571D01*
X163377524Y-106295333D01*
X163282286Y-106247714D01*
X163091810Y-106200095D01*
X162948952Y-106200095D01*
X162758476Y-106247714D01*
X162663238Y-106295333D01*
X162568000Y-106390571D01*
X162520381Y-106533429D01*
X162520381Y-106628667D01*
X162568000Y-106771524D01*
X162615619Y-106819143D01*
X163520381Y-107771524D02*
X163520381Y-107200095D01*
X163520381Y-107485809D02*
X162520381Y-107485809D01*
X162663238Y-107390571D01*
X162758476Y-107295333D01*
X162806095Y-107200095D01*
X162520381Y-108104857D02*
X162520381Y-108723905D01*
X162901333Y-108390571D01*
X162901333Y-108533429D01*
X162948952Y-108628667D01*
X162996571Y-108676286D01*
X163091810Y-108723905D01*
X163329905Y-108723905D01*
X163425143Y-108676286D01*
X163472762Y-108628667D01*
X163520381Y-108533429D01*
X163520381Y-108247714D01*
X163472762Y-108152476D01*
X163425143Y-108104857D01*
X150300666Y-111849365D02*
X150348285Y-111896984D01*
X150491142Y-111944603D01*
X150586380Y-111944603D01*
X150729238Y-111896984D01*
X150824476Y-111801746D01*
X150872095Y-111706508D01*
X150919714Y-111516032D01*
X150919714Y-111373174D01*
X150872095Y-111182698D01*
X150824476Y-111087460D01*
X150729238Y-110992222D01*
X150586380Y-110944603D01*
X150491142Y-110944603D01*
X150348285Y-110992222D01*
X150300666Y-111039841D01*
X149443523Y-110944603D02*
X149634000Y-110944603D01*
X149729238Y-110992222D01*
X149776857Y-111039841D01*
X149872095Y-111182698D01*
X149919714Y-111373174D01*
X149919714Y-111754127D01*
X149872095Y-111849365D01*
X149824476Y-111896984D01*
X149729238Y-111944603D01*
X149538761Y-111944603D01*
X149443523Y-111896984D01*
X149395904Y-111849365D01*
X149348285Y-111754127D01*
X149348285Y-111516032D01*
X149395904Y-111420793D01*
X149443523Y-111373174D01*
X149538761Y-111325555D01*
X149729238Y-111325555D01*
X149824476Y-111373174D01*
X149872095Y-111420793D01*
X149919714Y-111516032D01*
X150300666Y-109309365D02*
X150348285Y-109356984D01*
X150491142Y-109404603D01*
X150586380Y-109404603D01*
X150729238Y-109356984D01*
X150824476Y-109261746D01*
X150872095Y-109166508D01*
X150919714Y-108976032D01*
X150919714Y-108833174D01*
X150872095Y-108642698D01*
X150824476Y-108547460D01*
X150729238Y-108452222D01*
X150586380Y-108404603D01*
X150491142Y-108404603D01*
X150348285Y-108452222D01*
X150300666Y-108499841D01*
X149967333Y-108404603D02*
X149300666Y-108404603D01*
X149729238Y-109404603D01*
X220733857Y-118467143D02*
X220781476Y-118514762D01*
X220924333Y-118562381D01*
X221019571Y-118562381D01*
X221162429Y-118514762D01*
X221257667Y-118419524D01*
X221305286Y-118324286D01*
X221352905Y-118133810D01*
X221352905Y-117990952D01*
X221305286Y-117800476D01*
X221257667Y-117705238D01*
X221162429Y-117610000D01*
X221019571Y-117562381D01*
X220924333Y-117562381D01*
X220781476Y-117610000D01*
X220733857Y-117657619D01*
X219829095Y-117562381D02*
X220305286Y-117562381D01*
X220352905Y-118038571D01*
X220305286Y-117990952D01*
X220210048Y-117943333D01*
X219971952Y-117943333D01*
X219876714Y-117990952D01*
X219829095Y-118038571D01*
X219781476Y-118133810D01*
X219781476Y-118371905D01*
X219829095Y-118467143D01*
X219876714Y-118514762D01*
X219971952Y-118562381D01*
X220210048Y-118562381D01*
X220305286Y-118514762D01*
X220352905Y-118467143D01*
X218924333Y-117895714D02*
X218924333Y-118562381D01*
X219162429Y-117514762D02*
X219400524Y-118229048D01*
X218781476Y-118229048D01*
X215622331Y-126384619D02*
X215669950Y-126337000D01*
X215717569Y-126194143D01*
X215717569Y-126098905D01*
X215669950Y-125956047D01*
X215574712Y-125860809D01*
X215479474Y-125813190D01*
X215288998Y-125765571D01*
X215146140Y-125765571D01*
X214955664Y-125813190D01*
X214860426Y-125860809D01*
X214765188Y-125956047D01*
X214717569Y-126098905D01*
X214717569Y-126194143D01*
X214765188Y-126337000D01*
X214812807Y-126384619D01*
X214717569Y-127289381D02*
X214717569Y-126813190D01*
X215193759Y-126765571D01*
X215146140Y-126813190D01*
X215098521Y-126908428D01*
X215098521Y-127146524D01*
X215146140Y-127241762D01*
X215193759Y-127289381D01*
X215288998Y-127337000D01*
X215527093Y-127337000D01*
X215622331Y-127289381D01*
X215669950Y-127241762D01*
X215717569Y-127146524D01*
X215717569Y-126908428D01*
X215669950Y-126813190D01*
X215622331Y-126765571D01*
X215717569Y-127813190D02*
X215717569Y-128003666D01*
X215669950Y-128098905D01*
X215622331Y-128146524D01*
X215479474Y-128241762D01*
X215288998Y-128289381D01*
X214908045Y-128289381D01*
X214812807Y-128241762D01*
X214765188Y-128194143D01*
X214717569Y-128098905D01*
X214717569Y-127908428D01*
X214765188Y-127813190D01*
X214812807Y-127765571D01*
X214908045Y-127717952D01*
X215146140Y-127717952D01*
X215241378Y-127765571D01*
X215288998Y-127813190D01*
X215336617Y-127908428D01*
X215336617Y-128098905D01*
X215288998Y-128194143D01*
X215241378Y-128241762D01*
X215146140Y-128289381D01*
X222099143Y-125341143D02*
X222146762Y-125293524D01*
X222194381Y-125150667D01*
X222194381Y-125055429D01*
X222146762Y-124912571D01*
X222051524Y-124817333D01*
X221956286Y-124769714D01*
X221765810Y-124722095D01*
X221622952Y-124722095D01*
X221432476Y-124769714D01*
X221337238Y-124817333D01*
X221242000Y-124912571D01*
X221194381Y-125055429D01*
X221194381Y-125150667D01*
X221242000Y-125293524D01*
X221289619Y-125341143D01*
X221194381Y-126245905D02*
X221194381Y-125769714D01*
X221670571Y-125722095D01*
X221622952Y-125769714D01*
X221575333Y-125864952D01*
X221575333Y-126103048D01*
X221622952Y-126198286D01*
X221670571Y-126245905D01*
X221765810Y-126293524D01*
X222003905Y-126293524D01*
X222099143Y-126245905D01*
X222146762Y-126198286D01*
X222194381Y-126103048D01*
X222194381Y-125864952D01*
X222146762Y-125769714D01*
X222099143Y-125722095D01*
X221194381Y-126626857D02*
X221194381Y-127245905D01*
X221575333Y-126912571D01*
X221575333Y-127055429D01*
X221622952Y-127150667D01*
X221670571Y-127198286D01*
X221765810Y-127245905D01*
X222003905Y-127245905D01*
X222099143Y-127198286D01*
X222146762Y-127150667D01*
X222194381Y-127055429D01*
X222194381Y-126769714D01*
X222146762Y-126674476D01*
X222099143Y-126626857D01*
X217400143Y-115435143D02*
X217447762Y-115387524D01*
X217495381Y-115244667D01*
X217495381Y-115149429D01*
X217447762Y-115006571D01*
X217352524Y-114911333D01*
X217257286Y-114863714D01*
X217066810Y-114816095D01*
X216923952Y-114816095D01*
X216733476Y-114863714D01*
X216638238Y-114911333D01*
X216543000Y-115006571D01*
X216495381Y-115149429D01*
X216495381Y-115244667D01*
X216543000Y-115387524D01*
X216590619Y-115435143D01*
X216495381Y-116292286D02*
X216495381Y-116101809D01*
X216543000Y-116006571D01*
X216590619Y-115958952D01*
X216733476Y-115863714D01*
X216923952Y-115816095D01*
X217304905Y-115816095D01*
X217400143Y-115863714D01*
X217447762Y-115911333D01*
X217495381Y-116006571D01*
X217495381Y-116197048D01*
X217447762Y-116292286D01*
X217400143Y-116339905D01*
X217304905Y-116387524D01*
X217066810Y-116387524D01*
X216971571Y-116339905D01*
X216923952Y-116292286D01*
X216876333Y-116197048D01*
X216876333Y-116006571D01*
X216923952Y-115911333D01*
X216971571Y-115863714D01*
X217066810Y-115816095D01*
X216495381Y-117244667D02*
X216495381Y-117054190D01*
X216543000Y-116958952D01*
X216590619Y-116911333D01*
X216733476Y-116816095D01*
X216923952Y-116768476D01*
X217304905Y-116768476D01*
X217400143Y-116816095D01*
X217447762Y-116863714D01*
X217495381Y-116958952D01*
X217495381Y-117149429D01*
X217447762Y-117244667D01*
X217400143Y-117292286D01*
X217304905Y-117339905D01*
X217066810Y-117339905D01*
X216971571Y-117292286D01*
X216923952Y-117244667D01*
X216876333Y-117149429D01*
X216876333Y-116958952D01*
X216923952Y-116863714D01*
X216971571Y-116816095D01*
X217066810Y-116768476D01*
X156832857Y-87733143D02*
X156880476Y-87780762D01*
X157023333Y-87828381D01*
X157118571Y-87828381D01*
X157261429Y-87780762D01*
X157356667Y-87685524D01*
X157404286Y-87590286D01*
X157451905Y-87399810D01*
X157451905Y-87256952D01*
X157404286Y-87066476D01*
X157356667Y-86971238D01*
X157261429Y-86876000D01*
X157118571Y-86828381D01*
X157023333Y-86828381D01*
X156880476Y-86876000D01*
X156832857Y-86923619D01*
X155880476Y-87828381D02*
X156451905Y-87828381D01*
X156166191Y-87828381D02*
X156166191Y-86828381D01*
X156261429Y-86971238D01*
X156356667Y-87066476D01*
X156451905Y-87114095D01*
X154928095Y-87828381D02*
X155499524Y-87828381D01*
X155213810Y-87828381D02*
X155213810Y-86828381D01*
X155309048Y-86971238D01*
X155404286Y-87066476D01*
X155499524Y-87114095D01*
X156832857Y-90019143D02*
X156880476Y-90066762D01*
X157023333Y-90114381D01*
X157118571Y-90114381D01*
X157261429Y-90066762D01*
X157356667Y-89971524D01*
X157404286Y-89876286D01*
X157451905Y-89685810D01*
X157451905Y-89542952D01*
X157404286Y-89352476D01*
X157356667Y-89257238D01*
X157261429Y-89162000D01*
X157118571Y-89114381D01*
X157023333Y-89114381D01*
X156880476Y-89162000D01*
X156832857Y-89209619D01*
X155880476Y-90114381D02*
X156451905Y-90114381D01*
X156166191Y-90114381D02*
X156166191Y-89114381D01*
X156261429Y-89257238D01*
X156356667Y-89352476D01*
X156451905Y-89400095D01*
X155023333Y-89447714D02*
X155023333Y-90114381D01*
X155261429Y-89066762D02*
X155499524Y-89781048D01*
X154880476Y-89781048D01*
X164060143Y-92702143D02*
X164107762Y-92654524D01*
X164155381Y-92511667D01*
X164155381Y-92416429D01*
X164107762Y-92273571D01*
X164012524Y-92178333D01*
X163917286Y-92130714D01*
X163726810Y-92083095D01*
X163583952Y-92083095D01*
X163393476Y-92130714D01*
X163298238Y-92178333D01*
X163203000Y-92273571D01*
X163155381Y-92416429D01*
X163155381Y-92511667D01*
X163203000Y-92654524D01*
X163250619Y-92702143D01*
X164155381Y-93654524D02*
X164155381Y-93083095D01*
X164155381Y-93368809D02*
X163155381Y-93368809D01*
X163298238Y-93273571D01*
X163393476Y-93178333D01*
X163441095Y-93083095D01*
X163155381Y-94511667D02*
X163155381Y-94321190D01*
X163203000Y-94225952D01*
X163250619Y-94178333D01*
X163393476Y-94083095D01*
X163583952Y-94035476D01*
X163964905Y-94035476D01*
X164060143Y-94083095D01*
X164107762Y-94130714D01*
X164155381Y-94225952D01*
X164155381Y-94416429D01*
X164107762Y-94511667D01*
X164060143Y-94559286D01*
X163964905Y-94606905D01*
X163726810Y-94606905D01*
X163631571Y-94559286D01*
X163583952Y-94511667D01*
X163536333Y-94416429D01*
X163536333Y-94225952D01*
X163583952Y-94130714D01*
X163631571Y-94083095D01*
X163726810Y-94035476D01*
X156872857Y-92305143D02*
X156920476Y-92352762D01*
X157063333Y-92400381D01*
X157158571Y-92400381D01*
X157301429Y-92352762D01*
X157396667Y-92257524D01*
X157444286Y-92162286D01*
X157491905Y-91971810D01*
X157491905Y-91828952D01*
X157444286Y-91638476D01*
X157396667Y-91543238D01*
X157301429Y-91448000D01*
X157158571Y-91400381D01*
X157063333Y-91400381D01*
X156920476Y-91448000D01*
X156872857Y-91495619D01*
X155920476Y-92400381D02*
X156491905Y-92400381D01*
X156206191Y-92400381D02*
X156206191Y-91400381D01*
X156301429Y-91543238D01*
X156396667Y-91638476D01*
X156491905Y-91686095D01*
X155587143Y-91400381D02*
X154920476Y-91400381D01*
X155349048Y-92400381D01*
X161678857Y-94591143D02*
X161726476Y-94638762D01*
X161869333Y-94686381D01*
X161964571Y-94686381D01*
X162107429Y-94638762D01*
X162202667Y-94543524D01*
X162250286Y-94448286D01*
X162297905Y-94257810D01*
X162297905Y-94114952D01*
X162250286Y-93924476D01*
X162202667Y-93829238D01*
X162107429Y-93734000D01*
X161964571Y-93686381D01*
X161869333Y-93686381D01*
X161726476Y-93734000D01*
X161678857Y-93781619D01*
X161297905Y-93781619D02*
X161250286Y-93734000D01*
X161155048Y-93686381D01*
X160916952Y-93686381D01*
X160821714Y-93734000D01*
X160774095Y-93781619D01*
X160726476Y-93876857D01*
X160726476Y-93972095D01*
X160774095Y-94114952D01*
X161345524Y-94686381D01*
X160726476Y-94686381D01*
X160107429Y-93686381D02*
X160012190Y-93686381D01*
X159916952Y-93734000D01*
X159869333Y-93781619D01*
X159821714Y-93876857D01*
X159774095Y-94067333D01*
X159774095Y-94305429D01*
X159821714Y-94495905D01*
X159869333Y-94591143D01*
X159916952Y-94638762D01*
X160012190Y-94686381D01*
X160107429Y-94686381D01*
X160202667Y-94638762D01*
X160250286Y-94591143D01*
X160297905Y-94495905D01*
X160345524Y-94305429D01*
X160345524Y-94067333D01*
X160297905Y-93876857D01*
X160250286Y-93781619D01*
X160202667Y-93734000D01*
X160107429Y-93686381D01*
X153042857Y-90400143D02*
X153090476Y-90447762D01*
X153233333Y-90495381D01*
X153328571Y-90495381D01*
X153471429Y-90447762D01*
X153566667Y-90352524D01*
X153614286Y-90257286D01*
X153661905Y-90066810D01*
X153661905Y-89923952D01*
X153614286Y-89733476D01*
X153566667Y-89638238D01*
X153471429Y-89543000D01*
X153328571Y-89495381D01*
X153233333Y-89495381D01*
X153090476Y-89543000D01*
X153042857Y-89590619D01*
X152090476Y-90495381D02*
X152661905Y-90495381D01*
X152376191Y-90495381D02*
X152376191Y-89495381D01*
X152471429Y-89638238D01*
X152566667Y-89733476D01*
X152661905Y-89781095D01*
X151519048Y-89923952D02*
X151614286Y-89876333D01*
X151661905Y-89828714D01*
X151709524Y-89733476D01*
X151709524Y-89685857D01*
X151661905Y-89590619D01*
X151614286Y-89543000D01*
X151519048Y-89495381D01*
X151328571Y-89495381D01*
X151233333Y-89543000D01*
X151185714Y-89590619D01*
X151138095Y-89685857D01*
X151138095Y-89733476D01*
X151185714Y-89828714D01*
X151233333Y-89876333D01*
X151328571Y-89923952D01*
X151519048Y-89923952D01*
X151614286Y-89971571D01*
X151661905Y-90019190D01*
X151709524Y-90114429D01*
X151709524Y-90304905D01*
X151661905Y-90400143D01*
X151614286Y-90447762D01*
X151519048Y-90495381D01*
X151328571Y-90495381D01*
X151233333Y-90447762D01*
X151185714Y-90400143D01*
X151138095Y-90304905D01*
X151138095Y-90114429D01*
X151185714Y-90019190D01*
X151233333Y-89971571D01*
X151328571Y-89923952D01*
X153042857Y-92432143D02*
X153090476Y-92479762D01*
X153233333Y-92527381D01*
X153328571Y-92527381D01*
X153471429Y-92479762D01*
X153566667Y-92384524D01*
X153614286Y-92289286D01*
X153661905Y-92098810D01*
X153661905Y-91955952D01*
X153614286Y-91765476D01*
X153566667Y-91670238D01*
X153471429Y-91575000D01*
X153328571Y-91527381D01*
X153233333Y-91527381D01*
X153090476Y-91575000D01*
X153042857Y-91622619D01*
X152661905Y-91622619D02*
X152614286Y-91575000D01*
X152519048Y-91527381D01*
X152280952Y-91527381D01*
X152185714Y-91575000D01*
X152138095Y-91622619D01*
X152090476Y-91717857D01*
X152090476Y-91813095D01*
X152138095Y-91955952D01*
X152709524Y-92527381D01*
X152090476Y-92527381D01*
X151138095Y-92527381D02*
X151709524Y-92527381D01*
X151423810Y-92527381D02*
X151423810Y-91527381D01*
X151519048Y-91670238D01*
X151614286Y-91765476D01*
X151709524Y-91813095D01*
X211177143Y-90035143D02*
X211224762Y-89987524D01*
X211272381Y-89844667D01*
X211272381Y-89749429D01*
X211224762Y-89606571D01*
X211129524Y-89511333D01*
X211034286Y-89463714D01*
X210843810Y-89416095D01*
X210700952Y-89416095D01*
X210510476Y-89463714D01*
X210415238Y-89511333D01*
X210320000Y-89606571D01*
X210272381Y-89749429D01*
X210272381Y-89844667D01*
X210320000Y-89987524D01*
X210367619Y-90035143D01*
X210605714Y-90892286D02*
X211272381Y-90892286D01*
X210224762Y-90654190D02*
X210939048Y-90416095D01*
X210939048Y-91035143D01*
X210700952Y-91558952D02*
X210653333Y-91463714D01*
X210605714Y-91416095D01*
X210510476Y-91368476D01*
X210462857Y-91368476D01*
X210367619Y-91416095D01*
X210320000Y-91463714D01*
X210272381Y-91558952D01*
X210272381Y-91749429D01*
X210320000Y-91844667D01*
X210367619Y-91892286D01*
X210462857Y-91939905D01*
X210510476Y-91939905D01*
X210605714Y-91892286D01*
X210653333Y-91844667D01*
X210700952Y-91749429D01*
X210700952Y-91558952D01*
X210748571Y-91463714D01*
X210796190Y-91416095D01*
X210891429Y-91368476D01*
X211081905Y-91368476D01*
X211177143Y-91416095D01*
X211224762Y-91463714D01*
X211272381Y-91558952D01*
X211272381Y-91749429D01*
X211224762Y-91844667D01*
X211177143Y-91892286D01*
X211081905Y-91939905D01*
X210891429Y-91939905D01*
X210796190Y-91892286D01*
X210748571Y-91844667D01*
X210700952Y-91749429D01*
X203303143Y-85971143D02*
X203350762Y-85923524D01*
X203398381Y-85780667D01*
X203398381Y-85685429D01*
X203350762Y-85542571D01*
X203255524Y-85447333D01*
X203160286Y-85399714D01*
X202969810Y-85352095D01*
X202826952Y-85352095D01*
X202636476Y-85399714D01*
X202541238Y-85447333D01*
X202446000Y-85542571D01*
X202398381Y-85685429D01*
X202398381Y-85780667D01*
X202446000Y-85923524D01*
X202493619Y-85971143D01*
X202731714Y-86828286D02*
X203398381Y-86828286D01*
X202350762Y-86590190D02*
X203065048Y-86352095D01*
X203065048Y-86971143D01*
X203398381Y-87399714D02*
X203398381Y-87590190D01*
X203350762Y-87685429D01*
X203303143Y-87733048D01*
X203160286Y-87828286D01*
X202969810Y-87875905D01*
X202588857Y-87875905D01*
X202493619Y-87828286D01*
X202446000Y-87780667D01*
X202398381Y-87685429D01*
X202398381Y-87494952D01*
X202446000Y-87399714D01*
X202493619Y-87352095D01*
X202588857Y-87304476D01*
X202826952Y-87304476D01*
X202922190Y-87352095D01*
X202969810Y-87399714D01*
X203017429Y-87494952D01*
X203017429Y-87685429D01*
X202969810Y-87780667D01*
X202922190Y-87828286D01*
X202826952Y-87875905D01*
X215526857Y-93702143D02*
X215574476Y-93749762D01*
X215717333Y-93797381D01*
X215812571Y-93797381D01*
X215955429Y-93749762D01*
X216050667Y-93654524D01*
X216098286Y-93559286D01*
X216145905Y-93368810D01*
X216145905Y-93225952D01*
X216098286Y-93035476D01*
X216050667Y-92940238D01*
X215955429Y-92845000D01*
X215812571Y-92797381D01*
X215717333Y-92797381D01*
X215574476Y-92845000D01*
X215526857Y-92892619D01*
X214669714Y-92797381D02*
X214860191Y-92797381D01*
X214955429Y-92845000D01*
X215003048Y-92892619D01*
X215098286Y-93035476D01*
X215145905Y-93225952D01*
X215145905Y-93606905D01*
X215098286Y-93702143D01*
X215050667Y-93749762D01*
X214955429Y-93797381D01*
X214764952Y-93797381D01*
X214669714Y-93749762D01*
X214622095Y-93702143D01*
X214574476Y-93606905D01*
X214574476Y-93368810D01*
X214622095Y-93273571D01*
X214669714Y-93225952D01*
X214764952Y-93178333D01*
X214955429Y-93178333D01*
X215050667Y-93225952D01*
X215098286Y-93273571D01*
X215145905Y-93368810D01*
X213955429Y-92797381D02*
X213860190Y-92797381D01*
X213764952Y-92845000D01*
X213717333Y-92892619D01*
X213669714Y-92987857D01*
X213622095Y-93178333D01*
X213622095Y-93416429D01*
X213669714Y-93606905D01*
X213717333Y-93702143D01*
X213764952Y-93749762D01*
X213860190Y-93797381D01*
X213955429Y-93797381D01*
X214050667Y-93749762D01*
X214098286Y-93702143D01*
X214145905Y-93606905D01*
X214193524Y-93416429D01*
X214193524Y-93178333D01*
X214145905Y-92987857D01*
X214098286Y-92892619D01*
X214050667Y-92845000D01*
X213955429Y-92797381D01*
X205716143Y-85971143D02*
X205763762Y-85923524D01*
X205811381Y-85780667D01*
X205811381Y-85685429D01*
X205763762Y-85542571D01*
X205668524Y-85447333D01*
X205573286Y-85399714D01*
X205382810Y-85352095D01*
X205239952Y-85352095D01*
X205049476Y-85399714D01*
X204954238Y-85447333D01*
X204859000Y-85542571D01*
X204811381Y-85685429D01*
X204811381Y-85780667D01*
X204859000Y-85923524D01*
X204906619Y-85971143D01*
X204811381Y-86828286D02*
X204811381Y-86637809D01*
X204859000Y-86542571D01*
X204906619Y-86494952D01*
X205049476Y-86399714D01*
X205239952Y-86352095D01*
X205620905Y-86352095D01*
X205716143Y-86399714D01*
X205763762Y-86447333D01*
X205811381Y-86542571D01*
X205811381Y-86733048D01*
X205763762Y-86828286D01*
X205716143Y-86875905D01*
X205620905Y-86923524D01*
X205382810Y-86923524D01*
X205287571Y-86875905D01*
X205239952Y-86828286D01*
X205192333Y-86733048D01*
X205192333Y-86542571D01*
X205239952Y-86447333D01*
X205287571Y-86399714D01*
X205382810Y-86352095D01*
X204811381Y-87256857D02*
X204811381Y-87875905D01*
X205192333Y-87542571D01*
X205192333Y-87685429D01*
X205239952Y-87780667D01*
X205287571Y-87828286D01*
X205382810Y-87875905D01*
X205620905Y-87875905D01*
X205716143Y-87828286D01*
X205763762Y-87780667D01*
X205811381Y-87685429D01*
X205811381Y-87399714D01*
X205763762Y-87304476D01*
X205716143Y-87256857D01*
X190631143Y-100723143D02*
X190678762Y-100675524D01*
X190726381Y-100532667D01*
X190726381Y-100437429D01*
X190678762Y-100294571D01*
X190583524Y-100199333D01*
X190488286Y-100151714D01*
X190297810Y-100104095D01*
X190154952Y-100104095D01*
X189964476Y-100151714D01*
X189869238Y-100199333D01*
X189774000Y-100294571D01*
X189726381Y-100437429D01*
X189726381Y-100532667D01*
X189774000Y-100675524D01*
X189821619Y-100723143D01*
X189726381Y-101056476D02*
X189726381Y-101675524D01*
X190107333Y-101342190D01*
X190107333Y-101485048D01*
X190154952Y-101580286D01*
X190202571Y-101627905D01*
X190297810Y-101675524D01*
X190535905Y-101675524D01*
X190631143Y-101627905D01*
X190678762Y-101580286D01*
X190726381Y-101485048D01*
X190726381Y-101199333D01*
X190678762Y-101104095D01*
X190631143Y-101056476D01*
X189726381Y-102294571D02*
X189726381Y-102389810D01*
X189774000Y-102485048D01*
X189821619Y-102532667D01*
X189916857Y-102580286D01*
X190107333Y-102627905D01*
X190345429Y-102627905D01*
X190535905Y-102580286D01*
X190631143Y-102532667D01*
X190678762Y-102485048D01*
X190726381Y-102389810D01*
X190726381Y-102294571D01*
X190678762Y-102199333D01*
X190631143Y-102151714D01*
X190535905Y-102104095D01*
X190345429Y-102056476D01*
X190107333Y-102056476D01*
X189916857Y-102104095D01*
X189821619Y-102151714D01*
X189774000Y-102199333D01*
X189726381Y-102294571D01*
X203715857Y-102846143D02*
X203763476Y-102893762D01*
X203906333Y-102941381D01*
X204001571Y-102941381D01*
X204144429Y-102893762D01*
X204239667Y-102798524D01*
X204287286Y-102703286D01*
X204334905Y-102512810D01*
X204334905Y-102369952D01*
X204287286Y-102179476D01*
X204239667Y-102084238D01*
X204144429Y-101989000D01*
X204001571Y-101941381D01*
X203906333Y-101941381D01*
X203763476Y-101989000D01*
X203715857Y-102036619D01*
X202858714Y-101941381D02*
X203049191Y-101941381D01*
X203144429Y-101989000D01*
X203192048Y-102036619D01*
X203287286Y-102179476D01*
X203334905Y-102369952D01*
X203334905Y-102750905D01*
X203287286Y-102846143D01*
X203239667Y-102893762D01*
X203144429Y-102941381D01*
X202953952Y-102941381D01*
X202858714Y-102893762D01*
X202811095Y-102846143D01*
X202763476Y-102750905D01*
X202763476Y-102512810D01*
X202811095Y-102417571D01*
X202858714Y-102369952D01*
X202953952Y-102322333D01*
X203144429Y-102322333D01*
X203239667Y-102369952D01*
X203287286Y-102417571D01*
X203334905Y-102512810D01*
X201906333Y-102274714D02*
X201906333Y-102941381D01*
X202144429Y-101893762D02*
X202382524Y-102608048D01*
X201763476Y-102608048D01*
X205874857Y-104751143D02*
X205922476Y-104798762D01*
X206065333Y-104846381D01*
X206160571Y-104846381D01*
X206303429Y-104798762D01*
X206398667Y-104703524D01*
X206446286Y-104608286D01*
X206493905Y-104417810D01*
X206493905Y-104274952D01*
X206446286Y-104084476D01*
X206398667Y-103989238D01*
X206303429Y-103894000D01*
X206160571Y-103846381D01*
X206065333Y-103846381D01*
X205922476Y-103894000D01*
X205874857Y-103941619D01*
X204970095Y-103846381D02*
X205446286Y-103846381D01*
X205493905Y-104322571D01*
X205446286Y-104274952D01*
X205351048Y-104227333D01*
X205112952Y-104227333D01*
X205017714Y-104274952D01*
X204970095Y-104322571D01*
X204922476Y-104417810D01*
X204922476Y-104655905D01*
X204970095Y-104751143D01*
X205017714Y-104798762D01*
X205112952Y-104846381D01*
X205351048Y-104846381D01*
X205446286Y-104798762D01*
X205493905Y-104751143D01*
X204541524Y-103941619D02*
X204493905Y-103894000D01*
X204398667Y-103846381D01*
X204160571Y-103846381D01*
X204065333Y-103894000D01*
X204017714Y-103941619D01*
X203970095Y-104036857D01*
X203970095Y-104132095D01*
X204017714Y-104274952D01*
X204589143Y-104846381D01*
X203970095Y-104846381D01*
X192285857Y-108434143D02*
X192333476Y-108481762D01*
X192476333Y-108529381D01*
X192571571Y-108529381D01*
X192714429Y-108481762D01*
X192809667Y-108386524D01*
X192857286Y-108291286D01*
X192904905Y-108100810D01*
X192904905Y-107957952D01*
X192857286Y-107767476D01*
X192809667Y-107672238D01*
X192714429Y-107577000D01*
X192571571Y-107529381D01*
X192476333Y-107529381D01*
X192333476Y-107577000D01*
X192285857Y-107624619D01*
X191381095Y-107529381D02*
X191857286Y-107529381D01*
X191904905Y-108005571D01*
X191857286Y-107957952D01*
X191762048Y-107910333D01*
X191523952Y-107910333D01*
X191428714Y-107957952D01*
X191381095Y-108005571D01*
X191333476Y-108100810D01*
X191333476Y-108338905D01*
X191381095Y-108434143D01*
X191428714Y-108481762D01*
X191523952Y-108529381D01*
X191762048Y-108529381D01*
X191857286Y-108481762D01*
X191904905Y-108434143D01*
X190381095Y-108529381D02*
X190952524Y-108529381D01*
X190666810Y-108529381D02*
X190666810Y-107529381D01*
X190762048Y-107672238D01*
X190857286Y-107767476D01*
X190952524Y-107815095D01*
X213895857Y-87173707D02*
X213943476Y-87221326D01*
X214086333Y-87268945D01*
X214181571Y-87268945D01*
X214324429Y-87221326D01*
X214419667Y-87126088D01*
X214467286Y-87030850D01*
X214514905Y-86840374D01*
X214514905Y-86697516D01*
X214467286Y-86507040D01*
X214419667Y-86411802D01*
X214324429Y-86316564D01*
X214181571Y-86268945D01*
X214086333Y-86268945D01*
X213943476Y-86316564D01*
X213895857Y-86364183D01*
X213038714Y-86268945D02*
X213229191Y-86268945D01*
X213324429Y-86316564D01*
X213372048Y-86364183D01*
X213467286Y-86507040D01*
X213514905Y-86697516D01*
X213514905Y-87078469D01*
X213467286Y-87173707D01*
X213419667Y-87221326D01*
X213324429Y-87268945D01*
X213133952Y-87268945D01*
X213038714Y-87221326D01*
X212991095Y-87173707D01*
X212943476Y-87078469D01*
X212943476Y-86840374D01*
X212991095Y-86745135D01*
X213038714Y-86697516D01*
X213133952Y-86649897D01*
X213324429Y-86649897D01*
X213419667Y-86697516D01*
X213467286Y-86745135D01*
X213514905Y-86840374D01*
X212562524Y-86364183D02*
X212514905Y-86316564D01*
X212419667Y-86268945D01*
X212181571Y-86268945D01*
X212086333Y-86316564D01*
X212038714Y-86364183D01*
X211991095Y-86459421D01*
X211991095Y-86554659D01*
X212038714Y-86697516D01*
X212610143Y-87268945D01*
X211991095Y-87268945D01*
X239656857Y-108787143D02*
X239704476Y-108834762D01*
X239847333Y-108882381D01*
X239942571Y-108882381D01*
X240085429Y-108834762D01*
X240180667Y-108739524D01*
X240228286Y-108644286D01*
X240275905Y-108453810D01*
X240275905Y-108310952D01*
X240228286Y-108120476D01*
X240180667Y-108025238D01*
X240085429Y-107930000D01*
X239942571Y-107882381D01*
X239847333Y-107882381D01*
X239704476Y-107930000D01*
X239656857Y-107977619D01*
X238752095Y-107882381D02*
X239228286Y-107882381D01*
X239275905Y-108358571D01*
X239228286Y-108310952D01*
X239133048Y-108263333D01*
X238894952Y-108263333D01*
X238799714Y-108310952D01*
X238752095Y-108358571D01*
X238704476Y-108453810D01*
X238704476Y-108691905D01*
X238752095Y-108787143D01*
X238799714Y-108834762D01*
X238894952Y-108882381D01*
X239133048Y-108882381D01*
X239228286Y-108834762D01*
X239275905Y-108787143D01*
X237799714Y-107882381D02*
X238275905Y-107882381D01*
X238323524Y-108358571D01*
X238275905Y-108310952D01*
X238180667Y-108263333D01*
X237942571Y-108263333D01*
X237847333Y-108310952D01*
X237799714Y-108358571D01*
X237752095Y-108453810D01*
X237752095Y-108691905D01*
X237799714Y-108787143D01*
X237847333Y-108834762D01*
X237942571Y-108882381D01*
X238180667Y-108882381D01*
X238275905Y-108834762D01*
X238323524Y-108787143D01*
X239529857Y-100306143D02*
X239577476Y-100353762D01*
X239720333Y-100401381D01*
X239815571Y-100401381D01*
X239958429Y-100353762D01*
X240053667Y-100258524D01*
X240101286Y-100163286D01*
X240148905Y-99972810D01*
X240148905Y-99829952D01*
X240101286Y-99639476D01*
X240053667Y-99544238D01*
X239958429Y-99449000D01*
X239815571Y-99401381D01*
X239720333Y-99401381D01*
X239577476Y-99449000D01*
X239529857Y-99496619D01*
X238625095Y-99401381D02*
X239101286Y-99401381D01*
X239148905Y-99877571D01*
X239101286Y-99829952D01*
X239006048Y-99782333D01*
X238767952Y-99782333D01*
X238672714Y-99829952D01*
X238625095Y-99877571D01*
X238577476Y-99972810D01*
X238577476Y-100210905D01*
X238625095Y-100306143D01*
X238672714Y-100353762D01*
X238767952Y-100401381D01*
X239006048Y-100401381D01*
X239101286Y-100353762D01*
X239148905Y-100306143D01*
X237720333Y-99401381D02*
X237910810Y-99401381D01*
X238006048Y-99449000D01*
X238053667Y-99496619D01*
X238148905Y-99639476D01*
X238196524Y-99829952D01*
X238196524Y-100210905D01*
X238148905Y-100306143D01*
X238101286Y-100353762D01*
X238006048Y-100401381D01*
X237815571Y-100401381D01*
X237720333Y-100353762D01*
X237672714Y-100306143D01*
X237625095Y-100210905D01*
X237625095Y-99972810D01*
X237672714Y-99877571D01*
X237720333Y-99829952D01*
X237815571Y-99782333D01*
X238006048Y-99782333D01*
X238101286Y-99829952D01*
X238148905Y-99877571D01*
X238196524Y-99972810D01*
X215526857Y-106021143D02*
X215574476Y-106068762D01*
X215717333Y-106116381D01*
X215812571Y-106116381D01*
X215955429Y-106068762D01*
X216050667Y-105973524D01*
X216098286Y-105878286D01*
X216145905Y-105687810D01*
X216145905Y-105544952D01*
X216098286Y-105354476D01*
X216050667Y-105259238D01*
X215955429Y-105164000D01*
X215812571Y-105116381D01*
X215717333Y-105116381D01*
X215574476Y-105164000D01*
X215526857Y-105211619D01*
X214622095Y-105116381D02*
X215098286Y-105116381D01*
X215145905Y-105592571D01*
X215098286Y-105544952D01*
X215003048Y-105497333D01*
X214764952Y-105497333D01*
X214669714Y-105544952D01*
X214622095Y-105592571D01*
X214574476Y-105687810D01*
X214574476Y-105925905D01*
X214622095Y-106021143D01*
X214669714Y-106068762D01*
X214764952Y-106116381D01*
X215003048Y-106116381D01*
X215098286Y-106068762D01*
X215145905Y-106021143D01*
X214241143Y-105116381D02*
X213574476Y-105116381D01*
X214003048Y-106116381D01*
X231147857Y-102719143D02*
X231195476Y-102766762D01*
X231338333Y-102814381D01*
X231433571Y-102814381D01*
X231576429Y-102766762D01*
X231671667Y-102671524D01*
X231719286Y-102576286D01*
X231766905Y-102385810D01*
X231766905Y-102242952D01*
X231719286Y-102052476D01*
X231671667Y-101957238D01*
X231576429Y-101862000D01*
X231433571Y-101814381D01*
X231338333Y-101814381D01*
X231195476Y-101862000D01*
X231147857Y-101909619D01*
X230290714Y-101814381D02*
X230481191Y-101814381D01*
X230576429Y-101862000D01*
X230624048Y-101909619D01*
X230719286Y-102052476D01*
X230766905Y-102242952D01*
X230766905Y-102623905D01*
X230719286Y-102719143D01*
X230671667Y-102766762D01*
X230576429Y-102814381D01*
X230385952Y-102814381D01*
X230290714Y-102766762D01*
X230243095Y-102719143D01*
X230195476Y-102623905D01*
X230195476Y-102385810D01*
X230243095Y-102290571D01*
X230290714Y-102242952D01*
X230385952Y-102195333D01*
X230576429Y-102195333D01*
X230671667Y-102242952D01*
X230719286Y-102290571D01*
X230766905Y-102385810D01*
X229624048Y-102242952D02*
X229719286Y-102195333D01*
X229766905Y-102147714D01*
X229814524Y-102052476D01*
X229814524Y-102004857D01*
X229766905Y-101909619D01*
X229719286Y-101862000D01*
X229624048Y-101814381D01*
X229433571Y-101814381D01*
X229338333Y-101862000D01*
X229290714Y-101909619D01*
X229243095Y-102004857D01*
X229243095Y-102052476D01*
X229290714Y-102147714D01*
X229338333Y-102195333D01*
X229433571Y-102242952D01*
X229624048Y-102242952D01*
X229719286Y-102290571D01*
X229766905Y-102338190D01*
X229814524Y-102433429D01*
X229814524Y-102623905D01*
X229766905Y-102719143D01*
X229719286Y-102766762D01*
X229624048Y-102814381D01*
X229433571Y-102814381D01*
X229338333Y-102766762D01*
X229290714Y-102719143D01*
X229243095Y-102623905D01*
X229243095Y-102433429D01*
X229290714Y-102338190D01*
X229338333Y-102290571D01*
X229433571Y-102242952D01*
X219305143Y-80002143D02*
X219352762Y-79954524D01*
X219400381Y-79811667D01*
X219400381Y-79716429D01*
X219352762Y-79573571D01*
X219257524Y-79478333D01*
X219162286Y-79430714D01*
X218971810Y-79383095D01*
X218828952Y-79383095D01*
X218638476Y-79430714D01*
X218543238Y-79478333D01*
X218448000Y-79573571D01*
X218400381Y-79716429D01*
X218400381Y-79811667D01*
X218448000Y-79954524D01*
X218495619Y-80002143D01*
X218400381Y-80859286D02*
X218400381Y-80668809D01*
X218448000Y-80573571D01*
X218495619Y-80525952D01*
X218638476Y-80430714D01*
X218828952Y-80383095D01*
X219209905Y-80383095D01*
X219305143Y-80430714D01*
X219352762Y-80478333D01*
X219400381Y-80573571D01*
X219400381Y-80764048D01*
X219352762Y-80859286D01*
X219305143Y-80906905D01*
X219209905Y-80954524D01*
X218971810Y-80954524D01*
X218876571Y-80906905D01*
X218828952Y-80859286D01*
X218781333Y-80764048D01*
X218781333Y-80573571D01*
X218828952Y-80478333D01*
X218876571Y-80430714D01*
X218971810Y-80383095D01*
X218400381Y-81859286D02*
X218400381Y-81383095D01*
X218876571Y-81335476D01*
X218828952Y-81383095D01*
X218781333Y-81478333D01*
X218781333Y-81716429D01*
X218828952Y-81811667D01*
X218876571Y-81859286D01*
X218971810Y-81906905D01*
X219209905Y-81906905D01*
X219305143Y-81859286D01*
X219352762Y-81811667D01*
X219400381Y-81716429D01*
X219400381Y-81478333D01*
X219352762Y-81383095D01*
X219305143Y-81335476D01*
X222813143Y-83685143D02*
X222860762Y-83637524D01*
X222908381Y-83494667D01*
X222908381Y-83399429D01*
X222860762Y-83256571D01*
X222765524Y-83161333D01*
X222670286Y-83113714D01*
X222479810Y-83066095D01*
X222336952Y-83066095D01*
X222146476Y-83113714D01*
X222051238Y-83161333D01*
X221956000Y-83256571D01*
X221908381Y-83399429D01*
X221908381Y-83494667D01*
X221956000Y-83637524D01*
X222003619Y-83685143D01*
X221908381Y-84018476D02*
X221908381Y-84637524D01*
X222289333Y-84304190D01*
X222289333Y-84447048D01*
X222336952Y-84542286D01*
X222384571Y-84589905D01*
X222479810Y-84637524D01*
X222717905Y-84637524D01*
X222813143Y-84589905D01*
X222860762Y-84542286D01*
X222908381Y-84447048D01*
X222908381Y-84161333D01*
X222860762Y-84066095D01*
X222813143Y-84018476D01*
X222003619Y-85018476D02*
X221956000Y-85066095D01*
X221908381Y-85161333D01*
X221908381Y-85399429D01*
X221956000Y-85494667D01*
X222003619Y-85542286D01*
X222098857Y-85589905D01*
X222194095Y-85589905D01*
X222336952Y-85542286D01*
X222908381Y-84970857D01*
X222908381Y-85589905D01*
X211335857Y-81510143D02*
X211383476Y-81557762D01*
X211526333Y-81605381D01*
X211621571Y-81605381D01*
X211764429Y-81557762D01*
X211859667Y-81462524D01*
X211907286Y-81367286D01*
X211954905Y-81176810D01*
X211954905Y-81033952D01*
X211907286Y-80843476D01*
X211859667Y-80748238D01*
X211764429Y-80653000D01*
X211621571Y-80605381D01*
X211526333Y-80605381D01*
X211383476Y-80653000D01*
X211335857Y-80700619D01*
X210431095Y-80605381D02*
X210907286Y-80605381D01*
X210954905Y-81081571D01*
X210907286Y-81033952D01*
X210812048Y-80986333D01*
X210573952Y-80986333D01*
X210478714Y-81033952D01*
X210431095Y-81081571D01*
X210383476Y-81176810D01*
X210383476Y-81414905D01*
X210431095Y-81510143D01*
X210478714Y-81557762D01*
X210573952Y-81605381D01*
X210812048Y-81605381D01*
X210907286Y-81557762D01*
X210954905Y-81510143D01*
X209764429Y-80605381D02*
X209669190Y-80605381D01*
X209573952Y-80653000D01*
X209526333Y-80700619D01*
X209478714Y-80795857D01*
X209431095Y-80986333D01*
X209431095Y-81224429D01*
X209478714Y-81414905D01*
X209526333Y-81510143D01*
X209573952Y-81557762D01*
X209669190Y-81605381D01*
X209764429Y-81605381D01*
X209859667Y-81557762D01*
X209907286Y-81510143D01*
X209954905Y-81414905D01*
X210002524Y-81224429D01*
X210002524Y-80986333D01*
X209954905Y-80795857D01*
X209907286Y-80700619D01*
X209859667Y-80653000D01*
X209764429Y-80605381D01*
X216638143Y-78986143D02*
X216685762Y-78938524D01*
X216733381Y-78795667D01*
X216733381Y-78700429D01*
X216685762Y-78557571D01*
X216590524Y-78462333D01*
X216495286Y-78414714D01*
X216304810Y-78367095D01*
X216161952Y-78367095D01*
X215971476Y-78414714D01*
X215876238Y-78462333D01*
X215781000Y-78557571D01*
X215733381Y-78700429D01*
X215733381Y-78795667D01*
X215781000Y-78938524D01*
X215828619Y-78986143D01*
X216066714Y-79843286D02*
X216733381Y-79843286D01*
X215685762Y-79605190D02*
X216400048Y-79367095D01*
X216400048Y-79986143D01*
X215733381Y-80271857D02*
X215733381Y-80938524D01*
X216733381Y-80509952D01*
X154884381Y-84796334D02*
X154408190Y-84463000D01*
X154884381Y-84224905D02*
X153884381Y-84224905D01*
X153884381Y-84605858D01*
X153932000Y-84701096D01*
X153979619Y-84748715D01*
X154074857Y-84796334D01*
X154217714Y-84796334D01*
X154312952Y-84748715D01*
X154360571Y-84701096D01*
X154408190Y-84605858D01*
X154408190Y-84224905D01*
X153979619Y-85177286D02*
X153932000Y-85224905D01*
X153884381Y-85320143D01*
X153884381Y-85558239D01*
X153932000Y-85653477D01*
X153979619Y-85701096D01*
X154074857Y-85748715D01*
X154170095Y-85748715D01*
X154312952Y-85701096D01*
X154884381Y-85129667D01*
X154884381Y-85748715D01*
X146931666Y-79524381D02*
X147265000Y-79048190D01*
X147503095Y-79524381D02*
X147503095Y-78524381D01*
X147122142Y-78524381D01*
X147026904Y-78572000D01*
X146979285Y-78619619D01*
X146931666Y-78714857D01*
X146931666Y-78857714D01*
X146979285Y-78952952D01*
X147026904Y-79000571D01*
X147122142Y-79048190D01*
X147503095Y-79048190D01*
X146026904Y-78524381D02*
X146503095Y-78524381D01*
X146550714Y-79000571D01*
X146503095Y-78952952D01*
X146407857Y-78905333D01*
X146169761Y-78905333D01*
X146074523Y-78952952D01*
X146026904Y-79000571D01*
X145979285Y-79095810D01*
X145979285Y-79333905D01*
X146026904Y-79429143D01*
X146074523Y-79476762D01*
X146169761Y-79524381D01*
X146407857Y-79524381D01*
X146503095Y-79476762D01*
X146550714Y-79429143D01*
X139341381Y-90511334D02*
X138865190Y-90178000D01*
X139341381Y-89939905D02*
X138341381Y-89939905D01*
X138341381Y-90320858D01*
X138389000Y-90416096D01*
X138436619Y-90463715D01*
X138531857Y-90511334D01*
X138674714Y-90511334D01*
X138769952Y-90463715D01*
X138817571Y-90416096D01*
X138865190Y-90320858D01*
X138865190Y-89939905D01*
X139341381Y-91463715D02*
X139341381Y-90892286D01*
X139341381Y-91178000D02*
X138341381Y-91178000D01*
X138484238Y-91082762D01*
X138579476Y-90987524D01*
X138627095Y-90892286D01*
X72112143Y-72763143D02*
X72159762Y-72715524D01*
X72207381Y-72572667D01*
X72207381Y-72477429D01*
X72159762Y-72334571D01*
X72064524Y-72239333D01*
X71969286Y-72191714D01*
X71778810Y-72144095D01*
X71635952Y-72144095D01*
X71445476Y-72191714D01*
X71350238Y-72239333D01*
X71255000Y-72334571D01*
X71207381Y-72477429D01*
X71207381Y-72572667D01*
X71255000Y-72715524D01*
X71302619Y-72763143D01*
X71635952Y-73334571D02*
X71588333Y-73239333D01*
X71540714Y-73191714D01*
X71445476Y-73144095D01*
X71397857Y-73144095D01*
X71302619Y-73191714D01*
X71255000Y-73239333D01*
X71207381Y-73334571D01*
X71207381Y-73525048D01*
X71255000Y-73620286D01*
X71302619Y-73667905D01*
X71397857Y-73715524D01*
X71445476Y-73715524D01*
X71540714Y-73667905D01*
X71588333Y-73620286D01*
X71635952Y-73525048D01*
X71635952Y-73334571D01*
X71683571Y-73239333D01*
X71731190Y-73191714D01*
X71826429Y-73144095D01*
X72016905Y-73144095D01*
X72112143Y-73191714D01*
X72159762Y-73239333D01*
X72207381Y-73334571D01*
X72207381Y-73525048D01*
X72159762Y-73620286D01*
X72112143Y-73667905D01*
X72016905Y-73715524D01*
X71826429Y-73715524D01*
X71731190Y-73667905D01*
X71683571Y-73620286D01*
X71635952Y-73525048D01*
X71207381Y-74572667D02*
X71207381Y-74382190D01*
X71255000Y-74286952D01*
X71302619Y-74239333D01*
X71445476Y-74144095D01*
X71635952Y-74096476D01*
X72016905Y-74096476D01*
X72112143Y-74144095D01*
X72159762Y-74191714D01*
X72207381Y-74286952D01*
X72207381Y-74477429D01*
X72159762Y-74572667D01*
X72112143Y-74620286D01*
X72016905Y-74667905D01*
X71778810Y-74667905D01*
X71683571Y-74620286D01*
X71635952Y-74572667D01*
X71588333Y-74477429D01*
X71588333Y-74286952D01*
X71635952Y-74191714D01*
X71683571Y-74144095D01*
X71778810Y-74096476D01*
X67949143Y-79387143D02*
X67996762Y-79339524D01*
X68044381Y-79196667D01*
X68044381Y-79101429D01*
X67996762Y-78958571D01*
X67901524Y-78863333D01*
X67806286Y-78815714D01*
X67615810Y-78768095D01*
X67472952Y-78768095D01*
X67282476Y-78815714D01*
X67187238Y-78863333D01*
X67092000Y-78958571D01*
X67044381Y-79101429D01*
X67044381Y-79196667D01*
X67092000Y-79339524D01*
X67139619Y-79387143D01*
X67472952Y-79958571D02*
X67425333Y-79863333D01*
X67377714Y-79815714D01*
X67282476Y-79768095D01*
X67234857Y-79768095D01*
X67139619Y-79815714D01*
X67092000Y-79863333D01*
X67044381Y-79958571D01*
X67044381Y-80149048D01*
X67092000Y-80244286D01*
X67139619Y-80291905D01*
X67234857Y-80339524D01*
X67282476Y-80339524D01*
X67377714Y-80291905D01*
X67425333Y-80244286D01*
X67472952Y-80149048D01*
X67472952Y-79958571D01*
X67520571Y-79863333D01*
X67568190Y-79815714D01*
X67663429Y-79768095D01*
X67853905Y-79768095D01*
X67949143Y-79815714D01*
X67996762Y-79863333D01*
X68044381Y-79958571D01*
X68044381Y-80149048D01*
X67996762Y-80244286D01*
X67949143Y-80291905D01*
X67853905Y-80339524D01*
X67663429Y-80339524D01*
X67568190Y-80291905D01*
X67520571Y-80244286D01*
X67472952Y-80149048D01*
X67044381Y-80672857D02*
X67044381Y-81339524D01*
X68044381Y-80910952D01*
X85066143Y-80891143D02*
X85113762Y-80843524D01*
X85161381Y-80700667D01*
X85161381Y-80605429D01*
X85113762Y-80462571D01*
X85018524Y-80367333D01*
X84923286Y-80319714D01*
X84732810Y-80272095D01*
X84589952Y-80272095D01*
X84399476Y-80319714D01*
X84304238Y-80367333D01*
X84209000Y-80462571D01*
X84161381Y-80605429D01*
X84161381Y-80700667D01*
X84209000Y-80843524D01*
X84256619Y-80891143D01*
X84589952Y-81462571D02*
X84542333Y-81367333D01*
X84494714Y-81319714D01*
X84399476Y-81272095D01*
X84351857Y-81272095D01*
X84256619Y-81319714D01*
X84209000Y-81367333D01*
X84161381Y-81462571D01*
X84161381Y-81653048D01*
X84209000Y-81748286D01*
X84256619Y-81795905D01*
X84351857Y-81843524D01*
X84399476Y-81843524D01*
X84494714Y-81795905D01*
X84542333Y-81748286D01*
X84589952Y-81653048D01*
X84589952Y-81462571D01*
X84637571Y-81367333D01*
X84685190Y-81319714D01*
X84780429Y-81272095D01*
X84970905Y-81272095D01*
X85066143Y-81319714D01*
X85113762Y-81367333D01*
X85161381Y-81462571D01*
X85161381Y-81653048D01*
X85113762Y-81748286D01*
X85066143Y-81795905D01*
X84970905Y-81843524D01*
X84780429Y-81843524D01*
X84685190Y-81795905D01*
X84637571Y-81748286D01*
X84589952Y-81653048D01*
X85161381Y-82319714D02*
X85161381Y-82510190D01*
X85113762Y-82605429D01*
X85066143Y-82653048D01*
X84923286Y-82748286D01*
X84732810Y-82795905D01*
X84351857Y-82795905D01*
X84256619Y-82748286D01*
X84209000Y-82700667D01*
X84161381Y-82605429D01*
X84161381Y-82414952D01*
X84209000Y-82319714D01*
X84256619Y-82272095D01*
X84351857Y-82224476D01*
X84589952Y-82224476D01*
X84685190Y-82272095D01*
X84732810Y-82319714D01*
X84780429Y-82414952D01*
X84780429Y-82605429D01*
X84732810Y-82700667D01*
X84685190Y-82748286D01*
X84589952Y-82795905D01*
X82526143Y-80891143D02*
X82573762Y-80843524D01*
X82621381Y-80700667D01*
X82621381Y-80605429D01*
X82573762Y-80462571D01*
X82478524Y-80367333D01*
X82383286Y-80319714D01*
X82192810Y-80272095D01*
X82049952Y-80272095D01*
X81859476Y-80319714D01*
X81764238Y-80367333D01*
X81669000Y-80462571D01*
X81621381Y-80605429D01*
X81621381Y-80700667D01*
X81669000Y-80843524D01*
X81716619Y-80891143D01*
X82049952Y-81462571D02*
X82002333Y-81367333D01*
X81954714Y-81319714D01*
X81859476Y-81272095D01*
X81811857Y-81272095D01*
X81716619Y-81319714D01*
X81669000Y-81367333D01*
X81621381Y-81462571D01*
X81621381Y-81653048D01*
X81669000Y-81748286D01*
X81716619Y-81795905D01*
X81811857Y-81843524D01*
X81859476Y-81843524D01*
X81954714Y-81795905D01*
X82002333Y-81748286D01*
X82049952Y-81653048D01*
X82049952Y-81462571D01*
X82097571Y-81367333D01*
X82145190Y-81319714D01*
X82240429Y-81272095D01*
X82430905Y-81272095D01*
X82526143Y-81319714D01*
X82573762Y-81367333D01*
X82621381Y-81462571D01*
X82621381Y-81653048D01*
X82573762Y-81748286D01*
X82526143Y-81795905D01*
X82430905Y-81843524D01*
X82240429Y-81843524D01*
X82145190Y-81795905D01*
X82097571Y-81748286D01*
X82049952Y-81653048D01*
X82049952Y-82414952D02*
X82002333Y-82319714D01*
X81954714Y-82272095D01*
X81859476Y-82224476D01*
X81811857Y-82224476D01*
X81716619Y-82272095D01*
X81669000Y-82319714D01*
X81621381Y-82414952D01*
X81621381Y-82605429D01*
X81669000Y-82700667D01*
X81716619Y-82748286D01*
X81811857Y-82795905D01*
X81859476Y-82795905D01*
X81954714Y-82748286D01*
X82002333Y-82700667D01*
X82049952Y-82605429D01*
X82049952Y-82414952D01*
X82097571Y-82319714D01*
X82145190Y-82272095D01*
X82240429Y-82224476D01*
X82430905Y-82224476D01*
X82526143Y-82272095D01*
X82573762Y-82319714D01*
X82621381Y-82414952D01*
X82621381Y-82605429D01*
X82573762Y-82700667D01*
X82526143Y-82748286D01*
X82430905Y-82795905D01*
X82240429Y-82795905D01*
X82145190Y-82748286D01*
X82097571Y-82700667D01*
X82049952Y-82605429D01*
X240545857Y-103100143D02*
X240593476Y-103147762D01*
X240736333Y-103195381D01*
X240831571Y-103195381D01*
X240974429Y-103147762D01*
X241069667Y-103052524D01*
X241117286Y-102957286D01*
X241164905Y-102766810D01*
X241164905Y-102623952D01*
X241117286Y-102433476D01*
X241069667Y-102338238D01*
X240974429Y-102243000D01*
X240831571Y-102195381D01*
X240736333Y-102195381D01*
X240593476Y-102243000D01*
X240545857Y-102290619D01*
X239688714Y-102195381D02*
X239879191Y-102195381D01*
X239974429Y-102243000D01*
X240022048Y-102290619D01*
X240117286Y-102433476D01*
X240164905Y-102623952D01*
X240164905Y-103004905D01*
X240117286Y-103100143D01*
X240069667Y-103147762D01*
X239974429Y-103195381D01*
X239783952Y-103195381D01*
X239688714Y-103147762D01*
X239641095Y-103100143D01*
X239593476Y-103004905D01*
X239593476Y-102766810D01*
X239641095Y-102671571D01*
X239688714Y-102623952D01*
X239783952Y-102576333D01*
X239974429Y-102576333D01*
X240069667Y-102623952D01*
X240117286Y-102671571D01*
X240164905Y-102766810D01*
X239260143Y-102195381D02*
X238593476Y-102195381D01*
X239022048Y-103195381D01*
X215526857Y-108942143D02*
X215574476Y-108989762D01*
X215717333Y-109037381D01*
X215812571Y-109037381D01*
X215955429Y-108989762D01*
X216050667Y-108894524D01*
X216098286Y-108799286D01*
X216145905Y-108608810D01*
X216145905Y-108465952D01*
X216098286Y-108275476D01*
X216050667Y-108180238D01*
X215955429Y-108085000D01*
X215812571Y-108037381D01*
X215717333Y-108037381D01*
X215574476Y-108085000D01*
X215526857Y-108132619D01*
X214669714Y-108037381D02*
X214860191Y-108037381D01*
X214955429Y-108085000D01*
X215003048Y-108132619D01*
X215098286Y-108275476D01*
X215145905Y-108465952D01*
X215145905Y-108846905D01*
X215098286Y-108942143D01*
X215050667Y-108989762D01*
X214955429Y-109037381D01*
X214764952Y-109037381D01*
X214669714Y-108989762D01*
X214622095Y-108942143D01*
X214574476Y-108846905D01*
X214574476Y-108608810D01*
X214622095Y-108513571D01*
X214669714Y-108465952D01*
X214764952Y-108418333D01*
X214955429Y-108418333D01*
X215050667Y-108465952D01*
X215098286Y-108513571D01*
X215145905Y-108608810D01*
X214098286Y-109037381D02*
X213907810Y-109037381D01*
X213812571Y-108989762D01*
X213764952Y-108942143D01*
X213669714Y-108799286D01*
X213622095Y-108608810D01*
X213622095Y-108227857D01*
X213669714Y-108132619D01*
X213717333Y-108085000D01*
X213812571Y-108037381D01*
X214003048Y-108037381D01*
X214098286Y-108085000D01*
X214145905Y-108132619D01*
X214193524Y-108227857D01*
X214193524Y-108465952D01*
X214145905Y-108561190D01*
X214098286Y-108608810D01*
X214003048Y-108656429D01*
X213812571Y-108656429D01*
X213717333Y-108608810D01*
X213669714Y-108561190D01*
X213622095Y-108465952D01*
X198127857Y-99671143D02*
X198175476Y-99718762D01*
X198318333Y-99766381D01*
X198413571Y-99766381D01*
X198556429Y-99718762D01*
X198651667Y-99623524D01*
X198699286Y-99528286D01*
X198746905Y-99337810D01*
X198746905Y-99194952D01*
X198699286Y-99004476D01*
X198651667Y-98909238D01*
X198556429Y-98814000D01*
X198413571Y-98766381D01*
X198318333Y-98766381D01*
X198175476Y-98814000D01*
X198127857Y-98861619D01*
X197651667Y-99766381D02*
X197461191Y-99766381D01*
X197365952Y-99718762D01*
X197318333Y-99671143D01*
X197223095Y-99528286D01*
X197175476Y-99337810D01*
X197175476Y-98956857D01*
X197223095Y-98861619D01*
X197270714Y-98814000D01*
X197365952Y-98766381D01*
X197556429Y-98766381D01*
X197651667Y-98814000D01*
X197699286Y-98861619D01*
X197746905Y-98956857D01*
X197746905Y-99194952D01*
X197699286Y-99290190D01*
X197651667Y-99337810D01*
X197556429Y-99385429D01*
X197365952Y-99385429D01*
X197270714Y-99337810D01*
X197223095Y-99290190D01*
X197175476Y-99194952D01*
X196842143Y-98766381D02*
X196175476Y-98766381D01*
X196604048Y-99766381D01*
X198254857Y-110085143D02*
X198302476Y-110132762D01*
X198445333Y-110180381D01*
X198540571Y-110180381D01*
X198683429Y-110132762D01*
X198778667Y-110037524D01*
X198826286Y-109942286D01*
X198873905Y-109751810D01*
X198873905Y-109608952D01*
X198826286Y-109418476D01*
X198778667Y-109323238D01*
X198683429Y-109228000D01*
X198540571Y-109180381D01*
X198445333Y-109180381D01*
X198302476Y-109228000D01*
X198254857Y-109275619D01*
X197778667Y-110180381D02*
X197588191Y-110180381D01*
X197492952Y-110132762D01*
X197445333Y-110085143D01*
X197350095Y-109942286D01*
X197302476Y-109751810D01*
X197302476Y-109370857D01*
X197350095Y-109275619D01*
X197397714Y-109228000D01*
X197492952Y-109180381D01*
X197683429Y-109180381D01*
X197778667Y-109228000D01*
X197826286Y-109275619D01*
X197873905Y-109370857D01*
X197873905Y-109608952D01*
X197826286Y-109704190D01*
X197778667Y-109751810D01*
X197683429Y-109799429D01*
X197492952Y-109799429D01*
X197397714Y-109751810D01*
X197350095Y-109704190D01*
X197302476Y-109608952D01*
X196731048Y-109608952D02*
X196826286Y-109561333D01*
X196873905Y-109513714D01*
X196921524Y-109418476D01*
X196921524Y-109370857D01*
X196873905Y-109275619D01*
X196826286Y-109228000D01*
X196731048Y-109180381D01*
X196540571Y-109180381D01*
X196445333Y-109228000D01*
X196397714Y-109275619D01*
X196350095Y-109370857D01*
X196350095Y-109418476D01*
X196397714Y-109513714D01*
X196445333Y-109561333D01*
X196540571Y-109608952D01*
X196731048Y-109608952D01*
X196826286Y-109656571D01*
X196873905Y-109704190D01*
X196921524Y-109799429D01*
X196921524Y-109989905D01*
X196873905Y-110085143D01*
X196826286Y-110132762D01*
X196731048Y-110180381D01*
X196540571Y-110180381D01*
X196445333Y-110132762D01*
X196397714Y-110085143D01*
X196350095Y-109989905D01*
X196350095Y-109799429D01*
X196397714Y-109704190D01*
X196445333Y-109656571D01*
X196540571Y-109608952D01*
X198254857Y-112117143D02*
X198302476Y-112164762D01*
X198445333Y-112212381D01*
X198540571Y-112212381D01*
X198683429Y-112164762D01*
X198778667Y-112069524D01*
X198826286Y-111974286D01*
X198873905Y-111783810D01*
X198873905Y-111640952D01*
X198826286Y-111450476D01*
X198778667Y-111355238D01*
X198683429Y-111260000D01*
X198540571Y-111212381D01*
X198445333Y-111212381D01*
X198302476Y-111260000D01*
X198254857Y-111307619D01*
X197778667Y-112212381D02*
X197588191Y-112212381D01*
X197492952Y-112164762D01*
X197445333Y-112117143D01*
X197350095Y-111974286D01*
X197302476Y-111783810D01*
X197302476Y-111402857D01*
X197350095Y-111307619D01*
X197397714Y-111260000D01*
X197492952Y-111212381D01*
X197683429Y-111212381D01*
X197778667Y-111260000D01*
X197826286Y-111307619D01*
X197873905Y-111402857D01*
X197873905Y-111640952D01*
X197826286Y-111736190D01*
X197778667Y-111783810D01*
X197683429Y-111831429D01*
X197492952Y-111831429D01*
X197397714Y-111783810D01*
X197350095Y-111736190D01*
X197302476Y-111640952D01*
X196826286Y-112212381D02*
X196635810Y-112212381D01*
X196540571Y-112164762D01*
X196492952Y-112117143D01*
X196397714Y-111974286D01*
X196350095Y-111783810D01*
X196350095Y-111402857D01*
X196397714Y-111307619D01*
X196445333Y-111260000D01*
X196540571Y-111212381D01*
X196731048Y-111212381D01*
X196826286Y-111260000D01*
X196873905Y-111307619D01*
X196921524Y-111402857D01*
X196921524Y-111640952D01*
X196873905Y-111736190D01*
X196826286Y-111783810D01*
X196731048Y-111831429D01*
X196540571Y-111831429D01*
X196445333Y-111783810D01*
X196397714Y-111736190D01*
X196350095Y-111640952D01*
X234017047Y-110311143D02*
X234064666Y-110358762D01*
X234207523Y-110406381D01*
X234302761Y-110406381D01*
X234445619Y-110358762D01*
X234540857Y-110263524D01*
X234588476Y-110168286D01*
X234636095Y-109977810D01*
X234636095Y-109834952D01*
X234588476Y-109644476D01*
X234540857Y-109549238D01*
X234445619Y-109454000D01*
X234302761Y-109406381D01*
X234207523Y-109406381D01*
X234064666Y-109454000D01*
X234017047Y-109501619D01*
X233064666Y-110406381D02*
X233636095Y-110406381D01*
X233350381Y-110406381D02*
X233350381Y-109406381D01*
X233445619Y-109549238D01*
X233540857Y-109644476D01*
X233636095Y-109692095D01*
X232445619Y-109406381D02*
X232350380Y-109406381D01*
X232255142Y-109454000D01*
X232207523Y-109501619D01*
X232159904Y-109596857D01*
X232112285Y-109787333D01*
X232112285Y-110025429D01*
X232159904Y-110215905D01*
X232207523Y-110311143D01*
X232255142Y-110358762D01*
X232350380Y-110406381D01*
X232445619Y-110406381D01*
X232540857Y-110358762D01*
X232588476Y-110311143D01*
X232636095Y-110215905D01*
X232683714Y-110025429D01*
X232683714Y-109787333D01*
X232636095Y-109596857D01*
X232588476Y-109501619D01*
X232540857Y-109454000D01*
X232445619Y-109406381D01*
X231493238Y-109406381D02*
X231397999Y-109406381D01*
X231302761Y-109454000D01*
X231255142Y-109501619D01*
X231207523Y-109596857D01*
X231159904Y-109787333D01*
X231159904Y-110025429D01*
X231207523Y-110215905D01*
X231255142Y-110311143D01*
X231302761Y-110358762D01*
X231397999Y-110406381D01*
X231493238Y-110406381D01*
X231588476Y-110358762D01*
X231636095Y-110311143D01*
X231683714Y-110215905D01*
X231731333Y-110025429D01*
X231731333Y-109787333D01*
X231683714Y-109596857D01*
X231636095Y-109501619D01*
X231588476Y-109454000D01*
X231493238Y-109406381D01*
X234017047Y-106755143D02*
X234064666Y-106802762D01*
X234207523Y-106850381D01*
X234302761Y-106850381D01*
X234445619Y-106802762D01*
X234540857Y-106707524D01*
X234588476Y-106612286D01*
X234636095Y-106421810D01*
X234636095Y-106278952D01*
X234588476Y-106088476D01*
X234540857Y-105993238D01*
X234445619Y-105898000D01*
X234302761Y-105850381D01*
X234207523Y-105850381D01*
X234064666Y-105898000D01*
X234017047Y-105945619D01*
X233064666Y-106850381D02*
X233636095Y-106850381D01*
X233350381Y-106850381D02*
X233350381Y-105850381D01*
X233445619Y-105993238D01*
X233540857Y-106088476D01*
X233636095Y-106136095D01*
X232445619Y-105850381D02*
X232350380Y-105850381D01*
X232255142Y-105898000D01*
X232207523Y-105945619D01*
X232159904Y-106040857D01*
X232112285Y-106231333D01*
X232112285Y-106469429D01*
X232159904Y-106659905D01*
X232207523Y-106755143D01*
X232255142Y-106802762D01*
X232350380Y-106850381D01*
X232445619Y-106850381D01*
X232540857Y-106802762D01*
X232588476Y-106755143D01*
X232636095Y-106659905D01*
X232683714Y-106469429D01*
X232683714Y-106231333D01*
X232636095Y-106040857D01*
X232588476Y-105945619D01*
X232540857Y-105898000D01*
X232445619Y-105850381D01*
X231159904Y-106850381D02*
X231731333Y-106850381D01*
X231445619Y-106850381D02*
X231445619Y-105850381D01*
X231540857Y-105993238D01*
X231636095Y-106088476D01*
X231731333Y-106136095D01*
X238482047Y-97004143D02*
X238529666Y-97051762D01*
X238672523Y-97099381D01*
X238767761Y-97099381D01*
X238910619Y-97051762D01*
X239005857Y-96956524D01*
X239053476Y-96861286D01*
X239101095Y-96670810D01*
X239101095Y-96527952D01*
X239053476Y-96337476D01*
X239005857Y-96242238D01*
X238910619Y-96147000D01*
X238767761Y-96099381D01*
X238672523Y-96099381D01*
X238529666Y-96147000D01*
X238482047Y-96194619D01*
X237529666Y-97099381D02*
X238101095Y-97099381D01*
X237815381Y-97099381D02*
X237815381Y-96099381D01*
X237910619Y-96242238D01*
X238005857Y-96337476D01*
X238101095Y-96385095D01*
X236910619Y-96099381D02*
X236815380Y-96099381D01*
X236720142Y-96147000D01*
X236672523Y-96194619D01*
X236624904Y-96289857D01*
X236577285Y-96480333D01*
X236577285Y-96718429D01*
X236624904Y-96908905D01*
X236672523Y-97004143D01*
X236720142Y-97051762D01*
X236815380Y-97099381D01*
X236910619Y-97099381D01*
X237005857Y-97051762D01*
X237053476Y-97004143D01*
X237101095Y-96908905D01*
X237148714Y-96718429D01*
X237148714Y-96480333D01*
X237101095Y-96289857D01*
X237053476Y-96194619D01*
X237005857Y-96147000D01*
X236910619Y-96099381D01*
X236196333Y-96194619D02*
X236148714Y-96147000D01*
X236053476Y-96099381D01*
X235815380Y-96099381D01*
X235720142Y-96147000D01*
X235672523Y-96194619D01*
X235624904Y-96289857D01*
X235624904Y-96385095D01*
X235672523Y-96527952D01*
X236243952Y-97099381D01*
X235624904Y-97099381D01*
X226369143Y-89030953D02*
X226416762Y-88983334D01*
X226464381Y-88840477D01*
X226464381Y-88745239D01*
X226416762Y-88602381D01*
X226321524Y-88507143D01*
X226226286Y-88459524D01*
X226035810Y-88411905D01*
X225892952Y-88411905D01*
X225702476Y-88459524D01*
X225607238Y-88507143D01*
X225512000Y-88602381D01*
X225464381Y-88745239D01*
X225464381Y-88840477D01*
X225512000Y-88983334D01*
X225559619Y-89030953D01*
X226464381Y-89983334D02*
X226464381Y-89411905D01*
X226464381Y-89697619D02*
X225464381Y-89697619D01*
X225607238Y-89602381D01*
X225702476Y-89507143D01*
X225750095Y-89411905D01*
X225464381Y-90602381D02*
X225464381Y-90697620D01*
X225512000Y-90792858D01*
X225559619Y-90840477D01*
X225654857Y-90888096D01*
X225845333Y-90935715D01*
X226083429Y-90935715D01*
X226273905Y-90888096D01*
X226369143Y-90840477D01*
X226416762Y-90792858D01*
X226464381Y-90697620D01*
X226464381Y-90602381D01*
X226416762Y-90507143D01*
X226369143Y-90459524D01*
X226273905Y-90411905D01*
X226083429Y-90364286D01*
X225845333Y-90364286D01*
X225654857Y-90411905D01*
X225559619Y-90459524D01*
X225512000Y-90507143D01*
X225464381Y-90602381D01*
X225464381Y-91269048D02*
X225464381Y-91888096D01*
X225845333Y-91554762D01*
X225845333Y-91697620D01*
X225892952Y-91792858D01*
X225940571Y-91840477D01*
X226035810Y-91888096D01*
X226273905Y-91888096D01*
X226369143Y-91840477D01*
X226416762Y-91792858D01*
X226464381Y-91697620D01*
X226464381Y-91411905D01*
X226416762Y-91316667D01*
X226369143Y-91269048D01*
X219559143Y-90193953D02*
X219606762Y-90146334D01*
X219654381Y-90003477D01*
X219654381Y-89908239D01*
X219606762Y-89765381D01*
X219511524Y-89670143D01*
X219416286Y-89622524D01*
X219225810Y-89574905D01*
X219082952Y-89574905D01*
X218892476Y-89622524D01*
X218797238Y-89670143D01*
X218702000Y-89765381D01*
X218654381Y-89908239D01*
X218654381Y-90003477D01*
X218702000Y-90146334D01*
X218749619Y-90193953D01*
X219654381Y-91146334D02*
X219654381Y-90574905D01*
X219654381Y-90860619D02*
X218654381Y-90860619D01*
X218797238Y-90765381D01*
X218892476Y-90670143D01*
X218940095Y-90574905D01*
X218654381Y-91765381D02*
X218654381Y-91860620D01*
X218702000Y-91955858D01*
X218749619Y-92003477D01*
X218844857Y-92051096D01*
X219035333Y-92098715D01*
X219273429Y-92098715D01*
X219463905Y-92051096D01*
X219559143Y-92003477D01*
X219606762Y-91955858D01*
X219654381Y-91860620D01*
X219654381Y-91765381D01*
X219606762Y-91670143D01*
X219559143Y-91622524D01*
X219463905Y-91574905D01*
X219273429Y-91527286D01*
X219035333Y-91527286D01*
X218844857Y-91574905D01*
X218749619Y-91622524D01*
X218702000Y-91670143D01*
X218654381Y-91765381D01*
X218987714Y-92955858D02*
X219654381Y-92955858D01*
X218606762Y-92717762D02*
X219321048Y-92479667D01*
X219321048Y-93098715D01*
X209526143Y-84986953D02*
X209573762Y-84939334D01*
X209621381Y-84796477D01*
X209621381Y-84701239D01*
X209573762Y-84558381D01*
X209478524Y-84463143D01*
X209383286Y-84415524D01*
X209192810Y-84367905D01*
X209049952Y-84367905D01*
X208859476Y-84415524D01*
X208764238Y-84463143D01*
X208669000Y-84558381D01*
X208621381Y-84701239D01*
X208621381Y-84796477D01*
X208669000Y-84939334D01*
X208716619Y-84986953D01*
X209621381Y-85939334D02*
X209621381Y-85367905D01*
X209621381Y-85653619D02*
X208621381Y-85653619D01*
X208764238Y-85558381D01*
X208859476Y-85463143D01*
X208907095Y-85367905D01*
X208621381Y-86558381D02*
X208621381Y-86653620D01*
X208669000Y-86748858D01*
X208716619Y-86796477D01*
X208811857Y-86844096D01*
X209002333Y-86891715D01*
X209240429Y-86891715D01*
X209430905Y-86844096D01*
X209526143Y-86796477D01*
X209573762Y-86748858D01*
X209621381Y-86653620D01*
X209621381Y-86558381D01*
X209573762Y-86463143D01*
X209526143Y-86415524D01*
X209430905Y-86367905D01*
X209240429Y-86320286D01*
X209002333Y-86320286D01*
X208811857Y-86367905D01*
X208716619Y-86415524D01*
X208669000Y-86463143D01*
X208621381Y-86558381D01*
X208621381Y-87796477D02*
X208621381Y-87320286D01*
X209097571Y-87272667D01*
X209049952Y-87320286D01*
X209002333Y-87415524D01*
X209002333Y-87653620D01*
X209049952Y-87748858D01*
X209097571Y-87796477D01*
X209192810Y-87844096D01*
X209430905Y-87844096D01*
X209526143Y-87796477D01*
X209573762Y-87748858D01*
X209621381Y-87653620D01*
X209621381Y-87415524D01*
X209573762Y-87320286D01*
X209526143Y-87272667D01*
X208411143Y-120292953D02*
X208458762Y-120245334D01*
X208506381Y-120102477D01*
X208506381Y-120007239D01*
X208458762Y-119864381D01*
X208363524Y-119769143D01*
X208268286Y-119721524D01*
X208077810Y-119673905D01*
X207934952Y-119673905D01*
X207744476Y-119721524D01*
X207649238Y-119769143D01*
X207554000Y-119864381D01*
X207506381Y-120007239D01*
X207506381Y-120102477D01*
X207554000Y-120245334D01*
X207601619Y-120292953D01*
X208506381Y-121245334D02*
X208506381Y-120673905D01*
X208506381Y-120959619D02*
X207506381Y-120959619D01*
X207649238Y-120864381D01*
X207744476Y-120769143D01*
X207792095Y-120673905D01*
X207506381Y-121864381D02*
X207506381Y-121959620D01*
X207554000Y-122054858D01*
X207601619Y-122102477D01*
X207696857Y-122150096D01*
X207887333Y-122197715D01*
X208125429Y-122197715D01*
X208315905Y-122150096D01*
X208411143Y-122102477D01*
X208458762Y-122054858D01*
X208506381Y-121959620D01*
X208506381Y-121864381D01*
X208458762Y-121769143D01*
X208411143Y-121721524D01*
X208315905Y-121673905D01*
X208125429Y-121626286D01*
X207887333Y-121626286D01*
X207696857Y-121673905D01*
X207601619Y-121721524D01*
X207554000Y-121769143D01*
X207506381Y-121864381D01*
X207506381Y-123054858D02*
X207506381Y-122864381D01*
X207554000Y-122769143D01*
X207601619Y-122721524D01*
X207744476Y-122626286D01*
X207934952Y-122578667D01*
X208315905Y-122578667D01*
X208411143Y-122626286D01*
X208458762Y-122673905D01*
X208506381Y-122769143D01*
X208506381Y-122959620D01*
X208458762Y-123054858D01*
X208411143Y-123102477D01*
X208315905Y-123150096D01*
X208077810Y-123150096D01*
X207982571Y-123102477D01*
X207934952Y-123054858D01*
X207887333Y-122959620D01*
X207887333Y-122769143D01*
X207934952Y-122673905D01*
X207982571Y-122626286D01*
X208077810Y-122578667D01*
X213491143Y-120292953D02*
X213538762Y-120245334D01*
X213586381Y-120102477D01*
X213586381Y-120007239D01*
X213538762Y-119864381D01*
X213443524Y-119769143D01*
X213348286Y-119721524D01*
X213157810Y-119673905D01*
X213014952Y-119673905D01*
X212824476Y-119721524D01*
X212729238Y-119769143D01*
X212634000Y-119864381D01*
X212586381Y-120007239D01*
X212586381Y-120102477D01*
X212634000Y-120245334D01*
X212681619Y-120292953D01*
X213586381Y-121245334D02*
X213586381Y-120673905D01*
X213586381Y-120959619D02*
X212586381Y-120959619D01*
X212729238Y-120864381D01*
X212824476Y-120769143D01*
X212872095Y-120673905D01*
X212586381Y-121864381D02*
X212586381Y-121959620D01*
X212634000Y-122054858D01*
X212681619Y-122102477D01*
X212776857Y-122150096D01*
X212967333Y-122197715D01*
X213205429Y-122197715D01*
X213395905Y-122150096D01*
X213491143Y-122102477D01*
X213538762Y-122054858D01*
X213586381Y-121959620D01*
X213586381Y-121864381D01*
X213538762Y-121769143D01*
X213491143Y-121721524D01*
X213395905Y-121673905D01*
X213205429Y-121626286D01*
X212967333Y-121626286D01*
X212776857Y-121673905D01*
X212681619Y-121721524D01*
X212634000Y-121769143D01*
X212586381Y-121864381D01*
X212586381Y-122531048D02*
X212586381Y-123197715D01*
X213586381Y-122769143D01*
X225147143Y-120038953D02*
X225194762Y-119991334D01*
X225242381Y-119848477D01*
X225242381Y-119753239D01*
X225194762Y-119610381D01*
X225099524Y-119515143D01*
X225004286Y-119467524D01*
X224813810Y-119419905D01*
X224670952Y-119419905D01*
X224480476Y-119467524D01*
X224385238Y-119515143D01*
X224290000Y-119610381D01*
X224242381Y-119753239D01*
X224242381Y-119848477D01*
X224290000Y-119991334D01*
X224337619Y-120038953D01*
X225242381Y-120991334D02*
X225242381Y-120419905D01*
X225242381Y-120705619D02*
X224242381Y-120705619D01*
X224385238Y-120610381D01*
X224480476Y-120515143D01*
X224528095Y-120419905D01*
X224242381Y-121610381D02*
X224242381Y-121705620D01*
X224290000Y-121800858D01*
X224337619Y-121848477D01*
X224432857Y-121896096D01*
X224623333Y-121943715D01*
X224861429Y-121943715D01*
X225051905Y-121896096D01*
X225147143Y-121848477D01*
X225194762Y-121800858D01*
X225242381Y-121705620D01*
X225242381Y-121610381D01*
X225194762Y-121515143D01*
X225147143Y-121467524D01*
X225051905Y-121419905D01*
X224861429Y-121372286D01*
X224623333Y-121372286D01*
X224432857Y-121419905D01*
X224337619Y-121467524D01*
X224290000Y-121515143D01*
X224242381Y-121610381D01*
X224670952Y-122515143D02*
X224623333Y-122419905D01*
X224575714Y-122372286D01*
X224480476Y-122324667D01*
X224432857Y-122324667D01*
X224337619Y-122372286D01*
X224290000Y-122419905D01*
X224242381Y-122515143D01*
X224242381Y-122705620D01*
X224290000Y-122800858D01*
X224337619Y-122848477D01*
X224432857Y-122896096D01*
X224480476Y-122896096D01*
X224575714Y-122848477D01*
X224623333Y-122800858D01*
X224670952Y-122705620D01*
X224670952Y-122515143D01*
X224718571Y-122419905D01*
X224766190Y-122372286D01*
X224861429Y-122324667D01*
X225051905Y-122324667D01*
X225147143Y-122372286D01*
X225194762Y-122419905D01*
X225242381Y-122515143D01*
X225242381Y-122705620D01*
X225194762Y-122800858D01*
X225147143Y-122848477D01*
X225051905Y-122896096D01*
X224861429Y-122896096D01*
X224766190Y-122848477D01*
X224718571Y-122800858D01*
X224670952Y-122705620D01*
X125690857Y-97812381D02*
X126024191Y-97336190D01*
X126262286Y-97812381D02*
X126262286Y-96812381D01*
X125881333Y-96812381D01*
X125786095Y-96860000D01*
X125738476Y-96907619D01*
X125690857Y-97002857D01*
X125690857Y-97145714D01*
X125738476Y-97240952D01*
X125786095Y-97288571D01*
X125881333Y-97336190D01*
X126262286Y-97336190D01*
X124833714Y-97145714D02*
X124833714Y-97812381D01*
X125071810Y-96764762D02*
X125309905Y-97479048D01*
X124690857Y-97479048D01*
X123881333Y-96812381D02*
X124071810Y-96812381D01*
X124167048Y-96860000D01*
X124214667Y-96907619D01*
X124309905Y-97050476D01*
X124357524Y-97240952D01*
X124357524Y-97621905D01*
X124309905Y-97717143D01*
X124262286Y-97764762D01*
X124167048Y-97812381D01*
X123976571Y-97812381D01*
X123881333Y-97764762D01*
X123833714Y-97717143D01*
X123786095Y-97621905D01*
X123786095Y-97383810D01*
X123833714Y-97288571D01*
X123881333Y-97240952D01*
X123976571Y-97193333D01*
X124167048Y-97193333D01*
X124262286Y-97240952D01*
X124309905Y-97288571D01*
X124357524Y-97383810D01*
M02*
