G04 #@! TF.FileFunction,Copper,L3,Inr,Plane*
%FSLAX46Y46*%
G04 Gerber Fmt 4.6, Leading zero omitted, Abs format (unit mm)*
G04 Created by KiCad (PCBNEW 4.0.7-e2-6376~58~ubuntu16.04.1) date Thu Apr  4 23:28:41 2019*
%MOMM*%
%LPD*%
G01*
G04 APERTURE LIST*
%ADD10C,0.100000*%
%ADD11C,1.500000*%
%ADD12R,1.727200X1.727200*%
%ADD13O,1.727200X1.727200*%
%ADD14R,1.700000X1.700000*%
%ADD15O,1.700000X1.700000*%
%ADD16C,1.000000*%
%ADD17C,1.520000*%
%ADD18C,2.700000*%
%ADD19C,2.300000*%
%ADD20R,3.500000X3.500000*%
%ADD21C,3.500000*%
%ADD22C,0.600000*%
%ADD23C,1.200000*%
%ADD24C,0.250000*%
%ADD25C,1.000000*%
G04 APERTURE END LIST*
D10*
D11*
X94361000Y-97663000D03*
D12*
X204216000Y-60452000D03*
D13*
X204216000Y-57912000D03*
X206756000Y-60452000D03*
X206756000Y-57912000D03*
X209296000Y-60452000D03*
X209296000Y-57912000D03*
X211836000Y-60452000D03*
X211836000Y-57912000D03*
X214376000Y-60452000D03*
X214376000Y-57912000D03*
X216916000Y-60452000D03*
X216916000Y-57912000D03*
X219456000Y-60452000D03*
X219456000Y-57912000D03*
X221996000Y-60452000D03*
X221996000Y-57912000D03*
X224536000Y-60452000D03*
X224536000Y-57912000D03*
X227076000Y-60452000D03*
X227076000Y-57912000D03*
D12*
X189484000Y-69596000D03*
D13*
X192024000Y-69596000D03*
X189484000Y-72136000D03*
X192024000Y-72136000D03*
X189484000Y-74676000D03*
X192024000Y-74676000D03*
X189484000Y-77216000D03*
X192024000Y-77216000D03*
X189484000Y-79756000D03*
X192024000Y-79756000D03*
X189484000Y-82296000D03*
X192024000Y-82296000D03*
X189484000Y-84836000D03*
X192024000Y-84836000D03*
X189484000Y-87376000D03*
X192024000Y-87376000D03*
D14*
X166116000Y-94996000D03*
D15*
X166116000Y-97536000D03*
X166116000Y-100076000D03*
D14*
X175260000Y-94996000D03*
D15*
X175260000Y-97536000D03*
X175260000Y-100076000D03*
D14*
X130048000Y-100584000D03*
D15*
X130048000Y-98044000D03*
X130048000Y-95504000D03*
X130048000Y-92964000D03*
D16*
X134112000Y-107696000D03*
X134112000Y-109196000D03*
D12*
X127762000Y-86360000D03*
D13*
X127762000Y-83820000D03*
X130302000Y-86360000D03*
X130302000Y-83820000D03*
X132842000Y-86360000D03*
X132842000Y-83820000D03*
X135382000Y-86360000D03*
X135382000Y-83820000D03*
X137922000Y-86360000D03*
X137922000Y-83820000D03*
X140462000Y-86360000D03*
X140462000Y-83820000D03*
X143002000Y-86360000D03*
X143002000Y-83820000D03*
X145542000Y-86360000D03*
X145542000Y-83820000D03*
X148082000Y-86360000D03*
X148082000Y-83820000D03*
X150622000Y-86360000D03*
X150622000Y-83820000D03*
D17*
X136652000Y-142272000D03*
X139192000Y-142272000D03*
X139192000Y-144272000D03*
X136652000Y-144272000D03*
D18*
X131922000Y-146972000D03*
X143922000Y-146972000D03*
D14*
X142240000Y-128524000D03*
D15*
X144780000Y-128524000D03*
X147320000Y-128524000D03*
X149860000Y-128524000D03*
X152400000Y-128524000D03*
X154940000Y-128524000D03*
X157480000Y-128524000D03*
D14*
X165608000Y-74676000D03*
D15*
X168148000Y-74676000D03*
X170688000Y-74676000D03*
D11*
X149860000Y-117856000D03*
X154740000Y-117856000D03*
D12*
X245364000Y-117348000D03*
D13*
X247904000Y-117348000D03*
X245364000Y-119888000D03*
X247904000Y-119888000D03*
X245364000Y-122428000D03*
X247904000Y-122428000D03*
X245364000Y-124968000D03*
X247904000Y-124968000D03*
X245364000Y-127508000D03*
X247904000Y-127508000D03*
X245364000Y-130048000D03*
X247904000Y-130048000D03*
X245364000Y-132588000D03*
X247904000Y-132588000D03*
D17*
X163418000Y-142112000D03*
X165958000Y-142112000D03*
X165958000Y-144112000D03*
X163418000Y-144112000D03*
D18*
X158688000Y-146812000D03*
X170688000Y-146812000D03*
D14*
X139700000Y-59436000D03*
D15*
X139700000Y-61976000D03*
D19*
X154940000Y-53975000D03*
X159940000Y-58975000D03*
X149940000Y-58975000D03*
X177800000Y-53975000D03*
X182800000Y-58975000D03*
X172800000Y-58975000D03*
D11*
X195326000Y-109220000D03*
D19*
X124380000Y-54055000D03*
X129380000Y-59055000D03*
X119380000Y-59055000D03*
D11*
X192405000Y-115189000D03*
X189865000Y-106680000D03*
D12*
X244856000Y-78740000D03*
D13*
X247396000Y-78740000D03*
X244856000Y-81280000D03*
X247396000Y-81280000D03*
X244856000Y-83820000D03*
X247396000Y-83820000D03*
X244856000Y-86360000D03*
X247396000Y-86360000D03*
X244856000Y-88900000D03*
X247396000Y-88900000D03*
X244856000Y-91440000D03*
X247396000Y-91440000D03*
X244856000Y-93980000D03*
X247396000Y-93980000D03*
X244856000Y-96520000D03*
X247396000Y-96520000D03*
D14*
X100457000Y-146685000D03*
X114808000Y-134620000D03*
D20*
X69215000Y-143225000D03*
X69215000Y-149225000D03*
X73915000Y-146225000D03*
D21*
X57404000Y-134620000D03*
X57404000Y-129540000D03*
X57404000Y-124460000D03*
X57404000Y-119380000D03*
D14*
X54610000Y-106045000D03*
D15*
X54610000Y-108585000D03*
D11*
X113357000Y-92202000D03*
X118237000Y-92202000D03*
X94615000Y-83820000D03*
X94615000Y-80010000D03*
X82169000Y-94742000D03*
X94615000Y-72390000D03*
X94615000Y-76200000D03*
X72390000Y-95250000D03*
D19*
X78740000Y-53975000D03*
X83740000Y-58975000D03*
X73740000Y-58975000D03*
X101600000Y-53975000D03*
X106600000Y-58975000D03*
X96600000Y-58975000D03*
D11*
X94615000Y-87630000D03*
X94615000Y-93726000D03*
D22*
X76112500Y-81987500D03*
X77837500Y-81987500D03*
X77837500Y-80262500D03*
X76112500Y-80262500D03*
X140948771Y-103096502D03*
X102108000Y-92837000D03*
X110236000Y-110490000D03*
X223774000Y-112903000D03*
X225933000Y-113792002D03*
X66548000Y-111887000D03*
X102870000Y-100584000D03*
X206248000Y-130302000D03*
X178816000Y-133223000D03*
X182499000Y-131064000D03*
X178435000Y-128651000D03*
X214757000Y-81026000D03*
X219583000Y-78994000D03*
X80264000Y-116078000D03*
X80264000Y-118999000D03*
X195834000Y-117983000D03*
X81407000Y-123063000D03*
X104013000Y-129540000D03*
X111760000Y-129540000D03*
X110490000Y-129540000D03*
X105410000Y-128270000D03*
X107950000Y-128270000D03*
X107950000Y-127000000D03*
X111760000Y-127000000D03*
X110490000Y-127000000D03*
X109220000Y-127000000D03*
X109220000Y-128270000D03*
X110490000Y-128270000D03*
X111760000Y-128270000D03*
X113157000Y-128270000D03*
X114046000Y-129540000D03*
X114046000Y-128270000D03*
X113988010Y-126422990D03*
X58547000Y-88011000D03*
X62738000Y-89027000D03*
X153924000Y-147955000D03*
X167021000Y-90170000D03*
X171958000Y-82169000D03*
X123190000Y-147701000D03*
X129921000Y-130048000D03*
X139954000Y-137033000D03*
X171704000Y-130556000D03*
X165989000Y-131064000D03*
X165862000Y-146431000D03*
X189992000Y-132461000D03*
X182245000Y-127889000D03*
X162814000Y-91567000D03*
X163068000Y-87376000D03*
X142494000Y-104648000D03*
X147447000Y-103251000D03*
X97663000Y-146399000D03*
X101854000Y-142875000D03*
X108077000Y-148670000D03*
X86487000Y-146558000D03*
X141478000Y-92964000D03*
X153616330Y-107451999D03*
X148393989Y-122428000D03*
X158333000Y-122301000D03*
X148717000Y-95885000D03*
X156210000Y-96774000D03*
X161925000Y-98552000D03*
X149820000Y-91059000D03*
X161798000Y-104325999D03*
X185293000Y-113792000D03*
X174625000Y-120396000D03*
X169799000Y-118110000D03*
X193548000Y-150689979D03*
X218821000Y-147320000D03*
X210058000Y-118618000D03*
X217297000Y-114173000D03*
X217419417Y-87540999D03*
X214249000Y-85979000D03*
X133096000Y-103124000D03*
X131953000Y-112776000D03*
X93599000Y-116078000D03*
X103251000Y-98552000D03*
X102870000Y-95885000D03*
X118364000Y-99695000D03*
X108049559Y-96547441D03*
X111058942Y-99634058D03*
X57971564Y-83252436D03*
X154559000Y-68453000D03*
X157353000Y-73279000D03*
X72009000Y-81026000D03*
X70612000Y-76708000D03*
X81407000Y-76073000D03*
X79883000Y-77724000D03*
X123190000Y-65658996D03*
X125730000Y-65659000D03*
X80518000Y-81500010D03*
X65278000Y-83439000D03*
X61595000Y-83439000D03*
X81915000Y-88421615D03*
X79375000Y-84455000D03*
X219837000Y-96647000D03*
X226822000Y-77216000D03*
X237363000Y-67818000D03*
X243586000Y-69977000D03*
X203327000Y-113157000D03*
X208788000Y-112522000D03*
X226441000Y-103886000D03*
X226568000Y-100965000D03*
X226441000Y-97028000D03*
X224790000Y-96266000D03*
X212979000Y-107188000D03*
X204597000Y-101854000D03*
X204851000Y-102997000D03*
X213868000Y-96774000D03*
X218059000Y-135890000D03*
X209921010Y-121539000D03*
X218431859Y-142781857D03*
X220853000Y-127889000D03*
X198464575Y-111156324D03*
X193421000Y-105410000D03*
X244094000Y-105664000D03*
X215900000Y-129159000D03*
X67056000Y-116205000D03*
X205359000Y-88519000D03*
X202819000Y-88646000D03*
X212598000Y-87503000D03*
X214630000Y-87503000D03*
X237109000Y-99949000D03*
X220091000Y-123952000D03*
X217678000Y-123952000D03*
X191008000Y-102489000D03*
X197104000Y-102489000D03*
X210947000Y-88900000D03*
X215265000Y-123824996D03*
X222250000Y-122555000D03*
X234188000Y-95250000D03*
X235712000Y-104648000D03*
X235712000Y-108204000D03*
X225552000Y-88900000D03*
X200192000Y-98084000D03*
X148971000Y-104394000D03*
X156845000Y-84074000D03*
X151130000Y-103235010D03*
X155067000Y-107442000D03*
X150114000Y-107061000D03*
X102870000Y-76200000D03*
X102870000Y-72390000D03*
X99060705Y-89403590D03*
X196088000Y-105156000D03*
X208661000Y-108458000D03*
X217292493Y-80518000D03*
X171450000Y-105537000D03*
X232791000Y-104394000D03*
X232029000Y-73152000D03*
X193040006Y-100076000D03*
X181102000Y-141605000D03*
X176149000Y-145923000D03*
X146878051Y-105603051D03*
X165862000Y-128364000D03*
X161798000Y-102869990D03*
X145229918Y-103642000D03*
X145034000Y-105029000D03*
X127762000Y-89348999D03*
X195800261Y-119507000D03*
X159258000Y-96139000D03*
X161798000Y-96012000D03*
X70485000Y-100965000D03*
X74422000Y-104902000D03*
X147320000Y-91059000D03*
X172482000Y-117277000D03*
X189865000Y-115316000D03*
X169418000Y-115316000D03*
X163957000Y-115316000D03*
X217678000Y-92329000D03*
X216916000Y-86614000D03*
X105029000Y-107188000D03*
X104394000Y-116840000D03*
X69215000Y-90170000D03*
X78740000Y-85471000D03*
X204343000Y-113157000D03*
X232790990Y-103378011D03*
X229616000Y-101219000D03*
X209679551Y-117731551D03*
X235975990Y-107061009D03*
X230124000Y-106289010D03*
X223452021Y-117983000D03*
X210643978Y-92938487D03*
X204216000Y-110071010D03*
X217932000Y-147193000D03*
X202565000Y-105156000D03*
X221742000Y-126545011D03*
X218440000Y-126545011D03*
X215646000Y-126545011D03*
X217001000Y-117856000D03*
X224790000Y-126545011D03*
X218821000Y-134747000D03*
X206121000Y-126545011D03*
X72009000Y-102489000D03*
X208407000Y-93472000D03*
X216376000Y-96742000D03*
X207264000Y-125095000D03*
X214884000Y-117856000D03*
X241300000Y-108204000D03*
X230124000Y-108204010D03*
X220980000Y-87376000D03*
X224536000Y-92964000D03*
X202692000Y-101092000D03*
X204216000Y-99568000D03*
X150495000Y-107823000D03*
X159766000Y-93217996D03*
X95123000Y-129667000D03*
X70739000Y-132969000D03*
X192151000Y-131191000D03*
X107315000Y-132080000D03*
X97917000Y-126365000D03*
X106172000Y-132080000D03*
X94996000Y-124968000D03*
X53467000Y-91567000D03*
X126492000Y-103124000D03*
X216451021Y-92837000D03*
X220914647Y-119060647D03*
X230251000Y-104521000D03*
X212344000Y-92455994D03*
X86360000Y-101863999D03*
X84963000Y-101863999D03*
X83693000Y-102362000D03*
X200914000Y-101346000D03*
X216408000Y-118618000D03*
X203276999Y-104470999D03*
X211836000Y-86360000D03*
X81026000Y-79502000D03*
X103886000Y-67818000D03*
X67564000Y-78867000D03*
X67292009Y-84201000D03*
X81025994Y-78359000D03*
X96393000Y-69342000D03*
X76327000Y-76708000D03*
X116713000Y-73152000D03*
X77326667Y-77444781D03*
X125222000Y-73279000D03*
X72898000Y-78486000D03*
X71120000Y-81407000D03*
X152273000Y-107823000D03*
X153797000Y-124841000D03*
X146558000Y-120777000D03*
X100076000Y-143002000D03*
X101981000Y-135128000D03*
X138811000Y-120142000D03*
X134409345Y-112688655D03*
X185547000Y-96393002D03*
X186055000Y-99187000D03*
X152146000Y-104267000D03*
X144907000Y-118872000D03*
X156317012Y-107442000D03*
X162441501Y-113546501D03*
X163068000Y-118618000D03*
X156591000Y-104325999D03*
X158623000Y-100045000D03*
X196977000Y-123190000D03*
X154813004Y-100076000D03*
X155956000Y-120786990D03*
X122936000Y-109591001D03*
X125669051Y-109407949D03*
X72136000Y-84074008D03*
X65278000Y-84963000D03*
X137671129Y-118632416D03*
X122555000Y-113175870D03*
X121031000Y-109347000D03*
X124714000Y-109591000D03*
X225298000Y-114554000D03*
X231521000Y-122428000D03*
X224282000Y-114681006D03*
X232791000Y-127381000D03*
X144526000Y-100965000D03*
X149860000Y-100457000D03*
X140538108Y-99196990D03*
X141986000Y-97663000D03*
X144980250Y-96902771D03*
X113792000Y-104902000D03*
X94361000Y-99568000D03*
X226641169Y-93614268D03*
X151257000Y-92075000D03*
X151130000Y-93091000D03*
X225858036Y-93450851D03*
X204216000Y-98552000D03*
X209169000Y-99949000D03*
X210058000Y-100330000D03*
X210693000Y-99695000D03*
X211482117Y-99563481D03*
X212282104Y-99568400D03*
X213033877Y-99841969D03*
X213793364Y-100093330D03*
X214122000Y-97790000D03*
X218313000Y-96520000D03*
X218567000Y-97536000D03*
X219329000Y-93589000D03*
X220345000Y-93599000D03*
X220853000Y-96901000D03*
X143256000Y-118745000D03*
X118999000Y-146558000D03*
X142621000Y-122809000D03*
X152527000Y-101092000D03*
X148971000Y-142240000D03*
X143510000Y-124206000D03*
X144272000Y-119888000D03*
X152146000Y-103251000D03*
X156226163Y-103233199D03*
X174879000Y-114427000D03*
X143129000Y-117475000D03*
X151577058Y-96199942D03*
X135255000Y-134874000D03*
X133350000Y-134874000D03*
X208151321Y-98426679D03*
X195453000Y-142239996D03*
X224028000Y-75819000D03*
X221996000Y-75692000D03*
X77841594Y-76832515D03*
X117729000Y-67192999D03*
X124079000Y-70612000D03*
X77851000Y-85598000D03*
X85471000Y-94234000D03*
X76871948Y-85375846D03*
X78321894Y-87298023D03*
X73532994Y-87249000D03*
X74930000Y-85725000D03*
X175768000Y-114300000D03*
X164972295Y-102863999D03*
X155874283Y-100943011D03*
X176525741Y-114014397D03*
X177172881Y-113544065D03*
X159385000Y-100838000D03*
X150114000Y-96266000D03*
X141605000Y-116586000D03*
X140722215Y-116465215D03*
X149479000Y-96774000D03*
X97536000Y-139700000D03*
X97536000Y-138525000D03*
X95504000Y-138684000D03*
X94488000Y-138684000D03*
X93472000Y-138684000D03*
X105664000Y-141224000D03*
X106680000Y-141224000D03*
X107696000Y-141224000D03*
X108712000Y-141224000D03*
X109728000Y-141224000D03*
X109728000Y-139700000D03*
X108712000Y-139700000D03*
X107696000Y-139700000D03*
X106680000Y-139700000D03*
X105664000Y-139700000D03*
X105664000Y-138176000D03*
X106680000Y-138176000D03*
X107696000Y-138176000D03*
X108712000Y-138176000D03*
X109728000Y-138176000D03*
X109728000Y-136652000D03*
X108712000Y-136652000D03*
X107696000Y-136652000D03*
X106680000Y-136652000D03*
X105664000Y-136652000D03*
X93472000Y-141224000D03*
X94488000Y-141224000D03*
X95504000Y-141224000D03*
X96520000Y-141224000D03*
X96520000Y-139700000D03*
X95504000Y-139700000D03*
X94488000Y-139700000D03*
X93472000Y-139700000D03*
X96520000Y-137668000D03*
X95504000Y-137668000D03*
X94488000Y-137668000D03*
X93472000Y-137668000D03*
X96520000Y-136144000D03*
X95504000Y-136144000D03*
X94488000Y-136144000D03*
X93472000Y-136144000D03*
D23*
X100552000Y-139700000D03*
X101727000Y-138525000D03*
D22*
X230632000Y-90296998D03*
X170815000Y-129286000D03*
X171069000Y-126492000D03*
X223393000Y-96901000D03*
X218313000Y-113029986D03*
X222758000Y-129667000D03*
X224406041Y-150689979D03*
X211328000Y-110998000D03*
X223520000Y-150239968D03*
X211930974Y-111797503D03*
X212852000Y-111252000D03*
X226822000Y-147574000D03*
X225933000Y-149860000D03*
X213487000Y-111887000D03*
X225206048Y-150687291D03*
X213995000Y-112522000D03*
X214757000Y-113284000D03*
X213233000Y-147193006D03*
X215646000Y-113919000D03*
X212433001Y-147188417D03*
X216154000Y-114681000D03*
X211546513Y-147256493D03*
X210772625Y-147053721D03*
X217800559Y-117597559D03*
X209931000Y-147066000D03*
X218313000Y-114808000D03*
X230068001Y-113528000D03*
X243305768Y-115105446D03*
X224790000Y-113284000D03*
X241935000Y-112776000D03*
X221869000Y-111887000D03*
X241409961Y-111873286D03*
X240688200Y-111528228D03*
X222752998Y-111351001D03*
X223393000Y-110870979D03*
X240110543Y-110974771D03*
X224282000Y-110245990D03*
X239395000Y-110617000D03*
X225044000Y-109728000D03*
X238633000Y-109982000D03*
X226314000Y-109345968D03*
X237998000Y-109474000D03*
X215519000Y-136271000D03*
X215646000Y-138859003D03*
X216408000Y-136144000D03*
X216408000Y-139436000D03*
X217192466Y-136300893D03*
X217189999Y-140061001D03*
X219583000Y-136271000D03*
X219583000Y-140686001D03*
X220383003Y-136271000D03*
X220345000Y-141311001D03*
X221183006Y-136271000D03*
X221286764Y-141936001D03*
X221996000Y-142560990D03*
X221996000Y-136271000D03*
X121920000Y-99060000D03*
D24*
X102870000Y-72390000D02*
X102870000Y-85594295D01*
X102870000Y-85594295D02*
X99060705Y-89403590D01*
D25*
X127762000Y-89348999D02*
X99060705Y-89403590D01*
X99060705Y-89403590D02*
X76699999Y-89348999D01*
X202946000Y-58674000D02*
X192024000Y-69596000D01*
X202946000Y-58674000D02*
X202946000Y-57960686D01*
D24*
X202946000Y-57960686D02*
X202994686Y-57912000D01*
D25*
X202994686Y-57912000D02*
X204216000Y-57912000D01*
D24*
X197485000Y-106553000D02*
X196387999Y-105455999D01*
X204216000Y-106553000D02*
X197485000Y-106553000D01*
X196387999Y-105455999D02*
X196088000Y-105156000D01*
D25*
X221742000Y-126545011D02*
X222041999Y-126245012D01*
X222041999Y-126245012D02*
X224490001Y-126245012D01*
X224490001Y-126245012D02*
X224790000Y-126545011D01*
D24*
X204216000Y-108458000D02*
X208661000Y-108458000D01*
X216916000Y-80899000D02*
X217292493Y-80522507D01*
X217292493Y-80522507D02*
X217292493Y-80518000D01*
X216916000Y-86614000D02*
X216916000Y-80899000D01*
X208407000Y-95631000D02*
X208407000Y-93472000D01*
X211191001Y-98415001D02*
X208407000Y-95631000D01*
X217678000Y-92329000D02*
X217678000Y-97133696D01*
X217678000Y-97133696D02*
X216396695Y-98415001D01*
X216396695Y-98415001D02*
X211191001Y-98415001D01*
X232029000Y-73152000D02*
X212725000Y-73152000D01*
X212725000Y-73152000D02*
X190625325Y-95251675D01*
X166116000Y-100076000D02*
X166965999Y-100925999D01*
X166965999Y-100925999D02*
X174410001Y-100925999D01*
X174410001Y-100925999D02*
X175260000Y-100076000D01*
X177419000Y-97917000D02*
X175260000Y-100076000D01*
X171450000Y-105537000D02*
X171450000Y-113284000D01*
X171450000Y-113284000D02*
X169418000Y-115316000D01*
X240030000Y-68551870D02*
X240030000Y-70866000D01*
X240030000Y-70866000D02*
X237744000Y-73152000D01*
X237744000Y-73152000D02*
X232029000Y-73152000D01*
X235458009Y-107061009D02*
X232791000Y-104394000D01*
X232791000Y-104394000D02*
X229915999Y-101518999D01*
X204216000Y-106553000D02*
X204216000Y-108458000D01*
X204216000Y-102616000D02*
X204216000Y-106553000D01*
X201676000Y-100076000D02*
X193464270Y-100076000D01*
X202692000Y-101092000D02*
X201676000Y-100076000D01*
X193464270Y-100076000D02*
X193040006Y-100076000D01*
X177419000Y-95251675D02*
X177289327Y-95251675D01*
X190625325Y-95251675D02*
X177419000Y-95251675D01*
X177419000Y-95251675D02*
X177419000Y-97917000D01*
D25*
X113157000Y-115316000D02*
X142621000Y-115316000D01*
X142621000Y-115316000D02*
X163195000Y-115316000D01*
D24*
X145034000Y-105029000D02*
X145034000Y-105453264D01*
X145034000Y-105453264D02*
X142621000Y-107866264D01*
X142621000Y-107866264D02*
X142621000Y-115316000D01*
X177289327Y-95251675D02*
X176370001Y-96171001D01*
X176370001Y-96171001D02*
X156532003Y-96171001D01*
X156532003Y-96171001D02*
X149710001Y-89348999D01*
X149710001Y-89348999D02*
X145609999Y-89348999D01*
X217932000Y-147193000D02*
X208407000Y-137668000D01*
X208407000Y-137668000D02*
X208407000Y-131535998D01*
X203416013Y-126545011D02*
X202838272Y-126545011D01*
X208407000Y-131535998D02*
X203416013Y-126545011D01*
X240157009Y-107061009D02*
X236400254Y-107061009D01*
X236400254Y-107061009D02*
X235975990Y-107061009D01*
X241300000Y-108204000D02*
X240157009Y-107061009D01*
X171831000Y-141605000D02*
X176149000Y-145923000D01*
X167005000Y-136779000D02*
X171831000Y-141605000D01*
X171831000Y-141605000D02*
X181102000Y-141605000D01*
X167005000Y-115316000D02*
X167005000Y-136779000D01*
D25*
X189865000Y-115316000D02*
X189865000Y-115697000D01*
X189865000Y-115697000D02*
X193675000Y-119507000D01*
X193675000Y-119507000D02*
X195800261Y-119507000D01*
X167005000Y-115316000D02*
X169418000Y-115316000D01*
X163957000Y-115316000D02*
X167005000Y-115316000D01*
D24*
X167005000Y-115316000D02*
X167005000Y-127221000D01*
X167005000Y-127221000D02*
X165862000Y-128364000D01*
X161373736Y-96012000D02*
X161798000Y-96012000D01*
X145609999Y-89348999D02*
X152273000Y-96012000D01*
X152273000Y-96012000D02*
X161373736Y-96012000D01*
X163195000Y-104266990D02*
X162097999Y-103169989D01*
X163195000Y-115316000D02*
X163195000Y-104266990D01*
X162097999Y-103169989D02*
X161798000Y-102869990D01*
D25*
X145609999Y-89348999D02*
X127762000Y-89348999D01*
X195800261Y-119507000D02*
X202838272Y-126545011D01*
X70485000Y-100965000D02*
X71709001Y-102189001D01*
X69850000Y-100330000D02*
X70485000Y-100965000D01*
X74422000Y-104902000D02*
X89535000Y-120015000D01*
X72009000Y-102489000D02*
X74422000Y-104902000D01*
D24*
X71709001Y-102189001D02*
X72009000Y-102489000D01*
X147320000Y-91059000D02*
X145609999Y-89348999D01*
D25*
X176926999Y-115427001D02*
X177038000Y-115316000D01*
X172593000Y-115316000D02*
X172704001Y-115427001D01*
X172704001Y-115427001D02*
X176926999Y-115427001D01*
X163195000Y-115316000D02*
X163957000Y-115316000D01*
D24*
X172593000Y-117094000D02*
X172482000Y-117205000D01*
X172482000Y-117205000D02*
X172482000Y-117277000D01*
D25*
X169418000Y-115316000D02*
X172593000Y-115316000D01*
D24*
X172593000Y-115316000D02*
X172593000Y-117094000D01*
D25*
X177038000Y-115316000D02*
X189865000Y-115316000D01*
D24*
X177038000Y-115316000D02*
X177292000Y-115570000D01*
X218102264Y-92202010D02*
X217804990Y-92202010D01*
X217124001Y-91775001D02*
X217378001Y-92029001D01*
X210643978Y-92938487D02*
X211807464Y-91775001D01*
X211807464Y-91775001D02*
X217124001Y-91775001D01*
X223774010Y-92202010D02*
X218102264Y-92202010D01*
X217804990Y-92202010D02*
X217678000Y-92329000D01*
X218185990Y-92202010D02*
X218102264Y-92202010D01*
X217378001Y-92029001D02*
X217678000Y-92329000D01*
X224536000Y-92964000D02*
X223774010Y-92202010D01*
X220980000Y-89408000D02*
X218185990Y-92202010D01*
X204343000Y-113157000D02*
X205105000Y-113157000D01*
X205105000Y-113157000D02*
X209679551Y-117731551D01*
X217340264Y-86614000D02*
X216916000Y-86614000D01*
X220218000Y-86614000D02*
X217340264Y-86614000D01*
X220980000Y-87376000D02*
X220218000Y-86614000D01*
D25*
X104394000Y-116840000D02*
X105156000Y-116078000D01*
X105156000Y-116078000D02*
X105918000Y-115316000D01*
D24*
X105029000Y-107188000D02*
X105029000Y-115951000D01*
X105029000Y-115951000D02*
X105156000Y-116078000D01*
D25*
X101219000Y-120015000D02*
X104394000Y-116840000D01*
X76454000Y-90170000D02*
X76454000Y-88181264D01*
D24*
X76454000Y-88181264D02*
X78740000Y-85895264D01*
X78740000Y-85895264D02*
X78740000Y-85471000D01*
D25*
X69215000Y-90170000D02*
X76454000Y-90170000D01*
X67818000Y-91567000D02*
X69215000Y-90170000D01*
X72009000Y-102489000D02*
X67818000Y-98298000D01*
X67818000Y-98298000D02*
X67818000Y-91567000D01*
X247396000Y-75917870D02*
X240030000Y-68551870D01*
X240030000Y-68551870D02*
X227231130Y-55753000D01*
D24*
X229915999Y-101518999D02*
X229616000Y-101219000D01*
X235975990Y-107061009D02*
X235458009Y-107061009D01*
X208407000Y-93472000D02*
X208407000Y-95377000D01*
X208407000Y-95377000D02*
X204216000Y-99568000D01*
X204216000Y-99568000D02*
X202692000Y-101092000D01*
X204216000Y-108458000D02*
X204216000Y-109646746D01*
X210609264Y-122555000D02*
X214884000Y-118280264D01*
X209178998Y-118232104D02*
X209379552Y-118031550D01*
X209379736Y-122555000D02*
X209804000Y-122555000D01*
X209379552Y-118031550D02*
X209679551Y-117731551D01*
X210058000Y-122555000D02*
X210609264Y-122555000D01*
X214884000Y-118280264D02*
X214884000Y-117856000D01*
X209178998Y-121929998D02*
X209178998Y-118232104D01*
X209804000Y-122555000D02*
X209178998Y-121929998D01*
X210058000Y-122555000D02*
X210348002Y-122555000D01*
X207264000Y-124670736D02*
X209379736Y-122555000D01*
X207264000Y-125095000D02*
X207264000Y-124670736D01*
X230124000Y-108204010D02*
X230124000Y-106289010D01*
X204216000Y-109646746D02*
X204216000Y-110071010D01*
X202692000Y-101092000D02*
X204216000Y-102616000D01*
D25*
X227231130Y-55753000D02*
X206375000Y-55753000D01*
X206375000Y-55753000D02*
X204216000Y-57912000D01*
X247396000Y-78740000D02*
X247396000Y-75917870D01*
X250063000Y-81407000D02*
X247396000Y-78740000D01*
X250063000Y-115189000D02*
X250063000Y-81407000D01*
X247904000Y-117348000D02*
X250063000Y-115189000D01*
X218440000Y-126545011D02*
X221742000Y-126545011D01*
X215646000Y-126545011D02*
X218440000Y-126545011D01*
X213741000Y-126545011D02*
X215646000Y-126545011D01*
X224790000Y-126545011D02*
X230451989Y-126545011D01*
X206121000Y-126545011D02*
X213741000Y-126545011D01*
X202838272Y-126545011D02*
X206121000Y-126545011D01*
D24*
X241300000Y-108204000D02*
X241300000Y-108628264D01*
X241300000Y-108628264D02*
X243205000Y-110533264D01*
X243205000Y-110533264D02*
X243205000Y-113792000D01*
D25*
X246761000Y-113792000D02*
X247904000Y-114935000D01*
X247904000Y-114935000D02*
X247904000Y-117348000D01*
X243205000Y-113792000D02*
X246761000Y-113792000D01*
X230451989Y-126545011D02*
X243205000Y-113792000D01*
D24*
X120777000Y-113157000D02*
X122936000Y-115316000D01*
X115443000Y-113030000D02*
X120650000Y-113030000D01*
X120650000Y-113030000D02*
X120777000Y-113157000D01*
D25*
X113157000Y-115316000D02*
X115443000Y-113030000D01*
X105918000Y-115316000D02*
X113157000Y-115316000D01*
X89535000Y-120015000D02*
X101219000Y-120015000D01*
D24*
X209804000Y-122555000D02*
X210058000Y-122555000D01*
X220980000Y-87376000D02*
X220980000Y-89408000D01*
X220980000Y-89408000D02*
X224536000Y-92964000D01*
D25*
X80645000Y-128397000D02*
X93853000Y-128397000D01*
X93853000Y-128397000D02*
X95123000Y-129667000D01*
D24*
X80518000Y-128270000D02*
X80645000Y-128397000D01*
D25*
X75819000Y-132969000D02*
X80518000Y-128270000D01*
X70739000Y-132969000D02*
X75819000Y-132969000D01*
D24*
X117973001Y-129422999D02*
X117230999Y-130165001D01*
X117230999Y-130165001D02*
X110189999Y-130165001D01*
X110189999Y-130165001D02*
X108575001Y-128550003D01*
X108575001Y-128550003D02*
X108575001Y-127969999D01*
X108575001Y-127969999D02*
X108230003Y-127625001D01*
X108230003Y-127625001D02*
X97653001Y-127625001D01*
X97653001Y-127625001D02*
X95295999Y-125267999D01*
X95295999Y-125267999D02*
X94996000Y-124968000D01*
X192151000Y-131191000D02*
X191652999Y-131689001D01*
X191652999Y-131689001D02*
X191652999Y-131979003D01*
X191652999Y-131979003D02*
X177084001Y-146548001D01*
X130221001Y-129422999D02*
X117973001Y-129422999D01*
X177084001Y-146548001D02*
X175848999Y-146548001D01*
X158655001Y-127959999D02*
X158044001Y-127348999D01*
X151035001Y-129088001D02*
X150375003Y-129747999D01*
X175848999Y-146548001D02*
X158655001Y-129354003D01*
X158655001Y-129354003D02*
X158655001Y-127959999D01*
X158044001Y-127348999D02*
X151835999Y-127348999D01*
X151835999Y-127348999D02*
X151035001Y-128149997D01*
X150375003Y-129747999D02*
X130546001Y-129747999D01*
X151035001Y-128149997D02*
X151035001Y-129088001D01*
X130546001Y-129747999D02*
X130221001Y-129422999D01*
X107315000Y-132080000D02*
X107315000Y-131655736D01*
X107315000Y-131655736D02*
X100627264Y-124968000D01*
X100627264Y-124968000D02*
X95420264Y-124968000D01*
X95420264Y-124968000D02*
X94996000Y-124968000D01*
X58674000Y-91567000D02*
X92075000Y-124968000D01*
X92075000Y-124968000D02*
X94996000Y-124968000D01*
X53467000Y-91567000D02*
X58674000Y-91567000D01*
X216408000Y-118618000D02*
X209305999Y-125720001D01*
X209305999Y-125720001D02*
X205222001Y-125720001D01*
X205222001Y-125720001D02*
X181365999Y-101863999D01*
X181365999Y-101863999D02*
X179324000Y-101863999D01*
D25*
X130792001Y-91413999D02*
X141613002Y-102235000D01*
X156166002Y-102235000D02*
X156537003Y-101863999D01*
X156537003Y-101863999D02*
X179324000Y-101863999D01*
X89154000Y-101863999D02*
X128497999Y-101863999D01*
X128497999Y-101863999D02*
X128497999Y-92219999D01*
X128497999Y-92219999D02*
X129303999Y-91413999D01*
X129303999Y-91413999D02*
X130792001Y-91413999D01*
X141613002Y-102235000D02*
X156166002Y-102235000D01*
D24*
X221107000Y-118618000D02*
X228727000Y-118618000D01*
X216408000Y-118618000D02*
X221107000Y-118618000D01*
X221107000Y-118618000D02*
X221107000Y-118868294D01*
X221107000Y-118868294D02*
X220914647Y-119060647D01*
X229951001Y-104820999D02*
X230251000Y-104521000D01*
X229443001Y-105328999D02*
X229951001Y-104820999D01*
X228727000Y-118618000D02*
X229443001Y-117901999D01*
X229443001Y-117901999D02*
X229443001Y-105328999D01*
X211236505Y-93563489D02*
X212044001Y-92755993D01*
X211836000Y-86360000D02*
X210018976Y-88177024D01*
X210018976Y-93238489D02*
X210343976Y-93563489D01*
X210343976Y-93563489D02*
X211236505Y-93563489D01*
X212044001Y-92755993D02*
X212344000Y-92455994D01*
X210018976Y-88177024D02*
X210018976Y-93238489D01*
D25*
X84963000Y-101863999D02*
X89154000Y-101863999D01*
D24*
X89154000Y-101863999D02*
X86360000Y-101863999D01*
D25*
X84191001Y-101863999D02*
X84963000Y-101863999D01*
D24*
X179324000Y-101863999D02*
X188976000Y-101863999D01*
X188976000Y-101863999D02*
X195951001Y-101863999D01*
X211836000Y-86360000D02*
X203590999Y-94605001D01*
X203590999Y-94605001D02*
X196234998Y-94605001D01*
X196234998Y-94605001D02*
X188976000Y-101863999D01*
X200787000Y-101092000D02*
X200914000Y-101219000D01*
X200914000Y-101219000D02*
X200914000Y-101346000D01*
X196723000Y-101092000D02*
X200787000Y-101092000D01*
X195951001Y-101863999D02*
X196723000Y-101092000D01*
D25*
X83693000Y-102362000D02*
X84191001Y-101863999D01*
M02*
