G04 #@! TF.FileFunction,Copper,L4,Bot,Signal*
%FSLAX46Y46*%
G04 Gerber Fmt 4.6, Leading zero omitted, Abs format (unit mm)*
G04 Created by KiCad (PCBNEW 4.0.7-e2-6376~58~ubuntu16.04.1) date Thu Apr  4 23:28:41 2019*
%MOMM*%
%LPD*%
G01*
G04 APERTURE LIST*
%ADD10C,0.100000*%
%ADD11C,1.500000*%
%ADD12R,1.727200X1.727200*%
%ADD13O,1.727200X1.727200*%
%ADD14R,1.700000X1.700000*%
%ADD15O,1.700000X1.700000*%
%ADD16R,1.250000X1.500000*%
%ADD17C,1.000000*%
%ADD18C,1.520000*%
%ADD19C,2.700000*%
%ADD20R,1.500000X1.300000*%
%ADD21R,1.300000X1.500000*%
%ADD22R,1.500000X1.250000*%
%ADD23R,2.598420X1.198880*%
%ADD24R,2.600960X1.198880*%
%ADD25C,2.300000*%
%ADD26R,3.500000X3.500000*%
%ADD27C,3.500000*%
%ADD28C,0.600000*%
%ADD29C,1.200000*%
%ADD30C,0.250000*%
%ADD31C,0.254000*%
G04 APERTURE END LIST*
D10*
D11*
X94361000Y-97663000D03*
D12*
X204216000Y-60452000D03*
D13*
X204216000Y-57912000D03*
X206756000Y-60452000D03*
X206756000Y-57912000D03*
X209296000Y-60452000D03*
X209296000Y-57912000D03*
X211836000Y-60452000D03*
X211836000Y-57912000D03*
X214376000Y-60452000D03*
X214376000Y-57912000D03*
X216916000Y-60452000D03*
X216916000Y-57912000D03*
X219456000Y-60452000D03*
X219456000Y-57912000D03*
X221996000Y-60452000D03*
X221996000Y-57912000D03*
X224536000Y-60452000D03*
X224536000Y-57912000D03*
X227076000Y-60452000D03*
X227076000Y-57912000D03*
D12*
X189484000Y-69596000D03*
D13*
X192024000Y-69596000D03*
X189484000Y-72136000D03*
X192024000Y-72136000D03*
X189484000Y-74676000D03*
X192024000Y-74676000D03*
X189484000Y-77216000D03*
X192024000Y-77216000D03*
X189484000Y-79756000D03*
X192024000Y-79756000D03*
X189484000Y-82296000D03*
X192024000Y-82296000D03*
X189484000Y-84836000D03*
X192024000Y-84836000D03*
X189484000Y-87376000D03*
X192024000Y-87376000D03*
D14*
X166116000Y-94996000D03*
D15*
X166116000Y-97536000D03*
X166116000Y-100076000D03*
D14*
X175260000Y-94996000D03*
D15*
X175260000Y-97536000D03*
X175260000Y-100076000D03*
D16*
X160528000Y-102108000D03*
X160528000Y-104608000D03*
X143764000Y-105624000D03*
X143764000Y-103124000D03*
D14*
X130048000Y-100584000D03*
D15*
X130048000Y-98044000D03*
X130048000Y-95504000D03*
X130048000Y-92964000D03*
D17*
X134112000Y-107696000D03*
X134112000Y-109196000D03*
D12*
X127762000Y-86360000D03*
D13*
X127762000Y-83820000D03*
X130302000Y-86360000D03*
X130302000Y-83820000D03*
X132842000Y-86360000D03*
X132842000Y-83820000D03*
X135382000Y-86360000D03*
X135382000Y-83820000D03*
X137922000Y-86360000D03*
X137922000Y-83820000D03*
X140462000Y-86360000D03*
X140462000Y-83820000D03*
X143002000Y-86360000D03*
X143002000Y-83820000D03*
X145542000Y-86360000D03*
X145542000Y-83820000D03*
X148082000Y-86360000D03*
X148082000Y-83820000D03*
X150622000Y-86360000D03*
X150622000Y-83820000D03*
D18*
X136652000Y-142272000D03*
X139192000Y-142272000D03*
X139192000Y-144272000D03*
X136652000Y-144272000D03*
D19*
X131922000Y-146972000D03*
X143922000Y-146972000D03*
D14*
X142240000Y-128524000D03*
D15*
X144780000Y-128524000D03*
X147320000Y-128524000D03*
X149860000Y-128524000D03*
X152400000Y-128524000D03*
X154940000Y-128524000D03*
X157480000Y-128524000D03*
D14*
X165608000Y-74676000D03*
D15*
X168148000Y-74676000D03*
X170688000Y-74676000D03*
D11*
X149860000Y-117856000D03*
X154740000Y-117856000D03*
D20*
X219616000Y-131318000D03*
X216916000Y-131318000D03*
D12*
X245364000Y-117348000D03*
D13*
X247904000Y-117348000D03*
X245364000Y-119888000D03*
X247904000Y-119888000D03*
X245364000Y-122428000D03*
X247904000Y-122428000D03*
X245364000Y-124968000D03*
X247904000Y-124968000D03*
X245364000Y-127508000D03*
X247904000Y-127508000D03*
X245364000Y-130048000D03*
X247904000Y-130048000D03*
X245364000Y-132588000D03*
X247904000Y-132588000D03*
D20*
X219616000Y-133505474D03*
X216916000Y-133505474D03*
D21*
X220199227Y-145627998D03*
X220199227Y-142927998D03*
X216576226Y-145495000D03*
X216576226Y-142795000D03*
D18*
X163418000Y-142112000D03*
X165958000Y-142112000D03*
X165958000Y-144112000D03*
X163418000Y-144112000D03*
D19*
X158688000Y-146812000D03*
X170688000Y-146812000D03*
D22*
X200914000Y-106553000D03*
X198414000Y-106553000D03*
D23*
X159004000Y-110236000D03*
D24*
X163606480Y-110236000D03*
D16*
X163068000Y-102148000D03*
X163068000Y-104648000D03*
D22*
X154940000Y-111492222D03*
X152440000Y-111492222D03*
X154940000Y-108952222D03*
X152440000Y-108952222D03*
D16*
X220091000Y-120142000D03*
X220091000Y-122642000D03*
X217015188Y-125777476D03*
X217015188Y-128277476D03*
X219762577Y-125766905D03*
X219762577Y-128266905D03*
X217551000Y-120182000D03*
X217551000Y-122682000D03*
D22*
X159004000Y-87376000D03*
X161504000Y-87376000D03*
X159004000Y-89662000D03*
X161504000Y-89662000D03*
D16*
X163068000Y-96052000D03*
X163068000Y-98552000D03*
D22*
X159044000Y-91948000D03*
X161544000Y-91948000D03*
D16*
X160528000Y-96052000D03*
X160528000Y-98552000D03*
D22*
X147320000Y-90043000D03*
X149820000Y-90043000D03*
X147320000Y-92075000D03*
X149820000Y-92075000D03*
D14*
X139700000Y-59436000D03*
D15*
X139700000Y-61976000D03*
D25*
X154940000Y-53975000D03*
X159940000Y-58975000D03*
X149940000Y-58975000D03*
X177800000Y-53975000D03*
X182800000Y-58975000D03*
X172800000Y-58975000D03*
D11*
X195326000Y-109220000D03*
D25*
X124380000Y-54055000D03*
X129380000Y-59055000D03*
X119380000Y-59055000D03*
D16*
X212471000Y-91420000D03*
X212471000Y-88920000D03*
X202819000Y-92416000D03*
X202819000Y-89916000D03*
X214630000Y-91440000D03*
X214630000Y-88940000D03*
X205359000Y-92416000D03*
X205359000Y-89916000D03*
D11*
X192405000Y-115189000D03*
X189865000Y-106680000D03*
D16*
X192024000Y-100116000D03*
X192024000Y-102616000D03*
D22*
X200903275Y-102362000D03*
X198403275Y-102362000D03*
X200883275Y-104442885D03*
X198383275Y-104442885D03*
X196048000Y-106553000D03*
X193548000Y-106553000D03*
X212003000Y-85066564D03*
X214503000Y-85066564D03*
X237764000Y-106680000D03*
X240264000Y-106680000D03*
X233339000Y-100076000D03*
X235839000Y-100076000D03*
X209824000Y-105664000D03*
X212324000Y-105664000D03*
X233339000Y-102108000D03*
X235839000Y-102108000D03*
D12*
X244856000Y-78740000D03*
D13*
X247396000Y-78740000D03*
X244856000Y-81280000D03*
X247396000Y-81280000D03*
X244856000Y-83820000D03*
X247396000Y-83820000D03*
X244856000Y-86360000D03*
X247396000Y-86360000D03*
X244856000Y-88900000D03*
X247396000Y-88900000D03*
X244856000Y-91440000D03*
X247396000Y-91440000D03*
X244856000Y-93980000D03*
X247396000Y-93980000D03*
X244856000Y-96520000D03*
X247396000Y-96520000D03*
D16*
X218867494Y-85579042D03*
X218867494Y-83079042D03*
X220706000Y-85578000D03*
X220706000Y-83078000D03*
D22*
X212003000Y-82550000D03*
X214503000Y-82550000D03*
D16*
X216962494Y-85579042D03*
X216962494Y-83079042D03*
D14*
X100457000Y-146685000D03*
X114808000Y-134620000D03*
D26*
X69215000Y-143225000D03*
X69215000Y-149225000D03*
X73915000Y-146225000D03*
D27*
X57404000Y-134620000D03*
X57404000Y-129540000D03*
X57404000Y-124460000D03*
X57404000Y-119380000D03*
D21*
X152908000Y-88091000D03*
X152908000Y-85391000D03*
D20*
X148115000Y-80772000D03*
X145415000Y-80772000D03*
D14*
X54610000Y-106045000D03*
D15*
X54610000Y-108585000D03*
D21*
X140589000Y-89328000D03*
X140589000Y-92028000D03*
D11*
X113357000Y-92202000D03*
X118237000Y-92202000D03*
X94615000Y-83820000D03*
X94615000Y-80010000D03*
D16*
X71755000Y-76200000D03*
X71755000Y-78700000D03*
X69342000Y-78780000D03*
X69342000Y-81280000D03*
D11*
X82169000Y-94742000D03*
X94615000Y-72390000D03*
X94615000Y-76200000D03*
D16*
X84742112Y-84348000D03*
X84742112Y-86848000D03*
X81915000Y-84348000D03*
X81915000Y-86848000D03*
D11*
X72390000Y-95250000D03*
D25*
X78740000Y-53975000D03*
X83740000Y-58975000D03*
X73740000Y-58975000D03*
X101600000Y-53975000D03*
X106600000Y-58975000D03*
X96600000Y-58975000D03*
D11*
X94615000Y-87630000D03*
X94615000Y-93726000D03*
D22*
X237764000Y-104394000D03*
X240264000Y-104394000D03*
X209804000Y-108458000D03*
X212304000Y-108458000D03*
X202692000Y-99568000D03*
X200192000Y-99568000D03*
X202652000Y-109728000D03*
X200152000Y-109728000D03*
X202652000Y-111760000D03*
X200152000Y-111760000D03*
X231648000Y-108204000D03*
X234148000Y-108204000D03*
X231648000Y-104648000D03*
X234148000Y-104648000D03*
X231648000Y-96774000D03*
X234148000Y-96774000D03*
D16*
X224262000Y-91400000D03*
X224262000Y-88900000D03*
X217551000Y-91059000D03*
X217551000Y-88559000D03*
X209169000Y-91440000D03*
X209169000Y-88940000D03*
X209804000Y-120162000D03*
X209804000Y-122662000D03*
X214884000Y-120162000D03*
X214884000Y-122662000D03*
X223286000Y-120162000D03*
X223286000Y-122662000D03*
D20*
X126398000Y-99060000D03*
X123698000Y-99060000D03*
D28*
X76112500Y-81987500D03*
X77837500Y-81987500D03*
X77837500Y-80262500D03*
X76112500Y-80262500D03*
X140948771Y-103096502D03*
X102108000Y-92837000D03*
X110236000Y-110490000D03*
X223774000Y-112903000D03*
X225933000Y-113792002D03*
X66548000Y-111887000D03*
X102870000Y-100584000D03*
X206248000Y-130302000D03*
X178816000Y-133223000D03*
X182499000Y-131064000D03*
X178435000Y-128651000D03*
X214757000Y-81026000D03*
X219583000Y-78994000D03*
X80264000Y-116078000D03*
X80264000Y-118999000D03*
X195834000Y-117983000D03*
X81407000Y-123063000D03*
X104013000Y-129540000D03*
X111760000Y-129540000D03*
X110490000Y-129540000D03*
X105410000Y-128270000D03*
X107950000Y-128270000D03*
X107950000Y-127000000D03*
X111760000Y-127000000D03*
X110490000Y-127000000D03*
X109220000Y-127000000D03*
X109220000Y-128270000D03*
X110490000Y-128270000D03*
X111760000Y-128270000D03*
X113157000Y-128270000D03*
X114046000Y-129540000D03*
X114046000Y-128270000D03*
X113988010Y-126422990D03*
X58547000Y-88011000D03*
X62738000Y-89027000D03*
X153924000Y-147955000D03*
X167021000Y-90170000D03*
X171958000Y-82169000D03*
X123190000Y-147701000D03*
X129921000Y-130048000D03*
X139954000Y-137033000D03*
X171704000Y-130556000D03*
X165989000Y-131064000D03*
X165862000Y-146431000D03*
X189992000Y-132461000D03*
X182245000Y-127889000D03*
X162814000Y-91567000D03*
X163068000Y-87376000D03*
X142494000Y-104648000D03*
X147447000Y-103251000D03*
X97663000Y-146399000D03*
X101854000Y-142875000D03*
X108077000Y-148670000D03*
X86487000Y-146558000D03*
X141478000Y-92964000D03*
X153616330Y-107451999D03*
X148393989Y-122428000D03*
X158333000Y-122301000D03*
X148717000Y-95885000D03*
X156210000Y-96774000D03*
X161925000Y-98552000D03*
X149820000Y-91059000D03*
X161798000Y-104325999D03*
X185293000Y-113792000D03*
X174625000Y-120396000D03*
X169799000Y-118110000D03*
X193548000Y-150689979D03*
X218821000Y-147320000D03*
X210058000Y-118618000D03*
X217297000Y-114173000D03*
X217419417Y-87540999D03*
X214249000Y-85979000D03*
X133096000Y-103124000D03*
X131953000Y-112776000D03*
X93599000Y-116078000D03*
X103251000Y-98552000D03*
X102870000Y-95885000D03*
X118364000Y-99695000D03*
X108049559Y-96547441D03*
X111058942Y-99634058D03*
X57971564Y-83252436D03*
X154559000Y-68453000D03*
X157353000Y-73279000D03*
X72009000Y-81026000D03*
X70612000Y-76708000D03*
X81407000Y-76073000D03*
X79883000Y-77724000D03*
X123190000Y-65658996D03*
X125730000Y-65659000D03*
X80518000Y-81500010D03*
X65278000Y-83439000D03*
X61595000Y-83439000D03*
X81915000Y-88421615D03*
X79375000Y-84455000D03*
X219837000Y-96647000D03*
X226822000Y-77216000D03*
X237363000Y-67818000D03*
X243586000Y-69977000D03*
X203327000Y-113157000D03*
X208788000Y-112522000D03*
X226441000Y-103886000D03*
X226568000Y-100965000D03*
X226441000Y-97028000D03*
X224790000Y-96266000D03*
X212979000Y-107188000D03*
X204597000Y-101854000D03*
X204851000Y-102997000D03*
X213868000Y-96774000D03*
X218059000Y-135890000D03*
X209921010Y-121539000D03*
X218431859Y-142781857D03*
X220853000Y-127889000D03*
X198464575Y-111156324D03*
X193421000Y-105410000D03*
X244094000Y-105664000D03*
X215900000Y-129159000D03*
X67056000Y-116205000D03*
X205359000Y-88519000D03*
X202819000Y-88646000D03*
X212598000Y-87503000D03*
X214630000Y-87503000D03*
X237109000Y-99949000D03*
X220091000Y-123952000D03*
X217678000Y-123952000D03*
X191008000Y-102489000D03*
X197104000Y-102489000D03*
X210947000Y-88900000D03*
X215265000Y-123824996D03*
X222250000Y-122555000D03*
X234188000Y-95250000D03*
X235712000Y-104648000D03*
X235712000Y-108204000D03*
X225552000Y-88900000D03*
X200192000Y-98084000D03*
X148971000Y-104394000D03*
X156845000Y-84074000D03*
X151130000Y-103235010D03*
X155067000Y-107442000D03*
X150114000Y-107061000D03*
X102870000Y-76200000D03*
X102870000Y-72390000D03*
X99060705Y-89403590D03*
X196088000Y-105156000D03*
X208661000Y-108458000D03*
X217292493Y-80518000D03*
X171450000Y-105537000D03*
X232791000Y-104394000D03*
X232029000Y-73152000D03*
X193040006Y-100076000D03*
X181102000Y-141605000D03*
X176149000Y-145923000D03*
X146878051Y-105603051D03*
X165862000Y-128364000D03*
X161798000Y-102869990D03*
X145229918Y-103642000D03*
X145034000Y-105029000D03*
X127762000Y-89348999D03*
X195800261Y-119507000D03*
X159258000Y-96139000D03*
X161798000Y-96012000D03*
X70485000Y-100965000D03*
X74422000Y-104902000D03*
X147320000Y-91059000D03*
X172482000Y-117277000D03*
X189865000Y-115316000D03*
X169418000Y-115316000D03*
X163957000Y-115316000D03*
X217678000Y-92329000D03*
X216916000Y-86614000D03*
X105029000Y-107188000D03*
X104394000Y-116840000D03*
X69215000Y-90170000D03*
X78740000Y-85471000D03*
X204343000Y-113157000D03*
X232790990Y-103378011D03*
X229616000Y-101219000D03*
X209679551Y-117731551D03*
X235975990Y-107061009D03*
X230124000Y-106289010D03*
X223452021Y-117983000D03*
X210643978Y-92938487D03*
X204216000Y-110071010D03*
X217932000Y-147193000D03*
X202565000Y-105156000D03*
X221742000Y-126545011D03*
X218440000Y-126545011D03*
X215646000Y-126545011D03*
X217001000Y-117856000D03*
X224790000Y-126545011D03*
X218821000Y-134747000D03*
X206121000Y-126545011D03*
X72009000Y-102489000D03*
X208407000Y-93472000D03*
X216376000Y-96742000D03*
X207264000Y-125095000D03*
X214884000Y-117856000D03*
X241300000Y-108204000D03*
X230124000Y-108204010D03*
X220980000Y-87376000D03*
X224536000Y-92964000D03*
X202692000Y-101092000D03*
X204216000Y-99568000D03*
X150495000Y-107823000D03*
X159766000Y-93217996D03*
X95123000Y-129667000D03*
X70739000Y-132969000D03*
X192151000Y-131191000D03*
X107315000Y-132080000D03*
X97917000Y-126365000D03*
X106172000Y-132080000D03*
X94996000Y-124968000D03*
X53467000Y-91567000D03*
X126492000Y-103124000D03*
X216451021Y-92837000D03*
X220914647Y-119060647D03*
X230251000Y-104521000D03*
X212344000Y-92455994D03*
X86360000Y-101863999D03*
X84963000Y-101863999D03*
X83693000Y-102362000D03*
X200914000Y-101346000D03*
X216408000Y-118618000D03*
X203276999Y-104470999D03*
X211836000Y-86360000D03*
X81026000Y-79502000D03*
X103886000Y-67818000D03*
X67564000Y-78867000D03*
X67292009Y-84201000D03*
X81025994Y-78359000D03*
X96393000Y-69342000D03*
X76327000Y-76708000D03*
X116713000Y-73152000D03*
X77326667Y-77444781D03*
X125222000Y-73279000D03*
X72898000Y-78486000D03*
X71120000Y-81407000D03*
X152273000Y-107823000D03*
X153797000Y-124841000D03*
X146558000Y-120777000D03*
X100076000Y-143002000D03*
X101981000Y-135128000D03*
X138811000Y-120142000D03*
X134409345Y-112688655D03*
X185547000Y-96393002D03*
X186055000Y-99187000D03*
X152146000Y-104267000D03*
X144907000Y-118872000D03*
X156317012Y-107442000D03*
X162441501Y-113546501D03*
X163068000Y-118618000D03*
X156591000Y-104325999D03*
X158623000Y-100045000D03*
X196977000Y-123190000D03*
X154813004Y-100076000D03*
X155956000Y-120786990D03*
X122936000Y-109591001D03*
X125669051Y-109407949D03*
X72136000Y-84074008D03*
X65278000Y-84963000D03*
X137671129Y-118632416D03*
X122555000Y-113175870D03*
X121031000Y-109347000D03*
X124714000Y-109591000D03*
X225298000Y-114554000D03*
X231521000Y-122428000D03*
X224282000Y-114681006D03*
X232791000Y-127381000D03*
X144526000Y-100965000D03*
X149860000Y-100457000D03*
X140538108Y-99196990D03*
X141986000Y-97663000D03*
X144980250Y-96902771D03*
X113792000Y-104902000D03*
X94361000Y-99568000D03*
X226641169Y-93614268D03*
X151257000Y-92075000D03*
X151130000Y-93091000D03*
X225858036Y-93450851D03*
X204216000Y-98552000D03*
X209169000Y-99949000D03*
X210058000Y-100330000D03*
X210693000Y-99695000D03*
X211482117Y-99563481D03*
X212282104Y-99568400D03*
X213033877Y-99841969D03*
X213793364Y-100093330D03*
X214122000Y-97790000D03*
X218313000Y-96520000D03*
X218567000Y-97536000D03*
X219329000Y-93589000D03*
X220345000Y-93599000D03*
X220853000Y-96901000D03*
X143256000Y-118745000D03*
X118999000Y-146558000D03*
X142621000Y-122809000D03*
X152527000Y-101092000D03*
X148971000Y-142240000D03*
X143510000Y-124206000D03*
X144272000Y-119888000D03*
X152146000Y-103251000D03*
X156226163Y-103233199D03*
X174879000Y-114427000D03*
X143129000Y-117475000D03*
X151577058Y-96199942D03*
X135255000Y-134874000D03*
X133350000Y-134874000D03*
X208151321Y-98426679D03*
X195453000Y-142239996D03*
X224028000Y-75819000D03*
X221996000Y-75692000D03*
X77841594Y-76832515D03*
X117729000Y-67192999D03*
X124079000Y-70612000D03*
X77851000Y-85598000D03*
X85471000Y-94234000D03*
X76871948Y-85375846D03*
X78321894Y-87298023D03*
X73532994Y-87249000D03*
X74930000Y-85725000D03*
X175768000Y-114300000D03*
X164972295Y-102863999D03*
X155874283Y-100943011D03*
X176525741Y-114014397D03*
X177172881Y-113544065D03*
X159385000Y-100838000D03*
X150114000Y-96266000D03*
X141605000Y-116586000D03*
X140722215Y-116465215D03*
X149479000Y-96774000D03*
X97536000Y-139700000D03*
X97536000Y-138525000D03*
X95504000Y-138684000D03*
X94488000Y-138684000D03*
X93472000Y-138684000D03*
X105664000Y-141224000D03*
X106680000Y-141224000D03*
X107696000Y-141224000D03*
X108712000Y-141224000D03*
X109728000Y-141224000D03*
X109728000Y-139700000D03*
X108712000Y-139700000D03*
X107696000Y-139700000D03*
X106680000Y-139700000D03*
X105664000Y-139700000D03*
X105664000Y-138176000D03*
X106680000Y-138176000D03*
X107696000Y-138176000D03*
X108712000Y-138176000D03*
X109728000Y-138176000D03*
X109728000Y-136652000D03*
X108712000Y-136652000D03*
X107696000Y-136652000D03*
X106680000Y-136652000D03*
X105664000Y-136652000D03*
X93472000Y-141224000D03*
X94488000Y-141224000D03*
X95504000Y-141224000D03*
X96520000Y-141224000D03*
X96520000Y-139700000D03*
X95504000Y-139700000D03*
X94488000Y-139700000D03*
X93472000Y-139700000D03*
X96520000Y-137668000D03*
X95504000Y-137668000D03*
X94488000Y-137668000D03*
X93472000Y-137668000D03*
X96520000Y-136144000D03*
X95504000Y-136144000D03*
X94488000Y-136144000D03*
X93472000Y-136144000D03*
D29*
X100552000Y-139700000D03*
X101727000Y-138525000D03*
D28*
X230632000Y-90296998D03*
X170815000Y-129286000D03*
X171069000Y-126492000D03*
X223393000Y-96901000D03*
X218313000Y-113029986D03*
X222758000Y-129667000D03*
X224406041Y-150689979D03*
X211328000Y-110998000D03*
X223520000Y-150239968D03*
X211930974Y-111797503D03*
X212852000Y-111252000D03*
X226822000Y-147574000D03*
X225933000Y-149860000D03*
X213487000Y-111887000D03*
X225206048Y-150687291D03*
X213995000Y-112522000D03*
X214757000Y-113284000D03*
X213233000Y-147193006D03*
X215646000Y-113919000D03*
X212433001Y-147188417D03*
X216154000Y-114681000D03*
X211546513Y-147256493D03*
X210772625Y-147053721D03*
X217800559Y-117597559D03*
X209931000Y-147066000D03*
X218313000Y-114808000D03*
X230068001Y-113528000D03*
X243305768Y-115105446D03*
X224790000Y-113284000D03*
X241935000Y-112776000D03*
X221869000Y-111887000D03*
X241409961Y-111873286D03*
X240688200Y-111528228D03*
X222752998Y-111351001D03*
X223393000Y-110870979D03*
X240110543Y-110974771D03*
X224282000Y-110245990D03*
X239395000Y-110617000D03*
X225044000Y-109728000D03*
X238633000Y-109982000D03*
X226314000Y-109345968D03*
X237998000Y-109474000D03*
X215519000Y-136271000D03*
X215646000Y-138859003D03*
X216408000Y-136144000D03*
X216408000Y-139436000D03*
X217192466Y-136300893D03*
X217189999Y-140061001D03*
X219583000Y-136271000D03*
X219583000Y-140686001D03*
X220383003Y-136271000D03*
X220345000Y-141311001D03*
X221183006Y-136271000D03*
X221286764Y-141936001D03*
X221996000Y-142560990D03*
X221996000Y-136271000D03*
X121920000Y-99060000D03*
D30*
X111115001Y-101844001D02*
X102108000Y-92837000D01*
X110236000Y-110490000D02*
X111115001Y-109610999D01*
X111115001Y-109610999D02*
X111115001Y-101844001D01*
X152440000Y-108952222D02*
X152440000Y-108628329D01*
X152440000Y-108628329D02*
X153316331Y-107751998D01*
X153316331Y-107751998D02*
X153616330Y-107451999D01*
X240264000Y-106680000D02*
X240264000Y-104394000D01*
X152440000Y-111492222D02*
X152440000Y-110617222D01*
X152440000Y-110617222D02*
X152440000Y-108952222D01*
X206248000Y-130302000D02*
X206248000Y-127472003D01*
X218867494Y-83079042D02*
X220704958Y-83079042D01*
X220704958Y-83079042D02*
X220706000Y-83078000D01*
X216962494Y-83079042D02*
X216962494Y-82954042D01*
X216962494Y-82954042D02*
X215034452Y-81026000D01*
X215034452Y-81026000D02*
X214757000Y-81026000D01*
X214503000Y-82550000D02*
X214503000Y-81280000D01*
X214503000Y-81280000D02*
X214757000Y-81026000D01*
X219583000Y-80955000D02*
X219583000Y-78994000D01*
X220706000Y-83078000D02*
X220706000Y-82078000D01*
X220706000Y-82078000D02*
X219583000Y-80955000D01*
X161544000Y-91948000D02*
X162433000Y-91948000D01*
X162433000Y-91948000D02*
X162814000Y-91567000D01*
X161504000Y-87376000D02*
X163068000Y-87376000D01*
X161504000Y-89662000D02*
X161504000Y-91908000D01*
X161504000Y-91908000D02*
X161544000Y-91948000D01*
X161504000Y-87376000D02*
X161504000Y-89662000D01*
X142494000Y-104519000D02*
X142494000Y-104648000D01*
X143764000Y-103124000D02*
X143764000Y-103249000D01*
X143764000Y-103249000D02*
X142494000Y-104519000D01*
X140589000Y-92075000D02*
X141478000Y-92964000D01*
X140589000Y-92028000D02*
X140589000Y-92075000D01*
X152908000Y-85391000D02*
X152908000Y-85291000D01*
X152908000Y-85291000D02*
X151437000Y-83820000D01*
X151437000Y-83820000D02*
X150622000Y-83820000D01*
X145415000Y-80772000D02*
X145515000Y-80772000D01*
X145515000Y-80772000D02*
X148082000Y-83339000D01*
X148082000Y-83339000D02*
X148082000Y-83820000D01*
X161925000Y-98552000D02*
X163068000Y-98552000D01*
X161403000Y-98552000D02*
X161925000Y-98552000D01*
X160528000Y-98552000D02*
X161403000Y-98552000D01*
X149820000Y-90932000D02*
X149820000Y-92075000D01*
X149820000Y-90043000D02*
X149820000Y-90932000D01*
X149820000Y-90932000D02*
X149820000Y-91059000D01*
X163068000Y-104648000D02*
X162120001Y-104648000D01*
X162120001Y-104648000D02*
X161798000Y-104325999D01*
X160528000Y-104608000D02*
X161515999Y-104608000D01*
X161515999Y-104608000D02*
X161798000Y-104325999D01*
X217424000Y-87545582D02*
X217419417Y-87540999D01*
X217424000Y-88940000D02*
X217424000Y-87545582D01*
X214465564Y-85979000D02*
X214249000Y-85979000D01*
X214503000Y-85066564D02*
X214503000Y-85941564D01*
X214503000Y-85941564D02*
X214465564Y-85979000D01*
X69342000Y-78780000D02*
X69342000Y-78655000D01*
X69342000Y-78655000D02*
X70612000Y-77385000D01*
X70612000Y-77132264D02*
X70612000Y-76708000D01*
X70612000Y-77385000D02*
X70612000Y-77132264D01*
X71755000Y-76200000D02*
X71120000Y-76200000D01*
X71120000Y-76200000D02*
X70612000Y-76708000D01*
X84742112Y-86848000D02*
X81915000Y-86848000D01*
X81915000Y-86848000D02*
X81915000Y-88421615D01*
X212324000Y-107188000D02*
X212324000Y-108438000D01*
X212324000Y-105664000D02*
X212324000Y-107188000D01*
X212324000Y-107188000D02*
X212979000Y-107188000D01*
X212324000Y-108438000D02*
X212304000Y-108458000D01*
X209804000Y-121656010D02*
X209921010Y-121539000D01*
X209804000Y-122662000D02*
X209804000Y-121656010D01*
X218418716Y-142795000D02*
X218431859Y-142781857D01*
X218578000Y-142927998D02*
X218431859Y-142781857D01*
X216576226Y-142795000D02*
X218418716Y-142795000D01*
X220199227Y-142927998D02*
X218578000Y-142927998D01*
X219762577Y-128266905D02*
X220475095Y-128266905D01*
X220475095Y-128266905D02*
X220853000Y-127889000D01*
X198598676Y-111156324D02*
X198464575Y-111156324D01*
X200027000Y-109728000D02*
X198598676Y-111156324D01*
X200152000Y-109728000D02*
X200027000Y-109728000D01*
X193548000Y-106553000D02*
X193548000Y-105537000D01*
X193548000Y-105537000D02*
X193421000Y-105410000D01*
X198383275Y-104442885D02*
X198383275Y-106522275D01*
X198383275Y-106522275D02*
X198414000Y-106553000D01*
X240264000Y-104394000D02*
X242824000Y-104394000D01*
X242824000Y-104394000D02*
X244094000Y-105664000D01*
X217015188Y-128277476D02*
X216781524Y-128277476D01*
X216781524Y-128277476D02*
X215900000Y-129159000D01*
X219752006Y-128277476D02*
X219762577Y-128266905D01*
X216916000Y-131318000D02*
X216916000Y-128376664D01*
X216916000Y-128376664D02*
X217015188Y-128277476D01*
X216916000Y-133505474D02*
X216916000Y-131318000D01*
X205359000Y-89916000D02*
X205359000Y-88519000D01*
X202819000Y-89916000D02*
X202819000Y-88646000D01*
X212471000Y-88920000D02*
X212471000Y-87630000D01*
X212471000Y-87630000D02*
X212598000Y-87503000D01*
X214630000Y-88940000D02*
X214630000Y-87503000D01*
X235839000Y-100076000D02*
X236982000Y-100076000D01*
X236982000Y-100076000D02*
X237109000Y-99949000D01*
X235839000Y-100076000D02*
X235839000Y-102108000D01*
X220051000Y-122682000D02*
X220091000Y-122642000D01*
X220091000Y-122642000D02*
X220091000Y-123952000D01*
X217551000Y-122682000D02*
X217551000Y-123825000D01*
X217551000Y-123825000D02*
X217678000Y-123952000D01*
X192024000Y-102616000D02*
X191135000Y-102616000D01*
X191135000Y-102616000D02*
X191008000Y-102489000D01*
X198403275Y-102362000D02*
X197231000Y-102362000D01*
X197231000Y-102362000D02*
X197104000Y-102489000D01*
X198403275Y-102362000D02*
X198403275Y-104422885D01*
X198403275Y-104422885D02*
X198383275Y-104442885D01*
X209169000Y-88940000D02*
X210907000Y-88940000D01*
X210907000Y-88940000D02*
X210947000Y-88900000D01*
X211576000Y-88900000D02*
X210947000Y-88900000D01*
X212471000Y-88920000D02*
X211596000Y-88920000D01*
X211596000Y-88920000D02*
X211576000Y-88900000D01*
X214610000Y-88920000D02*
X214630000Y-88940000D01*
X214884000Y-123662000D02*
X215046996Y-123824996D01*
X215046996Y-123824996D02*
X215265000Y-123824996D01*
X214884000Y-122662000D02*
X214884000Y-123662000D01*
X223286000Y-122662000D02*
X222357000Y-122662000D01*
X222357000Y-122662000D02*
X222250000Y-122555000D01*
X234148000Y-95290000D02*
X234188000Y-95250000D01*
X234148000Y-96774000D02*
X234148000Y-95290000D01*
X234148000Y-104648000D02*
X235712000Y-104648000D01*
X234148000Y-108204000D02*
X235712000Y-108204000D01*
X224262000Y-88900000D02*
X225552000Y-88900000D01*
X200152000Y-109728000D02*
X200152000Y-111760000D01*
X200192000Y-99568000D02*
X200192000Y-98084000D01*
X149395264Y-104394000D02*
X148971000Y-104394000D01*
X149971010Y-104394000D02*
X149395264Y-104394000D01*
X151130000Y-103235010D02*
X149971010Y-104394000D01*
X145542000Y-86360000D02*
X144339999Y-85157999D01*
X144339999Y-85157999D02*
X144339999Y-79861999D01*
X144339999Y-79861999D02*
X144404999Y-79796999D01*
X144404999Y-79796999D02*
X152567999Y-79796999D01*
X152567999Y-79796999D02*
X156845000Y-84074000D01*
X154940000Y-108952222D02*
X154940000Y-109827222D01*
X154940000Y-109827222D02*
X154940000Y-111492222D01*
X154940000Y-107569000D02*
X155067000Y-107442000D01*
X154940000Y-108952222D02*
X154940000Y-107569000D01*
X154940000Y-111492222D02*
X158597218Y-111492222D01*
X158597218Y-111492222D02*
X159004000Y-111085440D01*
X159004000Y-111085440D02*
X159004000Y-110236000D01*
X149860000Y-117856000D02*
X149860000Y-107315000D01*
X149860000Y-107315000D02*
X150114000Y-107061000D01*
X196048000Y-105196000D02*
X196088000Y-105156000D01*
X196048000Y-106553000D02*
X196048000Y-105196000D01*
X209804000Y-108458000D02*
X208661000Y-108458000D01*
X223452021Y-117983000D02*
X223286000Y-118149021D01*
X192024000Y-100116000D02*
X193000006Y-100116000D01*
X193000006Y-100116000D02*
X193040006Y-100076000D01*
X231648000Y-104648000D02*
X232537000Y-104648000D01*
X232537000Y-104648000D02*
X232791000Y-104394000D01*
X193080006Y-100116000D02*
X193040006Y-100076000D01*
X146578052Y-105303052D02*
X146878051Y-105603051D01*
X146304000Y-105029000D02*
X146578052Y-105303052D01*
X145034000Y-105029000D02*
X146304000Y-105029000D01*
X163068000Y-102148000D02*
X162193000Y-102148000D01*
X161798000Y-102543000D02*
X161798000Y-102572736D01*
X160528000Y-102108000D02*
X161403000Y-102108000D01*
X161403000Y-102108000D02*
X161798000Y-102503000D01*
X162193000Y-102148000D02*
X161798000Y-102543000D01*
X161798000Y-102503000D02*
X161798000Y-102572736D01*
X161798000Y-102572736D02*
X161798000Y-102869990D01*
X145034000Y-104013000D02*
X145229918Y-103642000D01*
X145161000Y-103886000D02*
X145161000Y-103710918D01*
X145161000Y-103710918D02*
X145229918Y-103642000D01*
X145034000Y-105029000D02*
X145034000Y-104013000D01*
X145034000Y-105229000D02*
X145034000Y-105029000D01*
X143764000Y-105624000D02*
X144639000Y-105624000D01*
X144639000Y-105624000D02*
X145034000Y-105229000D01*
X160528000Y-96052000D02*
X159345000Y-96052000D01*
X159345000Y-96052000D02*
X159258000Y-96139000D01*
X161798000Y-96012000D02*
X163028000Y-96012000D01*
X163028000Y-96012000D02*
X163068000Y-96052000D01*
X160528000Y-96052000D02*
X161758000Y-96052000D01*
X161758000Y-96052000D02*
X161798000Y-96012000D01*
X147320000Y-90043000D02*
X147320000Y-91059000D01*
X147320000Y-91186000D02*
X147320000Y-91059000D01*
X147320000Y-92075000D02*
X147320000Y-91186000D01*
X160528000Y-102108000D02*
X161042001Y-102108000D01*
X163606480Y-114965480D02*
X163957000Y-115316000D01*
X163606480Y-110236000D02*
X163606480Y-114965480D01*
X217932000Y-146995225D02*
X217932000Y-147193000D01*
X220199227Y-145627998D02*
X219299227Y-145627998D01*
X219299227Y-145627998D02*
X217932000Y-146995225D01*
X216675999Y-96442001D02*
X216376000Y-96742000D01*
X217076023Y-96041977D02*
X216675999Y-96442001D01*
X217076023Y-92536998D02*
X217076023Y-96041977D01*
X216398001Y-91858976D02*
X217076023Y-92536998D01*
X216398001Y-87143535D02*
X216398001Y-91858976D01*
X216962494Y-86579042D02*
X216398001Y-87143535D01*
X217678000Y-91904736D02*
X217678000Y-92329000D01*
X217678000Y-91694000D02*
X217678000Y-91904736D01*
X217424000Y-91440000D02*
X217678000Y-91694000D01*
X209147000Y-119380000D02*
X209042000Y-119275000D01*
X209804000Y-120037000D02*
X209147000Y-119380000D01*
X209147000Y-119380000D02*
X209147000Y-118264102D01*
X209147000Y-118264102D02*
X209679551Y-117731551D01*
X209804000Y-120162000D02*
X209804000Y-120037000D01*
X216962494Y-86579042D02*
X216950958Y-86579042D01*
X216950958Y-86579042D02*
X216916000Y-86614000D01*
X216962494Y-85579042D02*
X216962494Y-86579042D01*
X81915000Y-84348000D02*
X82790000Y-84348000D01*
X82790000Y-84348000D02*
X84742112Y-84348000D01*
X78740000Y-85471000D02*
X80917000Y-85471000D01*
X80917000Y-85471000D02*
X81915000Y-84473000D01*
X81915000Y-84473000D02*
X81915000Y-84348000D01*
X204216000Y-113030000D02*
X204343000Y-113157000D01*
X204216000Y-110071010D02*
X204216000Y-113030000D01*
X237639000Y-104394000D02*
X236623011Y-103378011D01*
X237764000Y-104394000D02*
X237639000Y-104394000D01*
X236623011Y-103378011D02*
X233215254Y-103378011D01*
X233215254Y-103378011D02*
X232790990Y-103378011D01*
X229915999Y-100919001D02*
X229616000Y-101219000D01*
X231648000Y-96774000D02*
X231648000Y-99187000D01*
X231648000Y-99187000D02*
X229915999Y-100919001D01*
X209824000Y-105664000D02*
X209824000Y-108438000D01*
X209824000Y-108438000D02*
X209804000Y-108458000D01*
X236356999Y-106680000D02*
X236275989Y-106761010D01*
X237764000Y-106680000D02*
X236356999Y-106680000D01*
X236275989Y-106761010D02*
X235975990Y-107061009D01*
X230124000Y-106047000D02*
X230124000Y-106289010D01*
X231523000Y-104648000D02*
X230124000Y-106047000D01*
X231648000Y-104648000D02*
X231523000Y-104648000D01*
X223286000Y-120162000D02*
X223286000Y-118149021D01*
X209169000Y-91440000D02*
X209169000Y-91565000D01*
X210542487Y-92938487D02*
X210643978Y-92938487D01*
X209169000Y-91565000D02*
X210542487Y-92938487D01*
X203916001Y-109771011D02*
X204216000Y-110071010D01*
X203872990Y-109728000D02*
X203916001Y-109771011D01*
X202652000Y-109728000D02*
X203872990Y-109728000D01*
X216576226Y-145495000D02*
X216576226Y-145837226D01*
X216576226Y-145837226D02*
X217932000Y-147193000D01*
X196048000Y-106553000D02*
X196048000Y-107428000D01*
X196048000Y-107428000D02*
X196123001Y-107503001D01*
X196123001Y-107503001D02*
X199838999Y-107503001D01*
X199838999Y-107503001D02*
X200789000Y-106553000D01*
X200789000Y-106553000D02*
X200914000Y-106553000D01*
X202565000Y-105156000D02*
X202311000Y-105156000D01*
X202311000Y-105156000D02*
X200914000Y-106553000D01*
X237764000Y-104394000D02*
X237764000Y-106680000D01*
X219616000Y-131318000D02*
X219616000Y-130418000D01*
X219616000Y-130418000D02*
X221742000Y-128292000D01*
X221742000Y-128292000D02*
X221742000Y-126545011D01*
X219762577Y-125766905D02*
X219218106Y-125766905D01*
X219218106Y-125766905D02*
X218440000Y-126545011D01*
X217015188Y-125777476D02*
X216413535Y-125777476D01*
X216413535Y-125777476D02*
X215646000Y-126545011D01*
X217001000Y-117856000D02*
X216244998Y-117856000D01*
X216244998Y-117856000D02*
X215782999Y-118317999D01*
X215782999Y-118317999D02*
X215782999Y-120374001D01*
X215782999Y-120374001D02*
X216600999Y-121192001D01*
X216600999Y-121192001D02*
X216600999Y-124363287D01*
X216600999Y-124363287D02*
X217015188Y-124777476D01*
X217015188Y-124777476D02*
X217015188Y-125777476D01*
X224790000Y-121791000D02*
X224790000Y-126545011D01*
X223286000Y-120162000D02*
X223286000Y-120287000D01*
X223286000Y-120287000D02*
X224790000Y-121791000D01*
X219616000Y-131318000D02*
X219616000Y-133505474D01*
X219616000Y-133505474D02*
X219616000Y-133952000D01*
X219616000Y-133952000D02*
X218821000Y-134747000D01*
X202819000Y-92416000D02*
X205359000Y-92416000D01*
X205359000Y-92416000D02*
X207351000Y-92416000D01*
X207351000Y-92416000D02*
X208407000Y-93472000D01*
X218867494Y-85579042D02*
X220704958Y-85579042D01*
X220704958Y-85579042D02*
X220706000Y-85578000D01*
X214884000Y-117856000D02*
X214884000Y-120162000D01*
X231648000Y-108204000D02*
X230124000Y-108204000D01*
X220706000Y-87102000D02*
X220980000Y-87376000D01*
X220706000Y-85578000D02*
X220706000Y-87102000D01*
X224536000Y-92674000D02*
X224536000Y-92964000D01*
X224262000Y-91400000D02*
X224262000Y-92400000D01*
X224262000Y-92400000D02*
X224536000Y-92674000D01*
X202652000Y-109728000D02*
X202652000Y-111760000D01*
X202652000Y-112228000D02*
X202692000Y-112268000D01*
X202692000Y-99568000D02*
X202692000Y-101092000D01*
X202692000Y-99568000D02*
X204216000Y-99568000D01*
X154740000Y-116132000D02*
X150495000Y-111887000D01*
X150495000Y-111887000D02*
X150495000Y-107823000D01*
X154740000Y-117856000D02*
X154740000Y-116132000D01*
X159438996Y-93217996D02*
X159766000Y-93217996D01*
X159044000Y-91948000D02*
X159044000Y-92823000D01*
X159044000Y-92823000D02*
X159438996Y-93217996D01*
X159004000Y-89662000D02*
X159004000Y-91908000D01*
X159004000Y-91908000D02*
X159044000Y-91948000D01*
X159004000Y-87376000D02*
X159004000Y-89662000D01*
X103632000Y-132080000D02*
X97917000Y-126365000D01*
X106172000Y-132080000D02*
X103632000Y-132080000D01*
X195326000Y-109220000D02*
X184658000Y-109220000D01*
X126398000Y-99060000D02*
X126398000Y-99960000D01*
X134937001Y-107299999D02*
X134937001Y-111696001D01*
X126398000Y-99960000D02*
X133308999Y-106870999D01*
X133308999Y-106870999D02*
X134508001Y-106870999D01*
X134508001Y-106870999D02*
X134937001Y-107299999D01*
X172466000Y-121412000D02*
X184658000Y-109220000D01*
X134937001Y-111696001D02*
X144653000Y-121412000D01*
X144653000Y-121412000D02*
X172466000Y-121412000D01*
X126492000Y-103124000D02*
X126492000Y-105435999D01*
X126492000Y-105435999D02*
X132938402Y-111882401D01*
X194855161Y-111281841D02*
X185010569Y-111281841D01*
X185010569Y-111281841D02*
X173092411Y-123199999D01*
X145804588Y-123199999D02*
X134486990Y-111882401D01*
X173092411Y-123199999D02*
X145804588Y-123199999D01*
X196401001Y-108703999D02*
X196401001Y-109736001D01*
X134486990Y-111882401D02*
X132938402Y-111882401D01*
X195842001Y-108144999D02*
X196401001Y-108703999D01*
X191329999Y-108144999D02*
X195842001Y-108144999D01*
X189865000Y-106680000D02*
X191329999Y-108144999D01*
X196401001Y-109736001D02*
X194855161Y-111281841D01*
X216026757Y-92837000D02*
X216451021Y-92837000D01*
X215902000Y-92837000D02*
X216026757Y-92837000D01*
X214630000Y-91565000D02*
X215902000Y-92837000D01*
X214630000Y-91440000D02*
X214630000Y-91565000D01*
X220091000Y-120142000D02*
X220091000Y-119884294D01*
X220091000Y-119884294D02*
X220914647Y-119060647D01*
X230251000Y-104096736D02*
X230251000Y-104521000D01*
X232247498Y-102100238D02*
X230251000Y-104096736D01*
X233277904Y-102100238D02*
X232247498Y-102100238D01*
X212471000Y-91420000D02*
X212471000Y-92328994D01*
X212471000Y-92328994D02*
X212344000Y-92455994D01*
X200903275Y-102362000D02*
X200903275Y-101356725D01*
X200903275Y-101356725D02*
X200914000Y-101346000D01*
X212471000Y-91420000D02*
X214610000Y-91420000D01*
X214610000Y-91420000D02*
X214630000Y-91440000D01*
X233339000Y-100076000D02*
X233339000Y-102108000D01*
X217591000Y-120142000D02*
X217551000Y-120182000D01*
X216408000Y-118618000D02*
X216408000Y-119039000D01*
X216408000Y-119039000D02*
X217551000Y-120182000D01*
X200903275Y-102362000D02*
X200903275Y-104422885D01*
X200903275Y-104422885D02*
X200883275Y-104442885D01*
X203276999Y-104470999D02*
X200911389Y-104470999D01*
X200911389Y-104470999D02*
X200883275Y-104442885D01*
X212003000Y-85066564D02*
X212003000Y-86193000D01*
X212003000Y-86193000D02*
X211836000Y-86360000D01*
X212003000Y-82550000D02*
X212003000Y-83425000D01*
X212003000Y-83425000D02*
X212003000Y-85066564D01*
X89213001Y-71314999D02*
X81325999Y-79202001D01*
X103886000Y-67818000D02*
X100389001Y-71314999D01*
X81325999Y-79202001D02*
X81026000Y-79502000D01*
X100389001Y-71314999D02*
X89213001Y-71314999D01*
X67292009Y-79138991D02*
X67564000Y-78867000D01*
X67292009Y-84201000D02*
X67292009Y-79138991D01*
X81325993Y-78059001D02*
X81025994Y-78359000D01*
X90042994Y-69342000D02*
X81325993Y-78059001D01*
X96393000Y-69342000D02*
X90042994Y-69342000D01*
X123490001Y-65033995D02*
X86604005Y-65033995D01*
X125847001Y-67390995D02*
X123490001Y-65033995D01*
X125847001Y-73579001D02*
X125847001Y-67390995D01*
X124242002Y-75184000D02*
X125847001Y-73579001D01*
X76327000Y-75311000D02*
X76327000Y-76283736D01*
X116713000Y-73152000D02*
X118745000Y-75184000D01*
X76327000Y-76283736D02*
X76327000Y-76708000D01*
X86604005Y-65033995D02*
X76327000Y-75311000D01*
X118745000Y-75184000D02*
X124242002Y-75184000D01*
X77026668Y-77144782D02*
X77326667Y-77444781D01*
X85904738Y-66567998D02*
X77026668Y-75446068D01*
X123846408Y-66567998D02*
X85904738Y-66567998D01*
X125222000Y-73279000D02*
X125222000Y-67943590D01*
X125222000Y-67943590D02*
X123846408Y-66567998D01*
X77026668Y-75446068D02*
X77026668Y-77144782D01*
X72898000Y-78486000D02*
X71969000Y-78486000D01*
X71969000Y-78486000D02*
X71755000Y-78700000D01*
X69342000Y-81280000D02*
X70993000Y-81280000D01*
X70993000Y-81280000D02*
X71120000Y-81407000D01*
X146558000Y-120777000D02*
X148463000Y-118872000D01*
X148463000Y-118872000D02*
X148463000Y-107786998D01*
X148463000Y-107786998D02*
X149813999Y-106435999D01*
X149813999Y-106435999D02*
X150885999Y-106435999D01*
X150885999Y-106435999D02*
X151973001Y-107523001D01*
X151973001Y-107523001D02*
X152273000Y-107823000D01*
X153543000Y-124841000D02*
X153797000Y-124841000D01*
X149860000Y-128524000D02*
X153543000Y-124841000D01*
X99949000Y-145077000D02*
X99949000Y-143129000D01*
X99949000Y-143129000D02*
X100076000Y-143002000D01*
X100457000Y-146685000D02*
X100457000Y-145585000D01*
X100457000Y-145585000D02*
X99949000Y-145077000D01*
X101981000Y-135128000D02*
X102489000Y-134620000D01*
X102489000Y-134620000D02*
X114808000Y-134620000D01*
X138811000Y-119717736D02*
X138811000Y-120142000D01*
X134409345Y-112688655D02*
X138811000Y-117090310D01*
X138811000Y-117090310D02*
X138811000Y-119717736D01*
X185547000Y-96817266D02*
X185547000Y-96393002D01*
X185547000Y-98679000D02*
X185547000Y-96817266D01*
X186055000Y-99187000D02*
X185547000Y-98679000D01*
X150340587Y-105273001D02*
X151139999Y-105273001D01*
X144907000Y-118872000D02*
X147955000Y-115824000D01*
X151139999Y-105273001D02*
X151846001Y-104566999D01*
X147955000Y-107658588D02*
X150340587Y-105273001D01*
X147955000Y-115824000D02*
X147955000Y-107658588D01*
X151846001Y-104566999D02*
X152146000Y-104267000D01*
X158693652Y-107442000D02*
X156741276Y-107442000D01*
X161036000Y-109784348D02*
X158693652Y-107442000D01*
X156741276Y-107442000D02*
X156317012Y-107442000D01*
X162441501Y-113546501D02*
X161036000Y-112141000D01*
X161036000Y-112141000D02*
X161036000Y-109784348D01*
X163068000Y-118193736D02*
X163068000Y-118618000D01*
X163068000Y-113247998D02*
X163068000Y-118193736D01*
X161486010Y-111666008D02*
X163068000Y-113247998D01*
X161486010Y-109221009D02*
X161486010Y-111666008D01*
X156591000Y-104325999D02*
X161486010Y-109221009D01*
X154940000Y-128524000D02*
X158632999Y-124831001D01*
X158632999Y-124831001D02*
X195335999Y-124831001D01*
X196677001Y-123489999D02*
X196977000Y-123190000D01*
X195335999Y-124831001D02*
X196677001Y-123489999D01*
X154813004Y-100076000D02*
X154813004Y-106263000D01*
X154813004Y-106263000D02*
X154813000Y-106263004D01*
X154813000Y-106680000D02*
X154766999Y-106726001D01*
X154813000Y-106263004D02*
X154813000Y-106680000D01*
X154766999Y-106726001D02*
X154766999Y-106816999D01*
X154432000Y-107151998D02*
X154432000Y-107950000D01*
X154766999Y-106816999D02*
X154432000Y-107151998D01*
X154432000Y-107950000D02*
X154379779Y-108002221D01*
X154379779Y-108002221D02*
X153929999Y-108002221D01*
X153929999Y-108002221D02*
X153864999Y-108067221D01*
X153864999Y-108067221D02*
X153864999Y-109837223D01*
X153864999Y-109837223D02*
X153670000Y-110032222D01*
X153670000Y-110490000D02*
X153747778Y-110490000D01*
X153670000Y-110032222D02*
X153670000Y-110490000D01*
X153864999Y-110607221D02*
X153864999Y-114620589D01*
X153747778Y-110490000D02*
X153864999Y-110607221D01*
X153864999Y-114620589D02*
X155956000Y-116711590D01*
X155956000Y-116711590D02*
X155956000Y-120362726D01*
X155956000Y-120362726D02*
X155956000Y-120786990D01*
X122636001Y-109291002D02*
X122936000Y-109591001D01*
X97164999Y-83820000D02*
X122636001Y-109291002D01*
X94615000Y-83820000D02*
X97164999Y-83820000D01*
X125669051Y-109832213D02*
X125669051Y-109407949D01*
X94615000Y-87630000D02*
X98171000Y-87630000D01*
X125285263Y-110216001D02*
X125669051Y-109832213D01*
X120757001Y-110216001D02*
X125285263Y-110216001D01*
X98171000Y-87630000D02*
X120757001Y-110216001D01*
X72136000Y-84074008D02*
X73068256Y-84074008D01*
X73068256Y-84074008D02*
X73068264Y-84074000D01*
X74211264Y-84074000D02*
X83439000Y-93301736D01*
X73068264Y-84074000D02*
X74211264Y-84074000D01*
X83439000Y-93301736D02*
X83439000Y-93980000D01*
X71247008Y-84963000D02*
X71836001Y-84374007D01*
X65278000Y-84963000D02*
X71247008Y-84963000D01*
X71836001Y-84374007D02*
X72136000Y-84074008D01*
X83439000Y-93980000D02*
X103259871Y-113800871D01*
X103259871Y-113800871D02*
X129548871Y-113800871D01*
X129548871Y-113800871D02*
X134080417Y-118332417D01*
X134080417Y-118332417D02*
X137371130Y-118332417D01*
X137371130Y-118332417D02*
X137671129Y-118632416D01*
X83439000Y-93980000D02*
X82169000Y-93980000D01*
X82169000Y-93980000D02*
X82169000Y-94742000D01*
X122980674Y-113157000D02*
X122573870Y-113157000D01*
X122573870Y-113157000D02*
X122555000Y-113175870D01*
X94615000Y-76200000D02*
X94615000Y-77306998D01*
X126355001Y-109782673D02*
X122980674Y-113157000D01*
X94615000Y-77306998D02*
X126355001Y-109046999D01*
X126355001Y-109046999D02*
X126355001Y-109782673D01*
X93218000Y-84014002D02*
X93218000Y-73787000D01*
X93218000Y-73787000D02*
X94615000Y-72390000D01*
X97730002Y-85344000D02*
X94547998Y-85344000D01*
X94547998Y-85344000D02*
X93218000Y-84014002D01*
X121031000Y-109347000D02*
X121031000Y-108644998D01*
X121031000Y-108644998D02*
X97730002Y-85344000D01*
X124714000Y-109591000D02*
X124196000Y-109591000D01*
X124196000Y-109591000D02*
X94615000Y-80010000D01*
X225597999Y-114853999D02*
X225298000Y-114554000D01*
X229443399Y-118699399D02*
X225597999Y-114853999D01*
X246715399Y-118699399D02*
X229443399Y-118699399D01*
X247904000Y-119888000D02*
X246715399Y-118699399D01*
X231521000Y-122428000D02*
X232709601Y-121239399D01*
X232709601Y-121239399D02*
X246715399Y-121239399D01*
X247040401Y-121564401D02*
X247904000Y-122428000D01*
X246715399Y-121239399D02*
X247040401Y-121564401D01*
X224282000Y-115105270D02*
X224282000Y-114681006D01*
X224282000Y-116076590D02*
X224282000Y-115105270D01*
X231984809Y-123779399D02*
X224282000Y-116076590D01*
X246715399Y-123779399D02*
X231984809Y-123779399D01*
X247904000Y-124968000D02*
X246715399Y-123779399D01*
X232791000Y-127381000D02*
X233852601Y-126319399D01*
X233852601Y-126319399D02*
X246715399Y-126319399D01*
X246715399Y-126319399D02*
X247040401Y-126644401D01*
X247040401Y-126644401D02*
X247904000Y-127508000D01*
X132969000Y-100965000D02*
X144101736Y-100965000D01*
X144101736Y-100965000D02*
X144526000Y-100965000D01*
X130048000Y-98044000D02*
X132969000Y-100965000D01*
X130048000Y-95504000D02*
X134366000Y-99822000D01*
X134366000Y-99822000D02*
X149225000Y-99822000D01*
X149225000Y-99822000D02*
X149860000Y-100457000D01*
X173278812Y-123650008D02*
X185196969Y-111731851D01*
X160252401Y-94293008D02*
X144339992Y-94293008D01*
X185196969Y-111731851D02*
X196246559Y-111731851D01*
X196246559Y-111731851D02*
X200475409Y-107503001D01*
X200475409Y-107503001D02*
X201924001Y-107503001D01*
X201924001Y-107503001D02*
X203902000Y-105525002D01*
X140538108Y-98772726D02*
X140538108Y-99196990D01*
X203902000Y-105525002D02*
X203902000Y-103408998D01*
X140538108Y-98094892D02*
X140538108Y-98772726D01*
X203902000Y-103408998D02*
X201214001Y-100720999D01*
X201214001Y-100720999D02*
X194827999Y-100720999D01*
X194827999Y-100720999D02*
X187833000Y-93726000D01*
X187833000Y-93726000D02*
X160819409Y-93726000D01*
X160819409Y-93726000D02*
X160252401Y-94293008D01*
X144339992Y-94293008D02*
X140538108Y-98094892D01*
X142285999Y-97363001D02*
X141986000Y-97663000D01*
X144980250Y-96902771D02*
X142746229Y-96902771D01*
X142746229Y-96902771D02*
X142285999Y-97363001D01*
X140589000Y-89328000D02*
X140589000Y-86487000D01*
X140589000Y-86487000D02*
X140462000Y-86360000D01*
X152908000Y-88091000D02*
X149813000Y-88091000D01*
X149813000Y-88091000D02*
X148082000Y-86360000D01*
X150622000Y-86360000D02*
X149433399Y-85171399D01*
X149433399Y-85171399D02*
X149433399Y-82990399D01*
X149433399Y-82990399D02*
X148115000Y-81672000D01*
X148115000Y-81672000D02*
X148115000Y-80772000D01*
X113792000Y-105326264D02*
X113792000Y-104902000D01*
X110536001Y-111115001D02*
X113792000Y-107859002D01*
X105908001Y-111115001D02*
X110536001Y-111115001D01*
X113792000Y-107859002D02*
X113792000Y-105326264D01*
X94361000Y-99568000D02*
X105908001Y-111115001D01*
X157234001Y-85946999D02*
X169037000Y-74144000D01*
X169037000Y-74144000D02*
X181540399Y-61640601D01*
X168148000Y-74676000D02*
X168505000Y-74676000D01*
X168505000Y-74676000D02*
X169037000Y-74144000D01*
X151257000Y-92075000D02*
X154272999Y-89059001D01*
X154272999Y-89059001D02*
X154272999Y-86557999D01*
X214946529Y-59263399D02*
X215727399Y-58482529D01*
X213187399Y-61022529D02*
X213187399Y-59881471D01*
X154272999Y-86557999D02*
X154883999Y-85946999D01*
X213187399Y-59881471D02*
X213805471Y-59263399D01*
X215727399Y-58482529D02*
X215727399Y-57341471D01*
X154883999Y-85946999D02*
X157234001Y-85946999D01*
X227174522Y-55614982D02*
X229164621Y-57605081D01*
X181540399Y-61640601D02*
X212569327Y-61640601D01*
X229164621Y-57605081D02*
X229164621Y-91090816D01*
X212569327Y-61640601D02*
X213187399Y-61022529D01*
X213805471Y-59263399D02*
X214946529Y-59263399D01*
X215727399Y-57341471D02*
X217453888Y-55614982D01*
X217453888Y-55614982D02*
X227174522Y-55614982D01*
X229164621Y-91090816D02*
X226641169Y-93614268D01*
X177591601Y-68407399D02*
X171831000Y-74168000D01*
X171831000Y-74168000D02*
X159573001Y-86425999D01*
X170688000Y-74676000D02*
X171323000Y-74676000D01*
X171323000Y-74676000D02*
X171831000Y-74168000D01*
X159291008Y-93668006D02*
X159252595Y-93668005D01*
X208324191Y-68407399D02*
X177591601Y-68407399D01*
X159454010Y-90997999D02*
X160054001Y-90997999D01*
X215727399Y-59881471D02*
X215727399Y-61004191D01*
X160079001Y-90547001D02*
X160014001Y-90612001D01*
X158033999Y-90997999D02*
X158553990Y-90997999D01*
X160014001Y-88326001D02*
X159454010Y-88326001D01*
X157968999Y-91062999D02*
X158033999Y-90997999D01*
X219543879Y-56064991D02*
X218267399Y-57341471D01*
X160014001Y-88711999D02*
X160079001Y-88776999D01*
X158553990Y-88326001D02*
X157993999Y-88326001D01*
X160391001Y-93517997D02*
X160066001Y-93842997D01*
X159573001Y-86425999D02*
X160014001Y-86425999D01*
X159454010Y-88326001D02*
X159454010Y-88711999D01*
X160014001Y-86425999D02*
X160079001Y-86490999D01*
X218267399Y-58482529D02*
X217486529Y-59263399D01*
X158593991Y-93009401D02*
X158593991Y-92898001D01*
X216345471Y-59263399D02*
X215727399Y-59881471D01*
X160119001Y-92645995D02*
X160391001Y-92917995D01*
X225858036Y-93450851D02*
X228714611Y-90594276D01*
X215727399Y-61004191D02*
X208324191Y-68407399D01*
X160079001Y-88261001D02*
X160014001Y-88326001D01*
X228714611Y-90594276D02*
X228714611Y-57791481D01*
X158033999Y-92898001D02*
X157968999Y-92833001D01*
X217486529Y-59263399D02*
X216345471Y-59263399D01*
X160119001Y-91062999D02*
X160119001Y-92645995D01*
X228714611Y-57791481D02*
X226988121Y-56064991D01*
X157968999Y-92833001D02*
X157968999Y-91062999D01*
X226988121Y-56064991D02*
X219543879Y-56064991D01*
X218267399Y-57341471D02*
X218267399Y-58482529D01*
X158553990Y-90997999D02*
X158553990Y-90612001D01*
X160079001Y-86490999D02*
X160079001Y-88261001D01*
X159454010Y-88711999D02*
X160014001Y-88711999D01*
X160079001Y-88776999D02*
X160079001Y-90547001D01*
X160014001Y-90612001D02*
X159454010Y-90612001D01*
X159252595Y-93668005D02*
X158593991Y-93009401D01*
X159465999Y-93842997D02*
X159291008Y-93668006D01*
X159454010Y-90612001D02*
X159454010Y-90997999D01*
X160054001Y-90997999D02*
X160119001Y-91062999D01*
X158553990Y-90612001D02*
X157993999Y-90612001D01*
X160391001Y-92917995D02*
X160391001Y-93517997D01*
X160066001Y-93842997D02*
X159465999Y-93842997D01*
X158553990Y-88711999D02*
X158553990Y-88326001D01*
X158593991Y-92898001D02*
X158033999Y-92898001D01*
X157993999Y-90612001D02*
X157928999Y-90547001D01*
X152908000Y-93091000D02*
X151130000Y-93091000D01*
X157928999Y-90547001D02*
X157928999Y-88776999D01*
X157928999Y-88776999D02*
X157993999Y-88711999D01*
X157993999Y-88711999D02*
X158553990Y-88711999D01*
X157993999Y-88326001D02*
X157928999Y-88261001D01*
X157928999Y-88070001D02*
X152908000Y-93091000D01*
X157928999Y-88261001D02*
X157928999Y-88070001D01*
X185143959Y-74716911D02*
X185633089Y-74716911D01*
X185633089Y-74716911D02*
X188295399Y-72054601D01*
X188295399Y-72054601D02*
X188295399Y-71565471D01*
X188295399Y-71565471D02*
X188913471Y-70947399D01*
X188913471Y-70947399D02*
X190835399Y-70947399D01*
X191160401Y-71272401D02*
X192024000Y-72136000D01*
X190835399Y-70947399D02*
X191160401Y-71272401D01*
X193699599Y-97442064D02*
X185143959Y-88886424D01*
X185143959Y-88886424D02*
X185143959Y-74716911D01*
X203106065Y-97442065D02*
X193699599Y-97442064D01*
X204216000Y-98552000D02*
X203106065Y-97442065D01*
X193886000Y-96992055D02*
X185593969Y-88700024D01*
X207600595Y-96992055D02*
X193886000Y-96992055D01*
X185593969Y-76026031D02*
X188620401Y-72999599D01*
X185593969Y-88700024D02*
X185593969Y-76026031D01*
X209169000Y-98560460D02*
X207600595Y-96992055D01*
X209169000Y-99949000D02*
X209169000Y-98560460D01*
X188620401Y-72999599D02*
X189484000Y-72136000D01*
X186043980Y-88513624D02*
X186043980Y-78116020D01*
X210058000Y-100330000D02*
X210058000Y-98813050D01*
X188620401Y-75539599D02*
X189484000Y-74676000D01*
X207786994Y-96542044D02*
X194072400Y-96542044D01*
X210058000Y-98813050D02*
X207786994Y-96542044D01*
X194072400Y-96542044D02*
X186043980Y-88513624D01*
X186043980Y-78116020D02*
X188620401Y-75539599D01*
X194258800Y-96092033D02*
X186493991Y-88327224D01*
X210693000Y-98811640D02*
X207973393Y-96092033D01*
X207973393Y-96092033D02*
X194258800Y-96092033D01*
X210693000Y-99695000D02*
X210693000Y-98811640D01*
X186493991Y-80206009D02*
X188620401Y-78079599D01*
X188620401Y-78079599D02*
X189484000Y-77216000D01*
X186493991Y-88327224D02*
X186493991Y-80206009D01*
X188620401Y-80619599D02*
X189484000Y-79756000D01*
X187395377Y-81844623D02*
X188620401Y-80619599D01*
X187395377Y-88592199D02*
X187395377Y-81844623D01*
X194445200Y-95642022D02*
X187395377Y-88592199D01*
X211482117Y-98964347D02*
X208159792Y-95642022D01*
X211482117Y-99563481D02*
X211482117Y-98964347D01*
X208159792Y-95642022D02*
X194445200Y-95642022D01*
X187845388Y-88405799D02*
X194631600Y-95192011D01*
X189484000Y-82296000D02*
X187845388Y-83934612D01*
X212282104Y-99144136D02*
X212282104Y-99568400D01*
X212282104Y-99127924D02*
X212282104Y-99144136D01*
X208346191Y-95192011D02*
X212282104Y-99127924D01*
X187845388Y-83934612D02*
X187845388Y-88405799D01*
X194631600Y-95192011D02*
X208346191Y-95192011D01*
X213033877Y-99417705D02*
X213033877Y-99841969D01*
X194818000Y-94742000D02*
X208532590Y-94742000D01*
X188295399Y-88219399D02*
X194818000Y-94742000D01*
X189484000Y-84836000D02*
X188295399Y-86024601D01*
X188295399Y-86024601D02*
X188295399Y-88219399D01*
X208532590Y-94742000D02*
X213033877Y-99243287D01*
X213033877Y-99243287D02*
X213033877Y-99417705D01*
X189484000Y-87376000D02*
X189484000Y-87884000D01*
X189484000Y-87884000D02*
X195834000Y-94234000D01*
X195834000Y-94234000D02*
X208661000Y-94234000D01*
X208661000Y-94234000D02*
X213741000Y-99314000D01*
X213741000Y-99314000D02*
X213793364Y-100093330D01*
X213741000Y-100076000D02*
X213776034Y-100076000D01*
X213776034Y-100076000D02*
X213793364Y-100093330D01*
X214122000Y-97790000D02*
X213822001Y-97490001D01*
X213658999Y-97490001D02*
X208683999Y-92515001D01*
X208683999Y-92515001D02*
X208283999Y-92515001D01*
X213822001Y-97490001D02*
X213658999Y-97490001D01*
X208283999Y-92515001D02*
X208218999Y-92450001D01*
X208218999Y-92450001D02*
X208218999Y-69149001D01*
X208218999Y-69149001D02*
X216052401Y-61315599D01*
X216052401Y-61315599D02*
X216916000Y-60452000D01*
X218313000Y-96520000D02*
X218313000Y-93091000D01*
X221656001Y-82067999D02*
X220807399Y-81219397D01*
X218313000Y-93091000D02*
X218481001Y-93091000D01*
X221488000Y-90043000D02*
X221656001Y-89874999D01*
X218481001Y-93091000D02*
X221488000Y-90084001D01*
X221656001Y-89874999D02*
X221656001Y-82067999D01*
X221488000Y-90084001D02*
X221488000Y-90043000D01*
X220807399Y-81219397D02*
X220807399Y-59100601D01*
X220807399Y-59100601D02*
X221996000Y-57912000D01*
X218885471Y-59263399D02*
X218267399Y-59881471D01*
X224536000Y-60452000D02*
X223347399Y-59263399D01*
X223347399Y-59263399D02*
X223347399Y-57504269D01*
X217847495Y-84504041D02*
X216077493Y-84504041D01*
X217917493Y-84574039D02*
X217847495Y-84504041D01*
X223347399Y-57504269D02*
X222358130Y-56515000D01*
X218267399Y-59881471D02*
X218267399Y-61022529D01*
X218267399Y-61022529D02*
X217917493Y-61372435D01*
X222358130Y-56515000D02*
X221633870Y-56515000D01*
X216244998Y-97536000D02*
X218567000Y-97536000D01*
X221633870Y-56515000D02*
X220807399Y-57341471D01*
X211585999Y-90344999D02*
X211520999Y-90409999D01*
X216077493Y-84504041D02*
X215580001Y-85001533D01*
X220807399Y-57341471D02*
X220807399Y-58464191D01*
X220807399Y-58464191D02*
X220008191Y-59263399D01*
X220008191Y-59263399D02*
X218885471Y-59263399D01*
X217917493Y-61372435D02*
X217917493Y-84574039D01*
X215580001Y-85001533D02*
X215580001Y-90259999D01*
X211520999Y-90409999D02*
X211520999Y-92812001D01*
X215580001Y-90259999D02*
X215495001Y-90344999D01*
X215495001Y-90344999D02*
X211585999Y-90344999D01*
X211520999Y-92812001D02*
X216244998Y-97536000D01*
X222106011Y-90567989D02*
X219329000Y-93345000D01*
X219329000Y-93345000D02*
X219329000Y-93589000D01*
X224536000Y-57912000D02*
X225724601Y-59100601D01*
X222106011Y-87138989D02*
X222106011Y-90567989D01*
X225724601Y-59100601D02*
X225724601Y-83520399D01*
X225724601Y-83520399D02*
X222106011Y-87138989D01*
X220345000Y-93599000D02*
X220345000Y-92965410D01*
X220345000Y-92965410D02*
X223311999Y-89998411D01*
X227076000Y-61673314D02*
X227076000Y-60452000D01*
X223311999Y-89998411D02*
X223311999Y-86569411D01*
X223311999Y-86569411D02*
X227447001Y-82434409D01*
X227447001Y-82434409D02*
X227447001Y-62044315D01*
X227447001Y-62044315D02*
X227076000Y-61673314D01*
X227076000Y-57912000D02*
X228264601Y-59100601D01*
X228264601Y-59100601D02*
X228264601Y-90160401D01*
X221524002Y-96901000D02*
X220853000Y-96901000D01*
X228264601Y-90160401D02*
X221524002Y-96901000D01*
X148345999Y-105655411D02*
X143936999Y-110064411D01*
X143936999Y-110064411D02*
X143936999Y-118064001D01*
X148345999Y-104093999D02*
X148345999Y-105655411D01*
X148670999Y-103768999D02*
X148345999Y-104093999D01*
X143936999Y-118064001D02*
X143555999Y-118445001D01*
X152048009Y-101391999D02*
X149671009Y-103768999D01*
X143555999Y-118445001D02*
X143256000Y-118745000D01*
X152227001Y-101391999D02*
X152048009Y-101391999D01*
X149671009Y-103768999D02*
X148670999Y-103768999D01*
X152527000Y-101092000D02*
X152227001Y-101391999D01*
X142621000Y-122809000D02*
X118999000Y-146431000D01*
X118999000Y-146431000D02*
X118999000Y-146558000D01*
X143510000Y-124206000D02*
X143510000Y-136779000D01*
X143510000Y-136779000D02*
X148971000Y-142240000D01*
X144272000Y-118581998D02*
X144272000Y-119888000D01*
X146177000Y-108460820D02*
X146177000Y-116676998D01*
X146177000Y-116676998D02*
X144272000Y-118581998D01*
X152146000Y-103251000D02*
X150574008Y-104822992D01*
X150574008Y-104822992D02*
X150178428Y-104822992D01*
X150178428Y-104822992D02*
X150157411Y-104844009D01*
X150157411Y-104844009D02*
X149793811Y-104844009D01*
X149793811Y-104844009D02*
X146177000Y-108460820D01*
X156856785Y-103533198D02*
X156526162Y-103533198D01*
X156526162Y-103533198D02*
X156226163Y-103233199D01*
X162635146Y-109311559D02*
X156856785Y-103533198D01*
X174879000Y-114427000D02*
X169763559Y-109311559D01*
X169763559Y-109311559D02*
X162635146Y-109311559D01*
X143129000Y-117050736D02*
X143129000Y-117475000D01*
X143129000Y-110236000D02*
X143129000Y-117050736D01*
X151877057Y-100854353D02*
X149412422Y-103318988D01*
X147895988Y-103907599D02*
X147895988Y-105469012D01*
X149412422Y-103318988D02*
X148484599Y-103318988D01*
X151577058Y-96199942D02*
X151877057Y-96499941D01*
X147895988Y-105469012D02*
X143129000Y-110236000D01*
X151877057Y-96499941D02*
X151877057Y-100854353D01*
X148484599Y-103318988D02*
X147895988Y-103907599D01*
X133350000Y-134874000D02*
X135255000Y-134874000D01*
X195453000Y-142239996D02*
X195453000Y-126236590D01*
X195453000Y-126236590D02*
X207851322Y-113838268D01*
X207851322Y-113838268D02*
X207851322Y-98726678D01*
X207851322Y-98726678D02*
X208151321Y-98426679D01*
X221996000Y-75692000D02*
X223901000Y-75692000D01*
X223901000Y-75692000D02*
X224028000Y-75819000D01*
X78141593Y-76532516D02*
X77841594Y-76832515D01*
X87481110Y-67192999D02*
X78141593Y-76532516D01*
X117729000Y-67192999D02*
X87481110Y-67192999D01*
X117729000Y-67192999D02*
X123834999Y-67192999D01*
X124079000Y-67437000D02*
X124079000Y-70612000D01*
X123834999Y-67192999D02*
X124079000Y-67437000D01*
X78150999Y-85897999D02*
X77851000Y-85598000D01*
X80391000Y-88138000D02*
X78150999Y-85897999D01*
X80391000Y-88392000D02*
X80391000Y-88138000D01*
X80391000Y-88519000D02*
X80391000Y-88392000D01*
X80391000Y-88392000D02*
X80391000Y-89154000D01*
X80391000Y-89154000D02*
X85471000Y-94234000D01*
X78321894Y-87298023D02*
X76871948Y-85848077D01*
X76871948Y-85848077D02*
X76871948Y-85800110D01*
X76871948Y-85800110D02*
X76871948Y-85375846D01*
X73532994Y-87122006D02*
X73532994Y-87249000D01*
X74930000Y-85725000D02*
X73532994Y-87122006D01*
X164972295Y-103504295D02*
X175468001Y-114000001D01*
X164972295Y-102863999D02*
X164972295Y-103504295D01*
X175468001Y-114000001D02*
X175768000Y-114300000D01*
X164972295Y-102743705D02*
X164972295Y-102863999D01*
X163953001Y-105723001D02*
X159682999Y-105723001D01*
X164539955Y-101506657D02*
X164018001Y-102028611D01*
X176525741Y-114014397D02*
X176525741Y-113492443D01*
X164018001Y-102028611D02*
X164018001Y-105658001D01*
X164018001Y-105658001D02*
X163953001Y-105723001D01*
X176525741Y-113492443D02*
X164539955Y-101506657D01*
X155874283Y-101914285D02*
X155874283Y-100943011D01*
X159682999Y-105723001D02*
X155874283Y-101914285D01*
X159385000Y-100838000D02*
X164891080Y-100838000D01*
X177172881Y-113119801D02*
X177172881Y-113544065D01*
X164891080Y-100838000D02*
X177172881Y-113119801D01*
X141605000Y-116586000D02*
X141605000Y-103322998D01*
X141605000Y-103322998D02*
X142878999Y-102048999D01*
X142878999Y-102048999D02*
X150046001Y-102048999D01*
X150046001Y-102048999D02*
X151257000Y-100838000D01*
X151257000Y-100838000D02*
X151257000Y-97409000D01*
X151257000Y-97409000D02*
X150114000Y-96266000D01*
X140323770Y-116066770D02*
X140722215Y-116465215D01*
X149479000Y-96774000D02*
X149479000Y-99150998D01*
X149479000Y-99150998D02*
X150485001Y-100156999D01*
X150485001Y-100156999D02*
X150485001Y-100757001D01*
X150485001Y-100757001D02*
X149643012Y-101598990D01*
X149643012Y-101598990D02*
X141521281Y-101598990D01*
X141521281Y-101598990D02*
X140323770Y-102796501D01*
X140323770Y-102796501D02*
X140323770Y-116066770D01*
X230931999Y-89996999D02*
X230632000Y-90296998D01*
X249509399Y-82631399D02*
X238297599Y-82631399D01*
X231122540Y-151765000D02*
X252725011Y-130162529D01*
X167697990Y-146937402D02*
X172525588Y-151765000D01*
X170768999Y-125866999D02*
X167697990Y-128938008D01*
X171694001Y-128406999D02*
X171694001Y-126191999D01*
X170815000Y-129286000D02*
X171694001Y-128406999D01*
X167697990Y-128938008D02*
X167697990Y-146937402D01*
X172525588Y-151765000D02*
X231122540Y-151765000D01*
X252725011Y-85847011D02*
X249509399Y-82631399D01*
X171369001Y-125866999D02*
X170768999Y-125866999D01*
X238297599Y-82631399D02*
X230931999Y-89996999D01*
X252725011Y-130162529D02*
X252725011Y-85847011D01*
X171694001Y-126191999D02*
X171369001Y-125866999D01*
X252275000Y-89479870D02*
X252275000Y-129976130D01*
X236936605Y-85171399D02*
X247966529Y-85171399D01*
X247966529Y-85171399D02*
X252275000Y-89479870D01*
X170769001Y-126791999D02*
X171069000Y-126492000D01*
X223393000Y-96901000D02*
X225207004Y-96901000D01*
X225207004Y-96901000D02*
X236936605Y-85171399D01*
X252275000Y-129976130D02*
X230936141Y-151314989D01*
X172711987Y-151314989D02*
X168148001Y-146751003D01*
X168148001Y-146751003D02*
X168148001Y-129412999D01*
X230936141Y-151314989D02*
X172711987Y-151314989D01*
X168148001Y-129412999D02*
X170769001Y-126791999D01*
X222758000Y-129667000D02*
X222758000Y-123988002D01*
X218612999Y-113329985D02*
X218313000Y-113029986D01*
X221624999Y-122855001D02*
X221624999Y-116341985D01*
X221624999Y-116341985D02*
X218612999Y-113329985D01*
X222758000Y-123988002D02*
X221624999Y-122855001D01*
X223981777Y-150689979D02*
X224406041Y-150689979D01*
X203823982Y-118502018D02*
X203823982Y-146422802D01*
X211328000Y-110998000D02*
X203823982Y-118502018D01*
X223806778Y-150864978D02*
X223981777Y-150689979D01*
X208266158Y-150864978D02*
X223806778Y-150864978D01*
X203823982Y-146422802D02*
X208266158Y-150864978D01*
X208277558Y-150239968D02*
X223095736Y-150239968D01*
X223095736Y-150239968D02*
X223520000Y-150239968D01*
X204273993Y-119454484D02*
X204273993Y-146236403D01*
X204273993Y-146236403D02*
X208277558Y-150239968D01*
X211930974Y-111797503D02*
X204273993Y-119454484D01*
X226822000Y-147574000D02*
X226822000Y-119253000D01*
X226822000Y-119253000D02*
X218821000Y-111252000D01*
X218821000Y-111252000D02*
X212852000Y-111252000D01*
X213487000Y-111887000D02*
X218567000Y-111887000D01*
X218567000Y-111887000D02*
X225933000Y-119253000D01*
X225933000Y-119253000D02*
X225933000Y-149860000D01*
X204724004Y-119852863D02*
X204724004Y-146050004D01*
X212054867Y-112522000D02*
X204724004Y-119852863D01*
X225206048Y-150263027D02*
X225206048Y-150687291D01*
X213995000Y-112522000D02*
X212054867Y-112522000D01*
X208288966Y-149614966D02*
X224557987Y-149614966D01*
X204724004Y-146050004D02*
X208288966Y-149614966D01*
X224557987Y-149614966D02*
X225206048Y-150263027D01*
X214332736Y-113284000D02*
X214757000Y-113284000D01*
X205495999Y-119717279D02*
X211929278Y-113284000D01*
X205495999Y-145843411D02*
X205495999Y-119717279D01*
X212087271Y-148762999D02*
X208415587Y-148762999D01*
X213233000Y-147617270D02*
X212087271Y-148762999D01*
X213233000Y-147193006D02*
X213233000Y-147617270D01*
X208415587Y-148762999D02*
X205495999Y-145843411D01*
X211929278Y-113284000D02*
X214332736Y-113284000D01*
X206638999Y-125395001D02*
X206638999Y-119210690D01*
X215221736Y-113919000D02*
X215646000Y-113919000D01*
X211930689Y-113919000D02*
X215221736Y-113919000D01*
X211790683Y-148254999D02*
X208543997Y-148254999D01*
X212433001Y-147612681D02*
X211790683Y-148254999D01*
X206638999Y-119210690D02*
X211930689Y-113919000D01*
X212433001Y-147188417D02*
X212433001Y-147612681D01*
X208543997Y-148254999D02*
X206963999Y-146675001D01*
X206963999Y-146675001D02*
X206963999Y-125720001D01*
X206963999Y-125720001D02*
X206638999Y-125395001D01*
X211805100Y-114681000D02*
X215729736Y-114681000D01*
X208035998Y-118450102D02*
X211805100Y-114681000D01*
X208035998Y-146103262D02*
X208035998Y-118450102D01*
X209679735Y-147746999D02*
X208035998Y-146103262D01*
X211056007Y-147746999D02*
X209679735Y-147746999D01*
X211546513Y-147256493D02*
X211056007Y-147746999D01*
X215729736Y-114681000D02*
X216154000Y-114681000D01*
X217800559Y-117597559D02*
X218877576Y-118674576D01*
X220319472Y-127170012D02*
X216162650Y-127170012D01*
X220647578Y-124691904D02*
X220712578Y-124756904D01*
X220712578Y-124756904D02*
X220712578Y-126776906D01*
X220712578Y-126776906D02*
X220319472Y-127170012D01*
X218877576Y-118674576D02*
X218877576Y-124691904D01*
X218877576Y-124691904D02*
X220647578Y-124691904D01*
X216162650Y-127170012D02*
X210772625Y-132560037D01*
X210772625Y-132560037D02*
X210772625Y-147053721D01*
X210810002Y-123871002D02*
X209931000Y-124750004D01*
X209931000Y-146641736D02*
X209931000Y-147066000D01*
X217006998Y-114808000D02*
X210810002Y-121004996D01*
X210810002Y-121004996D02*
X210810002Y-123871002D01*
X218313000Y-114808000D02*
X217006998Y-114808000D01*
X209931000Y-124750004D02*
X209931000Y-146641736D01*
X241611322Y-113411000D02*
X230185001Y-113411000D01*
X230185001Y-113411000D02*
X230068001Y-113528000D01*
X243305768Y-115105446D02*
X241611322Y-113411000D01*
X225298000Y-112776000D02*
X225089999Y-112984001D01*
X241935000Y-112776000D02*
X225298000Y-112776000D01*
X225089999Y-112984001D02*
X224790000Y-113284000D01*
X241409961Y-111873286D02*
X241109962Y-112173285D01*
X241109962Y-112173285D02*
X225493289Y-112173285D01*
X222557262Y-112150998D02*
X222293264Y-111887000D01*
X225493289Y-112173285D02*
X225471002Y-112150998D01*
X222293264Y-111887000D02*
X221869000Y-111887000D01*
X225471002Y-112150998D02*
X222557262Y-112150998D01*
X223102984Y-111700987D02*
X240515441Y-111700987D01*
X222752998Y-111351001D02*
X223102984Y-111700987D01*
X240515441Y-111700987D02*
X240688200Y-111528228D01*
X223692999Y-111170978D02*
X223393000Y-110870979D01*
X240110543Y-110974771D02*
X239834338Y-111250976D01*
X223772997Y-111250976D02*
X223692999Y-111170978D01*
X239834338Y-111250976D02*
X223772997Y-111250976D01*
X238970736Y-110617000D02*
X238797737Y-110789999D01*
X238797737Y-110789999D02*
X224826009Y-110789999D01*
X239395000Y-110617000D02*
X238970736Y-110617000D01*
X224581999Y-110545989D02*
X224282000Y-110245990D01*
X224826009Y-110789999D02*
X224581999Y-110545989D01*
X238633000Y-109982000D02*
X238333001Y-110281999D01*
X238333001Y-110281999D02*
X225597999Y-110281999D01*
X225597999Y-110281999D02*
X225044000Y-109728000D01*
X237998000Y-109474000D02*
X226442032Y-109474000D01*
X226442032Y-109474000D02*
X226314000Y-109345968D01*
X215519000Y-136271000D02*
X215519000Y-138732003D01*
X215519000Y-138732003D02*
X215646000Y-138859003D01*
X216408000Y-138696001D02*
X216408000Y-136144000D01*
X216408000Y-139436000D02*
X216408000Y-138696001D01*
X217192466Y-136300893D02*
X217192466Y-140058534D01*
X217192466Y-140058534D02*
X217189999Y-140061001D01*
X219583000Y-140686001D02*
X219583000Y-136271000D01*
X220345000Y-141311001D02*
X220345000Y-136309003D01*
X220345000Y-136309003D02*
X220383003Y-136271000D01*
X221286764Y-141936001D02*
X221286764Y-136374758D01*
X221286764Y-136374758D02*
X221183006Y-136271000D01*
X221996000Y-136271000D02*
X221996000Y-142560990D01*
X121920000Y-99060000D02*
X123698000Y-99060000D01*
D31*
G36*
X97409000Y-137668000D02*
X97419006Y-137717410D01*
X97447447Y-137759035D01*
X97489841Y-137786315D01*
X97536000Y-137795000D01*
X104648000Y-137795000D01*
X104697410Y-137784994D01*
X104739035Y-137756553D01*
X104766315Y-137714159D01*
X104775000Y-137668000D01*
X104775000Y-135763000D01*
X110109000Y-135763000D01*
X110109000Y-141605000D01*
X104775000Y-141605000D01*
X104775000Y-140716000D01*
X104764994Y-140666590D01*
X104736553Y-140624965D01*
X104694159Y-140597685D01*
X104648000Y-140589000D01*
X97536000Y-140589000D01*
X97486590Y-140599006D01*
X97444965Y-140627447D01*
X97417685Y-140669841D01*
X97409000Y-140716000D01*
X97409000Y-142113000D01*
X93091000Y-142113000D01*
X93091000Y-135255000D01*
X97409000Y-135255000D01*
X97409000Y-137668000D01*
X97409000Y-137668000D01*
G37*
X97409000Y-137668000D02*
X97419006Y-137717410D01*
X97447447Y-137759035D01*
X97489841Y-137786315D01*
X97536000Y-137795000D01*
X104648000Y-137795000D01*
X104697410Y-137784994D01*
X104739035Y-137756553D01*
X104766315Y-137714159D01*
X104775000Y-137668000D01*
X104775000Y-135763000D01*
X110109000Y-135763000D01*
X110109000Y-141605000D01*
X104775000Y-141605000D01*
X104775000Y-140716000D01*
X104764994Y-140666590D01*
X104736553Y-140624965D01*
X104694159Y-140597685D01*
X104648000Y-140589000D01*
X97536000Y-140589000D01*
X97486590Y-140599006D01*
X97444965Y-140627447D01*
X97417685Y-140669841D01*
X97409000Y-140716000D01*
X97409000Y-142113000D01*
X93091000Y-142113000D01*
X93091000Y-135255000D01*
X97409000Y-135255000D01*
X97409000Y-137668000D01*
M02*
