M48
;DRILL file {KiCad 4.0.7-e2-6376~58~ubuntu16.04.1} date Thu Apr  4 23:28:53 2019
;FORMAT={-:-/ absolute / metric / decimal}
FMAT,2
METRIC,TZ
T1C0.400
T2C0.500
T3C0.800
T4C0.810
T5C1.000
T6C1.016
T7C1.500
T8C1.800
T9C2.300
%
G90
G05
M71
T1
X53.467Y-91.567
X57.972Y-83.252
X58.547Y-88.011
X61.595Y-83.439
X62.738Y-89.027
X65.278Y-83.439
X65.278Y-84.963
X66.548Y-111.887
X67.056Y-116.205
X67.292Y-84.201
X67.564Y-78.867
X69.215Y-90.17
X70.485Y-100.965
X70.612Y-76.708
X70.739Y-132.969
X71.12Y-81.407
X72.009Y-81.026
X72.009Y-102.489
X72.136Y-84.074
X72.898Y-78.486
X73.533Y-87.249
X74.422Y-104.902
X74.93Y-85.725
X76.112Y-80.263
X76.112Y-81.987
X76.327Y-76.708
X76.872Y-85.376
X77.327Y-77.445
X77.837Y-80.263
X77.837Y-81.987
X77.842Y-76.833
X77.851Y-85.598
X78.322Y-87.298
X78.74Y-85.471
X79.375Y-84.455
X79.883Y-77.724
X80.264Y-116.078
X80.264Y-118.999
X80.518Y-81.5
X81.026Y-78.359
X81.026Y-79.502
X81.407Y-76.073
X81.407Y-123.063
X81.915Y-88.422
X83.693Y-102.362
X84.963Y-101.864
X85.471Y-94.234
X86.36Y-101.864
X86.487Y-146.558
X93.472Y-136.144
X93.472Y-137.668
X93.472Y-138.684
X93.472Y-139.7
X93.472Y-141.224
X93.599Y-116.078
X94.361Y-99.568
X94.488Y-136.144
X94.488Y-137.668
X94.488Y-138.684
X94.488Y-139.7
X94.488Y-141.224
X94.996Y-124.968
X95.123Y-129.667
X95.504Y-136.144
X95.504Y-137.668
X95.504Y-138.684
X95.504Y-139.7
X95.504Y-141.224
X96.393Y-69.342
X96.52Y-136.144
X96.52Y-137.668
X96.52Y-139.7
X96.52Y-141.224
X97.536Y-138.525
X97.536Y-139.7
X97.663Y-146.399
X97.917Y-126.365
X99.061Y-89.404
X100.076Y-143.002
X101.854Y-142.875
X101.981Y-135.128
X102.108Y-92.837
X102.87Y-72.39
X102.87Y-76.2
X102.87Y-95.885
X102.87Y-100.584
X103.251Y-98.552
X103.886Y-67.818
X104.013Y-129.54
X104.394Y-116.84
X105.029Y-107.188
X105.41Y-128.27
X105.664Y-136.652
X105.664Y-138.176
X105.664Y-139.7
X105.664Y-141.224
X106.172Y-132.08
X106.68Y-136.652
X106.68Y-138.176
X106.68Y-139.7
X106.68Y-141.224
X107.315Y-132.08
X107.696Y-136.652
X107.696Y-138.176
X107.696Y-139.7
X107.696Y-141.224
X107.95Y-127.
X107.95Y-128.27
X108.05Y-96.547
X108.077Y-148.67
X108.712Y-136.652
X108.712Y-138.176
X108.712Y-139.7
X108.712Y-141.224
X109.22Y-127.
X109.22Y-128.27
X109.728Y-136.652
X109.728Y-138.176
X109.728Y-139.7
X109.728Y-141.224
X110.236Y-110.49
X110.49Y-127.
X110.49Y-128.27
X110.49Y-129.54
X111.059Y-99.634
X111.76Y-127.
X111.76Y-128.27
X111.76Y-129.54
X113.157Y-128.27
X113.792Y-104.902
X113.988Y-126.423
X114.046Y-128.27
X114.046Y-129.54
X116.713Y-73.152
X117.729Y-67.193
X118.364Y-99.695
X118.999Y-146.558
X121.031Y-109.347
X121.92Y-99.06
X122.555Y-113.176
X122.936Y-109.591
X123.19Y-65.659
X123.19Y-147.701
X124.079Y-70.612
X124.714Y-109.591
X125.222Y-73.279
X125.669Y-109.408
X125.73Y-65.659
X126.492Y-103.124
X127.762Y-89.349
X129.921Y-130.048
X131.953Y-112.776
X133.096Y-103.124
X133.35Y-134.874
X134.409Y-112.689
X135.255Y-134.874
X137.671Y-118.632
X138.811Y-120.142
X139.954Y-137.033
X140.538Y-99.197
X140.722Y-116.465
X140.949Y-103.097
X141.478Y-92.964
X141.605Y-116.586
X141.986Y-97.663
X142.494Y-104.648
X142.621Y-122.809
X143.129Y-117.475
X143.256Y-118.745
X143.51Y-124.206
X144.272Y-119.888
X144.526Y-100.965
X144.907Y-118.872
X144.98Y-96.903
X145.034Y-105.029
X145.23Y-103.642
X146.558Y-120.777
X146.878Y-105.603
X147.32Y-91.059
X147.447Y-103.251
X148.394Y-122.428
X148.717Y-95.885
X148.971Y-104.394
X148.971Y-142.24
X149.479Y-96.774
X149.82Y-91.059
X149.86Y-100.457
X150.114Y-96.266
X150.114Y-107.061
X150.495Y-107.823
X151.13Y-93.091
X151.13Y-103.235
X151.257Y-92.075
X151.577Y-96.2
X152.146Y-103.251
X152.146Y-104.267
X152.273Y-107.823
X152.527Y-101.092
X153.616Y-107.452
X153.797Y-124.841
X153.924Y-147.955
X154.559Y-68.453
X154.813Y-100.076
X155.067Y-107.442
X155.874Y-100.943
X155.956Y-120.787
X156.21Y-96.774
X156.226Y-103.233
X156.317Y-107.442
X156.591Y-104.326
X156.845Y-84.074
X157.353Y-73.279
X158.333Y-122.301
X158.623Y-100.045
X159.258Y-96.139
X159.385Y-100.838
X159.766Y-93.218
X161.798Y-96.012
X161.798Y-102.87
X161.798Y-104.326
X161.925Y-98.552
X162.442Y-113.547
X162.814Y-91.567
X163.068Y-87.376
X163.068Y-118.618
X163.957Y-115.316
X164.972Y-102.864
X165.862Y-128.364
X165.862Y-146.431
X165.989Y-131.064
X167.021Y-90.17
X169.418Y-115.316
X169.799Y-118.11
X170.815Y-129.286
X171.069Y-126.492
X171.45Y-105.537
X171.704Y-130.556
X171.958Y-82.169
X172.482Y-117.277
X174.625Y-120.396
X174.879Y-114.427
X175.768Y-114.3
X176.149Y-145.923
X176.526Y-114.014
X177.173Y-113.544
X178.435Y-128.651
X178.816Y-133.223
X181.102Y-141.605
X182.245Y-127.889
X182.499Y-131.064
X185.293Y-113.792
X185.547Y-96.393
X186.055Y-99.187
X189.865Y-115.316
X189.992Y-132.461
X191.008Y-102.489
X192.151Y-131.191
X193.04Y-100.076
X193.421Y-105.41
X193.548Y-150.69
X195.453Y-142.24
X195.8Y-119.507
X195.834Y-117.983
X196.088Y-105.156
X196.977Y-123.19
X197.104Y-102.489
X198.465Y-111.156
X200.192Y-98.084
X200.914Y-101.346
X202.565Y-105.156
X202.692Y-101.092
X202.819Y-88.646
X203.277Y-104.471
X203.327Y-113.157
X204.216Y-98.552
X204.216Y-99.568
X204.216Y-110.071
X204.343Y-113.157
X204.597Y-101.854
X204.851Y-102.997
X205.359Y-88.519
X206.121Y-126.545
X206.248Y-130.302
X207.264Y-125.095
X208.151Y-98.427
X208.407Y-93.472
X208.661Y-108.458
X208.788Y-112.522
X209.169Y-99.949
X209.68Y-117.732
X209.921Y-121.539
X209.931Y-147.066
X210.058Y-100.33
X210.058Y-118.618
X210.644Y-92.938
X210.693Y-99.695
X210.773Y-147.054
X210.947Y-88.9
X211.328Y-110.998
X211.482Y-99.563
X211.547Y-147.256
X211.836Y-86.36
X211.931Y-111.798
X212.282Y-99.568
X212.344Y-92.456
X212.433Y-147.188
X212.598Y-87.503
X212.852Y-111.252
X212.979Y-107.188
X213.034Y-99.842
X213.233Y-147.193
X213.487Y-111.887
X213.793Y-100.093
X213.868Y-96.774
X213.995Y-112.522
X214.122Y-97.79
X214.249Y-85.979
X214.63Y-87.503
X214.757Y-81.026
X214.757Y-113.284
X214.884Y-117.856
X215.265Y-123.825
X215.519Y-136.271
X215.646Y-113.919
X215.646Y-126.545
X215.646Y-138.859
X215.9Y-129.159
X216.154Y-114.681
X216.376Y-96.742
X216.408Y-118.618
X216.408Y-136.144
X216.408Y-139.436
X216.451Y-92.837
X216.916Y-86.614
X217.001Y-117.856
X217.19Y-140.061
X217.192Y-136.301
X217.292Y-80.518
X217.297Y-114.173
X217.419Y-87.541
X217.678Y-92.329
X217.678Y-123.952
X217.801Y-117.598
X217.932Y-147.193
X218.059Y-135.89
X218.313Y-96.52
X218.313Y-113.03
X218.313Y-114.808
X218.432Y-142.782
X218.44Y-126.545
X218.567Y-97.536
X218.821Y-134.747
X218.821Y-147.32
X219.329Y-93.589
X219.583Y-78.994
X219.583Y-136.271
X219.583Y-140.686
X219.837Y-96.647
X220.091Y-123.952
X220.345Y-93.599
X220.345Y-141.311
X220.383Y-136.271
X220.853Y-96.901
X220.853Y-127.889
X220.915Y-119.061
X220.98Y-87.376
X221.183Y-136.271
X221.287Y-141.936
X221.742Y-126.545
X221.869Y-111.887
X221.996Y-75.692
X221.996Y-136.271
X221.996Y-142.561
X222.25Y-122.555
X222.753Y-111.351
X222.758Y-129.667
X223.393Y-96.901
X223.393Y-110.871
X223.452Y-117.983
X223.52Y-150.24
X223.774Y-112.903
X224.028Y-75.819
X224.282Y-110.246
X224.282Y-114.681
X224.406Y-150.69
X224.536Y-92.964
X224.79Y-96.266
X224.79Y-113.284
X224.79Y-126.545
X225.044Y-109.728
X225.206Y-150.687
X225.298Y-114.554
X225.552Y-88.9
X225.858Y-93.451
X225.933Y-113.792
X225.933Y-149.86
X226.314Y-109.346
X226.441Y-97.028
X226.441Y-103.886
X226.568Y-100.965
X226.641Y-93.614
X226.822Y-77.216
X226.822Y-147.574
X229.616Y-101.219
X230.068Y-113.528
X230.124Y-106.289
X230.124Y-108.204
X230.251Y-104.521
X230.632Y-90.297
X231.521Y-122.428
X232.029Y-73.152
X232.791Y-103.378
X232.791Y-104.394
X232.791Y-127.381
X234.188Y-95.25
X235.712Y-104.648
X235.712Y-108.204
X235.976Y-107.061
X237.109Y-99.949
X237.363Y-67.818
X237.998Y-109.474
X238.633Y-109.982
X239.395Y-110.617
X240.111Y-110.975
X240.688Y-111.528
X241.3Y-108.204
X241.41Y-111.873
X241.935Y-112.776
X243.306Y-115.105
X243.586Y-69.977
X244.094Y-105.664
T2
X134.112Y-107.696
X134.112Y-109.196
T3
X72.39Y-95.25
X82.169Y-94.742
X94.361Y-97.663
X94.615Y-72.39
X94.615Y-76.2
X94.615Y-80.01
X94.615Y-83.82
X94.615Y-87.63
X94.615Y-93.726
X100.552Y-139.7
X101.727Y-138.525
X113.357Y-92.202
X118.237Y-92.202
X149.86Y-117.856
X154.74Y-117.856
X189.865Y-106.68
X192.405Y-115.189
X195.326Y-109.22
T4
X136.652Y-142.272
X136.652Y-144.272
X139.192Y-142.272
X139.192Y-144.272
X163.418Y-142.112
X163.418Y-144.112
X165.958Y-142.112
X165.958Y-144.112
T5
X54.61Y-106.045
X54.61Y-108.585
X100.457Y-146.685
X114.808Y-134.62
X130.048Y-92.964
X130.048Y-95.504
X130.048Y-98.044
X130.048Y-100.584
X139.7Y-59.436
X139.7Y-61.976
X142.24Y-128.524
X144.78Y-128.524
X147.32Y-128.524
X149.86Y-128.524
X152.4Y-128.524
X154.94Y-128.524
X157.48Y-128.524
X165.608Y-74.676
X166.116Y-94.996
X166.116Y-97.536
X166.116Y-100.076
X168.148Y-74.676
X170.688Y-74.676
X175.26Y-94.996
X175.26Y-97.536
X175.26Y-100.076
T6
X127.762Y-83.82
X127.762Y-86.36
X130.302Y-83.82
X130.302Y-86.36
X132.842Y-83.82
X132.842Y-86.36
X135.382Y-83.82
X135.382Y-86.36
X137.922Y-83.82
X137.922Y-86.36
X140.462Y-83.82
X140.462Y-86.36
X143.002Y-83.82
X143.002Y-86.36
X145.542Y-83.82
X145.542Y-86.36
X148.082Y-83.82
X148.082Y-86.36
X150.622Y-83.82
X150.622Y-86.36
X189.484Y-69.596
X189.484Y-72.136
X189.484Y-74.676
X189.484Y-77.216
X189.484Y-79.756
X189.484Y-82.296
X189.484Y-84.836
X189.484Y-87.376
X192.024Y-69.596
X192.024Y-72.136
X192.024Y-74.676
X192.024Y-77.216
X192.024Y-79.756
X192.024Y-82.296
X192.024Y-84.836
X192.024Y-87.376
X204.216Y-57.912
X204.216Y-60.452
X206.756Y-57.912
X206.756Y-60.452
X209.296Y-57.912
X209.296Y-60.452
X211.836Y-57.912
X211.836Y-60.452
X214.376Y-57.912
X214.376Y-60.452
X216.916Y-57.912
X216.916Y-60.452
X219.456Y-57.912
X219.456Y-60.452
X221.996Y-57.912
X221.996Y-60.452
X224.536Y-57.912
X224.536Y-60.452
X227.076Y-57.912
X227.076Y-60.452
X244.856Y-78.74
X244.856Y-81.28
X244.856Y-83.82
X244.856Y-86.36
X244.856Y-88.9
X244.856Y-91.44
X244.856Y-93.98
X244.856Y-96.52
X245.364Y-117.348
X245.364Y-119.888
X245.364Y-122.428
X245.364Y-124.968
X245.364Y-127.508
X245.364Y-130.048
X245.364Y-132.588
X247.396Y-78.74
X247.396Y-81.28
X247.396Y-83.82
X247.396Y-86.36
X247.396Y-88.9
X247.396Y-91.44
X247.396Y-93.98
X247.396Y-96.52
X247.904Y-117.348
X247.904Y-119.888
X247.904Y-122.428
X247.904Y-124.968
X247.904Y-127.508
X247.904Y-130.048
X247.904Y-132.588
T7
X73.74Y-58.975
X78.74Y-53.975
X83.74Y-58.975
X96.6Y-58.975
X101.6Y-53.975
X106.6Y-58.975
X119.38Y-59.055
X124.38Y-54.055
X129.38Y-59.055
X149.94Y-58.975
X154.94Y-53.975
X159.94Y-58.975
X172.8Y-58.975
X177.8Y-53.975
X182.8Y-58.975
T8
X57.404Y-119.38
X57.404Y-124.46
X57.404Y-129.54
X57.404Y-134.62
T9
X131.922Y-146.972
X143.922Y-146.972
X158.688Y-146.812
X170.688Y-146.812
T5
X68.215Y-143.225G85X70.215Y-143.225
G05
X68.215Y-149.225G85X70.215Y-149.225
G05
X73.915Y-147.225G85X73.915Y-145.225
G05
T0
M30
